%TF.GenerationSoftware,KiCad,Pcbnew,9.0.5*%
%TF.CreationDate,2025-10-22T12:52:36+02:00*%
%TF.ProjectId,tut_1,7475745f-312e-46b6-9963-61645f706362,rev?*%
%TF.SameCoordinates,Original*%
%TF.FileFunction,Copper,L2,Bot*%
%TF.FilePolarity,Positive*%
%FSLAX46Y46*%
G04 Gerber Fmt 4.6, Leading zero omitted, Abs format (unit mm)*
G04 Created by KiCad (PCBNEW 9.0.5) date 2025-10-22 12:52:36*
%MOMM*%
%LPD*%
G01*
G04 APERTURE LIST*
%TA.AperFunction,ComponentPad*%
%ADD10C,5.000000*%
%TD*%
%TA.AperFunction,ComponentPad*%
%ADD11R,1.700000X1.700000*%
%TD*%
%TA.AperFunction,ComponentPad*%
%ADD12C,1.700000*%
%TD*%
%TA.AperFunction,ViaPad*%
%ADD13C,0.600000*%
%TD*%
%TA.AperFunction,Conductor*%
%ADD14C,0.200000*%
%TD*%
G04 APERTURE END LIST*
D10*
%TO.P,H4,1,1*%
%TO.N,GND*%
X132000000Y-99400000D03*
%TD*%
%TO.P,H3,1,1*%
%TO.N,GND*%
X145400000Y-99400000D03*
%TD*%
%TO.P,H2,1,1*%
%TO.N,GND*%
X145400000Y-77000000D03*
%TD*%
%TO.P,H1,1,1*%
%TO.N,GND*%
X132000000Y-77000000D03*
%TD*%
D11*
%TO.P,J1,1,Pin_1*%
%TO.N,GND*%
X131000000Y-92040000D03*
D12*
%TO.P,J1,2,Pin_2*%
%TO.N,VCC*%
X131000000Y-89500000D03*
%TD*%
D13*
%TO.N,Net-(U1-CV)*%
X141545520Y-89654480D03*
%TO.N,TRG*%
X140000000Y-88000000D03*
%TO.N,Net-(U1-CV)*%
X139600000Y-91600000D03*
%TO.N,TRG*%
X136775000Y-91225000D03*
%TD*%
D14*
%TO.N,Net-(U1-CV)*%
X139600000Y-91600000D02*
X141600000Y-89600000D01*
%TO.N,TRG*%
X136775000Y-91225000D02*
X140000000Y-88000000D01*
%TD*%
%TA.AperFunction,Conductor*%
%TO.N,GND*%
G36*
X145356394Y-74300111D02*
G01*
X145356426Y-74300116D01*
X145356455Y-74300112D01*
X145356920Y-74300116D01*
X145372667Y-74300266D01*
X145373071Y-74300500D01*
X145397075Y-74300500D01*
X145397703Y-74300506D01*
X145403472Y-74300695D01*
X145695306Y-74317084D01*
X145709103Y-74318638D01*
X145993827Y-74367015D01*
X146007384Y-74370109D01*
X146284899Y-74450060D01*
X146298025Y-74454653D01*
X146564841Y-74565172D01*
X146577355Y-74571198D01*
X146777541Y-74681836D01*
X146830125Y-74710899D01*
X146841899Y-74718297D01*
X147077430Y-74885415D01*
X147088302Y-74894085D01*
X147208224Y-75001254D01*
X147303642Y-75086524D01*
X147313475Y-75096357D01*
X147505914Y-75311697D01*
X147514584Y-75322569D01*
X147681702Y-75558100D01*
X147689100Y-75569874D01*
X147828797Y-75822637D01*
X147834830Y-75835165D01*
X147945346Y-76101975D01*
X147949939Y-76115100D01*
X148029890Y-76392615D01*
X148032984Y-76406172D01*
X148081359Y-76690885D01*
X148082916Y-76704703D01*
X148099305Y-76996527D01*
X148099500Y-77003480D01*
X148099500Y-99396519D01*
X148099305Y-99403472D01*
X148082916Y-99695296D01*
X148081359Y-99709114D01*
X148032984Y-99993827D01*
X148029890Y-100007384D01*
X147949939Y-100284899D01*
X147945346Y-100298024D01*
X147834830Y-100564834D01*
X147828797Y-100577362D01*
X147689100Y-100830125D01*
X147681702Y-100841899D01*
X147514584Y-101077430D01*
X147505914Y-101088302D01*
X147313475Y-101303642D01*
X147303642Y-101313475D01*
X147088302Y-101505914D01*
X147077430Y-101514584D01*
X146841899Y-101681702D01*
X146830125Y-101689100D01*
X146577362Y-101828797D01*
X146564834Y-101834830D01*
X146298024Y-101945346D01*
X146284899Y-101949939D01*
X146007384Y-102029890D01*
X145993827Y-102032984D01*
X145709114Y-102081359D01*
X145695296Y-102082916D01*
X145403472Y-102099305D01*
X145396519Y-102099500D01*
X132003481Y-102099500D01*
X131996528Y-102099305D01*
X131704703Y-102082916D01*
X131690885Y-102081359D01*
X131406172Y-102032984D01*
X131392615Y-102029890D01*
X131115100Y-101949939D01*
X131101975Y-101945346D01*
X130835165Y-101834830D01*
X130822637Y-101828797D01*
X130569874Y-101689100D01*
X130558100Y-101681702D01*
X130322569Y-101514584D01*
X130311697Y-101505914D01*
X130096357Y-101313475D01*
X130086524Y-101303642D01*
X129894085Y-101088302D01*
X129885415Y-101077430D01*
X129718297Y-100841899D01*
X129710899Y-100830125D01*
X129571202Y-100577362D01*
X129565172Y-100564841D01*
X129454653Y-100298024D01*
X129450060Y-100284899D01*
X129370109Y-100007384D01*
X129367015Y-99993827D01*
X129348799Y-99886617D01*
X129318639Y-99709105D01*
X129317084Y-99695304D01*
X129300695Y-99403472D01*
X129300502Y-99397245D01*
X129300500Y-99396900D01*
X129300500Y-99373071D01*
X129300360Y-99372830D01*
X129300266Y-99356539D01*
X129300270Y-99356522D01*
X129300266Y-99356488D01*
X129265712Y-92937844D01*
X129246632Y-89393713D01*
X129649500Y-89393713D01*
X129649500Y-89606286D01*
X129669620Y-89733322D01*
X129682754Y-89816243D01*
X129706063Y-89887981D01*
X129748444Y-90018414D01*
X129844951Y-90207820D01*
X129969890Y-90379786D01*
X130083818Y-90493714D01*
X130117303Y-90555037D01*
X130112319Y-90624729D01*
X130070447Y-90680662D01*
X130039471Y-90697577D01*
X129907912Y-90746646D01*
X129907906Y-90746649D01*
X129792812Y-90832809D01*
X129792809Y-90832812D01*
X129706649Y-90947906D01*
X129706645Y-90947913D01*
X129656403Y-91082620D01*
X129656401Y-91082627D01*
X129650000Y-91142155D01*
X129650000Y-91790000D01*
X130566988Y-91790000D01*
X130534075Y-91847007D01*
X130500000Y-91974174D01*
X130500000Y-92105826D01*
X130534075Y-92232993D01*
X130566988Y-92290000D01*
X129650000Y-92290000D01*
X129650000Y-92937844D01*
X129656401Y-92997372D01*
X129656403Y-92997379D01*
X129706645Y-93132086D01*
X129706649Y-93132093D01*
X129792809Y-93247187D01*
X129792812Y-93247190D01*
X129907906Y-93333350D01*
X129907913Y-93333354D01*
X130042620Y-93383596D01*
X130042627Y-93383598D01*
X130102155Y-93389999D01*
X130102172Y-93390000D01*
X130750000Y-93390000D01*
X130750000Y-92473012D01*
X130807007Y-92505925D01*
X130934174Y-92540000D01*
X131065826Y-92540000D01*
X131192993Y-92505925D01*
X131250000Y-92473012D01*
X131250000Y-93390000D01*
X131897828Y-93390000D01*
X131897844Y-93389999D01*
X131957372Y-93383598D01*
X131957379Y-93383596D01*
X132092086Y-93333354D01*
X132092093Y-93333350D01*
X132207187Y-93247190D01*
X132207190Y-93247187D01*
X132293350Y-93132093D01*
X132293354Y-93132086D01*
X132343596Y-92997379D01*
X132343598Y-92997372D01*
X132349999Y-92937844D01*
X132350000Y-92937827D01*
X132350000Y-92290000D01*
X131433012Y-92290000D01*
X131465925Y-92232993D01*
X131500000Y-92105826D01*
X131500000Y-91974174D01*
X131465925Y-91847007D01*
X131433012Y-91790000D01*
X132350000Y-91790000D01*
X132350000Y-91146153D01*
X135974500Y-91146153D01*
X135974500Y-91303846D01*
X136005261Y-91458489D01*
X136005264Y-91458501D01*
X136065602Y-91604172D01*
X136065609Y-91604185D01*
X136153210Y-91735288D01*
X136153213Y-91735292D01*
X136264707Y-91846786D01*
X136264711Y-91846789D01*
X136395814Y-91934390D01*
X136395827Y-91934397D01*
X136541498Y-91994735D01*
X136541503Y-91994737D01*
X136696153Y-92025499D01*
X136696156Y-92025500D01*
X136696158Y-92025500D01*
X136853844Y-92025500D01*
X136853845Y-92025499D01*
X137008497Y-91994737D01*
X137154179Y-91934394D01*
X137285289Y-91846789D01*
X137396789Y-91735289D01*
X137484394Y-91604179D01*
X137484397Y-91604172D01*
X137518784Y-91521153D01*
X138799500Y-91521153D01*
X138799500Y-91678846D01*
X138830261Y-91833489D01*
X138830264Y-91833501D01*
X138890602Y-91979172D01*
X138890609Y-91979185D01*
X138978210Y-92110288D01*
X138978213Y-92110292D01*
X139089707Y-92221786D01*
X139089711Y-92221789D01*
X139220814Y-92309390D01*
X139220827Y-92309397D01*
X139366498Y-92369735D01*
X139366503Y-92369737D01*
X139521153Y-92400499D01*
X139521156Y-92400500D01*
X139521158Y-92400500D01*
X139678844Y-92400500D01*
X139678845Y-92400499D01*
X139833497Y-92369737D01*
X139979179Y-92309394D01*
X140110289Y-92221789D01*
X140221789Y-92110289D01*
X140309394Y-91979179D01*
X140369737Y-91833497D01*
X140389729Y-91732993D01*
X140400638Y-91678150D01*
X140433023Y-91616239D01*
X140434518Y-91614716D01*
X141560182Y-90489052D01*
X141621503Y-90455569D01*
X141623670Y-90455118D01*
X141681605Y-90443593D01*
X141779017Y-90424217D01*
X141924699Y-90363874D01*
X142055809Y-90276269D01*
X142167309Y-90164769D01*
X142254914Y-90033659D01*
X142261230Y-90018412D01*
X142315255Y-89887981D01*
X142315257Y-89887977D01*
X142346020Y-89733322D01*
X142346020Y-89575638D01*
X142346020Y-89575635D01*
X142346019Y-89575633D01*
X142315258Y-89420990D01*
X142315258Y-89420988D01*
X142315257Y-89420983D01*
X142315255Y-89420978D01*
X142254917Y-89275307D01*
X142254910Y-89275294D01*
X142167309Y-89144191D01*
X142167306Y-89144187D01*
X142055812Y-89032693D01*
X142055808Y-89032690D01*
X141924705Y-88945089D01*
X141924692Y-88945082D01*
X141779021Y-88884744D01*
X141779009Y-88884741D01*
X141624365Y-88853980D01*
X141624362Y-88853980D01*
X141466678Y-88853980D01*
X141466675Y-88853980D01*
X141312030Y-88884741D01*
X141312018Y-88884744D01*
X141166347Y-88945082D01*
X141166334Y-88945089D01*
X141035231Y-89032690D01*
X141035227Y-89032693D01*
X140923733Y-89144187D01*
X140923730Y-89144191D01*
X140836129Y-89275294D01*
X140836122Y-89275307D01*
X140775784Y-89420978D01*
X140775781Y-89420988D01*
X140744881Y-89576330D01*
X140712496Y-89638241D01*
X140710945Y-89639819D01*
X139585339Y-90765425D01*
X139524016Y-90798910D01*
X139521850Y-90799361D01*
X139366508Y-90830261D01*
X139366498Y-90830264D01*
X139220827Y-90890602D01*
X139220814Y-90890609D01*
X139089711Y-90978210D01*
X139089707Y-90978213D01*
X138978213Y-91089707D01*
X138978210Y-91089711D01*
X138890609Y-91220814D01*
X138890602Y-91220827D01*
X138830264Y-91366498D01*
X138830261Y-91366510D01*
X138799500Y-91521153D01*
X137518784Y-91521153D01*
X137536823Y-91477604D01*
X137536823Y-91477602D01*
X137544737Y-91458497D01*
X137575500Y-91303842D01*
X137575500Y-91303625D01*
X137576210Y-91300432D01*
X137592450Y-91271008D01*
X137608023Y-91241239D01*
X137609517Y-91239717D01*
X140014664Y-88834571D01*
X140075985Y-88801088D01*
X140078152Y-88800637D01*
X140078841Y-88800500D01*
X140078842Y-88800500D01*
X140233497Y-88769737D01*
X140379179Y-88709394D01*
X140510289Y-88621789D01*
X140621789Y-88510289D01*
X140709394Y-88379179D01*
X140769737Y-88233497D01*
X140800500Y-88078842D01*
X140800500Y-87921158D01*
X140800500Y-87921155D01*
X140800499Y-87921153D01*
X140769738Y-87766510D01*
X140769738Y-87766508D01*
X140769737Y-87766503D01*
X140769735Y-87766498D01*
X140709397Y-87620827D01*
X140709390Y-87620814D01*
X140621789Y-87489711D01*
X140621786Y-87489707D01*
X140510292Y-87378213D01*
X140510288Y-87378210D01*
X140379185Y-87290609D01*
X140379172Y-87290602D01*
X140233501Y-87230264D01*
X140233489Y-87230261D01*
X140078845Y-87199500D01*
X140078842Y-87199500D01*
X139921158Y-87199500D01*
X139921155Y-87199500D01*
X139766510Y-87230261D01*
X139766498Y-87230264D01*
X139620827Y-87290602D01*
X139620814Y-87290609D01*
X139489711Y-87378210D01*
X139489707Y-87378213D01*
X139378213Y-87489707D01*
X139378210Y-87489711D01*
X139290609Y-87620814D01*
X139290602Y-87620827D01*
X139230264Y-87766498D01*
X139230261Y-87766508D01*
X139199362Y-87921848D01*
X139166977Y-87983759D01*
X139165426Y-87985337D01*
X136760339Y-90390425D01*
X136699016Y-90423910D01*
X136696850Y-90424361D01*
X136541508Y-90455261D01*
X136541498Y-90455264D01*
X136395827Y-90515602D01*
X136395814Y-90515609D01*
X136264711Y-90603210D01*
X136264707Y-90603213D01*
X136153213Y-90714707D01*
X136153210Y-90714711D01*
X136065609Y-90845814D01*
X136065602Y-90845827D01*
X136005264Y-90991498D01*
X136005261Y-90991510D01*
X135974500Y-91146153D01*
X132350000Y-91146153D01*
X132350000Y-91142172D01*
X132349999Y-91142155D01*
X132343598Y-91082627D01*
X132343596Y-91082620D01*
X132293354Y-90947913D01*
X132293350Y-90947906D01*
X132207190Y-90832812D01*
X132207187Y-90832809D01*
X132092093Y-90746649D01*
X132092088Y-90746646D01*
X131960528Y-90697577D01*
X131904595Y-90655705D01*
X131880178Y-90590241D01*
X131895030Y-90521968D01*
X131916175Y-90493720D01*
X132030104Y-90379792D01*
X132155051Y-90207816D01*
X132251557Y-90018412D01*
X132317246Y-89816243D01*
X132350500Y-89606287D01*
X132350500Y-89393713D01*
X132317246Y-89183757D01*
X132251557Y-88981588D01*
X132155051Y-88792184D01*
X132155049Y-88792181D01*
X132155048Y-88792179D01*
X132030109Y-88620213D01*
X131879786Y-88469890D01*
X131707820Y-88344951D01*
X131518414Y-88248444D01*
X131518413Y-88248443D01*
X131518412Y-88248443D01*
X131316243Y-88182754D01*
X131316241Y-88182753D01*
X131316240Y-88182753D01*
X131154957Y-88157208D01*
X131106287Y-88149500D01*
X130893713Y-88149500D01*
X130845042Y-88157208D01*
X130683760Y-88182753D01*
X130683757Y-88182754D01*
X130527612Y-88233489D01*
X130481585Y-88248444D01*
X130292179Y-88344951D01*
X130120213Y-88469890D01*
X129969890Y-88620213D01*
X129844951Y-88792179D01*
X129748444Y-88981585D01*
X129682753Y-89183760D01*
X129649500Y-89393713D01*
X129246632Y-89393713D01*
X129179931Y-77003774D01*
X129180123Y-76996190D01*
X129197252Y-76691191D01*
X129198806Y-76677394D01*
X129249451Y-76379326D01*
X129252540Y-76365790D01*
X129336238Y-76075268D01*
X129340829Y-76062148D01*
X129456527Y-75782829D01*
X129462546Y-75770329D01*
X129608796Y-75505711D01*
X129616191Y-75493943D01*
X129716665Y-75352338D01*
X129791141Y-75247373D01*
X129799797Y-75236519D01*
X130001264Y-75011076D01*
X130011076Y-75001264D01*
X130236519Y-74799797D01*
X130247373Y-74791141D01*
X130493948Y-74616187D01*
X130505711Y-74608796D01*
X130770329Y-74462546D01*
X130782829Y-74456527D01*
X131062155Y-74340826D01*
X131075268Y-74336238D01*
X131365790Y-74252540D01*
X131379326Y-74249451D01*
X131677394Y-74198806D01*
X131691191Y-74197252D01*
X131995918Y-74180138D01*
X132003965Y-74179949D01*
X145356394Y-74300111D01*
G37*
%TD.AperFunction*%
%TD*%
M02*
