%TF.GenerationSoftware,KiCad,Pcbnew,9.0.5*%
%TF.CreationDate,2025-10-22T12:52:36+02:00*%
%TF.ProjectId,tut_1,7475745f-312e-46b6-9963-61645f706362,rev?*%
%TF.SameCoordinates,Original*%
%TF.FileFunction,Copper,L1,Top*%
%TF.FilePolarity,Positive*%
%FSLAX46Y46*%
G04 Gerber Fmt 4.6, Leading zero omitted, Abs format (unit mm)*
G04 Created by KiCad (PCBNEW 9.0.5) date 2025-10-22 12:52:36*
%MOMM*%
%LPD*%
G01*
G04 APERTURE LIST*
G04 Aperture macros list*
%AMRoundRect*
0 Rectangle with rounded corners*
0 $1 Rounding radius*
0 $2 $3 $4 $5 $6 $7 $8 $9 X,Y pos of 4 corners*
0 Add a 4 corners polygon primitive as box body*
4,1,4,$2,$3,$4,$5,$6,$7,$8,$9,$2,$3,0*
0 Add four circle primitives for the rounded corners*
1,1,$1+$1,$2,$3*
1,1,$1+$1,$4,$5*
1,1,$1+$1,$6,$7*
1,1,$1+$1,$8,$9*
0 Add four rect primitives between the rounded corners*
20,1,$1+$1,$2,$3,$4,$5,0*
20,1,$1+$1,$4,$5,$6,$7,0*
20,1,$1+$1,$6,$7,$8,$9,0*
20,1,$1+$1,$8,$9,$2,$3,0*%
G04 Aperture macros list end*
%TA.AperFunction,SMDPad,CuDef*%
%ADD10RoundRect,0.218750X-0.256250X0.218750X-0.256250X-0.218750X0.256250X-0.218750X0.256250X0.218750X0*%
%TD*%
%TA.AperFunction,SMDPad,CuDef*%
%ADD11RoundRect,0.162500X-0.825000X-0.162500X0.825000X-0.162500X0.825000X0.162500X-0.825000X0.162500X0*%
%TD*%
%TA.AperFunction,SMDPad,CuDef*%
%ADD12RoundRect,0.225000X0.225000X0.250000X-0.225000X0.250000X-0.225000X-0.250000X0.225000X-0.250000X0*%
%TD*%
%TA.AperFunction,SMDPad,CuDef*%
%ADD13C,1.500000*%
%TD*%
%TA.AperFunction,ComponentPad*%
%ADD14C,5.000000*%
%TD*%
%TA.AperFunction,SMDPad,CuDef*%
%ADD15RoundRect,0.200000X0.200000X0.275000X-0.200000X0.275000X-0.200000X-0.275000X0.200000X-0.275000X0*%
%TD*%
%TA.AperFunction,SMDPad,CuDef*%
%ADD16RoundRect,0.200000X-0.200000X-0.275000X0.200000X-0.275000X0.200000X0.275000X-0.200000X0.275000X0*%
%TD*%
%TA.AperFunction,ComponentPad*%
%ADD17R,1.700000X1.700000*%
%TD*%
%TA.AperFunction,ComponentPad*%
%ADD18C,1.700000*%
%TD*%
%TA.AperFunction,ViaPad*%
%ADD19C,0.600000*%
%TD*%
%TA.AperFunction,Conductor*%
%ADD20C,0.200000*%
%TD*%
G04 APERTURE END LIST*
D10*
%TO.P,D1,2,A*%
%TO.N,Net-(D1-A)*%
X131000000Y-85075000D03*
%TO.P,D1,1,K*%
%TO.N,GND*%
X131000000Y-83500000D03*
%TD*%
D11*
%TO.P,U1,1,GND*%
%TO.N,GND*%
X136425000Y-85000000D03*
%TO.P,U1,2,TR*%
%TO.N,TRG*%
X136425000Y-86270000D03*
%TO.P,U1,3,Q*%
%TO.N,Net-(D1-A)*%
X136425000Y-87540000D03*
%TO.P,U1,4,R*%
%TO.N,VCC*%
X136425000Y-88810000D03*
%TO.P,U1,5,CV*%
%TO.N,Net-(U1-CV)*%
X141500000Y-88810000D03*
%TO.P,U1,6,THR*%
%TO.N,TRG*%
X141500000Y-87540000D03*
%TO.P,U1,7,DIS*%
%TO.N,DIS*%
X141500000Y-86270000D03*
%TO.P,U1,8,VCC*%
%TO.N,VCC*%
X141500000Y-85000000D03*
%TD*%
D12*
%TO.P,C2,1*%
%TO.N,Net-(U1-CV)*%
X141500000Y-93500000D03*
%TO.P,C2,2*%
%TO.N,GND*%
X139950000Y-93500000D03*
%TD*%
%TO.P,C1,1*%
%TO.N,TRG*%
X136775000Y-93500000D03*
%TO.P,C1,2*%
%TO.N,GND*%
X135225000Y-93500000D03*
%TD*%
D13*
%TO.P,FID3,*%
%TO.N,*%
X138500000Y-99500000D03*
%TD*%
%TO.P,FID2,*%
%TO.N,*%
X145500000Y-82000000D03*
%TD*%
%TO.P,FID1,*%
%TO.N,*%
X138500000Y-76000000D03*
%TD*%
D14*
%TO.P,H4,1,1*%
%TO.N,GND*%
X132000000Y-99400000D03*
%TD*%
%TO.P,H3,1,1*%
%TO.N,GND*%
X145400000Y-99400000D03*
%TD*%
%TO.P,H2,1,1*%
%TO.N,GND*%
X145400000Y-77000000D03*
%TD*%
%TO.P,H1,1,1*%
%TO.N,GND*%
X132000000Y-77000000D03*
%TD*%
D15*
%TO.P,R3,1*%
%TO.N,VCC*%
X146500000Y-92000000D03*
%TO.P,R3,2*%
%TO.N,Net-(D1-A)*%
X144850000Y-92000000D03*
%TD*%
D16*
%TO.P,R2,1*%
%TO.N,DIS*%
X144850000Y-89000000D03*
%TO.P,R2,2*%
%TO.N,TRG*%
X146500000Y-89000000D03*
%TD*%
%TO.P,R1,1*%
%TO.N,VCC*%
X144850000Y-86000000D03*
%TO.P,R1,2*%
%TO.N,DIS*%
X146500000Y-86000000D03*
%TD*%
D17*
%TO.P,J1,1,Pin_1*%
%TO.N,GND*%
X131000000Y-92040000D03*
D18*
%TO.P,J1,2,Pin_2*%
%TO.N,VCC*%
X131000000Y-89500000D03*
%TD*%
D19*
%TO.N,Net-(U1-CV)*%
X141545520Y-89654480D03*
%TO.N,TRG*%
X140000000Y-88000000D03*
%TO.N,Net-(U1-CV)*%
X139600000Y-91600000D03*
%TO.N,TRG*%
X136775000Y-91225000D03*
%TD*%
D20*
%TO.N,Net-(U1-CV)*%
X141500000Y-89608960D02*
X141545520Y-89654480D01*
X141500000Y-88810000D02*
X141500000Y-89608960D01*
%TO.N,TRG*%
X141500000Y-87540000D02*
X140460000Y-87540000D01*
X140460000Y-87540000D02*
X140000000Y-88000000D01*
%TO.N,Net-(U1-CV)*%
X141500000Y-93500000D02*
X139600000Y-91600000D01*
%TO.N,TRG*%
X136800000Y-91200000D02*
X136775000Y-91225000D01*
X136775000Y-93500000D02*
X136775000Y-91225000D01*
%TO.N,VCC*%
X145724000Y-92776000D02*
X146500000Y-92000000D01*
X142001110Y-92776000D02*
X145724000Y-92776000D01*
X138035110Y-88810000D02*
X142001110Y-92776000D01*
X136425000Y-88810000D02*
X138035110Y-88810000D01*
%TO.N,Net-(D1-A)*%
X143042510Y-92000000D02*
X144850000Y-92000000D01*
X138582510Y-87540000D02*
X143042510Y-92000000D01*
X136425000Y-87540000D02*
X138582510Y-87540000D01*
%TO.N,VCC*%
X143850000Y-85000000D02*
X141500000Y-85000000D01*
X144850000Y-86000000D02*
X143850000Y-85000000D01*
%TO.N,TRG*%
X145724000Y-89776000D02*
X146500000Y-89000000D01*
X144436936Y-89776000D02*
X145724000Y-89776000D01*
X142200936Y-87540000D02*
X144436936Y-89776000D01*
X141500000Y-87540000D02*
X142200936Y-87540000D01*
%TO.N,DIS*%
X144850000Y-87650000D02*
X146500000Y-86000000D01*
X144850000Y-89000000D02*
X144850000Y-87650000D01*
%TO.N,VCC*%
X146913064Y-85224000D02*
X145626000Y-85224000D01*
X147201000Y-85511936D02*
X146913064Y-85224000D01*
X145626000Y-85224000D02*
X144850000Y-86000000D01*
X147201000Y-91299000D02*
X147201000Y-85511936D01*
X146500000Y-92000000D02*
X147201000Y-91299000D01*
%TO.N,TRG*%
X140856000Y-86896000D02*
X141500000Y-87540000D01*
X137051000Y-86896000D02*
X140856000Y-86896000D01*
X136425000Y-86270000D02*
X137051000Y-86896000D01*
%TO.N,DIS*%
X145724000Y-86776000D02*
X146500000Y-86000000D01*
X142006000Y-86776000D02*
X145724000Y-86776000D01*
X141500000Y-86270000D02*
X142006000Y-86776000D01*
%TO.N,GND*%
X138950000Y-94500000D02*
X139950000Y-93500000D01*
X136225000Y-94500000D02*
X138950000Y-94500000D01*
X135225000Y-93500000D02*
X136225000Y-94500000D01*
X133765000Y-92040000D02*
X135225000Y-93500000D01*
X131000000Y-92040000D02*
X133765000Y-92040000D01*
%TO.N,VCC*%
X131690000Y-88810000D02*
X131000000Y-89500000D01*
X136425000Y-88810000D02*
X131690000Y-88810000D01*
%TO.N,Net-(D1-A)*%
X133465000Y-87540000D02*
X136425000Y-87540000D01*
X131000000Y-85075000D02*
X133465000Y-87540000D01*
%TO.N,GND*%
X131000000Y-78000000D02*
X132000000Y-77000000D01*
X131000000Y-83500000D02*
X131000000Y-78000000D01*
X132500000Y-85000000D02*
X131000000Y-83500000D01*
X136425000Y-85000000D02*
X132500000Y-85000000D01*
%TD*%
M02*
