M48
; DRILL file {KiCad 9.0.6} date 2026-01-05T12:25:09+0100
; FORMAT={-:-/ absolute / metric / decimal}
; #@! TF.CreationDate,2026-01-05T12:25:09+01:00
; #@! TF.GenerationSoftware,Kicad,Pcbnew,9.0.6
; #@! TF.FileFunction,Plated,1,4,PTH
FMAT,2
METRIC
; #@! TA.AperFunction,Plated,PTH,ViaDrill
T1C0.400
; #@! TA.AperFunction,Plated,PTH,ComponentDrill
T2C0.930
; #@! TA.AperFunction,Plated,PTH,ComponentDrill
T3C1.000
; #@! TA.AperFunction,Plated,PTH,ComponentDrill
T4C1.600
%
G90
G05
T1
X120.096Y-107.204
X120.5Y-99.0
X120.5Y-100.0
X120.5Y-101.0
X120.5Y-102.0
X120.5Y-103.0
X120.523Y-104.013
X121.5Y-99.0
X121.5Y-100.0
X121.5Y-101.0
X121.5Y-102.0
X121.5Y-103.0
X121.5Y-104.0
X121.5Y-105.0
X121.5Y-106.0
X122.5Y-99.0
X122.5Y-100.0
X122.5Y-105.0
X122.5Y-106.0
X123.5Y-99.0
X123.5Y-100.0
X123.5Y-105.0
X123.5Y-106.0
X124.5Y-99.0
X124.5Y-100.0
X124.5Y-105.0
X124.5Y-106.0
X125.5Y-100.0
X125.5Y-101.0
X125.5Y-102.0
X125.5Y-103.0
X125.5Y-104.0
X125.5Y-105.0
X125.5Y-106.0
X125.925Y-96.852
X126.5Y-102.0
X126.5Y-103.0
X126.5Y-104.0
X126.5Y-105.0
X126.5Y-106.0
X127.343Y-95.235
X128.4Y-100.977
X128.685Y-99.377
X128.948Y-94.507
X128.948Y-96.2
X129.923Y-90.95
X130.2Y-78.8
X130.288Y-85.642
X130.645Y-107.529
X131.6Y-77.4
X131.751Y-85.467
X131.84Y-98.786
X132.4Y-96.4
X132.5Y-101.0
X132.6Y-97.6
X133.037Y-94.291
X133.325Y-106.125
X133.8Y-93.0
X134.0Y-101.0
X134.825Y-104.0
X135.094Y-98.038
X135.134Y-105.204
X135.414Y-85.162
X135.963Y-90.619
X135.982Y-97.62
X136.611Y-96.909
X136.667Y-98.379
X137.4Y-89.2
X137.664Y-92.404
X137.832Y-90.576
X138.6Y-98.379
X138.76Y-95.733
X139.0Y-84.8
X139.072Y-109.925
X139.192Y-113.03
X139.633Y-94.262
X140.6Y-89.2
X140.977Y-113.023
X141.0Y-108.89
X141.2Y-117.8
X141.521Y-95.548
X141.817Y-107.255
X142.246Y-92.543
X142.465Y-98.737
X143.764Y-117.8
X143.848Y-98.7
X144.526Y-109.553
X145.104Y-101.2
X146.953Y-96.295
X148.5Y-98.4
X148.51Y-101.875
X150.259Y-102.708
X150.473Y-99.799
X150.6Y-109.4
X150.661Y-75.117
X151.919Y-93.651
X153.0Y-102.4
X153.351Y-97.355
X154.27Y-101.136
X155.85Y-105.108
X156.118Y-98.732
X156.291Y-102.659
X156.636Y-90.836
X156.696Y-96.287
X157.376Y-99.141
X157.4Y-108.894
X158.723Y-108.352
X158.735Y-98.615
X158.8Y-106.6
X158.834Y-100.066
X158.96Y-96.8
X159.383Y-111.583
X160.827Y-89.4
X161.123Y-101.562
X161.486Y-94.998
X161.502Y-90.448
X161.73Y-87.65
X162.435Y-91.655
X162.449Y-88.325
X162.941Y-106.426
X163.0Y-104.394
X163.0Y-105.41
X163.387Y-91.596
X164.0Y-104.394
X164.0Y-105.41
X164.0Y-106.426
X165.0Y-104.394
X165.0Y-105.41
X165.0Y-106.426
X165.225Y-87.46
X166.0Y-109.0
X166.0Y-110.0
X166.0Y-111.0
X166.0Y-112.0
X166.0Y-113.0
X166.0Y-114.0
X166.0Y-115.0
X166.0Y-116.0
X166.377Y-99.001
X167.0Y-109.0
X167.0Y-110.0
X167.0Y-111.0
X167.0Y-115.0
X167.0Y-116.0
X167.552Y-105.675
X167.917Y-98.807
X168.0Y-109.0
X168.0Y-110.0
X168.0Y-111.0
X168.0Y-115.0
X168.0Y-116.0
X168.188Y-93.48
X169.0Y-109.0
X169.0Y-110.0
X169.0Y-111.0
X169.0Y-115.0
X169.0Y-116.0
X169.425Y-90.291
X170.0Y-109.0
X170.0Y-110.0
X170.0Y-111.0
X170.0Y-115.0
X170.0Y-116.0
X170.007Y-102.997
X170.4Y-88.8
X171.0Y-109.0
X171.0Y-110.0
X171.0Y-111.0
X171.0Y-115.0
X171.0Y-116.0
X171.5Y-104.203
X172.0Y-109.0
X172.0Y-110.0
X172.0Y-111.0
X172.0Y-112.0
X172.0Y-113.0
X172.0Y-114.0
X172.0Y-115.0
X172.0Y-116.0
X172.046Y-89.144
X173.309Y-87.781
X174.0Y-80.5
X174.25Y-85.749
X174.6Y-103.0
X175.206Y-91.902
X175.675Y-81.5
X175.751Y-98.884
X176.284Y-90.664
X176.678Y-88.458
X176.746Y-87.51
X176.932Y-76.431
X177.056Y-85.6
X177.165Y-96.967
X177.731Y-91.422
X178.305Y-96.841
X179.082Y-76.5
X180.892Y-76.566
T2
X177.0Y-104.6
X177.0Y-106.6
X177.0Y-108.6
X177.0Y-110.6
T3
X133.52Y-79.0
X133.52Y-81.54
X135.94Y-73.6
X136.06Y-79.0
X136.06Y-81.54
X138.48Y-73.6
X138.6Y-79.0
X138.6Y-81.54
X141.02Y-73.6
X143.56Y-73.6
X145.04Y-121.8
X145.06Y-91.8
X145.06Y-94.34
X146.1Y-73.6
X147.58Y-121.8
X147.6Y-91.8
X147.6Y-94.34
X148.64Y-73.6
X150.12Y-121.8
X151.18Y-73.6
X152.66Y-121.8
X153.72Y-73.6
X155.2Y-121.8
X156.26Y-73.6
X157.74Y-121.8
X158.8Y-73.6
X160.28Y-121.8
X162.82Y-121.8
X162.86Y-73.6
X165.4Y-73.6
X167.94Y-73.6
X168.0Y-121.8
X170.48Y-73.6
X170.54Y-121.8
X173.02Y-73.6
X173.08Y-121.8
X175.56Y-73.6
X175.62Y-121.8
X178.1Y-73.6
X178.16Y-121.8
X180.64Y-73.6
X180.7Y-121.8
X181.4Y-93.8
X181.4Y-96.34
X181.4Y-98.88
X183.94Y-93.8
X183.94Y-96.34
X183.94Y-98.88
T4
X125.2Y-112.0
X128.2Y-116.7
X131.2Y-112.0
M30
