%TF.GenerationSoftware,KiCad,Pcbnew,9.0.6*%
%TF.CreationDate,2026-01-05T12:25:03+01:00*%
%TF.ProjectId,arduino_uno_custom,61726475-696e-46f5-9f75-6e6f5f637573,rev?*%
%TF.SameCoordinates,Original*%
%TF.FileFunction,Soldermask,Top*%
%TF.FilePolarity,Negative*%
%FSLAX46Y46*%
G04 Gerber Fmt 4.6, Leading zero omitted, Abs format (unit mm)*
G04 Created by KiCad (PCBNEW 9.0.6) date 2026-01-05 12:25:03*
%MOMM*%
%LPD*%
G01*
G04 APERTURE LIST*
G04 Aperture macros list*
%AMRoundRect*
0 Rectangle with rounded corners*
0 $1 Rounding radius*
0 $2 $3 $4 $5 $6 $7 $8 $9 X,Y pos of 4 corners*
0 Add a 4 corners polygon primitive as box body*
4,1,4,$2,$3,$4,$5,$6,$7,$8,$9,$2,$3,0*
0 Add four circle primitives for the rounded corners*
1,1,$1+$1,$2,$3*
1,1,$1+$1,$4,$5*
1,1,$1+$1,$6,$7*
1,1,$1+$1,$8,$9*
0 Add four rect primitives between the rounded corners*
20,1,$1+$1,$2,$3,$4,$5,0*
20,1,$1+$1,$4,$5,$6,$7,0*
20,1,$1+$1,$6,$7,$8,$9,0*
20,1,$1+$1,$8,$9,$2,$3,0*%
G04 Aperture macros list end*
%ADD10RoundRect,0.102000X0.900000X-0.600000X0.900000X0.600000X-0.900000X0.600000X-0.900000X-0.600000X0*%
%ADD11RoundRect,0.102000X0.775000X-0.300000X0.775000X0.300000X-0.775000X0.300000X-0.775000X-0.300000X0*%
%ADD12R,1.700000X1.700000*%
%ADD13C,1.700000*%
%ADD14RoundRect,0.075000X0.075000X-0.662500X0.075000X0.662500X-0.075000X0.662500X-0.075000X-0.662500X0*%
%ADD15RoundRect,0.075000X0.662500X-0.075000X0.662500X0.075000X-0.662500X0.075000X-0.662500X-0.075000X0*%
%ADD16RoundRect,0.102000X0.719000X-0.719000X0.719000X0.719000X-0.719000X0.719000X-0.719000X-0.719000X0*%
%ADD17C,1.642000*%
%ADD18RoundRect,0.200000X0.200000X0.275000X-0.200000X0.275000X-0.200000X-0.275000X0.200000X-0.275000X0*%
%ADD19RoundRect,0.218750X-0.218750X-0.256250X0.218750X-0.256250X0.218750X0.256250X-0.218750X0.256250X0*%
%ADD20RoundRect,0.150000X0.587500X0.150000X-0.587500X0.150000X-0.587500X-0.150000X0.587500X-0.150000X0*%
%ADD21RoundRect,0.175000X-0.425000X0.175000X-0.425000X-0.175000X0.425000X-0.175000X0.425000X0.175000X0*%
%ADD22RoundRect,0.190000X0.410000X-0.190000X0.410000X0.190000X-0.410000X0.190000X-0.410000X-0.190000X0*%
%ADD23RoundRect,0.200000X0.400000X-0.200000X0.400000X0.200000X-0.400000X0.200000X-0.400000X-0.200000X0*%
%ADD24RoundRect,0.175000X0.425000X-0.175000X0.425000X0.175000X-0.425000X0.175000X-0.425000X-0.175000X0*%
%ADD25RoundRect,0.190000X-0.410000X0.190000X-0.410000X-0.190000X0.410000X-0.190000X0.410000X0.190000X0*%
%ADD26RoundRect,0.200000X-0.400000X0.200000X-0.400000X-0.200000X0.400000X-0.200000X0.400000X0.200000X0*%
%ADD27RoundRect,0.250000X-0.425000X0.650000X-0.425000X-0.650000X0.425000X-0.650000X0.425000X0.650000X0*%
%ADD28RoundRect,0.250000X-0.500000X0.650000X-0.500000X-0.650000X0.500000X-0.650000X0.500000X0.650000X0*%
%ADD29RoundRect,0.225000X0.225000X0.250000X-0.225000X0.250000X-0.225000X-0.250000X0.225000X-0.250000X0*%
%ADD30R,2.600000X2.600000*%
%ADD31C,2.600000*%
%ADD32RoundRect,0.225000X0.225000X0.375000X-0.225000X0.375000X-0.225000X-0.375000X0.225000X-0.375000X0*%
%ADD33RoundRect,0.150000X0.150000X-0.512500X0.150000X0.512500X-0.150000X0.512500X-0.150000X-0.512500X0*%
%ADD34C,3.200000*%
%ADD35RoundRect,0.225000X-0.225000X-0.250000X0.225000X-0.250000X0.225000X0.250000X-0.225000X0.250000X0*%
%ADD36RoundRect,0.200000X-0.275000X0.200000X-0.275000X-0.200000X0.275000X-0.200000X0.275000X0.200000X0*%
%ADD37R,0.900000X0.400000*%
%ADD38RoundRect,0.225000X0.250000X-0.225000X0.250000X0.225000X-0.250000X0.225000X-0.250000X-0.225000X0*%
%ADD39C,1.500000*%
%ADD40RoundRect,0.250000X0.700000X1.000000X-0.700000X1.000000X-0.700000X-1.000000X0.700000X-1.000000X0*%
%ADD41RoundRect,0.087500X0.537500X0.087500X-0.537500X0.087500X-0.537500X-0.087500X0.537500X-0.087500X0*%
%ADD42RoundRect,0.225000X-0.250000X0.225000X-0.250000X-0.225000X0.250000X-0.225000X0.250000X0.225000X0*%
%ADD43R,0.400000X1.900000*%
%ADD44R,0.900000X1.700000*%
%ADD45RoundRect,0.075000X-0.075000X0.662500X-0.075000X-0.662500X0.075000X-0.662500X0.075000X0.662500X0*%
%ADD46RoundRect,0.075000X-0.662500X0.075000X-0.662500X-0.075000X0.662500X-0.075000X0.662500X0.075000X0*%
%ADD47R,0.800000X1.000000*%
%ADD48C,0.900000*%
%ADD49R,1.500000X0.700000*%
%ADD50RoundRect,0.250000X1.000000X0.650000X-1.000000X0.650000X-1.000000X-0.650000X1.000000X-0.650000X0*%
%ADD51RoundRect,0.375000X-0.375000X0.625000X-0.375000X-0.625000X0.375000X-0.625000X0.375000X0.625000X0*%
%ADD52RoundRect,0.500000X-1.400000X0.500000X-1.400000X-0.500000X1.400000X-0.500000X1.400000X0.500000X0*%
%ADD53RoundRect,0.250000X-0.550000X1.500000X-0.550000X-1.500000X0.550000X-1.500000X0.550000X1.500000X0*%
%ADD54RoundRect,0.087500X-0.537500X-0.087500X0.537500X-0.087500X0.537500X0.087500X-0.537500X0.087500X0*%
%ADD55RoundRect,0.150000X0.825000X0.150000X-0.825000X0.150000X-0.825000X-0.150000X0.825000X-0.150000X0*%
%ADD56R,1.000000X1.500000*%
%ADD57RoundRect,0.200000X-0.200000X-0.275000X0.200000X-0.275000X0.200000X0.275000X-0.200000X0.275000X0*%
%ADD58RoundRect,0.218750X0.218750X0.256250X-0.218750X0.256250X-0.218750X-0.256250X0.218750X-0.256250X0*%
%ADD59RoundRect,0.375000X0.625000X0.375000X-0.625000X0.375000X-0.625000X-0.375000X0.625000X-0.375000X0*%
%ADD60RoundRect,0.500000X0.500000X1.400000X-0.500000X1.400000X-0.500000X-1.400000X0.500000X-1.400000X0*%
G04 APERTURE END LIST*
%TO.C,RESET-EN1*%
G36*
X141600000Y-83850000D02*
G01*
X141900000Y-83850000D01*
X141900000Y-85350000D01*
X141600000Y-85350000D01*
X141600000Y-83850000D01*
G37*
%TD*%
D10*
%TO.C,J3*%
X181925000Y-77700000D03*
X181925000Y-83300000D03*
D11*
X178050000Y-79000000D03*
X178050000Y-80000000D03*
X178050000Y-81000000D03*
X178050000Y-82000000D03*
%TD*%
D12*
%TO.C,J1*%
X138600000Y-79000000D03*
D13*
X138600000Y-81540000D03*
X136060000Y-79000000D03*
X136060000Y-81540000D03*
X133520000Y-79000000D03*
X133520000Y-81540000D03*
%TD*%
D14*
%TO.C,U2*%
X135287500Y-100312500D03*
X135787500Y-100312500D03*
X136287500Y-100312500D03*
X136787500Y-100312500D03*
X137287500Y-100312500D03*
X137787500Y-100312500D03*
X138287500Y-100312500D03*
X138787500Y-100312500D03*
D15*
X140200000Y-98900000D03*
X140200000Y-98400000D03*
X140200000Y-97900000D03*
X140200000Y-97400000D03*
X140200000Y-96900000D03*
X140200000Y-96400000D03*
X140200000Y-95900000D03*
X140200000Y-95400000D03*
D14*
X138787500Y-93987500D03*
X138287500Y-93987500D03*
X137787500Y-93987500D03*
X137287500Y-93987500D03*
X136787500Y-93987500D03*
X136287500Y-93987500D03*
X135787500Y-93987500D03*
X135287500Y-93987500D03*
D15*
X133875000Y-95400000D03*
X133875000Y-95900000D03*
X133875000Y-96400000D03*
X133875000Y-96900000D03*
X133875000Y-97400000D03*
X133875000Y-97900000D03*
X133875000Y-98400000D03*
X133875000Y-98900000D03*
%TD*%
D16*
%TO.C,J9*%
X177000000Y-110600000D03*
D17*
X177000000Y-108600000D03*
X177000000Y-106600000D03*
X177000000Y-104600000D03*
%TD*%
D18*
%TO.C,R8*%
X168650000Y-101000000D03*
X167000000Y-101000000D03*
%TD*%
D19*
%TO.C,D3*%
X118212500Y-93200000D03*
X119787500Y-93200000D03*
%TD*%
D20*
%TO.C,Q1*%
X125800000Y-94900000D03*
X125800000Y-93000000D03*
X123925000Y-93950000D03*
%TD*%
D19*
%TO.C,F1*%
X128025000Y-87200000D03*
X129600000Y-87200000D03*
%TD*%
D21*
%TO.C,J8*%
X124200000Y-84950000D03*
D22*
X124200000Y-86970000D03*
D23*
X124200000Y-88200000D03*
D24*
X124200000Y-85950000D03*
D25*
X124200000Y-83930000D03*
D26*
X124200000Y-82700000D03*
D27*
X124145000Y-80325000D03*
D28*
X120565000Y-80325000D03*
D27*
X124145000Y-90575000D03*
D28*
X120565000Y-90575000D03*
%TD*%
D29*
%TO.C,C9*%
X134200000Y-105000000D03*
X132650000Y-105000000D03*
%TD*%
D30*
%TO.C,X1*%
X131200000Y-112000000D03*
D31*
X125200000Y-112000000D03*
X128200000Y-116700000D03*
%TD*%
D32*
%TO.C,D1*%
X137600000Y-84800000D03*
X134300000Y-84800000D03*
%TD*%
D33*
%TO.C,U3*%
X145928000Y-108458000D03*
X146878000Y-108458000D03*
X147828000Y-108458000D03*
X147828000Y-106183000D03*
X145928000Y-106183000D03*
%TD*%
D34*
%TO.C,H3*%
X183200000Y-88800000D03*
%TD*%
D35*
%TO.C,C15*%
X155850000Y-115600000D03*
X157400000Y-115600000D03*
%TD*%
D29*
%TO.C,C10*%
X134175000Y-102800000D03*
X132625000Y-102800000D03*
%TD*%
D36*
%TO.C,R3*%
X141800000Y-86800000D03*
X141800000Y-88450000D03*
%TD*%
D37*
%TO.C,RN2*%
X131400000Y-97800000D03*
X131400000Y-97000000D03*
X131400000Y-96200000D03*
X131400000Y-95400000D03*
X129700000Y-95400000D03*
X129700000Y-96200000D03*
X129700000Y-97000000D03*
X129700000Y-97800000D03*
%TD*%
D36*
%TO.C,R1*%
X151600000Y-97000000D03*
X151600000Y-98650000D03*
%TD*%
D38*
%TO.C,C6*%
X131800000Y-90550000D03*
X131800000Y-89000000D03*
%TD*%
D39*
%TO.C,FID1*%
X118200000Y-123200000D03*
%TD*%
D35*
%TO.C,C18*%
X133650000Y-108600000D03*
X135200000Y-108600000D03*
%TD*%
%TO.C,C12*%
X144650000Y-103600000D03*
X146200000Y-103600000D03*
%TD*%
D18*
%TO.C,R2*%
X157450000Y-112000000D03*
X155800000Y-112000000D03*
%TD*%
D35*
%TO.C,C3*%
X155850000Y-110200000D03*
X157400000Y-110200000D03*
%TD*%
D12*
%TO.C,J5*%
X180700000Y-121800000D03*
D13*
X178160000Y-121800000D03*
X175620000Y-121800000D03*
X173080000Y-121800000D03*
X170540000Y-121800000D03*
X168000000Y-121800000D03*
%TD*%
D12*
%TO.C,J7*%
X145040000Y-121800000D03*
D13*
X147580000Y-121800000D03*
X150120000Y-121800000D03*
X152660000Y-121800000D03*
X155200000Y-121800000D03*
X157740000Y-121800000D03*
X160280000Y-121800000D03*
X162820000Y-121800000D03*
%TD*%
D40*
%TO.C,Y2*%
X139000000Y-88400000D03*
X134600000Y-88400000D03*
%TD*%
D35*
%TO.C,C14*%
X155850000Y-113800000D03*
X157400000Y-113800000D03*
%TD*%
D19*
%TO.C,RX*%
X142225000Y-99800000D03*
X143800000Y-99800000D03*
%TD*%
D39*
%TO.C,FID2*%
X118200000Y-72000000D03*
%TD*%
D35*
%TO.C,C5*%
X155850000Y-107600000D03*
X157400000Y-107600000D03*
%TD*%
D41*
%TO.C,U8*%
X178200000Y-88300000D03*
X178200000Y-87800000D03*
X178200000Y-87300000D03*
X178200000Y-86800000D03*
X175400000Y-86800000D03*
X175400000Y-87300000D03*
X175400000Y-87800000D03*
X175400000Y-88300000D03*
%TD*%
D42*
%TO.C,C4*%
X151600000Y-101000000D03*
X151600000Y-102550000D03*
%TD*%
D43*
%TO.C,Y3*%
X155400000Y-89400000D03*
X156600000Y-89400000D03*
X157800000Y-89400000D03*
%TD*%
D18*
%TO.C,R5*%
X129600000Y-92200000D03*
X127950000Y-92200000D03*
%TD*%
D34*
%TO.C,H2*%
X132400000Y-73600000D03*
%TD*%
D29*
%TO.C,C21*%
X172775000Y-101000000D03*
X171225000Y-101000000D03*
%TD*%
D44*
%TO.C,SW1*%
X125000000Y-72600000D03*
X121600000Y-72600000D03*
%TD*%
D45*
%TO.C,U1*%
X159600000Y-95000000D03*
X159100000Y-95000000D03*
X158600000Y-95000000D03*
X158100000Y-95000000D03*
X157600000Y-95000000D03*
X157100000Y-95000000D03*
X156600000Y-95000000D03*
X156100000Y-95000000D03*
D46*
X154687500Y-96412500D03*
X154687500Y-96912500D03*
X154687500Y-97412500D03*
X154687500Y-97912500D03*
X154687500Y-98412500D03*
X154687500Y-98912500D03*
X154687500Y-99412500D03*
X154687500Y-99912500D03*
D45*
X156100000Y-101325000D03*
X156600000Y-101325000D03*
X157100000Y-101325000D03*
X157600000Y-101325000D03*
X158100000Y-101325000D03*
X158600000Y-101325000D03*
X159100000Y-101325000D03*
X159600000Y-101325000D03*
D46*
X161012500Y-99912500D03*
X161012500Y-99412500D03*
X161012500Y-98912500D03*
X161012500Y-98412500D03*
X161012500Y-97912500D03*
X161012500Y-97412500D03*
X161012500Y-96912500D03*
X161012500Y-96412500D03*
%TD*%
D47*
%TO.C,SW2*%
X166190000Y-94700000D03*
X168400000Y-94700000D03*
D48*
X167300000Y-92550000D03*
X167300000Y-89550000D03*
D47*
X166190000Y-87400000D03*
X168400000Y-87400000D03*
D49*
X165540000Y-93300000D03*
X165540000Y-90300000D03*
X165540000Y-88800000D03*
%TD*%
D19*
%TO.C,TX*%
X142225000Y-97600000D03*
X143800000Y-97600000D03*
%TD*%
D50*
%TO.C,D4*%
X141400000Y-122000000D03*
X137400000Y-122000000D03*
%TD*%
D51*
%TO.C,U6*%
X171300000Y-106850000D03*
X169000000Y-106850000D03*
D52*
X169000000Y-113150000D03*
D51*
X166700000Y-106850000D03*
%TD*%
D19*
%TO.C,ON*%
X118225000Y-106172000D03*
X119800000Y-106172000D03*
%TD*%
D53*
%TO.C,C17*%
X137000000Y-112200000D03*
X137000000Y-117800000D03*
%TD*%
D29*
%TO.C,C19*%
X172750000Y-103000000D03*
X171200000Y-103000000D03*
%TD*%
D19*
%TO.C,FB1*%
X122825000Y-77200000D03*
X124400000Y-77200000D03*
%TD*%
D34*
%TO.C,H1*%
X131200000Y-121800000D03*
%TD*%
D39*
%TO.C,FID3*%
X179200000Y-91000000D03*
%TD*%
D18*
%TO.C,R4*%
X129600000Y-89600000D03*
X127950000Y-89600000D03*
%TD*%
D34*
%TO.C,H4*%
X183200000Y-116800000D03*
%TD*%
D54*
%TO.C,U7*%
X175600000Y-99650000D03*
X175600000Y-100150000D03*
X175600000Y-100650000D03*
X175600000Y-101150000D03*
X178400000Y-101150000D03*
X178400000Y-100650000D03*
X178400000Y-100150000D03*
X178400000Y-99650000D03*
%TD*%
D55*
%TO.C,U4*%
X141600000Y-106210000D03*
X141600000Y-104940000D03*
X141600000Y-103670000D03*
X141600000Y-102400000D03*
X136650000Y-102400000D03*
X136650000Y-103670000D03*
X136650000Y-104940000D03*
X136650000Y-106210000D03*
%TD*%
D38*
%TO.C,C11*%
X141800000Y-91600000D03*
X141800000Y-90050000D03*
%TD*%
D37*
%TO.C,RN4*%
X149200000Y-100000000D03*
X149200000Y-99200000D03*
X149200000Y-98400000D03*
X149200000Y-97600000D03*
X147500000Y-97600000D03*
X147500000Y-98400000D03*
X147500000Y-99200000D03*
X147500000Y-100000000D03*
%TD*%
D56*
%TO.C,RESET-EN1*%
X141100000Y-84600000D03*
X142400000Y-84600000D03*
%TD*%
D18*
%TO.C,R7*%
X128425000Y-79800000D03*
X126775000Y-79800000D03*
%TD*%
D37*
%TO.C,RN3*%
X130400000Y-84400000D03*
X130400000Y-83600000D03*
X130400000Y-82800000D03*
X130400000Y-82000000D03*
X128700000Y-82000000D03*
X128700000Y-82800000D03*
X128700000Y-83600000D03*
X128700000Y-84400000D03*
%TD*%
D57*
%TO.C,R11*%
X171350000Y-85200000D03*
X173000000Y-85200000D03*
%TD*%
D37*
%TO.C,RN1*%
X141700000Y-110600000D03*
X141700000Y-109800000D03*
X141700000Y-109000000D03*
X141700000Y-108200000D03*
X140000000Y-108200000D03*
X140000000Y-109000000D03*
X140000000Y-109800000D03*
X140000000Y-110600000D03*
%TD*%
D53*
%TO.C,C16*%
X145000000Y-112000000D03*
X145000000Y-117600000D03*
%TD*%
D18*
%TO.C,R6*%
X128425000Y-77200000D03*
X126775000Y-77200000D03*
%TD*%
D12*
%TO.C,J6*%
X162860000Y-73600000D03*
D13*
X165400000Y-73600000D03*
X167940000Y-73600000D03*
X170480000Y-73600000D03*
X173020000Y-73600000D03*
X175560000Y-73600000D03*
X178100000Y-73600000D03*
X180640000Y-73600000D03*
%TD*%
D18*
%TO.C,R10*%
X173000000Y-82800000D03*
X171350000Y-82800000D03*
%TD*%
D42*
%TO.C,C13*%
X153400000Y-110250000D03*
X153400000Y-111800000D03*
%TD*%
D12*
%TO.C,J4*%
X158800000Y-73600000D03*
D13*
X156260000Y-73600000D03*
X153720000Y-73600000D03*
X151180000Y-73600000D03*
X148640000Y-73600000D03*
X146100000Y-73600000D03*
X143560000Y-73600000D03*
X141020000Y-73600000D03*
X138480000Y-73600000D03*
X135940000Y-73600000D03*
%TD*%
D12*
%TO.C,J2*%
X145060000Y-94340000D03*
D13*
X145060000Y-91800000D03*
X147600000Y-94340000D03*
X147600000Y-91800000D03*
%TD*%
D29*
%TO.C,C8*%
X139250000Y-91800000D03*
X137700000Y-91800000D03*
%TD*%
D58*
%TO.C,FB2*%
X160725000Y-109400000D03*
X159150000Y-109400000D03*
%TD*%
D59*
%TO.C,U5*%
X130200000Y-104900000D03*
X130200000Y-102600000D03*
D60*
X123900000Y-102600000D03*
D59*
X130200000Y-100300000D03*
%TD*%
D32*
%TO.C,D2*%
X127200000Y-97200000D03*
X123900000Y-97200000D03*
%TD*%
D57*
%TO.C,R9*%
X167000000Y-103000000D03*
X168650000Y-103000000D03*
%TD*%
D12*
%TO.C,ICSP1*%
X181400000Y-93800000D03*
D13*
X183940000Y-93800000D03*
X181400000Y-96340000D03*
X183940000Y-96340000D03*
X181400000Y-98880000D03*
X183940000Y-98880000D03*
%TD*%
D29*
%TO.C,C7*%
X136000000Y-91800000D03*
X134450000Y-91800000D03*
%TD*%
M02*
