%TF.GenerationSoftware,KiCad,Pcbnew,9.0.6*%
%TF.CreationDate,2025-11-19T17:48:12+01:00*%
%TF.ProjectId,Spino CS,5370696e-6f20-4435-932e-6b696361645f,v2.1*%
%TF.SameCoordinates,PX68e7780PY2faf080*%
%TF.FileFunction,Soldermask,Top*%
%TF.FilePolarity,Negative*%
%FSLAX46Y46*%
G04 Gerber Fmt 4.6, Leading zero omitted, Abs format (unit mm)*
G04 Created by KiCad (PCBNEW 9.0.6) date 2025-11-19 17:48:12*
%MOMM*%
%LPD*%
G01*
G04 APERTURE LIST*
G04 Aperture macros list*
%AMRoundRect*
0 Rectangle with rounded corners*
0 $1 Rounding radius*
0 $2 $3 $4 $5 $6 $7 $8 $9 X,Y pos of 4 corners*
0 Add a 4 corners polygon primitive as box body*
4,1,4,$2,$3,$4,$5,$6,$7,$8,$9,$2,$3,0*
0 Add four circle primitives for the rounded corners*
1,1,$1+$1,$2,$3*
1,1,$1+$1,$4,$5*
1,1,$1+$1,$6,$7*
1,1,$1+$1,$8,$9*
0 Add four rect primitives between the rounded corners*
20,1,$1+$1,$2,$3,$4,$5,0*
20,1,$1+$1,$4,$5,$6,$7,0*
20,1,$1+$1,$6,$7,$8,$9,0*
20,1,$1+$1,$8,$9,$2,$3,0*%
%AMFreePoly0*
4,1,19,0.050000,0.495196,0.098773,0.495196,0.188893,0.457867,0.257867,0.388893,0.295196,0.298773,0.295196,0.250000,0.300000,0.250000,0.300000,-0.250000,0.295196,-0.250000,0.295196,-0.298773,0.257867,-0.388893,0.188893,-0.457867,0.098773,-0.495196,0.050000,-0.495196,0.050000,-0.500000,-0.300000,-0.500000,-0.300000,0.500000,0.050000,0.500000,0.050000,0.495196,0.050000,0.495196,
$1*%
%AMFreePoly1*
4,1,27,1.150059,-0.300000,1.061606,-0.301926,0.888100,-0.336438,0.724661,-0.404137,0.577570,-0.502420,0.452479,-0.627511,0.354196,-0.774602,0.286497,-0.938041,0.251985,-1.111547,0.250059,-1.200000,0.250000,-1.250000,-1.250000,-1.250000,-1.249941,-1.200000,-1.247479,-1.042857,-1.206456,-0.731260,-1.125113,-0.427683,-1.004841,-0.137321,-0.847698,0.134858,-0.656373,0.384198,-0.434139,0.606432,
-0.184799,0.797757,0.087380,0.954900,0.377742,1.075172,0.681319,1.156515,0.992916,1.197538,1.150059,1.200000,1.150059,-0.300000,1.150059,-0.300000,$1*%
%AMFreePoly2*
4,1,49,1.150000,-0.300000,1.108413,-0.300480,1.025593,-0.308155,0.943834,-0.323438,0.863835,-0.346200,0.786277,-0.376246,0.711822,-0.413320,0.641106,-0.457106,0.574731,-0.507230,0.513264,-0.563264,0.457230,-0.624731,0.407106,-0.691106,0.363320,-0.761822,0.326246,-0.836277,0.296200,-0.913835,0.273438,-0.993834,0.258155,-1.075593,0.250480,-1.158413,0.250000,-1.200000,-1.250000,-1.200000,
-1.249492,-1.130182,-1.241373,-0.990782,-1.225163,-0.852090,-1.200915,-0.714575,-1.168713,-0.578703,-1.128665,-0.444933,-1.080906,-0.313718,-1.025599,-0.185501,-0.962930,-0.060718,-0.893112,0.060210,-0.816381,0.176875,-0.732996,0.288880,-0.643240,0.395848,-0.547415,0.497415,-0.445848,0.593240,-0.338880,0.682996,-0.226875,0.766381,-0.110210,0.843112,0.010718,0.912930,0.135501,0.975599,
0.263718,1.030906,0.394933,1.078665,0.528703,1.118713,0.664575,1.150915,0.802090,1.175163,0.940782,1.191373,1.080182,1.199492,1.150000,1.200000,1.150000,-0.300000,1.150000,-0.300000,$1*%
%AMFreePoly3*
4,1,27,-0.992916,1.197538,-0.681319,1.156515,-0.377742,1.075172,-0.087380,0.954900,0.184799,0.797757,0.434139,0.606432,0.656373,0.384198,0.847698,0.134858,1.004841,-0.137321,1.125113,-0.427683,1.206456,-0.731260,1.247479,-1.042857,1.249941,-1.200000,1.250000,-1.250000,-0.250000,-1.250000,-0.250059,-1.200000,-0.251985,-1.111547,-0.286497,-0.938041,-0.354196,-0.774602,-0.452479,-0.627511,
-0.577570,-0.502420,-0.724661,-0.404137,-0.888100,-0.336438,-1.061606,-0.301926,-1.150059,-0.300000,-1.150059,1.200000,-0.992916,1.197538,-0.992916,1.197538,$1*%
G04 Aperture macros list end*
%ADD10RoundRect,0.250000X0.450000X-0.262500X0.450000X0.262500X-0.450000X0.262500X-0.450000X-0.262500X0*%
%ADD11C,1.000000*%
%ADD12RoundRect,0.135000X-0.185000X0.135000X-0.185000X-0.135000X0.185000X-0.135000X0.185000X0.135000X0*%
%ADD13RoundRect,0.200000X0.275000X-0.200000X0.275000X0.200000X-0.275000X0.200000X-0.275000X-0.200000X0*%
%ADD14RoundRect,0.225000X-0.225000X-0.250000X0.225000X-0.250000X0.225000X0.250000X-0.225000X0.250000X0*%
%ADD15RoundRect,0.225000X-0.250000X0.225000X-0.250000X-0.225000X0.250000X-0.225000X0.250000X0.225000X0*%
%ADD16RoundRect,0.140000X-0.170000X0.140000X-0.170000X-0.140000X0.170000X-0.140000X0.170000X0.140000X0*%
%ADD17RoundRect,0.140000X-0.140000X-0.170000X0.140000X-0.170000X0.140000X0.170000X-0.140000X0.170000X0*%
%ADD18RoundRect,0.250000X-0.475000X0.250000X-0.475000X-0.250000X0.475000X-0.250000X0.475000X0.250000X0*%
%ADD19RoundRect,0.140000X0.170000X-0.140000X0.170000X0.140000X-0.170000X0.140000X-0.170000X-0.140000X0*%
%ADD20R,1.300000X1.900000*%
%ADD21RoundRect,0.062500X0.062500X-0.362500X0.062500X0.362500X-0.062500X0.362500X-0.062500X-0.362500X0*%
%ADD22RoundRect,0.062500X0.362500X-0.062500X0.362500X0.062500X-0.362500X0.062500X-0.362500X-0.062500X0*%
%ADD23R,2.600000X2.600000*%
%ADD24RoundRect,0.135000X-0.135000X-0.185000X0.135000X-0.185000X0.135000X0.185000X-0.135000X0.185000X0*%
%ADD25RoundRect,0.225000X0.250000X-0.225000X0.250000X0.225000X-0.250000X0.225000X-0.250000X-0.225000X0*%
%ADD26RoundRect,0.150000X-0.150000X0.825000X-0.150000X-0.825000X0.150000X-0.825000X0.150000X0.825000X0*%
%ADD27RoundRect,0.075000X-0.075000X0.700000X-0.075000X-0.700000X0.075000X-0.700000X0.075000X0.700000X0*%
%ADD28RoundRect,0.075000X-0.700000X0.075000X-0.700000X-0.075000X0.700000X-0.075000X0.700000X0.075000X0*%
%ADD29R,0.800000X0.300000*%
%ADD30RoundRect,0.135000X0.135000X0.185000X-0.135000X0.185000X-0.135000X-0.185000X0.135000X-0.185000X0*%
%ADD31R,1.016000X1.778000*%
%ADD32R,1.778000X1.016000*%
%ADD33RoundRect,0.218750X0.218750X0.256250X-0.218750X0.256250X-0.218750X-0.256250X0.218750X-0.256250X0*%
%ADD34RoundRect,0.150000X-0.587500X-0.150000X0.587500X-0.150000X0.587500X0.150000X-0.587500X0.150000X0*%
%ADD35FreePoly0,90.000000*%
%ADD36R,1.000000X0.600000*%
%ADD37FreePoly0,270.000000*%
%ADD38RoundRect,0.140000X0.140000X0.170000X-0.140000X0.170000X-0.140000X-0.170000X0.140000X-0.170000X0*%
%ADD39RoundRect,0.250000X0.475000X-0.250000X0.475000X0.250000X-0.475000X0.250000X-0.475000X-0.250000X0*%
%ADD40C,6.400000*%
%ADD41R,3.400000X0.980000*%
%ADD42RoundRect,0.200000X-0.275000X0.200000X-0.275000X-0.200000X0.275000X-0.200000X0.275000X0.200000X0*%
%ADD43RoundRect,0.150000X-0.825000X-0.150000X0.825000X-0.150000X0.825000X0.150000X-0.825000X0.150000X0*%
%ADD44RoundRect,0.147500X-0.172500X0.147500X-0.172500X-0.147500X0.172500X-0.147500X0.172500X0.147500X0*%
%ADD45RoundRect,0.135000X0.185000X-0.135000X0.185000X0.135000X-0.185000X0.135000X-0.185000X-0.135000X0*%
%ADD46C,7.400000*%
%ADD47RoundRect,0.330000X-0.770000X0.870000X-0.770000X-0.870000X0.770000X-0.870000X0.770000X0.870000X0*%
%ADD48RoundRect,0.250000X0.300000X-0.300000X0.300000X0.300000X-0.300000X0.300000X-0.300000X-0.300000X0*%
%ADD49RoundRect,0.147500X0.147500X0.172500X-0.147500X0.172500X-0.147500X-0.172500X0.147500X-0.172500X0*%
%ADD50RoundRect,0.218750X-0.218750X-0.256250X0.218750X-0.256250X0.218750X0.256250X-0.218750X0.256250X0*%
%ADD51R,0.790000X0.440000*%
%ADD52RoundRect,0.225000X0.225000X0.250000X-0.225000X0.250000X-0.225000X-0.250000X0.225000X-0.250000X0*%
%ADD53C,1.500000*%
%ADD54RoundRect,0.102000X0.190000X-0.750000X0.190000X0.750000X-0.190000X0.750000X-0.190000X-0.750000X0*%
%ADD55R,1.500000X36.900000*%
%ADD56FreePoly1,90.000000*%
%ADD57FreePoly2,0.000000*%
%ADD58R,15.299995X1.499980*%
%ADD59R,13.049996X1.499980*%
%ADD60FreePoly2,180.000000*%
%ADD61FreePoly2,270.000000*%
%ADD62R,1.500000X36.900008*%
%ADD63R,0.280000X0.280000*%
%ADD64O,0.850000X0.280000*%
%ADD65R,0.680000X1.050000*%
%ADD66R,0.260000X0.500000*%
%ADD67R,0.280000X0.700000*%
%ADD68R,1.650000X2.400000*%
%ADD69RoundRect,0.150000X-0.150000X0.512500X-0.150000X-0.512500X0.150000X-0.512500X0.150000X0.512500X0*%
%ADD70RoundRect,0.218750X-0.256250X0.218750X-0.256250X-0.218750X0.256250X-0.218750X0.256250X0.218750X0*%
%ADD71R,1.350000X1.350000*%
%ADD72C,1.350000*%
%ADD73R,1.700000X1.700000*%
%ADD74O,1.700000X1.700000*%
%ADD75RoundRect,0.147500X-0.147500X-0.172500X0.147500X-0.172500X0.147500X0.172500X-0.147500X0.172500X0*%
%ADD76RoundRect,0.150000X0.150000X-0.512500X0.150000X0.512500X-0.150000X0.512500X-0.150000X-0.512500X0*%
%ADD77RoundRect,0.125000X-0.125000X-0.250000X0.125000X-0.250000X0.125000X0.250000X-0.125000X0.250000X0*%
%ADD78RoundRect,0.125000X0.250000X-0.125000X0.250000X0.125000X-0.250000X0.125000X-0.250000X-0.125000X0*%
%ADD79RoundRect,0.125000X0.125000X0.250000X-0.125000X0.250000X-0.125000X-0.250000X0.125000X-0.250000X0*%
%ADD80RoundRect,0.125000X-0.250000X0.125000X-0.250000X-0.125000X0.250000X-0.125000X0.250000X0.125000X0*%
%ADD81RoundRect,0.050000X-0.500000X0.500000X-0.500000X-0.500000X0.500000X-0.500000X0.500000X0.500000X0*%
%ADD82RoundRect,0.100000X0.712500X0.100000X-0.712500X0.100000X-0.712500X-0.100000X0.712500X-0.100000X0*%
%ADD83R,1.400000X1.200000*%
%ADD84RoundRect,0.250000X0.262500X0.450000X-0.262500X0.450000X-0.262500X-0.450000X0.262500X-0.450000X0*%
%ADD85RoundRect,0.218750X0.256250X-0.218750X0.256250X0.218750X-0.256250X0.218750X-0.256250X-0.218750X0*%
%ADD86RoundRect,0.250000X-0.450000X0.262500X-0.450000X-0.262500X0.450000X-0.262500X0.450000X0.262500X0*%
%ADD87R,0.800000X0.900000*%
%ADD88RoundRect,0.110500X0.314500X-0.339500X0.314500X0.339500X-0.314500X0.339500X-0.314500X-0.339500X0*%
%ADD89RoundRect,0.125000X0.125000X0.325000X-0.125000X0.325000X-0.125000X-0.325000X0.125000X-0.325000X0*%
%ADD90RoundRect,0.106250X0.318750X-0.343750X0.318750X0.343750X-0.318750X0.343750X-0.318750X-0.343750X0*%
%ADD91RoundRect,0.125000X-0.325000X0.125000X-0.325000X-0.125000X0.325000X-0.125000X0.325000X0.125000X0*%
%ADD92RoundRect,0.110500X-0.314500X0.339500X-0.314500X-0.339500X0.314500X-0.339500X0.314500X0.339500X0*%
%ADD93RoundRect,0.125000X-0.125000X-0.325000X0.125000X-0.325000X0.125000X0.325000X-0.125000X0.325000X0*%
%ADD94RoundRect,0.110500X-0.314500X-0.339500X0.314500X-0.339500X0.314500X0.339500X-0.314500X0.339500X0*%
%ADD95RoundRect,0.125000X0.325000X-0.125000X0.325000X0.125000X-0.325000X0.125000X-0.325000X-0.125000X0*%
%ADD96R,4.600000X4.600000*%
%ADD97RoundRect,0.075000X-0.075000X0.350000X-0.075000X-0.350000X0.075000X-0.350000X0.075000X0.350000X0*%
%ADD98RoundRect,0.075000X-0.350000X0.075000X-0.350000X-0.075000X0.350000X-0.075000X0.350000X0.075000X0*%
%ADD99FreePoly2,90.000000*%
%ADD100FreePoly3,270.000000*%
%ADD101C,1.240000*%
G04 APERTURE END LIST*
D10*
%TO.C,R55*%
X85100000Y-86112500D03*
X85100000Y-84287500D03*
%TD*%
D11*
%TO.C,TP11*%
X46700000Y-53600000D03*
%TD*%
D12*
%TO.C,R10*%
X34100000Y-51490000D03*
X34100000Y-52510000D03*
%TD*%
D13*
%TO.C,R46*%
X28900000Y-54625000D03*
X28900000Y-52975000D03*
%TD*%
D14*
%TO.C,C35*%
X49725000Y-57600000D03*
X51275000Y-57600000D03*
%TD*%
D15*
%TO.C,C106*%
X25100000Y-89025000D03*
X25100000Y-90575000D03*
%TD*%
%TO.C,C129*%
X84200000Y-9825000D03*
X84200000Y-11375000D03*
%TD*%
%TO.C,C114*%
X23400000Y-84025000D03*
X23400000Y-85575000D03*
%TD*%
D16*
%TO.C,C6*%
X62900000Y-22870000D03*
X62900000Y-23830000D03*
%TD*%
D11*
%TO.C,TP8*%
X55500000Y-46400000D03*
%TD*%
D17*
%TO.C,C36*%
X42620000Y-29700000D03*
X43580000Y-29700000D03*
%TD*%
D11*
%TO.C,TP4*%
X47100000Y-15400000D03*
%TD*%
D17*
%TO.C,C105*%
X71920000Y-77500000D03*
X72880000Y-77500000D03*
%TD*%
D18*
%TO.C,C22*%
X38800000Y-71050000D03*
X38800000Y-72950000D03*
%TD*%
D19*
%TO.C,C44*%
X50400000Y-28280000D03*
X50400000Y-27320000D03*
%TD*%
D16*
%TO.C,C73*%
X15500000Y-71820000D03*
X15500000Y-72780000D03*
%TD*%
D11*
%TO.C,TP32*%
X61100000Y-55000000D03*
%TD*%
D20*
%TO.C,X2*%
X52250000Y-30300000D03*
X57750000Y-30300000D03*
X57750000Y-27100000D03*
X52250000Y-27100000D03*
%TD*%
D19*
%TO.C,C98*%
X69900000Y-70380000D03*
X69900000Y-69420000D03*
%TD*%
D21*
%TO.C,U11*%
X21000000Y-46425000D03*
X21500000Y-46425000D03*
X22000000Y-46425000D03*
X22500000Y-46425000D03*
X23000000Y-46425000D03*
D22*
X23925000Y-45500000D03*
X23925000Y-45000000D03*
X23925000Y-44500000D03*
X23925000Y-44000000D03*
X23925000Y-43500000D03*
D21*
X23000000Y-42575000D03*
X22500000Y-42575000D03*
X22000000Y-42575000D03*
X21500000Y-42575000D03*
X21000000Y-42575000D03*
D22*
X20075000Y-43500000D03*
X20075000Y-44000000D03*
X20075000Y-44500000D03*
X20075000Y-45000000D03*
X20075000Y-45500000D03*
D23*
X22000000Y-44500000D03*
%TD*%
D24*
%TO.C,R42*%
X63690000Y-37700000D03*
X64710000Y-37700000D03*
%TD*%
D12*
%TO.C,R38*%
X70700000Y-27040000D03*
X70700000Y-28060000D03*
%TD*%
%TO.C,R2*%
X69500000Y-21240000D03*
X69500000Y-22260000D03*
%TD*%
D25*
%TO.C,C131*%
X6800000Y-86075000D03*
X6800000Y-84525000D03*
%TD*%
D11*
%TO.C,TP17*%
X34600000Y-41600000D03*
%TD*%
D25*
%TO.C,C9*%
X52700000Y-17575000D03*
X52700000Y-16025000D03*
%TD*%
D26*
%TO.C,U8*%
X29955000Y-20025000D03*
X28685000Y-20025000D03*
X27415000Y-20025000D03*
X26145000Y-20025000D03*
X26145000Y-24975000D03*
X27415000Y-24975000D03*
X28685000Y-24975000D03*
X29955000Y-24975000D03*
%TD*%
D18*
%TO.C,C21*%
X37000000Y-71050000D03*
X37000000Y-72950000D03*
%TD*%
D27*
%TO.C,U5*%
X48750000Y-31325000D03*
X48250000Y-31325000D03*
X47750000Y-31325000D03*
X47250000Y-31325000D03*
X46750000Y-31325000D03*
X46250000Y-31325000D03*
X45750000Y-31325000D03*
X45250000Y-31325000D03*
X44750000Y-31325000D03*
X44250000Y-31325000D03*
X43750000Y-31325000D03*
X43250000Y-31325000D03*
X42750000Y-31325000D03*
X42250000Y-31325000D03*
X41750000Y-31325000D03*
X41250000Y-31325000D03*
D28*
X39325000Y-33250000D03*
X39325000Y-33750000D03*
X39325000Y-34250000D03*
X39325000Y-34750000D03*
X39325000Y-35250000D03*
X39325000Y-35750000D03*
X39325000Y-36250000D03*
X39325000Y-36750000D03*
X39325000Y-37250000D03*
X39325000Y-37750000D03*
X39325000Y-38250000D03*
X39325000Y-38750000D03*
X39325000Y-39250000D03*
X39325000Y-39750000D03*
X39325000Y-40250000D03*
X39325000Y-40750000D03*
D27*
X41250000Y-42675000D03*
X41750000Y-42675000D03*
X42250000Y-42675000D03*
X42750000Y-42675000D03*
X43250000Y-42675000D03*
X43750000Y-42675000D03*
X44250000Y-42675000D03*
X44750000Y-42675000D03*
X45250000Y-42675000D03*
X45750000Y-42675000D03*
X46250000Y-42675000D03*
X46750000Y-42675000D03*
X47250000Y-42675000D03*
X47750000Y-42675000D03*
X48250000Y-42675000D03*
X48750000Y-42675000D03*
D28*
X50675000Y-40750000D03*
X50675000Y-40250000D03*
X50675000Y-39750000D03*
X50675000Y-39250000D03*
X50675000Y-38750000D03*
X50675000Y-38250000D03*
X50675000Y-37750000D03*
X50675000Y-37250000D03*
X50675000Y-36750000D03*
X50675000Y-36250000D03*
X50675000Y-35750000D03*
X50675000Y-35250000D03*
X50675000Y-34750000D03*
X50675000Y-34250000D03*
X50675000Y-33750000D03*
X50675000Y-33250000D03*
%TD*%
D29*
%TO.C,U9*%
X68550000Y-29750000D03*
X68550000Y-29250000D03*
X68550000Y-28750000D03*
X68550000Y-28250000D03*
X65450000Y-28250000D03*
X65450000Y-28750000D03*
X65450000Y-29250000D03*
X65450000Y-29750000D03*
%TD*%
D30*
%TO.C,R23*%
X16700000Y-33000000D03*
X15680000Y-33000000D03*
%TD*%
D15*
%TO.C,C120*%
X60500000Y-89025000D03*
X60500000Y-90575000D03*
%TD*%
D31*
%TO.C,FL2*%
X63495000Y-66064000D03*
X65400000Y-66064000D03*
X67305000Y-66064000D03*
D32*
X69464000Y-62000000D03*
D31*
X67305000Y-57936000D03*
X65400000Y-57936000D03*
X63495000Y-57936000D03*
D32*
X61336000Y-62000000D03*
%TD*%
D17*
%TO.C,C111*%
X36170000Y-89000000D03*
X37130000Y-89000000D03*
%TD*%
D16*
%TO.C,C55*%
X26000000Y-45520000D03*
X26000000Y-46480000D03*
%TD*%
D33*
%TO.C,L31*%
X54687500Y-89000000D03*
X53112500Y-89000000D03*
%TD*%
D34*
%TO.C,Q1*%
X52212500Y-18850000D03*
X52212500Y-20750000D03*
X54087500Y-19800000D03*
%TD*%
D35*
%TO.C,JP1*%
X60600000Y-51300000D03*
D36*
X60600000Y-52100000D03*
D37*
X60600000Y-52900000D03*
%TD*%
D38*
%TO.C,C125*%
X63830000Y-84000000D03*
X62870000Y-84000000D03*
%TD*%
D16*
%TO.C,C48*%
X64300000Y-29920000D03*
X64300000Y-30880000D03*
%TD*%
D39*
%TO.C,C14*%
X33400000Y-61150000D03*
X33400000Y-59250000D03*
%TD*%
D16*
%TO.C,C43*%
X50400000Y-29120000D03*
X50400000Y-30080000D03*
%TD*%
%TO.C,C59*%
X27200000Y-47820000D03*
X27200000Y-48780000D03*
%TD*%
D30*
%TO.C,R16*%
X47510000Y-46400000D03*
X46490000Y-46400000D03*
%TD*%
D38*
%TO.C,C126*%
X60530000Y-84000000D03*
X59570000Y-84000000D03*
%TD*%
D11*
%TO.C,TP19*%
X36000000Y-44000000D03*
%TD*%
%TO.C,TP20*%
X34600000Y-43200000D03*
%TD*%
D30*
%TO.C,R24*%
X16710000Y-31000000D03*
X15690000Y-31000000D03*
%TD*%
D38*
%TO.C,C47*%
X29980000Y-26700000D03*
X29020000Y-26700000D03*
%TD*%
D40*
%TO.C,H2*%
X82550000Y-5080000D03*
%TD*%
D15*
%TO.C,C124*%
X65000000Y-84025000D03*
X65000000Y-85575000D03*
%TD*%
D38*
%TO.C,C127*%
X57230000Y-84000000D03*
X56270000Y-84000000D03*
%TD*%
D12*
%TO.C,R28*%
X34700000Y-32090000D03*
X34700000Y-33110000D03*
%TD*%
D16*
%TO.C,C60*%
X23500000Y-48020000D03*
X23500000Y-48980000D03*
%TD*%
D41*
%TO.C,L1*%
X62800000Y-18785000D03*
X62800000Y-16415000D03*
%TD*%
D42*
%TO.C,R52*%
X55100000Y-84025000D03*
X55100000Y-85675000D03*
%TD*%
D43*
%TO.C,U10*%
X64525000Y-32595000D03*
X64525000Y-33865000D03*
X64525000Y-35135000D03*
X64525000Y-36405000D03*
X69475000Y-36405000D03*
X69475000Y-35135000D03*
X69475000Y-33865000D03*
X69475000Y-32595000D03*
%TD*%
D12*
%TO.C,R18*%
X52200000Y-53290000D03*
X52200000Y-54310000D03*
%TD*%
D44*
%TO.C,L6*%
X26000000Y-57515000D03*
X26000000Y-58485000D03*
%TD*%
D45*
%TO.C,R37*%
X70700000Y-29960000D03*
X70700000Y-28940000D03*
%TD*%
D11*
%TO.C,TP5*%
X55000000Y-18500000D03*
%TD*%
D46*
%TO.C,H8*%
X7500000Y-80000000D03*
%TD*%
D38*
%TO.C,C46*%
X35980000Y-26700000D03*
X35020000Y-26700000D03*
%TD*%
D39*
%TO.C,C29*%
X56600000Y-61150000D03*
X56600000Y-59250000D03*
%TD*%
D47*
%TO.C,L2*%
X37000000Y-63250000D03*
X37000000Y-68950000D03*
%TD*%
D11*
%TO.C,TP18*%
X36000000Y-42400000D03*
%TD*%
D18*
%TO.C,C19*%
X33400000Y-71050000D03*
X33400000Y-72950000D03*
%TD*%
D48*
%TO.C,D1*%
X74700000Y-22200000D03*
X74700000Y-19400000D03*
%TD*%
D24*
%TO.C,R29*%
X34990000Y-27700000D03*
X36010000Y-27700000D03*
%TD*%
D45*
%TO.C,R5*%
X51600000Y-17610000D03*
X51600000Y-16590000D03*
%TD*%
D33*
%TO.C,L29*%
X63487500Y-89000000D03*
X61912500Y-89000000D03*
%TD*%
D12*
%TO.C,R13*%
X57000000Y-51490000D03*
X57000000Y-52510000D03*
%TD*%
D33*
%TO.C,L30*%
X59087500Y-89000000D03*
X57512500Y-89000000D03*
%TD*%
D39*
%TO.C,C16*%
X37000000Y-61150000D03*
X37000000Y-59250000D03*
%TD*%
D49*
%TO.C,L10*%
X23985000Y-67700000D03*
X23015000Y-67700000D03*
%TD*%
D50*
%TO.C,FB4*%
X62212500Y-42800000D03*
X63787500Y-42800000D03*
%TD*%
D26*
%TO.C,U7*%
X35855000Y-20025000D03*
X34585000Y-20025000D03*
X33315000Y-20025000D03*
X32045000Y-20025000D03*
X32045000Y-24975000D03*
X33315000Y-24975000D03*
X34585000Y-24975000D03*
X35855000Y-24975000D03*
%TD*%
D19*
%TO.C,C67*%
X24900000Y-67780000D03*
X24900000Y-66820000D03*
%TD*%
D38*
%TO.C,C118*%
X67030000Y-89000000D03*
X66070000Y-89000000D03*
%TD*%
%TO.C,C86*%
X63880000Y-48400000D03*
X62920000Y-48400000D03*
%TD*%
D45*
%TO.C,R33*%
X61300000Y-30910000D03*
X61300000Y-29890000D03*
%TD*%
D19*
%TO.C,C57*%
X26000000Y-44480000D03*
X26000000Y-43520000D03*
%TD*%
D24*
%TO.C,R8*%
X43340000Y-21000000D03*
X44360000Y-21000000D03*
%TD*%
D16*
%TO.C,C68*%
X26700000Y-69120000D03*
X26700000Y-70080000D03*
%TD*%
D30*
%TO.C,R9*%
X44360000Y-20000000D03*
X43340000Y-20000000D03*
%TD*%
D50*
%TO.C,L26*%
X24812500Y-84000000D03*
X26387500Y-84000000D03*
%TD*%
D11*
%TO.C,TP12*%
X33500000Y-26800000D03*
%TD*%
D38*
%TO.C,C45*%
X35380000Y-39600000D03*
X34420000Y-39600000D03*
%TD*%
D17*
%TO.C,C40*%
X50720000Y-32300000D03*
X51680000Y-32300000D03*
%TD*%
D11*
%TO.C,TP28*%
X55500000Y-41600000D03*
%TD*%
D30*
%TO.C,R22*%
X16710000Y-30000000D03*
X15690000Y-30000000D03*
%TD*%
D17*
%TO.C,C107*%
X26270000Y-89000000D03*
X27230000Y-89000000D03*
%TD*%
D51*
%TO.C,X4*%
X60705000Y-44930000D03*
X60705000Y-46870000D03*
X61895000Y-46870000D03*
X61895000Y-44930000D03*
%TD*%
D15*
%TO.C,C116*%
X32200000Y-84025000D03*
X32200000Y-85575000D03*
%TD*%
D11*
%TO.C,TP23*%
X16700000Y-46400000D03*
%TD*%
D24*
%TO.C,R47*%
X62890000Y-44000000D03*
X63910000Y-44000000D03*
%TD*%
D15*
%TO.C,C63*%
X22000000Y-49425000D03*
X22000000Y-50975000D03*
%TD*%
D25*
%TO.C,C3*%
X68300000Y-22275000D03*
X68300000Y-20725000D03*
%TD*%
D52*
%TO.C,C90*%
X74875000Y-53050000D03*
X73325000Y-53050000D03*
%TD*%
D15*
%TO.C,C121*%
X56100000Y-89025000D03*
X56100000Y-90575000D03*
%TD*%
D53*
%TO.C,J5*%
X36150000Y-50950000D03*
X53850000Y-50950000D03*
D54*
X52600000Y-51850000D03*
X52600000Y-48150000D03*
X51800000Y-51850000D03*
X51800000Y-48150000D03*
X51000000Y-51850000D03*
X51000000Y-48150000D03*
X50200000Y-51850000D03*
X50200000Y-48150000D03*
X49400000Y-51850000D03*
X49400000Y-48150000D03*
X48600000Y-51850000D03*
X48600000Y-48150000D03*
X47800000Y-51850000D03*
X47800000Y-48150000D03*
X47000000Y-51850000D03*
X47000000Y-48150000D03*
X46200000Y-51850000D03*
X46200000Y-48150000D03*
X45400000Y-51850000D03*
X45400000Y-48150000D03*
X44600000Y-51850000D03*
X44600000Y-48150000D03*
X43800000Y-51850000D03*
X43800000Y-48150000D03*
X43000000Y-51850000D03*
X43000000Y-48150000D03*
X42200000Y-51850000D03*
X42200000Y-48150000D03*
X41400000Y-51850000D03*
X41400000Y-48150000D03*
X40600000Y-51850000D03*
X40600000Y-48150000D03*
X39800000Y-51850000D03*
X39800000Y-48150000D03*
X39000000Y-51850000D03*
X39000000Y-48150000D03*
X38200000Y-51850000D03*
X38200000Y-48150000D03*
X37400000Y-51850000D03*
X37400000Y-48150000D03*
%TD*%
D17*
%TO.C,C104*%
X68520000Y-77500000D03*
X69480000Y-77500000D03*
%TD*%
D55*
%TO.C,SH1*%
X12700000Y-60000000D03*
D56*
X13150000Y-79600000D03*
D57*
X13200000Y-40350000D03*
D58*
X22000003Y-39900009D03*
D59*
X23124998Y-80100000D03*
D60*
X30800000Y-79650000D03*
D61*
X30850000Y-40400000D03*
D62*
X31300001Y-60000003D03*
%TD*%
D38*
%TO.C,C87*%
X63880000Y-49300000D03*
X62920000Y-49300000D03*
%TD*%
D17*
%TO.C,C109*%
X29570000Y-89000000D03*
X30530000Y-89000000D03*
%TD*%
D40*
%TO.C,H3*%
X85090000Y-90810000D03*
%TD*%
D17*
%TO.C,C96*%
X71220000Y-53800000D03*
X72180000Y-53800000D03*
%TD*%
D19*
%TO.C,C51*%
X71700000Y-28080000D03*
X71700000Y-27120000D03*
%TD*%
D15*
%TO.C,C117*%
X68200000Y-89025000D03*
X68200000Y-90575000D03*
%TD*%
D30*
%TO.C,R39*%
X75310000Y-32000000D03*
X74290000Y-32000000D03*
%TD*%
D14*
%TO.C,C75*%
X15525000Y-78300000D03*
X17075000Y-78300000D03*
%TD*%
D38*
%TO.C,C5*%
X62880000Y-21100000D03*
X61920000Y-21100000D03*
%TD*%
D63*
%TO.C,U1*%
X63740000Y-21000000D03*
D64*
X64025000Y-21000000D03*
D63*
X63740000Y-21500000D03*
D64*
X64025000Y-21500000D03*
D63*
X63740000Y-22000000D03*
D64*
X64025000Y-22000000D03*
D63*
X63740000Y-22500000D03*
D64*
X64025000Y-22500000D03*
D63*
X63740000Y-23000000D03*
D64*
X64025000Y-23000000D03*
X66975000Y-23000000D03*
D63*
X67260000Y-23000000D03*
D64*
X66975000Y-22500000D03*
D63*
X67260000Y-22500000D03*
D64*
X66975000Y-22000000D03*
D63*
X67260000Y-22000000D03*
D64*
X66975000Y-21500000D03*
D63*
X67260000Y-21500000D03*
D64*
X66975000Y-21000000D03*
D63*
X67260000Y-21000000D03*
D65*
X65050000Y-21365000D03*
X65050000Y-22635000D03*
D66*
X65250000Y-20370000D03*
D67*
X65250000Y-20450000D03*
X65250000Y-23550000D03*
D66*
X65250000Y-23630000D03*
D68*
X65500000Y-22000000D03*
D66*
X65750000Y-20370000D03*
D67*
X65750000Y-20450000D03*
X65750000Y-23550000D03*
D66*
X65750000Y-23630000D03*
D65*
X65950000Y-21365000D03*
X65950000Y-22635000D03*
%TD*%
D69*
%TO.C,Q5*%
X56850000Y-53862500D03*
X54950000Y-53862500D03*
X55900000Y-56137500D03*
%TD*%
D52*
%TO.C,C10*%
X50475000Y-23900000D03*
X48925000Y-23900000D03*
%TD*%
D12*
%TO.C,R17*%
X46900000Y-54690000D03*
X46900000Y-55710000D03*
%TD*%
D11*
%TO.C,TP10*%
X45300000Y-53600000D03*
%TD*%
D18*
%TO.C,C32*%
X53000000Y-71050000D03*
X53000000Y-72950000D03*
%TD*%
D24*
%TO.C,R50*%
X63790000Y-77500000D03*
X64810000Y-77500000D03*
%TD*%
D19*
%TO.C,C38*%
X37500000Y-40880000D03*
X37500000Y-39920000D03*
%TD*%
D44*
%TO.C,L7*%
X26000000Y-60915000D03*
X26000000Y-61885000D03*
%TD*%
D11*
%TO.C,TP27*%
X54000000Y-42400000D03*
%TD*%
D30*
%TO.C,R21*%
X16710000Y-32000000D03*
X15690000Y-32000000D03*
%TD*%
D39*
%TO.C,C26*%
X51200000Y-61150000D03*
X51200000Y-59250000D03*
%TD*%
D17*
%TO.C,C78*%
X72320000Y-46700000D03*
X73280000Y-46700000D03*
%TD*%
D24*
%TO.C,R11*%
X43140000Y-56600000D03*
X44160000Y-56600000D03*
%TD*%
D70*
%TO.C,FB6*%
X27900000Y-67612500D03*
X27900000Y-69187500D03*
%TD*%
D10*
%TO.C,R56*%
X5100000Y-86112500D03*
X5100000Y-84287500D03*
%TD*%
D38*
%TO.C,C103*%
X64780000Y-76600000D03*
X63820000Y-76600000D03*
%TD*%
D45*
%TO.C,R32*%
X62300000Y-30910000D03*
X62300000Y-29890000D03*
%TD*%
D71*
%TO.C,J3*%
X77000000Y-28000000D03*
D72*
X77000000Y-30000000D03*
X77000000Y-32000000D03*
X79000000Y-28000000D03*
X79000000Y-30000000D03*
X79000000Y-32000000D03*
D53*
X79500000Y-34250000D03*
X84250000Y-34250000D03*
X79500000Y-25750000D03*
X84250000Y-25750000D03*
%TD*%
D24*
%TO.C,R4*%
X51590000Y-22000000D03*
X52610000Y-22000000D03*
%TD*%
D44*
%TO.C,L22*%
X68400000Y-54615000D03*
X68400000Y-55585000D03*
%TD*%
D12*
%TO.C,R6*%
X52600000Y-22890000D03*
X52600000Y-23910000D03*
%TD*%
D70*
%TO.C,L9*%
X20400000Y-49412500D03*
X20400000Y-50987500D03*
%TD*%
D39*
%TO.C,C15*%
X35200000Y-61150000D03*
X35200000Y-59250000D03*
%TD*%
D14*
%TO.C,C61*%
X26025000Y-54700000D03*
X27575000Y-54700000D03*
%TD*%
D11*
%TO.C,TP1*%
X67400000Y-25500000D03*
%TD*%
D14*
%TO.C,C62*%
X26025000Y-59700000D03*
X27575000Y-59700000D03*
%TD*%
D11*
%TO.C,TP6*%
X34600000Y-46400000D03*
%TD*%
D73*
%TO.C,J2*%
X13970000Y-7620000D03*
D74*
X13970000Y-5080000D03*
X16510000Y-7620000D03*
X16510000Y-5080000D03*
X19050000Y-7620000D03*
X19050000Y-5080000D03*
X21590000Y-7620000D03*
X21590000Y-5080000D03*
X24130000Y-7620000D03*
X24130000Y-5080000D03*
X26670000Y-7620000D03*
X26670000Y-5080000D03*
X29210000Y-7620000D03*
X29210000Y-5080000D03*
X31750000Y-7620000D03*
X31750000Y-5080000D03*
X34290000Y-7620000D03*
X34290000Y-5080000D03*
X36830000Y-7620000D03*
X36830000Y-5080000D03*
X39370000Y-7620000D03*
X39370000Y-5080000D03*
X41910000Y-7620000D03*
X41910000Y-5080000D03*
X44450000Y-7620000D03*
X44450000Y-5080000D03*
X46990000Y-7620000D03*
X46990000Y-5080000D03*
X49530000Y-7620000D03*
X49530000Y-5080000D03*
X52070000Y-7620000D03*
X52070000Y-5080000D03*
X54610000Y-7620000D03*
X54610000Y-5080000D03*
X57150000Y-7620000D03*
X57150000Y-5080000D03*
X59690000Y-7620000D03*
X59690000Y-5080000D03*
X62230000Y-7620000D03*
X62230000Y-5080000D03*
X64770000Y-7620000D03*
X64770000Y-5080000D03*
X67310000Y-7620000D03*
X67310000Y-5080000D03*
X69850000Y-7620000D03*
X69850000Y-5080000D03*
X72390000Y-7620000D03*
X72390000Y-5080000D03*
X74930000Y-7620000D03*
X74930000Y-5080000D03*
X77470000Y-7620000D03*
X77470000Y-5080000D03*
%TD*%
D11*
%TO.C,TP7*%
X42100000Y-63200000D03*
%TD*%
D38*
%TO.C,C84*%
X63880000Y-46300000D03*
X62920000Y-46300000D03*
%TD*%
D16*
%TO.C,C69*%
X25800000Y-69120000D03*
X25800000Y-70080000D03*
%TD*%
%TO.C,C39*%
X49700000Y-42720000D03*
X49700000Y-43680000D03*
%TD*%
D38*
%TO.C,C94*%
X68430000Y-53800000D03*
X67470000Y-53800000D03*
%TD*%
D11*
%TO.C,TP16*%
X53500000Y-32800000D03*
%TD*%
D16*
%TO.C,C80*%
X64800000Y-51670000D03*
X64800000Y-52630000D03*
%TD*%
D50*
%TO.C,L27*%
X29212500Y-84000000D03*
X30787500Y-84000000D03*
%TD*%
D39*
%TO.C,C28*%
X54800000Y-61150000D03*
X54800000Y-59250000D03*
%TD*%
D69*
%TO.C,Q4*%
X47850000Y-58862500D03*
X45950000Y-58862500D03*
X46900000Y-61137500D03*
%TD*%
D14*
%TO.C,C12*%
X42525000Y-25200000D03*
X44075000Y-25200000D03*
%TD*%
D18*
%TO.C,C31*%
X51200000Y-71050000D03*
X51200000Y-72950000D03*
%TD*%
D17*
%TO.C,C102*%
X60320000Y-71200000D03*
X61280000Y-71200000D03*
%TD*%
D15*
%TO.C,C119*%
X64900000Y-89025000D03*
X64900000Y-90575000D03*
%TD*%
D75*
%TO.C,L23*%
X69365000Y-53800000D03*
X70335000Y-53800000D03*
%TD*%
D12*
%TO.C,R7*%
X51700000Y-22890000D03*
X51700000Y-23910000D03*
%TD*%
D69*
%TO.C,Q2*%
X44050000Y-58862500D03*
X42150000Y-58862500D03*
X43100000Y-61137500D03*
%TD*%
D76*
%TO.C,U4*%
X49250000Y-56037500D03*
X50200000Y-56037500D03*
X51150000Y-56037500D03*
X51150000Y-53762500D03*
X50200000Y-53762500D03*
X49250000Y-53762500D03*
%TD*%
D33*
%TO.C,FB2*%
X28787500Y-44200000D03*
X27212500Y-44200000D03*
%TD*%
D19*
%TO.C,C37*%
X37500000Y-34180000D03*
X37500000Y-33220000D03*
%TD*%
D47*
%TO.C,L3*%
X53000000Y-63250000D03*
X53000000Y-68950000D03*
%TD*%
D11*
%TO.C,TP14*%
X37100000Y-26700000D03*
%TD*%
D19*
%TO.C,C99*%
X69000000Y-70380000D03*
X69000000Y-69420000D03*
%TD*%
D15*
%TO.C,C71*%
X19200000Y-74225000D03*
X19200000Y-75775000D03*
%TD*%
D45*
%TO.C,R45*%
X27100000Y-43010000D03*
X27100000Y-41990000D03*
%TD*%
D70*
%TO.C,FB3*%
X29400000Y-67612500D03*
X29400000Y-69187500D03*
%TD*%
D19*
%TO.C,C65*%
X26700000Y-67780000D03*
X26700000Y-66820000D03*
%TD*%
D11*
%TO.C,TP2*%
X71200000Y-16200000D03*
%TD*%
%TO.C,TP13*%
X31900000Y-26800000D03*
%TD*%
%TO.C,TP30*%
X55500000Y-44800000D03*
%TD*%
%TO.C,TP29*%
X54000000Y-45600000D03*
%TD*%
D45*
%TO.C,R20*%
X52200000Y-36410000D03*
X52200000Y-35390000D03*
%TD*%
D11*
%TO.C,TP31*%
X62700000Y-55000000D03*
%TD*%
D52*
%TO.C,C92*%
X74875000Y-61150000D03*
X73325000Y-61150000D03*
%TD*%
D16*
%TO.C,C89*%
X70650000Y-50920000D03*
X70650000Y-51880000D03*
%TD*%
D12*
%TO.C,R3*%
X69500000Y-20190000D03*
X69500000Y-21210000D03*
%TD*%
D70*
%TO.C,L15*%
X15500000Y-75312500D03*
X15500000Y-76887500D03*
%TD*%
D45*
%TO.C,R41*%
X62800000Y-37810000D03*
X62800000Y-36790000D03*
%TD*%
D33*
%TO.C,L11*%
X24637500Y-69200000D03*
X23062500Y-69200000D03*
%TD*%
D77*
%TO.C,U12*%
X21700000Y-67175000D03*
X20800000Y-67175000D03*
X20000000Y-67175000D03*
X19200000Y-67175000D03*
X18300000Y-67175000D03*
D78*
X18175000Y-68200000D03*
X18175000Y-69000000D03*
X18175000Y-69800000D03*
D79*
X18300000Y-70825000D03*
X19200000Y-70825000D03*
X20000000Y-70825000D03*
X20800000Y-70825000D03*
X21700000Y-70782500D03*
D80*
X21825000Y-69800000D03*
X21825000Y-69000000D03*
X21825000Y-68200000D03*
D81*
X20500000Y-68500000D03*
X19500000Y-68500000D03*
X20500000Y-69500000D03*
X19500000Y-69500000D03*
%TD*%
D46*
%TO.C,H5*%
X7500000Y-20000000D03*
%TD*%
D11*
%TO.C,TP3*%
X42000000Y-20800000D03*
%TD*%
D50*
%TO.C,L28*%
X33612500Y-84000000D03*
X35187500Y-84000000D03*
%TD*%
%TO.C,L5*%
X26012500Y-56200000D03*
X27587500Y-56200000D03*
%TD*%
D70*
%TO.C,L25*%
X35000000Y-89012500D03*
X35000000Y-90587500D03*
%TD*%
D82*
%TO.C,U2*%
X50112500Y-18975000D03*
X50112500Y-18325000D03*
X50112500Y-17675000D03*
X50112500Y-17025000D03*
X45887500Y-17025000D03*
X45887500Y-17675000D03*
X45887500Y-18325000D03*
X45887500Y-18975000D03*
%TD*%
D30*
%TO.C,R35*%
X64310000Y-28000000D03*
X63290000Y-28000000D03*
%TD*%
D73*
%TO.C,J1*%
X13970000Y-12700000D03*
D74*
X13970000Y-10160000D03*
X16510000Y-12700000D03*
X16510000Y-10160000D03*
X19050000Y-12700000D03*
X19050000Y-10160000D03*
X21590000Y-12700000D03*
X21590000Y-10160000D03*
X24130000Y-12700000D03*
X24130000Y-10160000D03*
X26670000Y-12700000D03*
X26670000Y-10160000D03*
X29210000Y-12700000D03*
X29210000Y-10160000D03*
X31750000Y-12700000D03*
X31750000Y-10160000D03*
X34290000Y-12700000D03*
X34290000Y-10160000D03*
X36830000Y-12700000D03*
X36830000Y-10160000D03*
X39370000Y-12700000D03*
X39370000Y-10160000D03*
X41910000Y-12700000D03*
X41910000Y-10160000D03*
X44450000Y-12700000D03*
X44450000Y-10160000D03*
X46990000Y-12700000D03*
X46990000Y-10160000D03*
X49530000Y-12700000D03*
X49530000Y-10160000D03*
X52070000Y-12700000D03*
X52070000Y-10160000D03*
X54610000Y-12700000D03*
X54610000Y-10160000D03*
X57150000Y-12700000D03*
X57150000Y-10160000D03*
X59690000Y-12700000D03*
X59690000Y-10160000D03*
X62230000Y-12700000D03*
X62230000Y-10160000D03*
X64770000Y-12700000D03*
X64770000Y-10160000D03*
X67310000Y-12700000D03*
X67310000Y-10160000D03*
X69850000Y-12700000D03*
X69850000Y-10160000D03*
X72390000Y-12700000D03*
X72390000Y-10160000D03*
X74930000Y-12700000D03*
X74930000Y-10160000D03*
X77470000Y-12700000D03*
X77470000Y-10160000D03*
%TD*%
D30*
%TO.C,R49*%
X64810000Y-78400000D03*
X63790000Y-78400000D03*
%TD*%
D38*
%TO.C,C88*%
X61780000Y-44000000D03*
X60820000Y-44000000D03*
%TD*%
D33*
%TO.C,L13*%
X22187500Y-74200000D03*
X20612500Y-74200000D03*
%TD*%
D31*
%TO.C,FL1*%
X17295000Y-62264000D03*
X19200000Y-62264000D03*
X21105000Y-62264000D03*
D32*
X23264000Y-58200000D03*
D31*
X21105000Y-54136000D03*
X19200000Y-54136000D03*
X17295000Y-54136000D03*
D32*
X15136000Y-58200000D03*
%TD*%
D15*
%TO.C,C112*%
X20100000Y-84025000D03*
X20100000Y-85575000D03*
%TD*%
D12*
%TO.C,R44*%
X71200000Y-33990000D03*
X71200000Y-35010000D03*
%TD*%
D25*
%TO.C,C130*%
X86800000Y-86075000D03*
X86800000Y-84525000D03*
%TD*%
D46*
%TO.C,H6*%
X82500000Y-20000000D03*
%TD*%
D17*
%TO.C,C100*%
X60320000Y-73100000D03*
X61280000Y-73100000D03*
%TD*%
D44*
%TO.C,L17*%
X74900000Y-50915000D03*
X74900000Y-51885000D03*
%TD*%
D14*
%TO.C,C11*%
X42525000Y-23800000D03*
X44075000Y-23800000D03*
%TD*%
D46*
%TO.C,H7*%
X82500000Y-80000000D03*
%TD*%
D11*
%TO.C,TP9*%
X48000000Y-63200000D03*
%TD*%
D18*
%TO.C,C33*%
X54800000Y-71050000D03*
X54800000Y-72950000D03*
%TD*%
D16*
%TO.C,C82*%
X71550000Y-50920000D03*
X71550000Y-51880000D03*
%TD*%
D11*
%TO.C,TP15*%
X53500000Y-34400000D03*
%TD*%
%TO.C,TP24*%
X18400000Y-46400000D03*
%TD*%
D24*
%TO.C,R14*%
X45940000Y-56600000D03*
X46960000Y-56600000D03*
%TD*%
D42*
%TO.C,R51*%
X36600000Y-83975000D03*
X36600000Y-85625000D03*
%TD*%
D38*
%TO.C,C76*%
X64380000Y-50200000D03*
X63420000Y-50200000D03*
%TD*%
D40*
%TO.C,H1*%
X8890000Y-5080000D03*
%TD*%
D70*
%TO.C,D4*%
X70700000Y-75912500D03*
X70700000Y-77487500D03*
%TD*%
D15*
%TO.C,C108*%
X28400000Y-89025000D03*
X28400000Y-90575000D03*
%TD*%
D83*
%TO.C,X1*%
X45700000Y-27500000D03*
X47900000Y-27500000D03*
X47900000Y-25900000D03*
X45700000Y-25900000D03*
%TD*%
D70*
%TO.C,L24*%
X31700000Y-89012500D03*
X31700000Y-90587500D03*
%TD*%
D44*
%TO.C,L19*%
X74900000Y-59015000D03*
X74900000Y-59985000D03*
%TD*%
D15*
%TO.C,C91*%
X74900000Y-56325000D03*
X74900000Y-57875000D03*
%TD*%
D14*
%TO.C,C74*%
X15525000Y-73900000D03*
X17075000Y-73900000D03*
%TD*%
D84*
%TO.C,R1*%
X60712500Y-24650000D03*
X58887500Y-24650000D03*
%TD*%
D17*
%TO.C,C101*%
X60320000Y-72100000D03*
X61280000Y-72100000D03*
%TD*%
D11*
%TO.C,TP22*%
X36000000Y-45600000D03*
%TD*%
D85*
%TO.C,FB5*%
X60900000Y-75987500D03*
X60900000Y-74412500D03*
%TD*%
D38*
%TO.C,C97*%
X67480000Y-55600000D03*
X66520000Y-55600000D03*
%TD*%
D16*
%TO.C,C49*%
X69700000Y-29320000D03*
X69700000Y-30280000D03*
%TD*%
D70*
%TO.C,L12*%
X23400000Y-71512500D03*
X23400000Y-73087500D03*
%TD*%
D18*
%TO.C,C30*%
X49400000Y-71050000D03*
X49400000Y-72950000D03*
%TD*%
D24*
%TO.C,R48*%
X64890000Y-42600000D03*
X65910000Y-42600000D03*
%TD*%
D85*
%TO.C,L16*%
X72650000Y-50387500D03*
X72650000Y-48812500D03*
%TD*%
D30*
%TO.C,R26*%
X16700000Y-26800000D03*
X15680000Y-26800000D03*
%TD*%
D16*
%TO.C,C54*%
X26900000Y-45520000D03*
X26900000Y-46480000D03*
%TD*%
D40*
%TO.C,H4*%
X5080000Y-90810000D03*
%TD*%
D30*
%TO.C,R40*%
X75310000Y-31000000D03*
X74290000Y-31000000D03*
%TD*%
D17*
%TO.C,C13*%
X43170000Y-57500000D03*
X44130000Y-57500000D03*
%TD*%
D19*
%TO.C,C79*%
X69000000Y-42980000D03*
X69000000Y-42020000D03*
%TD*%
D44*
%TO.C,L20*%
X74900000Y-62315000D03*
X74900000Y-63285000D03*
%TD*%
D16*
%TO.C,C95*%
X69400000Y-54620000D03*
X69400000Y-55580000D03*
%TD*%
D17*
%TO.C,C41*%
X46920000Y-28700000D03*
X47880000Y-28700000D03*
%TD*%
D69*
%TO.C,Q3*%
X35050000Y-53862500D03*
X33150000Y-53862500D03*
X34100000Y-56137500D03*
%TD*%
D30*
%TO.C,R36*%
X71710000Y-30800000D03*
X70690000Y-30800000D03*
%TD*%
D16*
%TO.C,C81*%
X67150000Y-51670000D03*
X67150000Y-52630000D03*
%TD*%
D18*
%TO.C,C7*%
X65900000Y-16150000D03*
X65900000Y-18050000D03*
%TD*%
D70*
%TO.C,L33*%
X58400000Y-84012500D03*
X58400000Y-85587500D03*
%TD*%
D39*
%TO.C,C1*%
X72700000Y-22150000D03*
X72700000Y-20250000D03*
%TD*%
D86*
%TO.C,R54*%
X82500000Y-9787500D03*
X82500000Y-11612500D03*
%TD*%
D38*
%TO.C,C85*%
X63880000Y-47500000D03*
X62920000Y-47500000D03*
%TD*%
D19*
%TO.C,C66*%
X25800000Y-67780000D03*
X25800000Y-66820000D03*
%TD*%
D17*
%TO.C,C24*%
X45970000Y-57500000D03*
X46930000Y-57500000D03*
%TD*%
%TO.C,C113*%
X21270000Y-84000000D03*
X22230000Y-84000000D03*
%TD*%
D38*
%TO.C,C123*%
X67130000Y-84000000D03*
X66170000Y-84000000D03*
%TD*%
D16*
%TO.C,C53*%
X71200000Y-35920000D03*
X71200000Y-36880000D03*
%TD*%
D45*
%TO.C,R43*%
X71200000Y-33110000D03*
X71200000Y-32090000D03*
%TD*%
D16*
%TO.C,C56*%
X25100000Y-45520000D03*
X25100000Y-46480000D03*
%TD*%
D17*
%TO.C,C83*%
X72320000Y-45350000D03*
X73280000Y-45350000D03*
%TD*%
D38*
%TO.C,C4*%
X62880000Y-22000000D03*
X61920000Y-22000000D03*
%TD*%
D24*
%TO.C,R30*%
X28990000Y-27700000D03*
X30010000Y-27700000D03*
%TD*%
D16*
%TO.C,C52*%
X62800000Y-34020000D03*
X62800000Y-34980000D03*
%TD*%
D30*
%TO.C,R19*%
X45510000Y-29700000D03*
X44490000Y-29700000D03*
%TD*%
D11*
%TO.C,TP25*%
X54000000Y-44000000D03*
%TD*%
D33*
%TO.C,FB1*%
X44087500Y-22200000D03*
X42512500Y-22200000D03*
%TD*%
D86*
%TO.C,R53*%
X8900000Y-9787500D03*
X8900000Y-11612500D03*
%TD*%
D75*
%TO.C,L14*%
X25415000Y-74200000D03*
X26385000Y-74200000D03*
%TD*%
D39*
%TO.C,C18*%
X40600000Y-61150000D03*
X40600000Y-59250000D03*
%TD*%
D44*
%TO.C,L18*%
X74900000Y-54215000D03*
X74900000Y-55185000D03*
%TD*%
D17*
%TO.C,C70*%
X23520000Y-74200000D03*
X24480000Y-74200000D03*
%TD*%
D82*
%TO.C,U3*%
X50112500Y-22475000D03*
X50112500Y-21825000D03*
X50112500Y-21175000D03*
X50112500Y-20525000D03*
X45887500Y-20525000D03*
X45887500Y-21175000D03*
X45887500Y-21825000D03*
X45887500Y-22475000D03*
%TD*%
D30*
%TO.C,R34*%
X64310000Y-29000000D03*
X63290000Y-29000000D03*
%TD*%
D87*
%TO.C,X3*%
X17250000Y-42800000D03*
X17250000Y-44200000D03*
X18350000Y-44200000D03*
X18350000Y-42800000D03*
%TD*%
D16*
%TO.C,C77*%
X66200000Y-51670000D03*
X66200000Y-52630000D03*
%TD*%
D88*
%TO.C,U14*%
X62225000Y-75250000D03*
D89*
X63125000Y-75250000D03*
X63875000Y-75250000D03*
X64625000Y-75250000D03*
X65375000Y-75250000D03*
X66125000Y-75250000D03*
X66875000Y-75250000D03*
D90*
X67775000Y-75250000D03*
D91*
X67750000Y-74313000D03*
X67750000Y-73588000D03*
X67750000Y-72863000D03*
X67750000Y-72137000D03*
X67750000Y-71412000D03*
X67750000Y-70687000D03*
D92*
X67775000Y-69750000D03*
D93*
X66875000Y-69750000D03*
X66125000Y-69750000D03*
X65375000Y-69750000D03*
X64625000Y-69750000D03*
X63875000Y-69750000D03*
X63125000Y-69750000D03*
D94*
X62225000Y-69750000D03*
D95*
X62250000Y-70687000D03*
X62250000Y-71412000D03*
X62250000Y-72137000D03*
X62250000Y-72863000D03*
X62250000Y-73588000D03*
X62250000Y-74313000D03*
D81*
X63500000Y-74000000D03*
X64500000Y-74000000D03*
X65500000Y-74000000D03*
X66500000Y-74000000D03*
X63500000Y-73000000D03*
X64500000Y-73000000D03*
X65500000Y-73000000D03*
X66500000Y-73000000D03*
X63500000Y-72000000D03*
X64500000Y-72000000D03*
X65500000Y-72000000D03*
X66500000Y-72000000D03*
X63500000Y-71000000D03*
X64500000Y-71000000D03*
X65500000Y-71000000D03*
X66500000Y-71000000D03*
%TD*%
D52*
%TO.C,C64*%
X19075000Y-49400000D03*
X17525000Y-49400000D03*
%TD*%
D17*
%TO.C,C110*%
X32870000Y-89000000D03*
X33830000Y-89000000D03*
%TD*%
D45*
%TO.C,R12*%
X36100000Y-56610000D03*
X36100000Y-55590000D03*
%TD*%
D19*
%TO.C,C58*%
X25100000Y-44480000D03*
X25100000Y-43520000D03*
%TD*%
D38*
%TO.C,C42*%
X46080000Y-28700000D03*
X45120000Y-28700000D03*
%TD*%
D21*
%TO.C,U13*%
X65750000Y-49950000D03*
X66250000Y-49950000D03*
X66750000Y-49950000D03*
X67250000Y-49950000D03*
X67750000Y-49950000D03*
X68250000Y-49950000D03*
X68750000Y-49950000D03*
X69250000Y-49950000D03*
X69750000Y-49950000D03*
X70250000Y-49950000D03*
D22*
X70950000Y-49250000D03*
X70950000Y-48750000D03*
X70950000Y-48250000D03*
X70950000Y-47750000D03*
X70950000Y-47250000D03*
X70950000Y-46750000D03*
X70950000Y-46250000D03*
X70950000Y-45750000D03*
X70950000Y-45250000D03*
X70950000Y-44750000D03*
D21*
X70250000Y-44050000D03*
X69750000Y-44050000D03*
X69250000Y-44050000D03*
X68750000Y-44050000D03*
X68250000Y-44050000D03*
X67750000Y-44050000D03*
X67250000Y-44050000D03*
X66750000Y-44050000D03*
X66250000Y-44050000D03*
X65750000Y-44050000D03*
D22*
X65050000Y-44750000D03*
X65050000Y-45250000D03*
X65050000Y-45750000D03*
X65050000Y-46250000D03*
X65050000Y-46750000D03*
X65050000Y-47250000D03*
X65050000Y-47750000D03*
X65050000Y-48250000D03*
X65050000Y-48750000D03*
X65050000Y-49250000D03*
D96*
X68000000Y-47000000D03*
%TD*%
D15*
%TO.C,C122*%
X68300000Y-84025000D03*
X68300000Y-85575000D03*
%TD*%
D44*
%TO.C,L21*%
X74900000Y-65615000D03*
X74900000Y-66585000D03*
%TD*%
D12*
%TO.C,R31*%
X63300000Y-29890000D03*
X63300000Y-30910000D03*
%TD*%
D33*
%TO.C,L8*%
X21987500Y-48100000D03*
X20412500Y-48100000D03*
%TD*%
%TO.C,L4*%
X26187500Y-48000000D03*
X24612500Y-48000000D03*
%TD*%
D15*
%TO.C,C128*%
X7200000Y-9825000D03*
X7200000Y-11375000D03*
%TD*%
D71*
%TO.C,J4*%
X14000000Y-34000000D03*
D72*
X14000000Y-32000000D03*
X14000000Y-30000000D03*
X14000000Y-28000000D03*
X12000000Y-34000000D03*
X12000000Y-32000000D03*
X12000000Y-30000000D03*
X12000000Y-28000000D03*
D53*
X11500000Y-25750000D03*
X6750000Y-25750000D03*
X11500000Y-36250000D03*
X6750000Y-36250000D03*
%TD*%
D15*
%TO.C,C115*%
X27800000Y-84025000D03*
X27800000Y-85575000D03*
%TD*%
D18*
%TO.C,C34*%
X56600000Y-71050000D03*
X56600000Y-72950000D03*
%TD*%
D16*
%TO.C,C50*%
X71700000Y-28920000D03*
X71700000Y-29880000D03*
%TD*%
D45*
%TO.C,R15*%
X53900000Y-56610000D03*
X53900000Y-55590000D03*
%TD*%
D30*
%TO.C,R25*%
X16690000Y-29000000D03*
X15670000Y-29000000D03*
%TD*%
D39*
%TO.C,C2*%
X70900000Y-22150000D03*
X70900000Y-20250000D03*
%TD*%
%TO.C,C27*%
X53000000Y-61150000D03*
X53000000Y-59250000D03*
%TD*%
D97*
%TO.C,U6*%
X35375000Y-34550000D03*
X34725000Y-34550000D03*
X34075000Y-34550000D03*
X33425000Y-34550000D03*
D98*
X32450000Y-35525000D03*
X32450000Y-36175000D03*
X32450000Y-36825000D03*
X32450000Y-37475000D03*
D97*
X33425000Y-38450000D03*
X34075000Y-38450000D03*
X34725000Y-38450000D03*
X35375000Y-38450000D03*
D98*
X36350000Y-37475000D03*
X36350000Y-36825000D03*
X36350000Y-36175000D03*
X36350000Y-35525000D03*
D23*
X34400000Y-36500000D03*
%TD*%
D18*
%TO.C,C8*%
X67800000Y-16150000D03*
X67800000Y-18050000D03*
%TD*%
D12*
%TO.C,R27*%
X35700000Y-32090000D03*
X35700000Y-33110000D03*
%TD*%
D11*
%TO.C,TP21*%
X34600000Y-44800000D03*
%TD*%
D55*
%TO.C,SH2*%
X58700000Y-60000000D03*
D99*
X59150000Y-79600000D03*
D57*
X59200000Y-40350000D03*
D59*
X66875000Y-80100000D03*
D58*
X68000003Y-39900009D03*
D61*
X76850000Y-40400000D03*
D100*
X76850000Y-79600000D03*
D62*
X77300001Y-60000003D03*
%TD*%
D39*
%TO.C,C17*%
X38800000Y-61150000D03*
X38800000Y-59250000D03*
%TD*%
D70*
%TO.C,L32*%
X61700000Y-84012500D03*
X61700000Y-85587500D03*
%TD*%
D18*
%TO.C,C23*%
X40600000Y-71050000D03*
X40600000Y-72950000D03*
%TD*%
D52*
%TO.C,C93*%
X74875000Y-64450000D03*
X73325000Y-64450000D03*
%TD*%
D11*
%TO.C,TP26*%
X55500000Y-43200000D03*
%TD*%
D18*
%TO.C,C20*%
X35200000Y-71050000D03*
X35200000Y-72950000D03*
%TD*%
D16*
%TO.C,C72*%
X19200000Y-72020000D03*
X19200000Y-72980000D03*
%TD*%
D39*
%TO.C,C25*%
X49400000Y-61150000D03*
X49400000Y-59250000D03*
%TD*%
D101*
%TO.C,J8*%
X78000000Y-89000000D03*
X79270000Y-90270000D03*
X79270000Y-87730000D03*
X76730000Y-90270000D03*
X76730000Y-87730000D03*
%TD*%
%TO.C,J6*%
X12000000Y-89000000D03*
X10730000Y-87730000D03*
X10730000Y-90270000D03*
X13270000Y-87730000D03*
X13270000Y-90270000D03*
%TD*%
%TO.C,J9*%
X50000000Y-89000000D03*
X48730000Y-90270000D03*
X51270000Y-90270000D03*
X48730000Y-87730000D03*
X51270000Y-87730000D03*
%TD*%
%TO.C,J7*%
X40000000Y-89000000D03*
X38730000Y-90270000D03*
X41270000Y-90270000D03*
X38730000Y-87730000D03*
X41270000Y-87730000D03*
%TD*%
M02*
