M48
; DRILL file {KiCad 9.0.6} date 2025-11-19T17:48:25+0100
; FORMAT={-:-/ absolute / metric / decimal}
; #@! TF.CreationDate,2025-11-19T17:48:25+01:00
; #@! TF.GenerationSoftware,Kicad,Pcbnew,9.0.6
; #@! TF.FileFunction,Plated,1,4,PTH
FMAT,2
METRIC
; #@! TA.AperFunction,Plated,PTH,ViaDrill
T1C0.250
; #@! TA.AperFunction,Plated,PTH,ViaDrill
T2C0.350
; #@! TA.AperFunction,Plated,PTH,ComponentDrill
T3C0.800
; #@! TA.AperFunction,Plated,PTH,ComponentDrill
T4C0.840
; #@! TA.AperFunction,Plated,PTH,ComponentDrill
T5C0.950
; #@! TA.AperFunction,Plated,PTH,ComponentDrill
T6C1.000
; #@! TA.AperFunction,Plated,PTH,ComponentDrill
T7C3.200
; #@! TA.AperFunction,Plated,PTH,ComponentDrill
T8C4.400
%
G90
G05
T1
X0.75Y-0.75
X0.75Y-2.75
X0.75Y-4.75
X0.75Y-6.75
X0.75Y-8.75
X0.75Y-10.75
X0.75Y-12.75
X0.75Y-14.75
X0.75Y-16.75
X0.75Y-18.75
X0.75Y-20.75
X0.75Y-22.75
X0.75Y-24.75
X0.75Y-26.75
X0.75Y-28.75
X0.75Y-30.75
X0.75Y-32.75
X0.75Y-34.75
X0.75Y-36.75
X0.75Y-38.75
X0.75Y-40.75
X0.75Y-42.75
X0.75Y-44.75
X0.75Y-46.75
X0.75Y-48.75
X0.75Y-50.75
X0.75Y-52.75
X0.75Y-54.75
X0.75Y-56.75
X0.75Y-58.75
X0.75Y-60.75
X0.75Y-62.75
X0.75Y-64.75
X0.75Y-66.75
X0.75Y-68.75
X0.75Y-70.75
X0.75Y-72.75
X0.75Y-74.75
X0.75Y-76.75
X1.75Y-78.25
X2.5Y-2.5
X2.5Y-7.5
X2.5Y-12.5
X2.5Y-17.5
X2.5Y-22.5
X2.5Y-27.5
X2.5Y-32.5
X2.5Y-37.5
X2.5Y-42.5
X2.5Y-47.5
X2.5Y-52.5
X2.5Y-57.5
X2.5Y-62.5
X2.5Y-67.5
X2.5Y-72.5
X2.5Y-77.5
X2.5Y-87.5
X2.55Y-80.0
X2.55Y-82.0
X2.55Y-84.0
X2.55Y-86.0
X2.55Y-95.15
X2.75Y-0.75
X4.0Y-5.0
X4.0Y-10.0
X4.0Y-15.0
X4.0Y-25.0
X4.0Y-30.0
X4.0Y-35.0
X4.0Y-40.0
X4.0Y-45.0
X4.0Y-50.0
X4.0Y-55.0
X4.0Y-60.0
X4.0Y-65.0
X4.0Y-70.0
X4.0Y-75.0
X4.0Y-85.0
X4.55Y-95.14
X4.75Y-0.75
X5.5Y-2.5
X5.5Y-7.5
X5.5Y-12.5
X5.5Y-27.5
X5.5Y-32.5
X5.5Y-37.5
X5.5Y-42.5
X5.5Y-47.5
X5.5Y-52.5
X5.5Y-57.5
X5.5Y-62.5
X5.5Y-67.5
X5.5Y-72.5
X6.1Y-86.9
X6.2Y-10.0
X6.55Y-95.14
X6.75Y-0.75
X7.0Y-15.0
X7.0Y-30.0
X7.0Y-35.0
X7.0Y-40.0
X7.0Y-45.0
X7.0Y-50.0
X7.0Y-55.0
X7.0Y-60.0
X7.0Y-65.0
X7.0Y-70.0
X7.0Y-75.0
X7.6Y-85.0
X8.5Y-12.5
X8.5Y-27.5
X8.5Y-32.5
X8.5Y-37.5
X8.5Y-42.5
X8.5Y-47.5
X8.5Y-52.5
X8.5Y-57.5
X8.5Y-62.5
X8.5Y-67.5
X8.5Y-72.5
X8.5Y-87.5
X8.55Y-95.14
X8.7Y-92.5
X8.75Y-0.75
X10.0Y-15.0
X10.0Y-25.0
X10.0Y-30.0
X10.0Y-35.0
X10.0Y-40.0
X10.0Y-45.0
X10.0Y-50.0
X10.0Y-55.0
X10.0Y-60.0
X10.0Y-65.0
X10.0Y-70.0
X10.0Y-75.0
X10.0Y-85.0
X10.1Y-10.0
X10.55Y-95.14
X10.65Y-89.0
X10.75Y-0.75
X11.5Y-12.5
X11.5Y-17.5
X11.5Y-22.5
X11.5Y-37.5
X11.5Y-42.5
X11.5Y-47.5
X11.5Y-52.5
X11.5Y-57.5
X11.5Y-62.5
X11.5Y-67.5
X11.5Y-72.5
X11.5Y-77.5
X11.5Y-82.5
X11.5Y-92.5
X12.0Y-87.65
X12.0Y-90.35
X12.1Y-40.0
X12.55Y-95.14
X12.75Y-0.75
X13.0Y-15.0
X13.0Y-20.0
X13.0Y-25.0
X13.0Y-35.0
X13.0Y-85.0
X14.15Y-71.7
X14.15Y-72.4
X14.15Y-73.1
X14.15Y-73.8
X14.15Y-74.5
X14.15Y-75.2
X14.15Y-75.9
X14.15Y-76.6
X14.15Y-77.3
X14.15Y-78.0
X14.15Y-78.7
X14.15Y-81.2
X14.15Y-81.9
X14.2Y-82.6
X14.25Y-71.0
X14.4Y-83.3
X14.5Y-2.5
X14.5Y-17.5
X14.5Y-22.5
X14.5Y-37.5
X14.5Y-42.5
X14.5Y-47.5
X14.5Y-52.5
X14.5Y-57.4
X14.5Y-62.5
X14.5Y-67.5
X14.5Y-70.3
X14.5Y-87.65
X14.5Y-90.35
X14.5Y-92.5
X14.55Y-95.14
X14.75Y-0.75
X14.75Y-83.95
X14.9Y-69.65
X15.2Y-87.65
X15.2Y-90.35
X15.25Y-84.5
X15.45Y-69.15
X15.85Y-84.95
X15.9Y-87.65
X15.9Y-90.35
X16.0Y-15.0
X16.0Y-20.0
X16.0Y-25.0
X16.0Y-35.0
X16.0Y-41.0
X16.0Y-45.0
X16.0Y-50.0
X16.0Y-55.0
X16.0Y-60.0
X16.0Y-65.0
X16.1Y-68.75
X16.55Y-85.25
X16.55Y-95.14
X16.6Y-87.65
X16.6Y-90.35
X16.7Y-46.4
X16.75Y-0.75
X16.8Y-68.5
X16.85Y-71.75
X16.85Y-72.45
X16.85Y-73.15
X16.85Y-74.7
X16.85Y-75.4
X16.85Y-76.1
X16.85Y-76.8
X16.85Y-77.5
X16.85Y-79.05
X16.85Y-81.2
X16.85Y-81.9
X17.05Y-52.3
X17.2Y-82.55
X17.25Y-85.35
X17.3Y-26.8
X17.3Y-30.0
X17.3Y-32.0
X17.3Y-33.0
X17.3Y-71.2
X17.3Y-87.65
X17.3Y-90.35
X17.5Y-2.5
X17.5Y-17.5
X17.5Y-22.5
X17.5Y-27.5
X17.5Y-37.5
X17.5Y-57.5
X17.5Y-62.5
X17.5Y-68.3
X17.5Y-69.0
X17.5Y-77.5
X17.5Y-92.5
X17.7Y-45.0
X17.75Y-48.4
X17.75Y-50.15
X17.8Y-32.5
X17.85Y-52.65
X17.85Y-55.3
X17.85Y-61.1
X17.85Y-63.6
X17.85Y-64.3
X17.85Y-65.0
X17.85Y-65.7
X17.85Y-72.2
X17.85Y-72.9
X17.85Y-73.6
X17.85Y-74.3
X17.85Y-75.0
X17.9Y-31.0
X17.9Y-42.0
X17.9Y-82.65
X17.95Y-71.5
X17.95Y-85.35
X18.0Y-50.75
X18.0Y-51.95
X18.0Y-66.4
X18.0Y-87.65
X18.0Y-90.35
X18.2Y-55.85
X18.25Y-60.55
X18.3Y-29.754
X18.3Y-51.3
X18.35Y-48.05
X18.35Y-75.55
X18.4Y-46.4
X18.55Y-95.14
X18.6Y-82.65
X18.65Y-85.35
X18.7Y-50.75
X18.7Y-87.65
X18.7Y-90.35
X18.75Y-0.75
X18.85Y-55.85
X18.9Y-60.55
X19.0Y-15.0
X19.0Y-20.0
X19.0Y-25.0
X19.0Y-29.9
X19.0Y-35.0
X19.0Y-59.5
X19.05Y-41.0
X19.05Y-47.35
X19.05Y-48.05
X19.3Y-68.3
X19.3Y-69.0
X19.3Y-69.7
X19.3Y-82.65
X19.35Y-44.55
X19.35Y-46.65
X19.35Y-85.35
X19.4Y-87.65
X19.4Y-90.35
X19.5Y-55.85
X19.55Y-60.55
X20.0Y-66.5
X20.0Y-68.3
X20.0Y-69.0
X20.0Y-69.7
X20.0Y-82.65
X20.05Y-46.65
X20.05Y-75.55
X20.1Y-87.65
X20.1Y-90.35
X20.15Y-55.85
X20.2Y-60.55
X20.3Y-71.35
X20.4Y-42.5
X20.5Y-2.5
X20.5Y-17.5
X20.5Y-22.5
X20.5Y-27.5
X20.5Y-32.5
X20.5Y-37.5
X20.5Y-57.5
X20.5Y-62.5
X20.5Y-77.5
X20.5Y-92.5
X20.55Y-52.9
X20.55Y-55.3
X20.55Y-61.1
X20.55Y-63.7
X20.55Y-64.4
X20.55Y-72.15
X20.55Y-72.85
X20.55Y-95.14
X20.6Y-46.2
X20.7Y-41.5
X20.7Y-68.3
X20.7Y-69.0
X20.7Y-69.7
X20.7Y-82.65
X20.75Y-0.75
X20.75Y-75.55
X20.8Y-87.65
X20.8Y-90.35
X20.95Y-52.4
X21.0Y-43.5
X21.0Y-44.5
X21.0Y-45.5
X21.0Y-71.65
X21.05Y-85.35
X21.15Y-64.0
X21.3Y-72.85
X21.4Y-41.5
X21.4Y-82.65
X21.45Y-75.55
X21.5Y-87.65
X21.5Y-90.35
X21.55Y-72.2
X21.6Y-52.35
X21.75Y-85.35
X21.8Y-63.75
X22.0Y-15.0
X22.0Y-20.0
X22.0Y-25.0
X22.0Y-29.9
X22.0Y-35.0
X22.0Y-43.5
X22.0Y-44.5
X22.0Y-45.5
X22.0Y-55.0
X22.0Y-60.0
X22.05Y-72.85
X22.1Y-41.5
X22.1Y-82.65
X22.15Y-75.55
X22.2Y-87.65
X22.2Y-90.35
X22.25Y-52.35
X22.25Y-67.15
X22.4Y-66.45
X22.45Y-85.35
X22.5Y-63.65
X22.55Y-95.14
X22.75Y-0.75
X22.8Y-41.5
X22.8Y-82.65
X22.85Y-75.55
X22.9Y-52.35
X22.9Y-87.65
X22.9Y-90.35
X22.95Y-70.15
X23.0Y-43.5
X23.0Y-44.5
X23.0Y-45.5
X23.1Y-66.35
X23.2Y-63.65
X23.5Y-2.5
X23.5Y-17.5
X23.5Y-22.5
X23.5Y-27.5
X23.5Y-32.5
X23.5Y-37.5
X23.5Y-51.8
X23.5Y-57.4
X23.5Y-62.5
X23.5Y-77.5
X23.5Y-82.65
X23.5Y-92.5
X23.55Y-75.55
X23.6Y-46.1
X23.6Y-87.65
X23.6Y-90.35
X23.65Y-70.15
X23.8Y-46.65
X23.8Y-66.35
X23.9Y-63.65
X24.0Y-52.3
X24.2Y-82.65
X24.2Y-85.35
X24.25Y-75.55
X24.3Y-87.65
X24.3Y-90.35
X24.35Y-70.15
X24.5Y-46.65
X24.5Y-52.8
X24.55Y-63.3
X24.55Y-66.3
X24.55Y-95.14
X24.65Y-43.05
X24.65Y-53.5
X24.65Y-54.2
X24.65Y-54.9
X24.65Y-55.6
X24.65Y-56.3
X24.65Y-57.0
X24.65Y-57.7
X24.65Y-58.4
X24.65Y-59.1
X24.65Y-59.8
X24.65Y-60.5
X24.65Y-61.2
X24.65Y-61.9
X24.65Y-62.6
X24.7Y-41.796
X24.75Y-0.75
X24.75Y-70.75
X24.75Y-71.45
X24.75Y-72.15
X24.9Y-72.85
X24.9Y-82.65
X24.9Y-85.35
X24.95Y-75.55
X25.0Y-15.0
X25.0Y-20.0
X25.0Y-25.0
X25.0Y-29.9
X25.0Y-35.0
X25.0Y-87.65
X25.05Y-49.5
X25.3Y-66.1
X25.55Y-43.05
X25.55Y-50.0
X25.6Y-72.85
X25.6Y-82.65
X25.6Y-85.35
X25.65Y-75.55
X25.7Y-87.65
X25.75Y-49.35
X25.95Y-65.75
X26.0Y-47.05
X26.05Y-50.5
X26.05Y-90.35
X26.155Y-23.695
X26.25Y-66.3
X26.25Y-70.6
X26.3Y-48.95
X26.3Y-82.65
X26.3Y-85.35
X26.35Y-72.85
X26.35Y-73.55
X26.35Y-74.85
X26.35Y-75.55
X26.4Y-42.55
X26.4Y-87.65
X26.5Y-2.5
X26.5Y-17.5
X26.5Y-22.5
X26.5Y-27.5
X26.5Y-32.5
X26.5Y-37.5
X26.5Y-51.0
X26.5Y-65.25
X26.5Y-77.5
X26.5Y-92.5
X26.55Y-95.14
X26.75Y-0.75
X26.75Y-47.1
X26.75Y-90.35
X26.9Y-51.55
X26.95Y-64.65
X27.0Y-82.65
X27.0Y-85.35
X27.1Y-87.65
X27.2Y-52.15
X27.2Y-64.0
X27.35Y-52.8
X27.35Y-53.45
X27.35Y-57.55
X27.35Y-58.25
X27.35Y-58.95
X27.35Y-60.5
X27.35Y-61.2
X27.35Y-61.9
X27.35Y-62.6
X27.35Y-63.3
X27.4Y-23.695
X27.45Y-90.35
X27.55Y-50.0
X27.7Y-82.65
X27.8Y-87.65
X27.9Y-43.2
X27.95Y-53.45
X28.0Y-15.0
X28.0Y-20.0
X28.0Y-30.0
X28.0Y-35.0
X28.0Y-65.0
X28.0Y-70.1
X28.0Y-75.0
X28.1Y-47.9
X28.1Y-57.55
X28.4Y-26.7
X28.4Y-82.65
X28.5Y-87.65
X28.55Y-95.14
X28.6Y-85.35
X28.7Y-45.2
X28.7Y-45.9
X28.7Y-46.6
X28.75Y-0.75
X28.75Y-60.0
X28.85Y-56.55
X28.85Y-57.3
X29.0Y-55.85
X29.1Y-48.65
X29.1Y-51.45
X29.1Y-65.2
X29.1Y-65.9
X29.1Y-66.6
X29.1Y-82.65
X29.2Y-87.65
X29.2Y-90.35
X29.3Y-85.35
X29.4Y-45.2
X29.4Y-45.9
X29.4Y-46.6
X29.5Y-2.5
X29.5Y-17.5
X29.5Y-22.5
X29.5Y-32.5
X29.5Y-37.5
X29.5Y-42.55
X29.5Y-57.5
X29.5Y-62.5
X29.5Y-72.5
X29.5Y-77.5
X29.5Y-92.5
X29.7Y-53.45
X29.75Y-55.85
X29.8Y-65.2
X29.8Y-65.9
X29.8Y-66.6
X29.8Y-82.65
X29.9Y-87.65
X29.9Y-90.35
X30.0Y-85.35
X30.25Y-53.9
X30.25Y-54.6
X30.25Y-55.3
X30.5Y-82.65
X30.55Y-95.14
X30.6Y-27.2
X30.6Y-87.65
X30.6Y-90.35
X30.7Y-85.35
X30.75Y-0.75
X31.0Y-15.0
X31.0Y-20.0
X31.0Y-25.0
X31.0Y-30.0
X31.0Y-35.0
X31.2Y-82.65
X31.3Y-87.65
X31.4Y-85.35
X31.7Y-39.3
X31.9Y-26.8
X31.9Y-82.65
X32.0Y-87.65
X32.05Y-23.7
X32.5Y-2.5
X32.5Y-17.5
X32.5Y-22.5
X32.5Y-27.5
X32.5Y-32.5
X32.5Y-38.1
X32.5Y-47.5
X32.5Y-59.9
X32.5Y-67.2
X32.5Y-72.3
X32.5Y-73.6
X32.5Y-77.5
X32.5Y-92.5
X32.55Y-95.14
X32.6Y-82.65
X32.65Y-90.35
X32.7Y-87.65
X32.75Y-0.75
X32.9Y-68.3
X32.9Y-69.0
X32.9Y-69.7
X33.0Y-85.35
X33.1Y-45.0
X33.3Y-23.7
X33.3Y-82.65
X33.35Y-90.35
X33.4Y-87.65
X33.5Y-26.8
X33.5Y-35.6
X33.5Y-36.5
X33.5Y-37.4
X33.5Y-52.0
X33.5Y-57.5
X33.6Y-68.3
X33.6Y-69.0
X33.6Y-69.7
X33.7Y-85.35
X33.8Y-39.6
X33.95Y-36.05
X33.95Y-36.95
X34.0Y-15.0
X34.0Y-20.0
X34.0Y-30.0
X34.0Y-50.0
X34.0Y-55.0
X34.0Y-65.0
X34.0Y-75.0
X34.0Y-80.0
X34.0Y-82.65
X34.05Y-90.35
X34.1Y-50.9
X34.1Y-87.65
X34.2Y-27.5
X34.3Y-58.6
X34.3Y-59.9
X34.3Y-72.3
X34.3Y-73.6
X34.4Y-35.6
X34.4Y-36.5
X34.4Y-37.4
X34.4Y-85.35
X34.55Y-95.14
X34.6Y-41.6
X34.6Y-43.2
X34.6Y-44.8
X34.6Y-46.4
X34.7Y-33.8
X34.7Y-82.65
X34.75Y-0.75
X34.8Y-87.65
X34.85Y-36.05
X34.85Y-36.95
X35.1Y-85.35
X35.3Y-35.6
X35.3Y-36.5
X35.3Y-37.4
X35.4Y-33.8
X35.4Y-55.6
X35.4Y-82.65
X35.5Y-2.5
X35.5Y-17.5
X35.5Y-22.5
X35.5Y-47.5
X35.5Y-52.5
X35.5Y-67.2
X35.5Y-77.5
X35.5Y-87.65
X35.5Y-92.5
X35.8Y-85.35
X36.0Y-41.0
X36.0Y-42.4
X36.0Y-44.0
X36.0Y-45.6
X36.0Y-90.35
X36.1Y-57.5
X36.1Y-58.6
X36.1Y-59.9
X36.1Y-72.3
X36.1Y-73.6
X36.1Y-82.65
X36.2Y-87.65
X36.3Y-40.1
X36.4Y-32.1
X36.55Y-95.14
X36.7Y-34.2
X36.7Y-90.35
X36.75Y-0.75
X36.8Y-82.65
X36.9Y-49.8
X36.9Y-87.65
X37.0Y-15.0
X37.0Y-20.0
X37.0Y-25.0
X37.0Y-30.0
X37.0Y-35.0
X37.0Y-38.0
X37.0Y-39.5
X37.0Y-55.0
X37.0Y-65.0
X37.0Y-75.0
X37.0Y-80.0
X37.1Y-26.7
X37.3Y-41.7
X37.35Y-85.35
X37.4Y-49.2
X37.4Y-50.8
X37.4Y-90.35
X37.5Y-82.65
X37.6Y-46.9
X37.6Y-87.65
X37.8Y-35.25
X37.8Y-36.25
X37.8Y-37.25
X37.8Y-38.25
X37.8Y-39.25
X37.9Y-58.6
X37.9Y-59.9
X37.9Y-72.3
X37.9Y-73.6
X38.05Y-85.35
X38.2Y-50.8
X38.2Y-82.65
X38.3Y-34.75
X38.3Y-35.75
X38.3Y-36.75
X38.3Y-37.75
X38.3Y-38.75
X38.3Y-39.75
X38.5Y-2.5
X38.5Y-17.5
X38.5Y-22.5
X38.5Y-27.5
X38.5Y-32.5
X38.5Y-53.1
X38.5Y-57.5
X38.5Y-67.2
X38.5Y-77.5
X38.5Y-92.5
X38.55Y-95.14
X38.6Y-85.85
X38.65Y-86.55
X38.75Y-0.75
X38.9Y-82.75
X39.0Y-49.2
X39.0Y-50.8
X39.1Y-30.0
X39.4Y-46.9
X39.55Y-83.0
X39.7Y-58.6
X39.7Y-59.9
X39.7Y-72.3
X39.7Y-73.6
X39.8Y-50.8
X40.0Y-15.0
X40.0Y-20.0
X40.0Y-25.0
X40.0Y-30.0
X40.0Y-55.0
X40.0Y-65.0
X40.0Y-75.0
X40.0Y-80.0
X40.0Y-90.35
X40.15Y-83.4
X40.35Y-33.25
X40.55Y-95.14
X40.6Y-49.2
X40.6Y-50.8
X40.65Y-83.9
X40.75Y-0.75
X40.85Y-32.75
X41.0Y-84.5
X41.2Y-46.9
X41.25Y-85.15
X41.3Y-57.5
X41.35Y-33.25
X41.35Y-85.85
X41.35Y-86.55
X41.35Y-89.0
X41.4Y-50.8
X41.5Y-2.5
X41.5Y-17.5
X41.5Y-22.5
X41.5Y-27.5
X41.5Y-53.1
X41.5Y-59.9
X41.5Y-67.2
X41.5Y-72.3
X41.5Y-73.6
X41.5Y-77.5
X41.5Y-82.5
X41.5Y-92.5
X41.85Y-32.754
X42.1Y-57.2
X42.1Y-57.8
X42.2Y-49.2
X42.2Y-50.8
X42.5Y-26.0
X42.5Y-28.8
X42.55Y-95.14
X42.6Y-56.9
X42.6Y-57.5
X42.7Y-58.1
X42.7Y-58.7
X42.7Y-59.3
X42.75Y-0.75
X42.8Y-20.0
X43.0Y-15.0
X43.0Y-35.0
X43.0Y-46.9
X43.0Y-50.8
X43.0Y-55.0
X43.0Y-65.0
X43.0Y-70.0
X43.0Y-75.0
X43.0Y-80.0
X43.0Y-85.0
X43.0Y-90.0
X43.3Y-29.0
X43.3Y-58.4
X43.3Y-59.0
X43.7Y-17.5
X43.75Y-32.85
X43.8Y-49.2
X43.8Y-50.8
X43.8Y-60.1
X44.1Y-55.7
X44.25Y-32.35
X44.3Y-29.0
X44.4Y-53.1
X44.5Y-2.5
X44.5Y-28.3
X44.5Y-62.5
X44.5Y-67.5
X44.5Y-72.5
X44.5Y-77.5
X44.5Y-82.5
X44.5Y-87.5
X44.5Y-92.5
X44.55Y-95.14
X44.6Y-26.7
X44.75Y-0.75
X44.75Y-32.85
X44.9Y-57.2
X44.9Y-57.8
X44.9Y-58.4
X44.9Y-59.0
X45.0Y-23.55
X45.0Y-24.25
X45.0Y-24.9
X45.1Y-46.1
X45.25Y-32.35
X45.3Y-53.6
X45.4Y-49.3
X45.4Y-50.0
X45.4Y-50.7
X45.4Y-56.9
X45.4Y-57.5
X45.4Y-58.1
X45.4Y-58.7
X45.4Y-59.3
X45.5Y-37.8
X45.7Y-24.9
X45.75Y-32.85
X45.8Y-46.7
X45.9Y-19.8
X45.9Y-35.0
X45.9Y-40.2
X46.0Y-15.0
X46.0Y-55.1
X46.0Y-65.0
X46.0Y-70.0
X46.0Y-75.0
X46.0Y-80.0
X46.0Y-85.0
X46.0Y-90.0
X46.2Y-60.1
X46.3Y-45.8
X46.55Y-95.14
X46.7Y-53.6
X46.75Y-0.75
X47.0Y-49.3
X47.0Y-50.0
X47.0Y-50.7
X47.1Y-39.9
X47.1Y-41.1
X47.35Y-59.5
X47.4Y-47.0
X47.5Y-2.5
X47.5Y-17.5
X47.5Y-32.5
X47.5Y-37.8
X47.5Y-40.5
X47.5Y-67.5
X47.5Y-72.5
X47.5Y-77.5
X47.5Y-82.5
X47.5Y-87.5
X47.5Y-92.5
X47.6Y-53.1
X47.7Y-49.3
X47.7Y-50.0
X47.7Y-50.7
X47.8Y-43.9
X47.9Y-55.4
X47.9Y-56.0
X47.9Y-56.6
X47.9Y-57.2
X48.1Y-23.9
X48.2Y-35.25
X48.3Y-39.0
X48.4Y-55.7
X48.4Y-56.3
X48.4Y-56.9
X48.4Y-57.5
X48.5Y-28.4
X48.5Y-59.9
X48.5Y-72.3
X48.5Y-73.6
X48.55Y-95.14
X48.6Y-58.6
X48.65Y-85.85
X48.65Y-86.55
X48.65Y-89.0
X48.7Y-19.2
X48.7Y-19.8
X48.7Y-20.4
X48.7Y-21.0
X48.7Y-21.6
X48.7Y-38.2
X48.75Y-0.75
X48.75Y-85.15
X48.9Y-57.2
X49.0Y-15.1
X49.0Y-25.0
X49.0Y-26.7
X49.0Y-35.0
X49.0Y-65.0
X49.0Y-75.0
X49.0Y-80.0
X49.0Y-84.5
X49.2Y-30.0
X49.2Y-35.75
X49.3Y-37.7
X49.35Y-83.9
X49.7Y-36.25
X49.8Y-16.5
X49.8Y-20.0
X49.85Y-83.4
X49.9Y-32.5
X50.0Y-90.35
X50.2Y-31.8
X50.3Y-58.6
X50.3Y-59.9
X50.3Y-72.3
X50.3Y-73.6
X50.4Y-67.2
X50.45Y-83.0
X50.5Y-2.5
X50.5Y-16.5
X50.5Y-20.0
X50.5Y-26.7
X50.5Y-30.7
X50.5Y-77.5
X50.5Y-92.5
X50.55Y-95.14
X50.75Y-0.75
X51.1Y-82.75
X51.35Y-85.9
X51.35Y-86.7
X51.8Y-82.65
X51.9Y-49.3
X51.9Y-50.0
X51.9Y-50.7
X51.95Y-85.35
X52.0Y-15.1
X52.0Y-20.0
X52.0Y-25.0
X52.0Y-33.4
X52.0Y-55.7
X52.0Y-56.4
X52.0Y-65.0
X52.0Y-75.0
X52.0Y-80.0
X52.1Y-58.6
X52.1Y-59.9
X52.1Y-72.3
X52.1Y-73.6
X52.4Y-87.65
X52.4Y-90.35
X52.5Y-50.7
X52.5Y-82.65
X52.55Y-95.14
X52.6Y-49.3
X52.6Y-50.0
X52.65Y-85.35
X52.75Y-0.75
X53.0Y-35.6
X53.1Y-87.65
X53.1Y-90.35
X53.2Y-82.65
X53.35Y-85.35
X53.5Y-2.5
X53.5Y-27.5
X53.5Y-31.4
X53.5Y-32.8
X53.5Y-34.4
X53.5Y-57.5
X53.5Y-67.2
X53.5Y-77.5
X53.5Y-92.5
X53.6Y-47.5
X53.6Y-49.6
X53.6Y-52.5
X53.7Y-17.6
X53.8Y-22.5
X53.8Y-87.65
X53.8Y-90.35
X53.9Y-58.6
X53.9Y-59.9
X53.9Y-72.3
X53.9Y-73.6
X53.9Y-82.65
X54.0Y-42.4
X54.0Y-44.0
X54.0Y-45.6
X54.05Y-85.35
X54.5Y-87.65
X54.5Y-90.35
X54.55Y-95.14
X54.6Y-25.0
X54.6Y-30.0
X54.6Y-34.4
X54.6Y-55.7
X54.6Y-82.65
X54.75Y-0.75
X54.8Y-50.0
X54.8Y-55.0
X54.8Y-75.0
X55.0Y-15.1
X55.0Y-65.0
X55.0Y-80.0
X55.2Y-87.65
X55.2Y-90.35
X55.3Y-20.0
X55.3Y-82.65
X55.5Y-41.6
X55.5Y-43.2
X55.5Y-44.8
X55.5Y-46.4
X55.55Y-24.3
X55.55Y-25.0
X55.7Y-58.6
X55.7Y-59.9
X55.7Y-72.3
X55.7Y-73.6
X55.9Y-87.65
X56.0Y-40.5
X56.0Y-82.65
X56.1Y-85.35
X56.2Y-52.5
X56.25Y-24.3
X56.25Y-25.0
X56.3Y-45.6
X56.3Y-51.5
X56.4Y-67.2
X56.5Y-2.5
X56.5Y-17.6
X56.5Y-47.5
X56.5Y-57.5
X56.5Y-68.3
X56.5Y-69.0
X56.5Y-69.7
X56.5Y-77.5
X56.5Y-92.5
X56.55Y-95.14
X56.6Y-87.65
X56.7Y-82.65
X56.75Y-0.75
X56.8Y-85.35
X56.9Y-90.35
X56.95Y-24.3
X56.95Y-25.0
X57.2Y-68.3
X57.2Y-69.0
X57.2Y-69.7
X57.3Y-87.65
X57.4Y-82.65
X57.5Y-45.2
X57.5Y-50.0
X57.5Y-55.0
X57.5Y-58.6
X57.5Y-60.0
X57.5Y-65.0
X57.5Y-85.35
X57.6Y-90.35
X57.65Y-24.3
X57.65Y-25.0
X58.0Y-15.0
X58.0Y-80.0
X58.0Y-87.65
X58.1Y-82.65
X58.3Y-90.35
X58.55Y-95.14
X58.6Y-22.5
X58.7Y-87.65
X58.75Y-0.75
X58.8Y-82.65
X59.0Y-90.35
X59.35Y-85.35
X59.4Y-87.65
X59.5Y-2.5
X59.5Y-82.65
X59.5Y-92.5
X59.7Y-90.35
X59.75Y-71.65
X59.75Y-73.6
X59.8Y-68.4
X59.8Y-77.5
X59.9Y-21.1
X60.0Y-41.7
X60.0Y-42.5
X60.0Y-43.2
X60.05Y-85.35
X60.1Y-87.65
X60.2Y-82.65
X60.3Y-27.5
X60.3Y-32.2
X60.3Y-37.5
X60.5Y-30.0
X60.5Y-47.5
X60.5Y-54.2
X60.5Y-57.5
X60.5Y-62.8
X60.55Y-95.14
X60.7Y-42.5
X60.7Y-43.2
X60.7Y-77.1
X60.7Y-77.8
X60.7Y-78.5
X60.75Y-0.75
X60.75Y-85.35
X60.8Y-87.65
X60.9Y-82.65
X61.0Y-15.0
X61.0Y-20.0
X61.0Y-23.4
X61.0Y-35.0
X61.0Y-45.5
X61.0Y-53.6
X61.0Y-60.0
X61.0Y-65.0
X61.1Y-50.4
X61.1Y-55.0
X61.25Y-73.7
X61.3Y-31.5
X61.3Y-70.0
X61.3Y-90.35
X61.4Y-22.5
X61.4Y-42.5
X61.4Y-43.2
X61.4Y-77.1
X61.4Y-77.8
X61.4Y-78.5
X61.5Y-87.65
X61.6Y-82.65
X61.85Y-28.85
X62.0Y-25.2
X62.0Y-25.9
X62.0Y-90.35
X62.1Y-32.6
X62.1Y-37.6
X62.1Y-41.7
X62.2Y-22.9
X62.2Y-50.0
X62.2Y-87.65
X62.3Y-46.2
X62.3Y-47.5
X62.3Y-48.4
X62.3Y-82.65
X62.5Y-2.5
X62.5Y-27.5
X62.5Y-29.19
X62.5Y-76.9
X62.5Y-77.7
X62.5Y-92.5
X62.55Y-68.45
X62.55Y-95.14
X62.6Y-57.5
X62.6Y-62.5
X62.6Y-69.15
X62.65Y-85.35
X62.7Y-25.2
X62.7Y-25.9
X62.7Y-52.5
X62.7Y-55.0
X62.7Y-90.35
X62.75Y-0.75
X62.8Y-35.6
X62.85Y-67.85
X62.9Y-87.65
X63.0Y-82.65
X63.1Y-76.6
X63.1Y-78.4
X63.2Y-32.0
X63.2Y-33.3
X63.3Y-70.8
X63.3Y-71.7
X63.3Y-72.5
X63.3Y-73.35
X63.3Y-74.15
X63.35Y-85.35
X63.4Y-25.2
X63.4Y-25.9
X63.4Y-50.8
X63.4Y-67.45
X63.4Y-90.35
X63.5Y-44.9
X63.6Y-87.65
X63.7Y-82.65
X64.0Y-15.0
X64.0Y-24.3
X64.0Y-60.7
X64.05Y-54.95
X64.05Y-55.65
X64.05Y-56.35
X64.05Y-59.1
X64.05Y-64.9
X64.05Y-67.35
X64.05Y-85.35
X64.1Y-25.2
X64.1Y-25.9
X64.1Y-90.35
X64.15Y-70.8
X64.15Y-71.7
X64.15Y-72.5
X64.15Y-73.35
X64.15Y-74.15
X64.2Y-54.25
X64.3Y-87.65
X64.35Y-45.25
X64.4Y-50.8
X64.4Y-59.65
X64.4Y-82.65
X64.45Y-64.35
X64.55Y-95.14
X64.6Y-41.7
X64.75Y-0.75
X64.9Y-43.4
X64.9Y-44.2
X64.9Y-54.25
X65.0Y-21.1
X65.0Y-22.0
X65.0Y-22.0
X65.0Y-22.9
X65.0Y-30.9
X65.0Y-70.8
X65.0Y-71.7
X65.0Y-72.5
X65.0Y-73.35
X65.0Y-74.15
X65.0Y-87.65
X65.05Y-59.65
X65.1Y-64.35
X65.1Y-82.65
X65.3Y-50.1
X65.5Y-2.5
X65.5Y-21.55
X65.5Y-22.45
X65.5Y-27.5
X65.5Y-37.5
X65.5Y-52.5
X65.5Y-62.5
X65.5Y-92.5
X65.55Y-19.0
X65.55Y-76.6
X65.55Y-77.3
X65.55Y-78.0
X65.55Y-78.65
X65.6Y-51.7
X65.6Y-54.25
X65.7Y-59.65
X65.7Y-87.65
X65.75Y-64.35
X65.8Y-76.0
X65.8Y-82.65
X65.85Y-70.8
X65.85Y-71.7
X65.85Y-72.5
X65.85Y-73.35
X65.85Y-74.15
X65.85Y-90.35
X65.95Y-85.35
X66.0Y-21.1
X66.0Y-22.0
X66.0Y-22.9
X66.0Y-32.5
X66.0Y-45.0
X66.0Y-46.0
X66.0Y-47.0
X66.0Y-48.0
X66.0Y-49.0
X66.15Y-78.85
X66.2Y-19.0
X66.3Y-54.25
X66.35Y-59.65
X66.4Y-64.35
X66.4Y-87.65
X66.5Y-82.65
X66.55Y-90.35
X66.55Y-95.14
X66.65Y-85.35
X66.7Y-70.8
X66.7Y-71.7
X66.7Y-72.5
X66.7Y-73.35
X66.7Y-74.15
X66.75Y-0.75
X66.75Y-42.85
X66.75Y-59.1
X66.75Y-64.9
X66.75Y-67.35
X66.8Y-24.3
X66.85Y-78.85
X67.0Y-15.0
X67.0Y-23.5
X67.0Y-30.0
X67.0Y-35.0
X67.0Y-45.0
X67.0Y-46.0
X67.0Y-47.0
X67.0Y-48.0
X67.0Y-49.0
X67.0Y-53.3
X67.0Y-54.25
X67.0Y-60.7
X67.1Y-87.65
X67.2Y-82.65
X67.25Y-43.35
X67.25Y-90.35
X67.35Y-85.35
X67.4Y-19.0
X67.45Y-67.35
X67.55Y-78.85
X67.75Y-42.85
X67.8Y-52.85
X67.8Y-87.65
X67.85Y-51.35
X67.85Y-52.1
X67.9Y-75.9
X67.9Y-82.65
X68.0Y-20.0
X68.0Y-45.0
X68.0Y-46.0
X68.0Y-47.0
X68.0Y-48.0
X68.0Y-49.0
X68.05Y-56.95
X68.1Y-19.0
X68.1Y-32.5
X68.15Y-67.35
X68.25Y-43.35
X68.25Y-62.5
X68.25Y-78.85
X68.45Y-70.05
X68.5Y-2.5
X68.5Y-27.1
X68.5Y-37.5
X68.5Y-41.5
X68.5Y-57.5
X68.5Y-72.5
X68.5Y-75.0
X68.5Y-87.65
X68.5Y-92.5
X68.55Y-76.15
X68.55Y-95.14
X68.6Y-82.65
X68.75Y-0.75
X68.75Y-20.0
X68.75Y-56.95
X68.85Y-67.35
X68.95Y-78.85
X69.0Y-45.0
X69.0Y-46.0
X69.0Y-47.0
X69.0Y-48.0
X69.0Y-49.0
X69.2Y-87.65
X69.2Y-90.35
X69.25Y-19.5
X69.25Y-76.15
X69.25Y-85.35
X69.3Y-15.8
X69.3Y-16.6
X69.3Y-17.4
X69.3Y-18.2
X69.3Y-82.65
X69.45Y-56.95
X69.45Y-70.85
X69.55Y-67.35
X69.6Y-43.0
X69.65Y-78.85
X69.8Y-16.2
X69.8Y-17.0
X69.8Y-17.8
X69.9Y-31.0
X69.9Y-87.65
X69.9Y-90.35
X69.95Y-51.35
X69.95Y-52.05
X69.95Y-76.15
X69.95Y-85.35
X70.0Y-15.0
X70.0Y-19.5
X70.0Y-25.0
X70.0Y-45.0
X70.0Y-46.0
X70.0Y-47.0
X70.0Y-48.0
X70.0Y-49.0
X70.0Y-60.0
X70.0Y-65.0
X70.0Y-75.0
X70.0Y-82.65
X70.15Y-56.95
X70.25Y-67.35
X70.3Y-15.8
X70.3Y-16.6
X70.3Y-17.4
X70.3Y-18.2
X70.35Y-78.85
X70.55Y-52.45
X70.55Y-95.14
X70.6Y-87.65
X70.6Y-90.35
X70.65Y-85.35
X70.7Y-82.65
X70.75Y-0.75
X70.75Y-19.4
X70.75Y-55.15
X70.75Y-55.85
X70.75Y-56.55
X70.75Y-70.8
X70.95Y-67.35
X71.05Y-78.85
X71.3Y-87.65
X71.3Y-90.35
X71.35Y-52.45
X71.35Y-85.35
X71.4Y-70.05
X71.4Y-82.65
X71.45Y-55.15
X71.5Y-2.5
X71.5Y-17.5
X71.5Y-19.4
X71.5Y-23.5
X71.5Y-37.5
X71.5Y-42.5
X71.5Y-57.5
X71.5Y-62.5
X71.5Y-72.5
X71.5Y-92.5
X71.6Y-44.1
X71.65Y-67.35
X71.65Y-76.15
X71.75Y-78.85
X71.9Y-31.4
X71.9Y-32.5
X72.0Y-87.65
X72.0Y-90.35
X72.05Y-85.35
X72.1Y-70.05
X72.1Y-82.65
X72.15Y-52.45
X72.15Y-53.15
X72.15Y-54.45
X72.15Y-55.15
X72.25Y-19.4
X72.35Y-46.11
X72.35Y-67.35
X72.35Y-76.15
X72.4Y-27.5
X72.4Y-30.0
X72.45Y-78.85
X72.55Y-95.14
X72.65Y-47.45
X72.7Y-87.65
X72.7Y-90.35
X72.75Y-0.75
X72.75Y-85.35
X72.8Y-70.05
X72.8Y-82.55
X73.0Y-15.0
X73.0Y-19.4
X73.0Y-25.0
X73.0Y-35.0
X73.0Y-44.7
X73.0Y-75.0
X73.05Y-76.15
X73.1Y-67.3
X73.15Y-78.85
X73.15Y-81.2
X73.15Y-81.9
X73.35Y-47.45
X73.4Y-87.65
X73.4Y-90.35
X73.45Y-85.25
X73.5Y-70.0
X73.55Y-50.8
X73.55Y-51.5
X73.55Y-52.2
X73.55Y-53.9
X73.55Y-54.6
X73.55Y-55.3
X73.55Y-56.0
X73.55Y-56.7
X73.55Y-57.4
X73.55Y-58.1
X73.55Y-58.8
X73.55Y-59.5
X73.55Y-60.2
X73.55Y-62.1
X73.55Y-62.8
X73.55Y-63.5
X73.55Y-65.3
X73.55Y-66.0
X73.55Y-66.7
X73.75Y-76.15
X74.05Y-47.65
X74.1Y-87.65
X74.1Y-90.35
X74.15Y-84.95
X74.2Y-69.8
X74.3Y-20.3
X74.45Y-76.15
X74.5Y-2.5
X74.5Y-17.5
X74.5Y-23.5
X74.5Y-27.5
X74.5Y-32.8
X74.5Y-37.5
X74.5Y-42.5
X74.5Y-72.5
X74.5Y-92.5
X74.55Y-95.14
X74.7Y-47.95
X74.75Y-0.75
X74.75Y-84.5
X74.8Y-87.65
X74.8Y-90.35
X74.85Y-69.45
X75.0Y-20.3
X75.15Y-76.15
X75.25Y-48.4
X75.25Y-83.95
X75.4Y-68.95
X75.5Y-87.65
X75.5Y-90.35
X75.6Y-83.3
X75.7Y-48.95
X75.8Y-25.0
X75.8Y-30.0
X75.8Y-68.4
X75.8Y-82.6
X75.85Y-76.15
X75.85Y-76.85
X75.85Y-77.55
X75.85Y-78.25
X75.85Y-78.95
X75.85Y-81.2
X75.85Y-81.9
X76.0Y-15.0
X76.0Y-20.0
X76.0Y-35.0
X76.0Y-45.0
X76.0Y-70.0
X76.0Y-75.0
X76.0Y-85.0
X76.05Y-49.6
X76.1Y-67.75
X76.25Y-50.3
X76.25Y-51.0
X76.25Y-51.7
X76.25Y-52.4
X76.25Y-53.1
X76.25Y-53.8
X76.25Y-54.5
X76.25Y-55.2
X76.25Y-55.9
X76.25Y-56.6
X76.25Y-57.3
X76.25Y-58.0
X76.25Y-58.7
X76.25Y-59.4
X76.25Y-60.1
X76.25Y-60.8
X76.25Y-61.5
X76.25Y-62.2
X76.25Y-62.9
X76.25Y-63.6
X76.25Y-64.3
X76.25Y-65.0
X76.25Y-65.7
X76.25Y-66.4
X76.25Y-67.1
X76.55Y-95.14
X76.75Y-0.75
X77.2Y-33.1
X77.5Y-2.5
X77.5Y-17.5
X77.5Y-22.5
X77.5Y-37.5
X77.5Y-82.5
X77.5Y-92.5
X78.0Y-87.65
X78.0Y-90.35
X78.55Y-95.14
X78.75Y-0.75
X79.0Y-15.0
X79.0Y-40.0
X79.0Y-45.0
X79.0Y-50.0
X79.0Y-55.0
X79.0Y-60.0
X79.0Y-65.0
X79.0Y-70.0
X79.0Y-75.0
X79.0Y-85.0
X79.35Y-89.0
X80.5Y-12.5
X80.5Y-27.5
X80.5Y-32.5
X80.5Y-37.5
X80.5Y-42.5
X80.5Y-47.5
X80.5Y-52.5
X80.5Y-57.5
X80.5Y-62.5
X80.5Y-67.5
X80.5Y-72.5
X80.5Y-87.5
X80.5Y-92.5
X80.55Y-95.14
X80.75Y-0.75
X81.2Y-90.0
X81.4Y-10.0
X82.0Y-15.0
X82.0Y-25.0
X82.0Y-30.0
X82.0Y-35.0
X82.0Y-40.0
X82.0Y-45.0
X82.0Y-50.0
X82.0Y-55.0
X82.0Y-60.0
X82.0Y-65.0
X82.0Y-70.0
X82.0Y-75.0
X82.0Y-85.0
X82.55Y-95.14
X82.75Y-0.75
X83.5Y-12.5
X83.5Y-27.5
X83.5Y-32.5
X83.5Y-37.5
X83.5Y-42.5
X83.5Y-47.5
X83.5Y-52.5
X83.5Y-57.5
X83.5Y-62.5
X83.5Y-67.5
X83.5Y-72.5
X83.5Y-87.1
X84.3Y-85.0
X84.55Y-95.14
X84.75Y-0.75
X85.0Y-15.0
X85.0Y-30.0
X85.0Y-40.0
X85.0Y-45.0
X85.0Y-50.0
X85.0Y-55.0
X85.0Y-60.0
X85.0Y-65.0
X85.0Y-70.0
X85.0Y-75.0
X85.1Y-10.0
X86.5Y-2.5
X86.5Y-7.5
X86.5Y-12.5
X86.5Y-17.5
X86.5Y-22.5
X86.5Y-27.5
X86.5Y-32.5
X86.5Y-37.5
X86.5Y-42.5
X86.5Y-47.5
X86.5Y-52.5
X86.5Y-57.5
X86.5Y-62.5
X86.5Y-67.5
X86.5Y-72.5
X86.5Y-77.5
X86.5Y-82.5
X86.5Y-87.1
X86.55Y-95.14
X86.75Y-0.75
X87.62Y-2.75
X87.62Y-4.75
X87.62Y-6.75
X87.62Y-8.75
X87.62Y-10.75
X87.62Y-12.75
X87.62Y-14.75
X88.0Y-17.0
X88.0Y-20.0
X88.0Y-25.0
X88.0Y-30.0
X88.0Y-35.0
X88.0Y-40.0
X88.0Y-45.0
X88.0Y-50.0
X88.0Y-55.0
X88.0Y-60.0
X88.0Y-65.0
X88.0Y-70.0
X88.0Y-75.0
X88.0Y-80.0
X88.0Y-85.0
X88.55Y-95.14
X89.42Y-18.25
X89.42Y-20.25
X89.42Y-22.25
X89.42Y-24.25
X89.42Y-26.25
X89.42Y-28.25
X89.42Y-30.25
X89.42Y-32.25
X89.42Y-34.25
X89.42Y-36.25
X89.42Y-38.25
X89.42Y-40.25
X89.42Y-42.25
X89.42Y-44.25
X89.42Y-46.25
X89.42Y-48.25
X89.42Y-50.25
X89.42Y-52.25
X89.42Y-54.25
X89.42Y-56.25
X89.42Y-58.25
X89.42Y-60.25
X89.42Y-62.25
X89.42Y-64.25
X89.42Y-66.25
X89.42Y-68.25
X89.42Y-70.25
X89.42Y-72.25
X89.42Y-74.25
X89.42Y-76.25
X89.42Y-78.25
X89.42Y-80.25
X89.42Y-82.25
X89.42Y-84.25
X89.42Y-86.25
X89.42Y-88.25
X89.42Y-90.25
X89.42Y-92.25
X89.42Y-94.25
T2
X63.9Y-68.7
X72.0Y-68.7
T3
X12.0Y-28.0
X12.0Y-30.0
X12.0Y-32.0
X12.0Y-34.0
X14.0Y-28.0
X14.0Y-30.0
X14.0Y-32.0
X14.0Y-34.0
X77.0Y-28.0
X77.0Y-30.0
X77.0Y-32.0
X79.0Y-28.0
X79.0Y-30.0
X79.0Y-32.0
T4
X10.73Y-87.73
X10.73Y-90.27
X12.0Y-89.0
X13.27Y-87.73
X13.27Y-90.27
X38.73Y-87.73
X38.73Y-90.27
X40.0Y-89.0
X41.27Y-87.73
X41.27Y-90.27
X48.73Y-87.73
X48.73Y-90.27
X50.0Y-89.0
X51.27Y-87.73
X51.27Y-90.27
X76.73Y-87.73
X76.73Y-90.27
X78.0Y-89.0
X79.27Y-87.73
X79.27Y-90.27
T5
X6.75Y-25.75
X6.75Y-36.25
X11.5Y-25.75
X11.5Y-36.25
X79.5Y-25.75
X79.5Y-34.25
X84.25Y-25.75
X84.25Y-34.25
T6
X13.97Y-5.08
X13.97Y-7.62
X13.97Y-10.16
X13.97Y-12.7
X16.51Y-5.08
X16.51Y-7.62
X16.51Y-10.16
X16.51Y-12.7
X19.05Y-5.08
X19.05Y-7.62
X19.05Y-10.16
X19.05Y-12.7
X21.59Y-5.08
X21.59Y-7.62
X21.59Y-10.16
X21.59Y-12.7
X24.13Y-5.08
X24.13Y-7.62
X24.13Y-10.16
X24.13Y-12.7
X26.67Y-5.08
X26.67Y-7.62
X26.67Y-10.16
X26.67Y-12.7
X29.21Y-5.08
X29.21Y-7.62
X29.21Y-10.16
X29.21Y-12.7
X31.75Y-5.08
X31.75Y-7.62
X31.75Y-10.16
X31.75Y-12.7
X34.29Y-5.08
X34.29Y-7.62
X34.29Y-10.16
X34.29Y-12.7
X36.83Y-5.08
X36.83Y-7.62
X36.83Y-10.16
X36.83Y-12.7
X39.37Y-5.08
X39.37Y-7.62
X39.37Y-10.16
X39.37Y-12.7
X41.91Y-5.08
X41.91Y-7.62
X41.91Y-10.16
X41.91Y-12.7
X44.45Y-5.08
X44.45Y-7.62
X44.45Y-10.16
X44.45Y-12.7
X46.99Y-5.08
X46.99Y-7.62
X46.99Y-10.16
X46.99Y-12.7
X49.53Y-5.08
X49.53Y-7.62
X49.53Y-10.16
X49.53Y-12.7
X52.07Y-5.08
X52.07Y-7.62
X52.07Y-10.16
X52.07Y-12.7
X54.61Y-5.08
X54.61Y-7.62
X54.61Y-10.16
X54.61Y-12.7
X57.15Y-5.08
X57.15Y-7.62
X57.15Y-10.16
X57.15Y-12.7
X59.69Y-5.08
X59.69Y-7.62
X59.69Y-10.16
X59.69Y-12.7
X62.23Y-5.08
X62.23Y-7.62
X62.23Y-10.16
X62.23Y-12.7
X64.77Y-5.08
X64.77Y-7.62
X64.77Y-10.16
X64.77Y-12.7
X67.31Y-5.08
X67.31Y-7.62
X67.31Y-10.16
X67.31Y-12.7
X69.85Y-5.08
X69.85Y-7.62
X69.85Y-10.16
X69.85Y-12.7
X72.39Y-5.08
X72.39Y-7.62
X72.39Y-10.16
X72.39Y-12.7
X74.93Y-5.08
X74.93Y-7.62
X74.93Y-10.16
X74.93Y-12.7
X77.47Y-5.08
X77.47Y-7.62
X77.47Y-10.16
X77.47Y-12.7
T7
X5.08Y-90.81
X8.89Y-5.08
X82.55Y-5.08
X85.09Y-90.81
T8
X7.5Y-20.0
X7.5Y-80.0
X82.5Y-20.0
X82.5Y-80.0
M30
