%TF.GenerationSoftware,KiCad,Pcbnew,9.0.6*%
%TF.CreationDate,2025-11-19T17:48:12+01:00*%
%TF.ProjectId,Spino CS,5370696e-6f20-4435-932e-6b696361645f,v2.1*%
%TF.SameCoordinates,PX68e7780PY2faf080*%
%TF.FileFunction,Paste,Top*%
%TF.FilePolarity,Positive*%
%FSLAX46Y46*%
G04 Gerber Fmt 4.6, Leading zero omitted, Abs format (unit mm)*
G04 Created by KiCad (PCBNEW 9.0.6) date 2025-11-19 17:48:12*
%MOMM*%
%LPD*%
G01*
G04 APERTURE LIST*
G04 Aperture macros list*
%AMRoundRect*
0 Rectangle with rounded corners*
0 $1 Rounding radius*
0 $2 $3 $4 $5 $6 $7 $8 $9 X,Y pos of 4 corners*
0 Add a 4 corners polygon primitive as box body*
4,1,4,$2,$3,$4,$5,$6,$7,$8,$9,$2,$3,0*
0 Add four circle primitives for the rounded corners*
1,1,$1+$1,$2,$3*
1,1,$1+$1,$4,$5*
1,1,$1+$1,$6,$7*
1,1,$1+$1,$8,$9*
0 Add four rect primitives between the rounded corners*
20,1,$1+$1,$2,$3,$4,$5,0*
20,1,$1+$1,$4,$5,$6,$7,0*
20,1,$1+$1,$6,$7,$8,$9,0*
20,1,$1+$1,$8,$9,$2,$3,0*%
%AMFreePoly0*
4,1,81,1.701805,1.382119,1.727190,1.382119,1.742845,1.375634,1.745890,1.375153,1.747865,1.373554,1.763238,1.367187,1.790828,1.339597,1.805760,1.303549,1.807681,1.284040,1.807681,0.377294,1.805760,0.357785,1.798986,0.341432,1.798809,0.339940,1.797820,0.338617,1.790828,0.321737,1.768541,0.299450,1.767816,0.298480,1.767386,0.298295,1.763238,0.294147,1.727190,0.279215,
1.722912,0.279215,1.720245,0.278071,1.583713,0.258318,1.317097,0.187321,1.060568,0.085742,0.817623,-0.045033,0.591568,-0.203224,0.385485,-0.386676,0.202180,-0.592889,0.044150,-0.819056,-0.086452,-1.062095,-0.187847,-1.318696,-0.258655,-1.585362,-0.278311,-1.721909,-0.279215,-1.724020,-0.279215,-1.727190,-0.294147,-1.763238,-0.297400,-1.766491,-0.298686,-1.769494,-0.305516,-1.774607,
-0.321737,-1.790828,-0.333929,-1.795878,-0.340124,-1.800516,-0.347155,-1.801357,-0.357785,-1.805760,-0.377294,-1.807681,-1.284040,-1.807681,-1.292584,-1.806839,-1.294457,-1.807137,-1.296147,-1.806488,-1.303549,-1.805760,-1.339597,-1.790828,-1.341218,-1.789206,-1.342789,-1.788604,-1.346926,-1.783498,-1.367187,-1.763238,-1.371203,-1.753541,-1.375380,-1.748388,-1.376648,-1.740395,-1.382119,-1.727190,
-1.382119,-1.705937,-1.383496,-1.697264,-1.383495,-1.697264,-1.382119,-1.688339,-1.382119,-1.688172,-1.382077,-1.688072,-1.332247,-1.364875,-1.248971,-1.039031,-1.134453,-0.722812,-0.989775,-0.419204,-0.816305,-0.131077,-0.615680,0.138847,-0.389798,0.388018,-0.140791,0.614082,0.128987,0.814902,0.416988,0.988582,0.720490,1.133481,1.036626,1.248229,1.362409,1.331742,1.694761,1.383232,
1.701805,1.382119,1.701805,1.382119,$1*%
%AMFreePoly1*
4,1,81,-0.357785,1.805760,-0.341432,1.798986,-0.339940,1.798809,-0.338617,1.797820,-0.321737,1.790828,-0.299450,1.768541,-0.298480,1.767816,-0.298295,1.767386,-0.294147,1.763238,-0.279215,1.727190,-0.279215,1.722911,-0.278071,1.720245,-0.258318,1.583713,-0.187321,1.317097,-0.085742,1.060568,0.045033,0.817623,0.203224,0.591568,0.386676,0.385485,0.592889,0.202180,0.819056,0.044150,
1.062095,-0.086452,1.318696,-0.187847,1.585362,-0.258655,1.721909,-0.278311,1.724020,-0.279215,1.727190,-0.279215,1.763238,-0.294147,1.766491,-0.297400,1.769494,-0.298686,1.774607,-0.305516,1.790828,-0.321737,1.795878,-0.333929,1.800516,-0.340124,1.801357,-0.347155,1.805760,-0.357785,1.807681,-0.377294,1.807681,-1.284040,1.806839,-1.292584,1.807137,-1.294457,1.806488,-1.296147,
1.805760,-1.303549,1.790828,-1.339597,1.789206,-1.341218,1.788604,-1.342789,1.783498,-1.346926,1.763238,-1.367187,1.753541,-1.371203,1.748388,-1.375380,1.740395,-1.376648,1.727190,-1.382119,1.705938,-1.382119,1.697264,-1.383496,1.697264,-1.383495,1.688339,-1.382119,1.688172,-1.382119,1.688072,-1.382077,1.364875,-1.332247,1.039031,-1.248971,0.722812,-1.134453,0.419204,-0.989775,
0.131077,-0.816305,-0.138847,-0.615680,-0.388018,-0.389798,-0.614082,-0.140791,-0.814902,0.128987,-0.988582,0.416988,-1.133481,0.720490,-1.248229,1.036626,-1.331742,1.362409,-1.383232,1.694761,-1.382119,1.701804,-1.382119,1.727190,-1.375634,1.742845,-1.375153,1.745890,-1.373554,1.747865,-1.367187,1.763238,-1.339597,1.790828,-1.303549,1.805760,-1.284040,1.807681,-0.377294,1.807681,
-0.357785,1.805760,-0.357785,1.805760,$1*%
%AMFreePoly2*
4,1,82,-1.697264,1.383495,-1.688339,1.382119,-1.688172,1.382119,-1.688072,1.382077,-1.364875,1.332247,-1.039031,1.248971,-0.722812,1.134453,-0.419205,0.989775,-0.131078,0.816304,0.138846,0.615680,0.388017,0.389797,0.614081,0.140791,0.814902,-0.128987,0.988582,-0.416988,1.133480,-0.720490,1.248228,-1.036626,1.331741,-1.362409,1.383231,-1.694761,1.383232,-1.694761,1.382119,-1.701804,
1.382119,-1.727190,1.375634,-1.742845,1.375153,-1.745890,1.373554,-1.747865,1.367187,-1.763238,1.339597,-1.790828,1.303549,-1.805760,1.284040,-1.807681,0.377294,-1.807681,0.357785,-1.805760,0.341432,-1.798986,0.339940,-1.798809,0.338617,-1.797820,0.321737,-1.790828,0.299450,-1.768541,0.298480,-1.767816,0.298295,-1.767386,0.294147,-1.763238,0.279215,-1.727190,0.279215,-1.722911,
0.278071,-1.720245,0.258318,-1.583713,0.187320,-1.317097,0.085742,-1.060569,-0.045033,-0.817623,-0.203224,-0.591569,-0.386676,-0.385485,-0.592890,-0.202180,-0.819056,-0.044150,-1.062095,0.086452,-1.318696,0.187847,-1.585363,0.258655,-1.721909,0.278311,-1.724020,0.279215,-1.727190,0.279215,-1.763238,0.294147,-1.766491,0.297400,-1.769494,0.298686,-1.774607,0.305516,-1.790828,0.321737,
-1.795878,0.333929,-1.800516,0.340124,-1.801357,0.347155,-1.805760,0.357785,-1.807681,0.377294,-1.807681,1.284040,-1.806839,1.292584,-1.807137,1.294457,-1.806488,1.296147,-1.805760,1.303549,-1.790828,1.339597,-1.789206,1.341218,-1.788604,1.342789,-1.783498,1.346926,-1.763238,1.367187,-1.753541,1.371203,-1.748388,1.375380,-1.740395,1.376648,-1.727190,1.382119,-1.705938,1.382119,
-1.697264,1.383496,-1.697264,1.383495,-1.697264,1.383495,$1*%
%AMFreePoly3*
4,1,82,1.292584,1.806839,1.294457,1.807137,1.296147,1.806488,1.303549,1.805760,1.339597,1.790828,1.341218,1.789206,1.342789,1.788604,1.346926,1.783498,1.367187,1.763238,1.371203,1.753541,1.375380,1.748388,1.376648,1.740395,1.382119,1.727190,1.382119,1.705937,1.383496,1.697264,1.383495,1.697264,1.382119,1.688339,1.382119,1.688172,1.382077,1.688072,1.332247,1.364875,
1.248971,1.039031,1.134453,0.722812,0.989775,0.419205,0.816304,0.131078,0.615680,-0.138846,0.389797,-0.388017,0.140791,-0.614081,-0.128987,-0.814902,-0.416988,-0.988582,-0.720490,-1.133480,-1.036626,-1.248228,-1.362409,-1.331741,-1.694761,-1.383231,-1.694761,-1.383232,-1.701805,-1.382119,-1.727190,-1.382119,-1.742845,-1.375634,-1.745890,-1.375153,-1.747865,-1.373554,-1.763238,-1.367187,
-1.790828,-1.339597,-1.805760,-1.303549,-1.807681,-1.284040,-1.807681,-0.377294,-1.805760,-0.357785,-1.798986,-0.341432,-1.798809,-0.339940,-1.797820,-0.338617,-1.790828,-0.321737,-1.768541,-0.299450,-1.767816,-0.298480,-1.767386,-0.298295,-1.763238,-0.294147,-1.727190,-0.279215,-1.722912,-0.279215,-1.720245,-0.278071,-1.583713,-0.258318,-1.317097,-0.187320,-1.060569,-0.085742,-0.817623,0.045033,
-0.591569,0.203224,-0.385485,0.386676,-0.202180,0.592890,-0.044150,0.819056,0.086452,1.062095,0.187847,1.318696,0.258655,1.585363,0.278311,1.721909,0.279215,1.724020,0.279215,1.727190,0.294147,1.763238,0.297400,1.766491,0.298686,1.769494,0.305516,1.774607,0.321737,1.790828,0.333929,1.795878,0.340124,1.800516,0.347155,1.801357,0.357785,1.805760,0.377294,1.807681,
1.284040,1.807681,1.292584,1.806839,1.292584,1.806839,$1*%
G04 Aperture macros list end*
%ADD10C,0.100000*%
%ADD11RoundRect,0.175000X0.315000X-0.183750X0.315000X0.183750X-0.315000X0.183750X-0.315000X-0.183750X0*%
%ADD12RoundRect,0.094500X-0.129500X0.094500X-0.129500X-0.094500X0.129500X-0.094500X0.129500X0.094500X0*%
%ADD13RoundRect,0.140000X0.192500X-0.140000X0.192500X0.140000X-0.192500X0.140000X-0.192500X-0.140000X0*%
%ADD14RoundRect,0.157500X-0.157500X-0.175000X0.157500X-0.175000X0.157500X0.175000X-0.157500X0.175000X0*%
%ADD15RoundRect,0.157500X-0.175000X0.157500X-0.175000X-0.157500X0.175000X-0.157500X0.175000X0.157500X0*%
%ADD16RoundRect,0.098000X-0.119000X0.098000X-0.119000X-0.098000X0.119000X-0.098000X0.119000X0.098000X0*%
%ADD17RoundRect,0.098000X-0.098000X-0.119000X0.098000X-0.119000X0.098000X0.119000X-0.098000X0.119000X0*%
%ADD18RoundRect,0.175000X-0.332500X0.175000X-0.332500X-0.175000X0.332500X-0.175000X0.332500X0.175000X0*%
%ADD19RoundRect,0.098000X0.119000X-0.098000X0.119000X0.098000X-0.119000X0.098000X-0.119000X-0.098000X0*%
%ADD20R,0.910000X1.330000*%
%ADD21RoundRect,0.250000X0.275000X-0.275000X0.275000X0.275000X-0.275000X0.275000X-0.275000X-0.275000X0*%
%ADD22RoundRect,0.043750X0.043750X-0.253750X0.043750X0.253750X-0.043750X0.253750X-0.043750X-0.253750X0*%
%ADD23RoundRect,0.043750X0.253750X-0.043750X0.253750X0.043750X-0.253750X0.043750X-0.253750X-0.043750X0*%
%ADD24RoundRect,0.094500X-0.094500X-0.129500X0.094500X-0.129500X0.094500X0.129500X-0.094500X0.129500X0*%
%ADD25RoundRect,0.157500X0.175000X-0.157500X0.175000X0.157500X-0.175000X0.157500X-0.175000X-0.157500X0*%
%ADD26RoundRect,0.105000X-0.105000X0.577500X-0.105000X-0.577500X0.105000X-0.577500X0.105000X0.577500X0*%
%ADD27RoundRect,0.052500X-0.052500X0.490000X-0.052500X-0.490000X0.052500X-0.490000X0.052500X0.490000X0*%
%ADD28RoundRect,0.052500X-0.490000X0.052500X-0.490000X-0.052500X0.490000X-0.052500X0.490000X0.052500X0*%
%ADD29R,0.560000X0.210000*%
%ADD30RoundRect,0.094500X0.094500X0.129500X-0.094500X0.129500X-0.094500X-0.129500X0.094500X-0.129500X0*%
%ADD31R,0.711200X1.244600*%
%ADD32R,1.244600X0.711200*%
%ADD33RoundRect,0.153125X0.153125X0.179375X-0.153125X0.179375X-0.153125X-0.179375X0.153125X-0.179375X0*%
%ADD34RoundRect,0.105000X-0.411250X-0.105000X0.411250X-0.105000X0.411250X0.105000X-0.411250X0.105000X0*%
%ADD35RoundRect,0.098000X0.098000X0.119000X-0.098000X0.119000X-0.098000X-0.119000X0.098000X-0.119000X0*%
%ADD36RoundRect,0.175000X0.332500X-0.175000X0.332500X0.175000X-0.332500X0.175000X-0.332500X-0.175000X0*%
%ADD37R,2.380000X0.686000*%
%ADD38RoundRect,0.140000X-0.192500X0.140000X-0.192500X-0.140000X0.192500X-0.140000X0.192500X0.140000X0*%
%ADD39RoundRect,0.105000X-0.577500X-0.105000X0.577500X-0.105000X0.577500X0.105000X-0.577500X0.105000X0*%
%ADD40RoundRect,0.103250X-0.120750X0.103250X-0.120750X-0.103250X0.120750X-0.103250X0.120750X0.103250X0*%
%ADD41RoundRect,0.094500X0.129500X-0.094500X0.129500X0.094500X-0.129500X0.094500X-0.129500X-0.094500X0*%
%ADD42FreePoly0,0.000000*%
%ADD43FreePoly1,0.000000*%
%ADD44FreePoly2,0.000000*%
%ADD45FreePoly3,0.000000*%
%ADD46RoundRect,0.231000X-0.539000X0.609000X-0.539000X-0.609000X0.539000X-0.609000X0.539000X0.609000X0*%
%ADD47RoundRect,0.175000X0.210000X-0.210000X0.210000X0.210000X-0.210000X0.210000X-0.210000X-0.210000X0*%
%ADD48RoundRect,0.103250X0.103250X0.120750X-0.103250X0.120750X-0.103250X-0.120750X0.103250X-0.120750X0*%
%ADD49RoundRect,0.153125X-0.153125X-0.179375X0.153125X-0.179375X0.153125X0.179375X-0.153125X0.179375X0*%
%ADD50R,0.553000X0.308000*%
%ADD51RoundRect,0.157500X0.157500X0.175000X-0.157500X0.175000X-0.157500X-0.175000X0.157500X-0.175000X0*%
%ADD52R,0.266000X1.050000*%
%ADD53R,0.146000X0.146000*%
%ADD54O,0.545000X0.146000*%
%ADD55R,0.476000X0.735000*%
%ADD56R,0.182000X0.350000*%
%ADD57RoundRect,0.105000X-0.105000X0.358750X-0.105000X-0.358750X0.105000X-0.358750X0.105000X0.358750X0*%
%ADD58RoundRect,0.153125X-0.179375X0.153125X-0.179375X-0.153125X0.179375X-0.153125X0.179375X0.153125X0*%
%ADD59RoundRect,0.103250X-0.103250X-0.120750X0.103250X-0.120750X0.103250X0.120750X-0.103250X0.120750X0*%
%ADD60RoundRect,0.105000X0.105000X-0.358750X0.105000X0.358750X-0.105000X0.358750X-0.105000X-0.358750X0*%
%ADD61RoundRect,0.070000X-0.070000X-0.157500X0.070000X-0.157500X0.070000X0.157500X-0.070000X0.157500X0*%
%ADD62RoundRect,0.070000X0.157500X-0.070000X0.157500X0.070000X-0.157500X0.070000X-0.157500X-0.070000X0*%
%ADD63RoundRect,0.070000X0.070000X0.157500X-0.070000X0.157500X-0.070000X-0.157500X0.070000X-0.157500X0*%
%ADD64RoundRect,0.070000X-0.157500X0.070000X-0.157500X-0.070000X0.157500X-0.070000X0.157500X0.070000X0*%
%ADD65R,0.635000X0.635000*%
%ADD66RoundRect,0.070000X0.498750X0.070000X-0.498750X0.070000X-0.498750X-0.070000X0.498750X-0.070000X0*%
%ADD67R,0.980000X0.840000*%
%ADD68RoundRect,0.175000X0.183750X0.315000X-0.183750X0.315000X-0.183750X-0.315000X0.183750X-0.315000X0*%
%ADD69RoundRect,0.153125X0.179375X-0.153125X0.179375X0.153125X-0.179375X0.153125X-0.179375X-0.153125X0*%
%ADD70RoundRect,0.175000X-0.315000X0.183750X-0.315000X-0.183750X0.315000X-0.183750X0.315000X0.183750X0*%
%ADD71R,0.560000X0.630000*%
%ADD72RoundRect,0.068250X0.194250X-0.211750X0.194250X0.211750X-0.194250X0.211750X-0.194250X-0.211750X0*%
%ADD73RoundRect,0.070000X0.070000X0.210000X-0.070000X0.210000X-0.070000X-0.210000X0.070000X-0.210000X0*%
%ADD74RoundRect,0.065625X0.196875X-0.214375X0.196875X0.214375X-0.196875X0.214375X-0.196875X-0.214375X0*%
%ADD75RoundRect,0.070000X-0.210000X0.070000X-0.210000X-0.070000X0.210000X-0.070000X0.210000X0.070000X0*%
%ADD76RoundRect,0.068250X-0.194250X0.211750X-0.194250X-0.211750X0.194250X-0.211750X0.194250X0.211750X0*%
%ADD77RoundRect,0.070000X-0.070000X-0.210000X0.070000X-0.210000X0.070000X0.210000X-0.070000X0.210000X0*%
%ADD78RoundRect,0.068250X-0.194250X-0.211750X0.194250X-0.211750X0.194250X0.211750X-0.194250X0.211750X0*%
%ADD79RoundRect,0.070000X0.210000X-0.070000X0.210000X0.070000X-0.210000X0.070000X-0.210000X-0.070000X0*%
%ADD80R,0.575000X0.575000*%
%ADD81RoundRect,0.250000X0.675000X-0.675000X0.675000X0.675000X-0.675000X0.675000X-0.675000X-0.675000X0*%
%ADD82RoundRect,0.250000X-0.275000X0.275000X-0.275000X-0.275000X0.275000X-0.275000X0.275000X0.275000X0*%
%ADD83RoundRect,0.052500X-0.052500X0.245000X-0.052500X-0.245000X0.052500X-0.245000X0.052500X0.245000X0*%
%ADD84RoundRect,0.052500X-0.245000X0.052500X-0.245000X-0.052500X0.245000X-0.052500X0.245000X0.052500X0*%
G04 APERTURE END LIST*
%TO.C,SH1*%
D10*
X12250000Y-42750000D02*
X13150000Y-42750000D01*
X13150000Y-45750000D01*
X12250000Y-45750000D01*
X12250000Y-42750000D01*
G36*
X12250000Y-42750000D02*
G01*
X13150000Y-42750000D01*
X13150000Y-45750000D01*
X12250000Y-45750000D01*
X12250000Y-42750000D01*
G37*
X12250000Y-46250000D02*
X13150000Y-46250000D01*
X13150000Y-49250000D01*
X12250000Y-49250000D01*
X12250000Y-46250000D01*
G36*
X12250000Y-46250000D02*
G01*
X13150000Y-46250000D01*
X13150000Y-49250000D01*
X12250000Y-49250000D01*
X12250000Y-46250000D01*
G37*
X12250000Y-49750000D02*
X13150000Y-49750000D01*
X13150000Y-52750000D01*
X12250000Y-52750000D01*
X12250000Y-49750000D01*
G36*
X12250000Y-49750000D02*
G01*
X13150000Y-49750000D01*
X13150000Y-52750000D01*
X12250000Y-52750000D01*
X12250000Y-49750000D01*
G37*
X12250000Y-53250000D02*
X13150000Y-53250000D01*
X13150000Y-56250000D01*
X12250000Y-56250000D01*
X12250000Y-53250000D01*
G36*
X12250000Y-53250000D02*
G01*
X13150000Y-53250000D01*
X13150000Y-56250000D01*
X12250000Y-56250000D01*
X12250000Y-53250000D01*
G37*
X12250000Y-56750000D02*
X13150000Y-56750000D01*
X13150000Y-59750000D01*
X12250000Y-59750000D01*
X12250000Y-56750000D01*
G36*
X12250000Y-56750000D02*
G01*
X13150000Y-56750000D01*
X13150000Y-59750000D01*
X12250000Y-59750000D01*
X12250000Y-56750000D01*
G37*
X12250000Y-60250000D02*
X13150000Y-60250000D01*
X13150000Y-63250000D01*
X12250000Y-63250000D01*
X12250000Y-60250000D01*
G36*
X12250000Y-60250000D02*
G01*
X13150000Y-60250000D01*
X13150000Y-63250000D01*
X12250000Y-63250000D01*
X12250000Y-60250000D01*
G37*
X12250000Y-63750000D02*
X13150000Y-63750000D01*
X13150000Y-66750000D01*
X12250000Y-66750000D01*
X12250000Y-63750000D01*
G36*
X12250000Y-63750000D02*
G01*
X13150000Y-63750000D01*
X13150000Y-66750000D01*
X12250000Y-66750000D01*
X12250000Y-63750000D01*
G37*
X12250000Y-67250000D02*
X13150000Y-67250000D01*
X13150000Y-70250000D01*
X12250000Y-70250000D01*
X12250000Y-67250000D01*
G36*
X12250000Y-67250000D02*
G01*
X13150000Y-67250000D01*
X13150000Y-70250000D01*
X12250000Y-70250000D01*
X12250000Y-67250000D01*
G37*
X12250000Y-70750000D02*
X13150000Y-70750000D01*
X13150000Y-73750000D01*
X12250000Y-73750000D01*
X12250000Y-70750000D01*
G36*
X12250000Y-70750000D02*
G01*
X13150000Y-70750000D01*
X13150000Y-73750000D01*
X12250000Y-73750000D01*
X12250000Y-70750000D01*
G37*
X12250000Y-74250000D02*
X13150000Y-74250000D01*
X13150000Y-77250000D01*
X12250000Y-77250000D01*
X12250000Y-74250000D01*
G36*
X12250000Y-74250000D02*
G01*
X13150000Y-74250000D01*
X13150000Y-77250000D01*
X12250000Y-77250000D01*
X12250000Y-74250000D01*
G37*
X16900000Y-79650000D02*
X18250000Y-79650000D01*
X18250000Y-80550000D01*
X16900000Y-80550000D01*
X16900000Y-79650000D01*
G36*
X16900000Y-79650000D02*
G01*
X18250000Y-79650000D01*
X18250000Y-80550000D01*
X16900000Y-80550000D01*
X16900000Y-79650000D01*
G37*
X18250000Y-39450000D02*
X15250000Y-39450000D01*
X15250000Y-40350000D01*
X18250000Y-40350000D01*
X18250000Y-39450000D01*
G36*
X18250000Y-39450000D02*
G01*
X15250000Y-39450000D01*
X15250000Y-40350000D01*
X18250000Y-40350000D01*
X18250000Y-39450000D01*
G37*
X18750000Y-79650000D02*
X21750000Y-79650000D01*
X21750000Y-80550000D01*
X18750000Y-80550000D01*
X18750000Y-79650000D01*
G36*
X18750000Y-79650000D02*
G01*
X21750000Y-79650000D01*
X21750000Y-80550000D01*
X18750000Y-80550000D01*
X18750000Y-79650000D01*
G37*
X21750000Y-39450000D02*
X18750000Y-39450000D01*
X18750000Y-40350000D01*
X21750000Y-40350000D01*
X21750000Y-39450000D01*
G36*
X21750000Y-39450000D02*
G01*
X18750000Y-39450000D01*
X18750000Y-40350000D01*
X21750000Y-40350000D01*
X21750000Y-39450000D01*
G37*
X22250000Y-39450000D02*
X25250000Y-39450000D01*
X25250000Y-40350000D01*
X22250000Y-40350000D01*
X22250000Y-39450000D01*
G36*
X22250000Y-39450000D02*
G01*
X25250000Y-39450000D01*
X25250000Y-40350000D01*
X22250000Y-40350000D01*
X22250000Y-39450000D01*
G37*
X22250000Y-79650000D02*
X25250000Y-79650000D01*
X25250000Y-80550000D01*
X22250000Y-80550000D01*
X22250000Y-79650000D01*
G36*
X22250000Y-79650000D02*
G01*
X25250000Y-79650000D01*
X25250000Y-80550000D01*
X22250000Y-80550000D01*
X22250000Y-79650000D01*
G37*
X25750000Y-39450000D02*
X28750000Y-39450000D01*
X28750000Y-40350000D01*
X25750000Y-40350000D01*
X25750000Y-39450000D01*
G36*
X25750000Y-39450000D02*
G01*
X28750000Y-39450000D01*
X28750000Y-40350000D01*
X25750000Y-40350000D01*
X25750000Y-39450000D01*
G37*
X25750000Y-79650000D02*
X28750000Y-79650000D01*
X28750000Y-80550000D01*
X25750000Y-80550000D01*
X25750000Y-79650000D01*
G36*
X25750000Y-79650000D02*
G01*
X28750000Y-79650000D01*
X28750000Y-80550000D01*
X25750000Y-80550000D01*
X25750000Y-79650000D01*
G37*
X30850000Y-42750000D02*
X31750000Y-42750000D01*
X31750000Y-45750000D01*
X30850000Y-45750000D01*
X30850000Y-42750000D01*
G36*
X30850000Y-42750000D02*
G01*
X31750000Y-42750000D01*
X31750000Y-45750000D01*
X30850000Y-45750000D01*
X30850000Y-42750000D01*
G37*
X30850000Y-46250000D02*
X31750000Y-46250000D01*
X31750000Y-49250000D01*
X30850000Y-49250000D01*
X30850000Y-46250000D01*
G36*
X30850000Y-46250000D02*
G01*
X31750000Y-46250000D01*
X31750000Y-49250000D01*
X30850000Y-49250000D01*
X30850000Y-46250000D01*
G37*
X30850000Y-49750000D02*
X31750000Y-49750000D01*
X31750000Y-52750000D01*
X30850000Y-52750000D01*
X30850000Y-49750000D01*
G36*
X30850000Y-49750000D02*
G01*
X31750000Y-49750000D01*
X31750000Y-52750000D01*
X30850000Y-52750000D01*
X30850000Y-49750000D01*
G37*
X30850000Y-53250000D02*
X31750000Y-53250000D01*
X31750000Y-56250000D01*
X30850000Y-56250000D01*
X30850000Y-53250000D01*
G36*
X30850000Y-53250000D02*
G01*
X31750000Y-53250000D01*
X31750000Y-56250000D01*
X30850000Y-56250000D01*
X30850000Y-53250000D01*
G37*
X30850000Y-56750000D02*
X31750000Y-56750000D01*
X31750000Y-59750000D01*
X30850000Y-59750000D01*
X30850000Y-56750000D01*
G36*
X30850000Y-56750000D02*
G01*
X31750000Y-56750000D01*
X31750000Y-59750000D01*
X30850000Y-59750000D01*
X30850000Y-56750000D01*
G37*
X30850000Y-60250000D02*
X31750000Y-60250000D01*
X31750000Y-63250000D01*
X30850000Y-63250000D01*
X30850000Y-60250000D01*
G36*
X30850000Y-60250000D02*
G01*
X31750000Y-60250000D01*
X31750000Y-63250000D01*
X30850000Y-63250000D01*
X30850000Y-60250000D01*
G37*
X30850000Y-63750000D02*
X31750000Y-63750000D01*
X31750000Y-66750000D01*
X30850000Y-66750000D01*
X30850000Y-63750000D01*
G36*
X30850000Y-63750000D02*
G01*
X31750000Y-63750000D01*
X31750000Y-66750000D01*
X30850000Y-66750000D01*
X30850000Y-63750000D01*
G37*
X30850000Y-67250000D02*
X31750000Y-67250000D01*
X31750000Y-70250000D01*
X30850000Y-70250000D01*
X30850000Y-67250000D01*
G36*
X30850000Y-67250000D02*
G01*
X31750000Y-67250000D01*
X31750000Y-70250000D01*
X30850000Y-70250000D01*
X30850000Y-67250000D01*
G37*
X30850000Y-70750000D02*
X31750000Y-70750000D01*
X31750000Y-73750000D01*
X30850000Y-73750000D01*
X30850000Y-70750000D01*
G36*
X30850000Y-70750000D02*
G01*
X31750000Y-70750000D01*
X31750000Y-73750000D01*
X30850000Y-73750000D01*
X30850000Y-70750000D01*
G37*
X30850000Y-74250000D02*
X31750000Y-74250000D01*
X31750000Y-77250000D01*
X30850000Y-77250000D01*
X30850000Y-74250000D01*
G36*
X30850000Y-74250000D02*
G01*
X31750000Y-74250000D01*
X31750000Y-77250000D01*
X30850000Y-77250000D01*
X30850000Y-74250000D01*
G37*
X13150000Y-78450000D02*
X13152283Y-78554787D01*
X13188675Y-78761176D01*
X13260353Y-78958111D01*
X13365140Y-79139606D01*
X13499851Y-79300149D01*
X13660394Y-79434860D01*
X13841889Y-79539647D01*
X14038824Y-79611325D01*
X14100000Y-79620000D01*
X14100000Y-80530000D01*
X13903043Y-80504629D01*
X13615188Y-80420107D01*
X13342292Y-80295480D01*
X13089910Y-80133283D01*
X12863180Y-79936820D01*
X12666717Y-79710090D01*
X12504520Y-79457708D01*
X12379893Y-79184812D01*
X12295371Y-78896957D01*
X12252675Y-78600004D01*
X12250000Y-78450000D01*
X12250000Y-77750000D01*
X13150000Y-77750000D01*
X13150000Y-78450000D01*
G36*
X13150000Y-78450000D02*
G01*
X13152283Y-78554787D01*
X13188675Y-78761176D01*
X13260353Y-78958111D01*
X13365140Y-79139606D01*
X13499851Y-79300149D01*
X13660394Y-79434860D01*
X13841889Y-79539647D01*
X14038824Y-79611325D01*
X14100000Y-79620000D01*
X14100000Y-80530000D01*
X13903043Y-80504629D01*
X13615188Y-80420107D01*
X13342292Y-80295480D01*
X13089910Y-80133283D01*
X12863180Y-79936820D01*
X12666717Y-79710090D01*
X12504520Y-79457708D01*
X12379893Y-79184812D01*
X12295371Y-78896957D01*
X12252675Y-78600004D01*
X12250000Y-78450000D01*
X12250000Y-77750000D01*
X13150000Y-77750000D01*
X13150000Y-78450000D01*
G37*
X14750000Y-40350000D02*
X14350000Y-40350000D01*
G75*
G03*
X13150000Y-41550000I0J-1200000D01*
G01*
X13150000Y-42250000D01*
X12250000Y-42250000D01*
X12250000Y-41550000D01*
G75*
G02*
X14350000Y-39450000I2100000J0D01*
G01*
X14750000Y-39450000D01*
X14750000Y-40350000D01*
G36*
X14750000Y-40350000D02*
G01*
X14350000Y-40350000D01*
G75*
G03*
X13150000Y-41550000I0J-1200000D01*
G01*
X13150000Y-42250000D01*
X12250000Y-42250000D01*
X12250000Y-41550000D01*
G75*
G02*
X14350000Y-39450000I2100000J0D01*
G01*
X14750000Y-39450000D01*
X14750000Y-40350000D01*
G37*
X29650000Y-39450000D02*
X29650000Y-39450000D01*
G75*
G02*
X31750000Y-41550000I0J-2100000D01*
G01*
X31750000Y-42250000D01*
X30850000Y-42250000D01*
X30850000Y-41550000D01*
G75*
G03*
X29650000Y-40350000I-1200000J0D01*
G01*
X29250000Y-40350000D01*
X29250000Y-39450000D01*
X29650000Y-39450000D01*
G36*
X29650000Y-39450000D02*
G01*
X29650000Y-39450000D01*
G75*
G02*
X31750000Y-41550000I0J-2100000D01*
G01*
X31750000Y-42250000D01*
X30850000Y-42250000D01*
X30850000Y-41550000D01*
G75*
G03*
X29650000Y-40350000I-1200000J0D01*
G01*
X29250000Y-40350000D01*
X29250000Y-39450000D01*
X29650000Y-39450000D01*
G37*
X31750000Y-78450000D02*
X31750000Y-78450000D01*
G75*
G02*
X29650000Y-80550000I-2100000J0D01*
G01*
X29250000Y-80550000D01*
X29250000Y-79650000D01*
X29650000Y-79650000D01*
G75*
G03*
X30850000Y-78450000I0J1200000D01*
G01*
X30850000Y-77750000D01*
X31750000Y-77750000D01*
X31750000Y-78450000D01*
G36*
X31750000Y-78450000D02*
G01*
X31750000Y-78450000D01*
G75*
G02*
X29650000Y-80550000I-2100000J0D01*
G01*
X29250000Y-80550000D01*
X29250000Y-79650000D01*
X29650000Y-79650000D01*
G75*
G03*
X30850000Y-78450000I0J1200000D01*
G01*
X30850000Y-77750000D01*
X31750000Y-77750000D01*
X31750000Y-78450000D01*
G37*
%TO.C,SH2*%
X58250000Y-42750000D02*
X59150000Y-42750000D01*
X59150000Y-45750000D01*
X58250000Y-45750000D01*
X58250000Y-42750000D01*
G36*
X58250000Y-42750000D02*
G01*
X59150000Y-42750000D01*
X59150000Y-45750000D01*
X58250000Y-45750000D01*
X58250000Y-42750000D01*
G37*
X58250000Y-46250000D02*
X59150000Y-46250000D01*
X59150000Y-49250000D01*
X58250000Y-49250000D01*
X58250000Y-46250000D01*
G36*
X58250000Y-46250000D02*
G01*
X59150000Y-46250000D01*
X59150000Y-49250000D01*
X58250000Y-49250000D01*
X58250000Y-46250000D01*
G37*
X58250000Y-49750000D02*
X59150000Y-49750000D01*
X59150000Y-52750000D01*
X58250000Y-52750000D01*
X58250000Y-49750000D01*
G36*
X58250000Y-49750000D02*
G01*
X59150000Y-49750000D01*
X59150000Y-52750000D01*
X58250000Y-52750000D01*
X58250000Y-49750000D01*
G37*
X58250000Y-53250000D02*
X59150000Y-53250000D01*
X59150000Y-56250000D01*
X58250000Y-56250000D01*
X58250000Y-53250000D01*
G36*
X58250000Y-53250000D02*
G01*
X59150000Y-53250000D01*
X59150000Y-56250000D01*
X58250000Y-56250000D01*
X58250000Y-53250000D01*
G37*
X58250000Y-56750000D02*
X59150000Y-56750000D01*
X59150000Y-59750000D01*
X58250000Y-59750000D01*
X58250000Y-56750000D01*
G36*
X58250000Y-56750000D02*
G01*
X59150000Y-56750000D01*
X59150000Y-59750000D01*
X58250000Y-59750000D01*
X58250000Y-56750000D01*
G37*
X58250000Y-60250000D02*
X59150000Y-60250000D01*
X59150000Y-63250000D01*
X58250000Y-63250000D01*
X58250000Y-60250000D01*
G36*
X58250000Y-60250000D02*
G01*
X59150000Y-60250000D01*
X59150000Y-63250000D01*
X58250000Y-63250000D01*
X58250000Y-60250000D01*
G37*
X58250000Y-63750000D02*
X59150000Y-63750000D01*
X59150000Y-66750000D01*
X58250000Y-66750000D01*
X58250000Y-63750000D01*
G36*
X58250000Y-63750000D02*
G01*
X59150000Y-63750000D01*
X59150000Y-66750000D01*
X58250000Y-66750000D01*
X58250000Y-63750000D01*
G37*
X58250000Y-67250000D02*
X59150000Y-67250000D01*
X59150000Y-70250000D01*
X58250000Y-70250000D01*
X58250000Y-67250000D01*
G36*
X58250000Y-67250000D02*
G01*
X59150000Y-67250000D01*
X59150000Y-70250000D01*
X58250000Y-70250000D01*
X58250000Y-67250000D01*
G37*
X58250000Y-70750000D02*
X59150000Y-70750000D01*
X59150000Y-73750000D01*
X58250000Y-73750000D01*
X58250000Y-70750000D01*
G36*
X58250000Y-70750000D02*
G01*
X59150000Y-70750000D01*
X59150000Y-73750000D01*
X58250000Y-73750000D01*
X58250000Y-70750000D01*
G37*
X58250000Y-74250000D02*
X59150000Y-74250000D01*
X59150000Y-77250000D01*
X58250000Y-77250000D01*
X58250000Y-74250000D01*
G36*
X58250000Y-74250000D02*
G01*
X59150000Y-74250000D01*
X59150000Y-77250000D01*
X58250000Y-77250000D01*
X58250000Y-74250000D01*
G37*
X61250000Y-79650000D02*
X64250000Y-79650000D01*
X64250000Y-80550000D01*
X61250000Y-80550000D01*
X61250000Y-79650000D01*
G36*
X61250000Y-79650000D02*
G01*
X64250000Y-79650000D01*
X64250000Y-80550000D01*
X61250000Y-80550000D01*
X61250000Y-79650000D01*
G37*
X64250000Y-39450000D02*
X61250000Y-39450000D01*
X61250000Y-40350000D01*
X64250000Y-40350000D01*
X64250000Y-39450000D01*
G36*
X64250000Y-39450000D02*
G01*
X61250000Y-39450000D01*
X61250000Y-40350000D01*
X64250000Y-40350000D01*
X64250000Y-39450000D01*
G37*
X64750000Y-79650000D02*
X67750000Y-79650000D01*
X67750000Y-80550000D01*
X64750000Y-80550000D01*
X64750000Y-79650000D01*
G36*
X64750000Y-79650000D02*
G01*
X67750000Y-79650000D01*
X67750000Y-80550000D01*
X64750000Y-80550000D01*
X64750000Y-79650000D01*
G37*
X67750000Y-39450000D02*
X64750000Y-39450000D01*
X64750000Y-40350000D01*
X67750000Y-40350000D01*
X67750000Y-39450000D01*
G36*
X67750000Y-39450000D02*
G01*
X64750000Y-39450000D01*
X64750000Y-40350000D01*
X67750000Y-40350000D01*
X67750000Y-39450000D01*
G37*
X68250000Y-39450000D02*
X71250000Y-39450000D01*
X71250000Y-40350000D01*
X68250000Y-40350000D01*
X68250000Y-39450000D01*
G36*
X68250000Y-39450000D02*
G01*
X71250000Y-39450000D01*
X71250000Y-40350000D01*
X68250000Y-40350000D01*
X68250000Y-39450000D01*
G37*
X68250000Y-79650000D02*
X71250000Y-79650000D01*
X71250000Y-80550000D01*
X68250000Y-80550000D01*
X68250000Y-79650000D01*
G36*
X68250000Y-79650000D02*
G01*
X71250000Y-79650000D01*
X71250000Y-80550000D01*
X68250000Y-80550000D01*
X68250000Y-79650000D01*
G37*
X71750000Y-39450000D02*
X74750000Y-39450000D01*
X74750000Y-40350000D01*
X71750000Y-40350000D01*
X71750000Y-39450000D01*
G36*
X71750000Y-39450000D02*
G01*
X74750000Y-39450000D01*
X74750000Y-40350000D01*
X71750000Y-40350000D01*
X71750000Y-39450000D01*
G37*
X71750000Y-79650000D02*
X73100000Y-79650000D01*
X73100000Y-80550000D01*
X71750000Y-80550000D01*
X71750000Y-79650000D01*
G36*
X71750000Y-79650000D02*
G01*
X73100000Y-79650000D01*
X73100000Y-80550000D01*
X71750000Y-80550000D01*
X71750000Y-79650000D01*
G37*
X76850000Y-42750000D02*
X77750000Y-42750000D01*
X77750000Y-45750000D01*
X76850000Y-45750000D01*
X76850000Y-42750000D01*
G36*
X76850000Y-42750000D02*
G01*
X77750000Y-42750000D01*
X77750000Y-45750000D01*
X76850000Y-45750000D01*
X76850000Y-42750000D01*
G37*
X76850000Y-46250000D02*
X77750000Y-46250000D01*
X77750000Y-49250000D01*
X76850000Y-49250000D01*
X76850000Y-46250000D01*
G36*
X76850000Y-46250000D02*
G01*
X77750000Y-46250000D01*
X77750000Y-49250000D01*
X76850000Y-49250000D01*
X76850000Y-46250000D01*
G37*
X76850000Y-49750000D02*
X77750000Y-49750000D01*
X77750000Y-52750000D01*
X76850000Y-52750000D01*
X76850000Y-49750000D01*
G36*
X76850000Y-49750000D02*
G01*
X77750000Y-49750000D01*
X77750000Y-52750000D01*
X76850000Y-52750000D01*
X76850000Y-49750000D01*
G37*
X76850000Y-53250000D02*
X77750000Y-53250000D01*
X77750000Y-56250000D01*
X76850000Y-56250000D01*
X76850000Y-53250000D01*
G36*
X76850000Y-53250000D02*
G01*
X77750000Y-53250000D01*
X77750000Y-56250000D01*
X76850000Y-56250000D01*
X76850000Y-53250000D01*
G37*
X76850000Y-56750000D02*
X77750000Y-56750000D01*
X77750000Y-59750000D01*
X76850000Y-59750000D01*
X76850000Y-56750000D01*
G36*
X76850000Y-56750000D02*
G01*
X77750000Y-56750000D01*
X77750000Y-59750000D01*
X76850000Y-59750000D01*
X76850000Y-56750000D01*
G37*
X76850000Y-60250000D02*
X77750000Y-60250000D01*
X77750000Y-63250000D01*
X76850000Y-63250000D01*
X76850000Y-60250000D01*
G36*
X76850000Y-60250000D02*
G01*
X77750000Y-60250000D01*
X77750000Y-63250000D01*
X76850000Y-63250000D01*
X76850000Y-60250000D01*
G37*
X76850000Y-63750000D02*
X77750000Y-63750000D01*
X77750000Y-66750000D01*
X76850000Y-66750000D01*
X76850000Y-63750000D01*
G36*
X76850000Y-63750000D02*
G01*
X77750000Y-63750000D01*
X77750000Y-66750000D01*
X76850000Y-66750000D01*
X76850000Y-63750000D01*
G37*
X76850000Y-67250000D02*
X77750000Y-67250000D01*
X77750000Y-70250000D01*
X76850000Y-70250000D01*
X76850000Y-67250000D01*
G36*
X76850000Y-67250000D02*
G01*
X77750000Y-67250000D01*
X77750000Y-70250000D01*
X76850000Y-70250000D01*
X76850000Y-67250000D01*
G37*
X76850000Y-70750000D02*
X77750000Y-70750000D01*
X77750000Y-73750000D01*
X76850000Y-73750000D01*
X76850000Y-70750000D01*
G36*
X76850000Y-70750000D02*
G01*
X77750000Y-70750000D01*
X77750000Y-73750000D01*
X76850000Y-73750000D01*
X76850000Y-70750000D01*
G37*
X76850000Y-74250000D02*
X77750000Y-74250000D01*
X77750000Y-77250000D01*
X76850000Y-77250000D01*
X76850000Y-74250000D01*
G36*
X76850000Y-74250000D02*
G01*
X77750000Y-74250000D01*
X77750000Y-77250000D01*
X76850000Y-77250000D01*
X76850000Y-74250000D01*
G37*
X77750000Y-78450000D02*
X77747325Y-78600004D01*
X77704629Y-78896957D01*
X77620107Y-79184812D01*
X77495480Y-79457708D01*
X77333283Y-79710090D01*
X77136820Y-79936820D01*
X76910090Y-80133283D01*
X76657708Y-80295480D01*
X76384812Y-80420107D01*
X76096957Y-80504629D01*
X75900000Y-80530000D01*
X75900000Y-79620000D01*
X75961176Y-79611325D01*
X76158111Y-79539647D01*
X76339606Y-79434860D01*
X76500149Y-79300149D01*
X76634860Y-79139606D01*
X76739647Y-78958111D01*
X76811325Y-78761176D01*
X76847717Y-78554787D01*
X76850000Y-78450000D01*
X76850000Y-77750000D01*
X77750000Y-77750000D01*
X77750000Y-78450000D01*
G36*
X77750000Y-78450000D02*
G01*
X77747325Y-78600004D01*
X77704629Y-78896957D01*
X77620107Y-79184812D01*
X77495480Y-79457708D01*
X77333283Y-79710090D01*
X77136820Y-79936820D01*
X76910090Y-80133283D01*
X76657708Y-80295480D01*
X76384812Y-80420107D01*
X76096957Y-80504629D01*
X75900000Y-80530000D01*
X75900000Y-79620000D01*
X75961176Y-79611325D01*
X76158111Y-79539647D01*
X76339606Y-79434860D01*
X76500149Y-79300149D01*
X76634860Y-79139606D01*
X76739647Y-78958111D01*
X76811325Y-78761176D01*
X76847717Y-78554787D01*
X76850000Y-78450000D01*
X76850000Y-77750000D01*
X77750000Y-77750000D01*
X77750000Y-78450000D01*
G37*
X60750000Y-40350000D02*
X60350000Y-40350000D01*
G75*
G03*
X59150000Y-41550000I0J-1200000D01*
G01*
X59150000Y-42250000D01*
X58250000Y-42250000D01*
X58250000Y-41550000D01*
G75*
G02*
X60350000Y-39450000I2100000J0D01*
G01*
X60750000Y-39450000D01*
X60750000Y-40350000D01*
G36*
X60750000Y-40350000D02*
G01*
X60350000Y-40350000D01*
G75*
G03*
X59150000Y-41550000I0J-1200000D01*
G01*
X59150000Y-42250000D01*
X58250000Y-42250000D01*
X58250000Y-41550000D01*
G75*
G02*
X60350000Y-39450000I2100000J0D01*
G01*
X60750000Y-39450000D01*
X60750000Y-40350000D01*
G37*
X59150000Y-78450000D02*
X59150000Y-78450000D01*
G75*
G03*
X60350000Y-79650000I1200000J0D01*
G01*
X60750000Y-79650000D01*
X60750000Y-80550000D01*
X60350000Y-80550000D01*
G75*
G02*
X58250000Y-78450000I0J2100000D01*
G01*
X58250000Y-77750000D01*
X59150000Y-77750000D01*
X59150000Y-78450000D01*
G36*
X59150000Y-78450000D02*
G01*
X59150000Y-78450000D01*
G75*
G03*
X60350000Y-79650000I1200000J0D01*
G01*
X60750000Y-79650000D01*
X60750000Y-80550000D01*
X60350000Y-80550000D01*
G75*
G02*
X58250000Y-78450000I0J2100000D01*
G01*
X58250000Y-77750000D01*
X59150000Y-77750000D01*
X59150000Y-78450000D01*
G37*
X75650000Y-39450000D02*
X75650000Y-39450000D01*
G75*
G02*
X77750000Y-41550000I0J-2100000D01*
G01*
X77750000Y-42250000D01*
X76850000Y-42250000D01*
X76850000Y-41550000D01*
G75*
G03*
X75650000Y-40350000I-1200000J0D01*
G01*
X75250000Y-40350000D01*
X75250000Y-39450000D01*
X75650000Y-39450000D01*
G36*
X75650000Y-39450000D02*
G01*
X75650000Y-39450000D01*
G75*
G02*
X77750000Y-41550000I0J-2100000D01*
G01*
X77750000Y-42250000D01*
X76850000Y-42250000D01*
X76850000Y-41550000D01*
G75*
G03*
X75650000Y-40350000I-1200000J0D01*
G01*
X75250000Y-40350000D01*
X75250000Y-39450000D01*
X75650000Y-39450000D01*
G37*
%TD*%
D11*
%TO.C,R55*%
X85100000Y-86112500D03*
X85100000Y-84287500D03*
%TD*%
D12*
%TO.C,R10*%
X34100000Y-51490000D03*
X34100000Y-52510000D03*
%TD*%
D13*
%TO.C,R46*%
X28900000Y-54625000D03*
X28900000Y-52975000D03*
%TD*%
D14*
%TO.C,C35*%
X49725000Y-57600000D03*
X51275000Y-57600000D03*
%TD*%
D15*
%TO.C,C106*%
X25100000Y-89025000D03*
X25100000Y-90575000D03*
%TD*%
%TO.C,C129*%
X84200000Y-9825000D03*
X84200000Y-11375000D03*
%TD*%
%TO.C,C114*%
X23400000Y-84025000D03*
X23400000Y-85575000D03*
%TD*%
D16*
%TO.C,C6*%
X62900000Y-22870000D03*
X62900000Y-23830000D03*
%TD*%
D17*
%TO.C,C36*%
X42620000Y-29700000D03*
X43580000Y-29700000D03*
%TD*%
%TO.C,C105*%
X71920000Y-77500000D03*
X72880000Y-77500000D03*
%TD*%
D18*
%TO.C,C22*%
X38800000Y-71050000D03*
X38800000Y-72950000D03*
%TD*%
D19*
%TO.C,C44*%
X50400000Y-28280000D03*
X50400000Y-27320000D03*
%TD*%
D16*
%TO.C,C73*%
X15500000Y-71820000D03*
X15500000Y-72780000D03*
%TD*%
D20*
%TO.C,X2*%
X52250000Y-30300000D03*
X57750000Y-30300000D03*
X57750000Y-27100000D03*
X52250000Y-27100000D03*
%TD*%
D19*
%TO.C,C98*%
X69900000Y-70380000D03*
X69900000Y-69420000D03*
%TD*%
D21*
%TO.C,U11*%
X21350000Y-45150000D03*
X22650000Y-45150000D03*
X21350000Y-43850000D03*
X22650000Y-43850000D03*
D22*
X21000000Y-46425000D03*
X21500000Y-46425000D03*
X22000000Y-46425000D03*
X22500000Y-46425000D03*
X23000000Y-46425000D03*
D23*
X23925000Y-45500000D03*
X23925000Y-45000000D03*
X23925000Y-44500000D03*
X23925000Y-44000000D03*
X23925000Y-43500000D03*
D22*
X23000000Y-42575000D03*
X22500000Y-42575000D03*
X22000000Y-42575000D03*
X21500000Y-42575000D03*
X21000000Y-42575000D03*
D23*
X20075000Y-43500000D03*
X20075000Y-44000000D03*
X20075000Y-44500000D03*
X20075000Y-45000000D03*
X20075000Y-45500000D03*
%TD*%
D24*
%TO.C,R42*%
X63690000Y-37700000D03*
X64710000Y-37700000D03*
%TD*%
D12*
%TO.C,R38*%
X70700000Y-27040000D03*
X70700000Y-28060000D03*
%TD*%
%TO.C,R2*%
X69500000Y-21240000D03*
X69500000Y-22260000D03*
%TD*%
D25*
%TO.C,C131*%
X6800000Y-86075000D03*
X6800000Y-84525000D03*
%TD*%
%TO.C,C9*%
X52700000Y-17575000D03*
X52700000Y-16025000D03*
%TD*%
D26*
%TO.C,U8*%
X29955000Y-20025000D03*
X28685000Y-20025000D03*
X27415000Y-20025000D03*
X26145000Y-20025000D03*
X26145000Y-24975000D03*
X27415000Y-24975000D03*
X28685000Y-24975000D03*
X29955000Y-24975000D03*
%TD*%
D18*
%TO.C,C21*%
X37000000Y-71050000D03*
X37000000Y-72950000D03*
%TD*%
D27*
%TO.C,U5*%
X48750000Y-31325000D03*
X48250000Y-31325000D03*
X47750000Y-31325000D03*
X47250000Y-31325000D03*
X46750000Y-31325000D03*
X46250000Y-31325000D03*
X45750000Y-31325000D03*
X45250000Y-31325000D03*
X44750000Y-31325000D03*
X44250000Y-31325000D03*
X43750000Y-31325000D03*
X43250000Y-31325000D03*
X42750000Y-31325000D03*
X42250000Y-31325000D03*
X41750000Y-31325000D03*
X41250000Y-31325000D03*
D28*
X39325000Y-33250000D03*
X39325000Y-33750000D03*
X39325000Y-34250000D03*
X39325000Y-34750000D03*
X39325000Y-35250000D03*
X39325000Y-35750000D03*
X39325000Y-36250000D03*
X39325000Y-36750000D03*
X39325000Y-37250000D03*
X39325000Y-37750000D03*
X39325000Y-38250000D03*
X39325000Y-38750000D03*
X39325000Y-39250000D03*
X39325000Y-39750000D03*
X39325000Y-40250000D03*
X39325000Y-40750000D03*
D27*
X41250000Y-42675000D03*
X41750000Y-42675000D03*
X42250000Y-42675000D03*
X42750000Y-42675000D03*
X43250000Y-42675000D03*
X43750000Y-42675000D03*
X44250000Y-42675000D03*
X44750000Y-42675000D03*
X45250000Y-42675000D03*
X45750000Y-42675000D03*
X46250000Y-42675000D03*
X46750000Y-42675000D03*
X47250000Y-42675000D03*
X47750000Y-42675000D03*
X48250000Y-42675000D03*
X48750000Y-42675000D03*
D28*
X50675000Y-40750000D03*
X50675000Y-40250000D03*
X50675000Y-39750000D03*
X50675000Y-39250000D03*
X50675000Y-38750000D03*
X50675000Y-38250000D03*
X50675000Y-37750000D03*
X50675000Y-37250000D03*
X50675000Y-36750000D03*
X50675000Y-36250000D03*
X50675000Y-35750000D03*
X50675000Y-35250000D03*
X50675000Y-34750000D03*
X50675000Y-34250000D03*
X50675000Y-33750000D03*
X50675000Y-33250000D03*
%TD*%
D29*
%TO.C,U9*%
X68550000Y-29750000D03*
X68550000Y-29250000D03*
X68550000Y-28750000D03*
X68550000Y-28250000D03*
X65450000Y-28250000D03*
X65450000Y-28750000D03*
X65450000Y-29250000D03*
X65450000Y-29750000D03*
%TD*%
D30*
%TO.C,R23*%
X16700000Y-33000000D03*
X15680000Y-33000000D03*
%TD*%
D15*
%TO.C,C120*%
X60500000Y-89025000D03*
X60500000Y-90575000D03*
%TD*%
D31*
%TO.C,FL2*%
X63495000Y-66064000D03*
X65400000Y-66064000D03*
X67305000Y-66064000D03*
D32*
X69464000Y-62000000D03*
D31*
X67305000Y-57936000D03*
X65400000Y-57936000D03*
X63495000Y-57936000D03*
D32*
X61336000Y-62000000D03*
%TD*%
D17*
%TO.C,C111*%
X36170000Y-89000000D03*
X37130000Y-89000000D03*
%TD*%
D16*
%TO.C,C55*%
X26000000Y-45520000D03*
X26000000Y-46480000D03*
%TD*%
D33*
%TO.C,L31*%
X54687500Y-89000000D03*
X53112500Y-89000000D03*
%TD*%
D34*
%TO.C,Q1*%
X52212500Y-18850000D03*
X52212500Y-20750000D03*
X54087500Y-19800000D03*
%TD*%
D35*
%TO.C,C125*%
X63830000Y-84000000D03*
X62870000Y-84000000D03*
%TD*%
D16*
%TO.C,C48*%
X64300000Y-29920000D03*
X64300000Y-30880000D03*
%TD*%
D36*
%TO.C,C14*%
X33400000Y-61150000D03*
X33400000Y-59250000D03*
%TD*%
D16*
%TO.C,C43*%
X50400000Y-29120000D03*
X50400000Y-30080000D03*
%TD*%
%TO.C,C59*%
X27200000Y-47820000D03*
X27200000Y-48780000D03*
%TD*%
D30*
%TO.C,R16*%
X47510000Y-46400000D03*
X46490000Y-46400000D03*
%TD*%
D35*
%TO.C,C126*%
X60530000Y-84000000D03*
X59570000Y-84000000D03*
%TD*%
D30*
%TO.C,R24*%
X16710000Y-31000000D03*
X15690000Y-31000000D03*
%TD*%
D35*
%TO.C,C47*%
X29980000Y-26700000D03*
X29020000Y-26700000D03*
%TD*%
D15*
%TO.C,C124*%
X65000000Y-84025000D03*
X65000000Y-85575000D03*
%TD*%
D35*
%TO.C,C127*%
X57230000Y-84000000D03*
X56270000Y-84000000D03*
%TD*%
D12*
%TO.C,R28*%
X34700000Y-32090000D03*
X34700000Y-33110000D03*
%TD*%
D16*
%TO.C,C60*%
X23500000Y-48020000D03*
X23500000Y-48980000D03*
%TD*%
D37*
%TO.C,L1*%
X62800000Y-18785000D03*
X62800000Y-16415000D03*
%TD*%
D38*
%TO.C,R52*%
X55100000Y-84025000D03*
X55100000Y-85675000D03*
%TD*%
D39*
%TO.C,U10*%
X64525000Y-32595000D03*
X64525000Y-33865000D03*
X64525000Y-35135000D03*
X64525000Y-36405000D03*
X69475000Y-36405000D03*
X69475000Y-35135000D03*
X69475000Y-33865000D03*
X69475000Y-32595000D03*
%TD*%
D12*
%TO.C,R18*%
X52200000Y-53290000D03*
X52200000Y-54310000D03*
%TD*%
D40*
%TO.C,L6*%
X26000000Y-57515000D03*
X26000000Y-58485000D03*
%TD*%
D41*
%TO.C,R37*%
X70700000Y-29960000D03*
X70700000Y-28940000D03*
%TD*%
D42*
%TO.C,H8*%
X5442319Y-77942319D03*
D43*
X5442319Y-82057681D03*
D44*
X9557681Y-77942319D03*
D45*
X9557681Y-82057681D03*
%TD*%
D35*
%TO.C,C46*%
X35980000Y-26700000D03*
X35020000Y-26700000D03*
%TD*%
D36*
%TO.C,C29*%
X56600000Y-61150000D03*
X56600000Y-59250000D03*
%TD*%
D46*
%TO.C,L2*%
X37000000Y-63250000D03*
X37000000Y-68950000D03*
%TD*%
D18*
%TO.C,C19*%
X33400000Y-71050000D03*
X33400000Y-72950000D03*
%TD*%
D47*
%TO.C,D1*%
X74700000Y-22200000D03*
X74700000Y-19400000D03*
%TD*%
D24*
%TO.C,R29*%
X34990000Y-27700000D03*
X36010000Y-27700000D03*
%TD*%
D41*
%TO.C,R5*%
X51600000Y-17610000D03*
X51600000Y-16590000D03*
%TD*%
D33*
%TO.C,L29*%
X63487500Y-89000000D03*
X61912500Y-89000000D03*
%TD*%
D12*
%TO.C,R13*%
X57000000Y-51490000D03*
X57000000Y-52510000D03*
%TD*%
D33*
%TO.C,L30*%
X59087500Y-89000000D03*
X57512500Y-89000000D03*
%TD*%
D36*
%TO.C,C16*%
X37000000Y-61150000D03*
X37000000Y-59250000D03*
%TD*%
D48*
%TO.C,L10*%
X23985000Y-67700000D03*
X23015000Y-67700000D03*
%TD*%
D49*
%TO.C,FB4*%
X62212500Y-42800000D03*
X63787500Y-42800000D03*
%TD*%
D26*
%TO.C,U7*%
X35855000Y-20025000D03*
X34585000Y-20025000D03*
X33315000Y-20025000D03*
X32045000Y-20025000D03*
X32045000Y-24975000D03*
X33315000Y-24975000D03*
X34585000Y-24975000D03*
X35855000Y-24975000D03*
%TD*%
D19*
%TO.C,C67*%
X24900000Y-67780000D03*
X24900000Y-66820000D03*
%TD*%
D35*
%TO.C,C118*%
X67030000Y-89000000D03*
X66070000Y-89000000D03*
%TD*%
%TO.C,C86*%
X63880000Y-48400000D03*
X62920000Y-48400000D03*
%TD*%
D41*
%TO.C,R33*%
X61300000Y-30910000D03*
X61300000Y-29890000D03*
%TD*%
D19*
%TO.C,C57*%
X26000000Y-44480000D03*
X26000000Y-43520000D03*
%TD*%
D24*
%TO.C,R8*%
X43340000Y-21000000D03*
X44360000Y-21000000D03*
%TD*%
D16*
%TO.C,C68*%
X26700000Y-69120000D03*
X26700000Y-70080000D03*
%TD*%
D30*
%TO.C,R9*%
X44360000Y-20000000D03*
X43340000Y-20000000D03*
%TD*%
D49*
%TO.C,L26*%
X24812500Y-84000000D03*
X26387500Y-84000000D03*
%TD*%
D35*
%TO.C,C45*%
X35380000Y-39600000D03*
X34420000Y-39600000D03*
%TD*%
D17*
%TO.C,C40*%
X50720000Y-32300000D03*
X51680000Y-32300000D03*
%TD*%
D30*
%TO.C,R22*%
X16710000Y-30000000D03*
X15690000Y-30000000D03*
%TD*%
D17*
%TO.C,C107*%
X26270000Y-89000000D03*
X27230000Y-89000000D03*
%TD*%
D50*
%TO.C,X4*%
X60705000Y-44930000D03*
X60705000Y-46870000D03*
X61895000Y-46870000D03*
X61895000Y-44930000D03*
%TD*%
D15*
%TO.C,C116*%
X32200000Y-84025000D03*
X32200000Y-85575000D03*
%TD*%
D24*
%TO.C,R47*%
X62890000Y-44000000D03*
X63910000Y-44000000D03*
%TD*%
D15*
%TO.C,C63*%
X22000000Y-49425000D03*
X22000000Y-50975000D03*
%TD*%
D25*
%TO.C,C3*%
X68300000Y-22275000D03*
X68300000Y-20725000D03*
%TD*%
D51*
%TO.C,C90*%
X74875000Y-53050000D03*
X73325000Y-53050000D03*
%TD*%
D15*
%TO.C,C121*%
X56100000Y-89025000D03*
X56100000Y-90575000D03*
%TD*%
D52*
%TO.C,J5*%
X52600000Y-51850000D03*
X52600000Y-48150000D03*
X51800000Y-51850000D03*
X51800000Y-48150000D03*
X51000000Y-51850000D03*
X51000000Y-48150000D03*
X50200000Y-51850000D03*
X50200000Y-48150000D03*
X49400000Y-51850000D03*
X49400000Y-48150000D03*
X48600000Y-51850000D03*
X48600000Y-48150000D03*
X47800000Y-51850000D03*
X47800000Y-48150000D03*
X47000000Y-51850000D03*
X47000000Y-48150000D03*
X46200000Y-51850000D03*
X46200000Y-48150000D03*
X45400000Y-51850000D03*
X45400000Y-48150000D03*
X44600000Y-51850000D03*
X44600000Y-48150000D03*
X43800000Y-51850000D03*
X43800000Y-48150000D03*
X43000000Y-51850000D03*
X43000000Y-48150000D03*
X42200000Y-51850000D03*
X42200000Y-48150000D03*
X41400000Y-51850000D03*
X41400000Y-48150000D03*
X40600000Y-51850000D03*
X40600000Y-48150000D03*
X39800000Y-51850000D03*
X39800000Y-48150000D03*
X39000000Y-51850000D03*
X39000000Y-48150000D03*
X38200000Y-51850000D03*
X38200000Y-48150000D03*
X37400000Y-51850000D03*
X37400000Y-48150000D03*
%TD*%
D17*
%TO.C,C104*%
X68520000Y-77500000D03*
X69480000Y-77500000D03*
%TD*%
D35*
%TO.C,C87*%
X63880000Y-49300000D03*
X62920000Y-49300000D03*
%TD*%
D17*
%TO.C,C109*%
X29570000Y-89000000D03*
X30530000Y-89000000D03*
%TD*%
%TO.C,C96*%
X71220000Y-53800000D03*
X72180000Y-53800000D03*
%TD*%
D19*
%TO.C,C51*%
X71700000Y-28080000D03*
X71700000Y-27120000D03*
%TD*%
D15*
%TO.C,C117*%
X68200000Y-89025000D03*
X68200000Y-90575000D03*
%TD*%
D30*
%TO.C,R39*%
X75310000Y-32000000D03*
X74290000Y-32000000D03*
%TD*%
D14*
%TO.C,C75*%
X15525000Y-78300000D03*
X17075000Y-78300000D03*
%TD*%
D35*
%TO.C,C5*%
X62880000Y-21100000D03*
X61920000Y-21100000D03*
%TD*%
D53*
%TO.C,U1*%
X63740000Y-21000000D03*
D54*
X64025000Y-21000000D03*
D53*
X63740000Y-21500000D03*
D54*
X64025000Y-21500000D03*
D53*
X63740000Y-22000000D03*
D54*
X64025000Y-22000000D03*
D53*
X63740000Y-22500000D03*
D54*
X64025000Y-22500000D03*
D53*
X63740000Y-23000000D03*
D54*
X64025000Y-23000000D03*
X66975000Y-23000000D03*
D53*
X67260000Y-23000000D03*
D54*
X66975000Y-22500000D03*
D53*
X67260000Y-22500000D03*
D54*
X66975000Y-22000000D03*
D53*
X67260000Y-22000000D03*
D54*
X66975000Y-21500000D03*
D53*
X67260000Y-21500000D03*
D54*
X66975000Y-21000000D03*
D53*
X67260000Y-21000000D03*
D55*
X65050000Y-21365000D03*
X65050000Y-22635000D03*
D56*
X65250000Y-20370000D03*
X65250000Y-23630000D03*
X65750000Y-20370000D03*
X65750000Y-23630000D03*
D55*
X65950000Y-21365000D03*
X65950000Y-22635000D03*
%TD*%
D57*
%TO.C,Q5*%
X56850000Y-53862500D03*
X54950000Y-53862500D03*
X55900000Y-56137500D03*
%TD*%
D51*
%TO.C,C10*%
X50475000Y-23900000D03*
X48925000Y-23900000D03*
%TD*%
D12*
%TO.C,R17*%
X46900000Y-54690000D03*
X46900000Y-55710000D03*
%TD*%
D18*
%TO.C,C32*%
X53000000Y-71050000D03*
X53000000Y-72950000D03*
%TD*%
D24*
%TO.C,R50*%
X63790000Y-77500000D03*
X64810000Y-77500000D03*
%TD*%
D19*
%TO.C,C38*%
X37500000Y-40880000D03*
X37500000Y-39920000D03*
%TD*%
D40*
%TO.C,L7*%
X26000000Y-60915000D03*
X26000000Y-61885000D03*
%TD*%
D30*
%TO.C,R21*%
X16710000Y-32000000D03*
X15690000Y-32000000D03*
%TD*%
D36*
%TO.C,C26*%
X51200000Y-61150000D03*
X51200000Y-59250000D03*
%TD*%
D17*
%TO.C,C78*%
X72320000Y-46700000D03*
X73280000Y-46700000D03*
%TD*%
D24*
%TO.C,R11*%
X43140000Y-56600000D03*
X44160000Y-56600000D03*
%TD*%
D58*
%TO.C,FB6*%
X27900000Y-67612500D03*
X27900000Y-69187500D03*
%TD*%
D11*
%TO.C,R56*%
X5100000Y-86112500D03*
X5100000Y-84287500D03*
%TD*%
D35*
%TO.C,C103*%
X64780000Y-76600000D03*
X63820000Y-76600000D03*
%TD*%
D41*
%TO.C,R32*%
X62300000Y-30910000D03*
X62300000Y-29890000D03*
%TD*%
D24*
%TO.C,R4*%
X51590000Y-22000000D03*
X52610000Y-22000000D03*
%TD*%
D40*
%TO.C,L22*%
X68400000Y-54615000D03*
X68400000Y-55585000D03*
%TD*%
D12*
%TO.C,R6*%
X52600000Y-22890000D03*
X52600000Y-23910000D03*
%TD*%
D58*
%TO.C,L9*%
X20400000Y-49412500D03*
X20400000Y-50987500D03*
%TD*%
D36*
%TO.C,C15*%
X35200000Y-61150000D03*
X35200000Y-59250000D03*
%TD*%
D14*
%TO.C,C61*%
X26025000Y-54700000D03*
X27575000Y-54700000D03*
%TD*%
%TO.C,C62*%
X26025000Y-59700000D03*
X27575000Y-59700000D03*
%TD*%
D35*
%TO.C,C84*%
X63880000Y-46300000D03*
X62920000Y-46300000D03*
%TD*%
D16*
%TO.C,C69*%
X25800000Y-69120000D03*
X25800000Y-70080000D03*
%TD*%
%TO.C,C39*%
X49700000Y-42720000D03*
X49700000Y-43680000D03*
%TD*%
D35*
%TO.C,C94*%
X68430000Y-53800000D03*
X67470000Y-53800000D03*
%TD*%
D16*
%TO.C,C80*%
X64800000Y-51670000D03*
X64800000Y-52630000D03*
%TD*%
D49*
%TO.C,L27*%
X29212500Y-84000000D03*
X30787500Y-84000000D03*
%TD*%
D36*
%TO.C,C28*%
X54800000Y-61150000D03*
X54800000Y-59250000D03*
%TD*%
D57*
%TO.C,Q4*%
X47850000Y-58862500D03*
X45950000Y-58862500D03*
X46900000Y-61137500D03*
%TD*%
D14*
%TO.C,C12*%
X42525000Y-25200000D03*
X44075000Y-25200000D03*
%TD*%
D18*
%TO.C,C31*%
X51200000Y-71050000D03*
X51200000Y-72950000D03*
%TD*%
D17*
%TO.C,C102*%
X60320000Y-71200000D03*
X61280000Y-71200000D03*
%TD*%
D15*
%TO.C,C119*%
X64900000Y-89025000D03*
X64900000Y-90575000D03*
%TD*%
D59*
%TO.C,L23*%
X69365000Y-53800000D03*
X70335000Y-53800000D03*
%TD*%
D12*
%TO.C,R7*%
X51700000Y-22890000D03*
X51700000Y-23910000D03*
%TD*%
D57*
%TO.C,Q2*%
X44050000Y-58862500D03*
X42150000Y-58862500D03*
X43100000Y-61137500D03*
%TD*%
D60*
%TO.C,U4*%
X49250000Y-56037500D03*
X50200000Y-56037500D03*
X51150000Y-56037500D03*
X51150000Y-53762500D03*
X50200000Y-53762500D03*
X49250000Y-53762500D03*
%TD*%
D33*
%TO.C,FB2*%
X28787500Y-44200000D03*
X27212500Y-44200000D03*
%TD*%
D19*
%TO.C,C37*%
X37500000Y-34180000D03*
X37500000Y-33220000D03*
%TD*%
D46*
%TO.C,L3*%
X53000000Y-63250000D03*
X53000000Y-68950000D03*
%TD*%
D19*
%TO.C,C99*%
X69000000Y-70380000D03*
X69000000Y-69420000D03*
%TD*%
D15*
%TO.C,C71*%
X19200000Y-74225000D03*
X19200000Y-75775000D03*
%TD*%
D41*
%TO.C,R45*%
X27100000Y-43010000D03*
X27100000Y-41990000D03*
%TD*%
D58*
%TO.C,FB3*%
X29400000Y-67612500D03*
X29400000Y-69187500D03*
%TD*%
D19*
%TO.C,C65*%
X26700000Y-67780000D03*
X26700000Y-66820000D03*
%TD*%
D41*
%TO.C,R20*%
X52200000Y-36410000D03*
X52200000Y-35390000D03*
%TD*%
D51*
%TO.C,C92*%
X74875000Y-61150000D03*
X73325000Y-61150000D03*
%TD*%
D16*
%TO.C,C89*%
X70650000Y-50920000D03*
X70650000Y-51880000D03*
%TD*%
D12*
%TO.C,R3*%
X69500000Y-20190000D03*
X69500000Y-21210000D03*
%TD*%
D58*
%TO.C,L15*%
X15500000Y-75312500D03*
X15500000Y-76887500D03*
%TD*%
D41*
%TO.C,R41*%
X62800000Y-37810000D03*
X62800000Y-36790000D03*
%TD*%
D33*
%TO.C,L11*%
X24637500Y-69200000D03*
X23062500Y-69200000D03*
%TD*%
D61*
%TO.C,U12*%
X21700000Y-67175000D03*
X20800000Y-67175000D03*
X20000000Y-67175000D03*
X19200000Y-67175000D03*
X18300000Y-67175000D03*
D62*
X18175000Y-68200000D03*
X18175000Y-69000000D03*
X18175000Y-69800000D03*
D63*
X18300000Y-70825000D03*
X19200000Y-70825000D03*
X20000000Y-70825000D03*
X20800000Y-70825000D03*
X21700000Y-70782500D03*
D64*
X21825000Y-69800000D03*
X21825000Y-69000000D03*
X21825000Y-68200000D03*
D65*
X20500000Y-68500000D03*
X19500000Y-68500000D03*
X20500000Y-69500000D03*
X19500000Y-69500000D03*
%TD*%
D42*
%TO.C,H5*%
X5442319Y-17942319D03*
D43*
X5442319Y-22057681D03*
D44*
X9557681Y-17942319D03*
D45*
X9557681Y-22057681D03*
%TD*%
D49*
%TO.C,L28*%
X33612500Y-84000000D03*
X35187500Y-84000000D03*
%TD*%
%TO.C,L5*%
X26012500Y-56200000D03*
X27587500Y-56200000D03*
%TD*%
D58*
%TO.C,L25*%
X35000000Y-89012500D03*
X35000000Y-90587500D03*
%TD*%
D66*
%TO.C,U2*%
X50112500Y-18975000D03*
X50112500Y-18325000D03*
X50112500Y-17675000D03*
X50112500Y-17025000D03*
X45887500Y-17025000D03*
X45887500Y-17675000D03*
X45887500Y-18325000D03*
X45887500Y-18975000D03*
%TD*%
D30*
%TO.C,R35*%
X64310000Y-28000000D03*
X63290000Y-28000000D03*
%TD*%
%TO.C,R49*%
X64810000Y-78400000D03*
X63790000Y-78400000D03*
%TD*%
D35*
%TO.C,C88*%
X61780000Y-44000000D03*
X60820000Y-44000000D03*
%TD*%
D33*
%TO.C,L13*%
X22187500Y-74200000D03*
X20612500Y-74200000D03*
%TD*%
D31*
%TO.C,FL1*%
X17295000Y-62264000D03*
X19200000Y-62264000D03*
X21105000Y-62264000D03*
D32*
X23264000Y-58200000D03*
D31*
X21105000Y-54136000D03*
X19200000Y-54136000D03*
X17295000Y-54136000D03*
D32*
X15136000Y-58200000D03*
%TD*%
D15*
%TO.C,C112*%
X20100000Y-84025000D03*
X20100000Y-85575000D03*
%TD*%
D12*
%TO.C,R44*%
X71200000Y-33990000D03*
X71200000Y-35010000D03*
%TD*%
D25*
%TO.C,C130*%
X86800000Y-86075000D03*
X86800000Y-84525000D03*
%TD*%
D42*
%TO.C,H6*%
X80442319Y-17942319D03*
D43*
X80442319Y-22057681D03*
D44*
X84557681Y-17942319D03*
D45*
X84557681Y-22057681D03*
%TD*%
D17*
%TO.C,C100*%
X60320000Y-73100000D03*
X61280000Y-73100000D03*
%TD*%
D40*
%TO.C,L17*%
X74900000Y-50915000D03*
X74900000Y-51885000D03*
%TD*%
D14*
%TO.C,C11*%
X42525000Y-23800000D03*
X44075000Y-23800000D03*
%TD*%
D42*
%TO.C,H7*%
X80442319Y-77942319D03*
D43*
X80442319Y-82057681D03*
D44*
X84557681Y-77942319D03*
D45*
X84557681Y-82057681D03*
%TD*%
D18*
%TO.C,C33*%
X54800000Y-71050000D03*
X54800000Y-72950000D03*
%TD*%
D16*
%TO.C,C82*%
X71550000Y-50920000D03*
X71550000Y-51880000D03*
%TD*%
D24*
%TO.C,R14*%
X45940000Y-56600000D03*
X46960000Y-56600000D03*
%TD*%
D38*
%TO.C,R51*%
X36600000Y-83975000D03*
X36600000Y-85625000D03*
%TD*%
D35*
%TO.C,C76*%
X64380000Y-50200000D03*
X63420000Y-50200000D03*
%TD*%
D58*
%TO.C,D4*%
X70700000Y-75912500D03*
X70700000Y-77487500D03*
%TD*%
D15*
%TO.C,C108*%
X28400000Y-89025000D03*
X28400000Y-90575000D03*
%TD*%
D67*
%TO.C,X1*%
X45700000Y-27500000D03*
X47900000Y-27500000D03*
X47900000Y-25900000D03*
X45700000Y-25900000D03*
%TD*%
D58*
%TO.C,L24*%
X31700000Y-89012500D03*
X31700000Y-90587500D03*
%TD*%
D40*
%TO.C,L19*%
X74900000Y-59015000D03*
X74900000Y-59985000D03*
%TD*%
D15*
%TO.C,C91*%
X74900000Y-56325000D03*
X74900000Y-57875000D03*
%TD*%
D14*
%TO.C,C74*%
X15525000Y-73900000D03*
X17075000Y-73900000D03*
%TD*%
D68*
%TO.C,R1*%
X60712500Y-24650000D03*
X58887500Y-24650000D03*
%TD*%
D17*
%TO.C,C101*%
X60320000Y-72100000D03*
X61280000Y-72100000D03*
%TD*%
D69*
%TO.C,FB5*%
X60900000Y-75987500D03*
X60900000Y-74412500D03*
%TD*%
D35*
%TO.C,C97*%
X67480000Y-55600000D03*
X66520000Y-55600000D03*
%TD*%
D16*
%TO.C,C49*%
X69700000Y-29320000D03*
X69700000Y-30280000D03*
%TD*%
D58*
%TO.C,L12*%
X23400000Y-71512500D03*
X23400000Y-73087500D03*
%TD*%
D18*
%TO.C,C30*%
X49400000Y-71050000D03*
X49400000Y-72950000D03*
%TD*%
D24*
%TO.C,R48*%
X64890000Y-42600000D03*
X65910000Y-42600000D03*
%TD*%
D69*
%TO.C,L16*%
X72650000Y-50387500D03*
X72650000Y-48812500D03*
%TD*%
D30*
%TO.C,R26*%
X16700000Y-26800000D03*
X15680000Y-26800000D03*
%TD*%
D16*
%TO.C,C54*%
X26900000Y-45520000D03*
X26900000Y-46480000D03*
%TD*%
D30*
%TO.C,R40*%
X75310000Y-31000000D03*
X74290000Y-31000000D03*
%TD*%
D17*
%TO.C,C13*%
X43170000Y-57500000D03*
X44130000Y-57500000D03*
%TD*%
D19*
%TO.C,C79*%
X69000000Y-42980000D03*
X69000000Y-42020000D03*
%TD*%
D40*
%TO.C,L20*%
X74900000Y-62315000D03*
X74900000Y-63285000D03*
%TD*%
D16*
%TO.C,C95*%
X69400000Y-54620000D03*
X69400000Y-55580000D03*
%TD*%
D17*
%TO.C,C41*%
X46920000Y-28700000D03*
X47880000Y-28700000D03*
%TD*%
D57*
%TO.C,Q3*%
X35050000Y-53862500D03*
X33150000Y-53862500D03*
X34100000Y-56137500D03*
%TD*%
D30*
%TO.C,R36*%
X71710000Y-30800000D03*
X70690000Y-30800000D03*
%TD*%
D16*
%TO.C,C81*%
X67150000Y-51670000D03*
X67150000Y-52630000D03*
%TD*%
D18*
%TO.C,C7*%
X65900000Y-16150000D03*
X65900000Y-18050000D03*
%TD*%
D58*
%TO.C,L33*%
X58400000Y-84012500D03*
X58400000Y-85587500D03*
%TD*%
D36*
%TO.C,C1*%
X72700000Y-22150000D03*
X72700000Y-20250000D03*
%TD*%
D70*
%TO.C,R54*%
X82500000Y-9787500D03*
X82500000Y-11612500D03*
%TD*%
D35*
%TO.C,C85*%
X63880000Y-47500000D03*
X62920000Y-47500000D03*
%TD*%
D19*
%TO.C,C66*%
X25800000Y-67780000D03*
X25800000Y-66820000D03*
%TD*%
D17*
%TO.C,C24*%
X45970000Y-57500000D03*
X46930000Y-57500000D03*
%TD*%
%TO.C,C113*%
X21270000Y-84000000D03*
X22230000Y-84000000D03*
%TD*%
D35*
%TO.C,C123*%
X67130000Y-84000000D03*
X66170000Y-84000000D03*
%TD*%
D16*
%TO.C,C53*%
X71200000Y-35920000D03*
X71200000Y-36880000D03*
%TD*%
D41*
%TO.C,R43*%
X71200000Y-33110000D03*
X71200000Y-32090000D03*
%TD*%
D16*
%TO.C,C56*%
X25100000Y-45520000D03*
X25100000Y-46480000D03*
%TD*%
D17*
%TO.C,C83*%
X72320000Y-45350000D03*
X73280000Y-45350000D03*
%TD*%
D35*
%TO.C,C4*%
X62880000Y-22000000D03*
X61920000Y-22000000D03*
%TD*%
D24*
%TO.C,R30*%
X28990000Y-27700000D03*
X30010000Y-27700000D03*
%TD*%
D16*
%TO.C,C52*%
X62800000Y-34020000D03*
X62800000Y-34980000D03*
%TD*%
D30*
%TO.C,R19*%
X45510000Y-29700000D03*
X44490000Y-29700000D03*
%TD*%
D33*
%TO.C,FB1*%
X44087500Y-22200000D03*
X42512500Y-22200000D03*
%TD*%
D70*
%TO.C,R53*%
X8900000Y-9787500D03*
X8900000Y-11612500D03*
%TD*%
D59*
%TO.C,L14*%
X25415000Y-74200000D03*
X26385000Y-74200000D03*
%TD*%
D36*
%TO.C,C18*%
X40600000Y-61150000D03*
X40600000Y-59250000D03*
%TD*%
D40*
%TO.C,L18*%
X74900000Y-54215000D03*
X74900000Y-55185000D03*
%TD*%
D17*
%TO.C,C70*%
X23520000Y-74200000D03*
X24480000Y-74200000D03*
%TD*%
D66*
%TO.C,U3*%
X50112500Y-22475000D03*
X50112500Y-21825000D03*
X50112500Y-21175000D03*
X50112500Y-20525000D03*
X45887500Y-20525000D03*
X45887500Y-21175000D03*
X45887500Y-21825000D03*
X45887500Y-22475000D03*
%TD*%
D30*
%TO.C,R34*%
X64310000Y-29000000D03*
X63290000Y-29000000D03*
%TD*%
D71*
%TO.C,X3*%
X17250000Y-42800000D03*
X17250000Y-44200000D03*
X18350000Y-44200000D03*
X18350000Y-42800000D03*
%TD*%
D16*
%TO.C,C77*%
X66200000Y-51670000D03*
X66200000Y-52630000D03*
%TD*%
D72*
%TO.C,U14*%
X62225000Y-75250000D03*
D73*
X63125000Y-75250000D03*
X63875000Y-75250000D03*
X64625000Y-75250000D03*
X65375000Y-75250000D03*
X66125000Y-75250000D03*
X66875000Y-75250000D03*
D74*
X67775000Y-75250000D03*
D75*
X67750000Y-74313000D03*
X67750000Y-73588000D03*
X67750000Y-72863000D03*
X67750000Y-72137000D03*
X67750000Y-71412000D03*
X67750000Y-70687000D03*
D76*
X67775000Y-69750000D03*
D77*
X66875000Y-69750000D03*
X66125000Y-69750000D03*
X65375000Y-69750000D03*
X64625000Y-69750000D03*
X63875000Y-69750000D03*
X63125000Y-69750000D03*
D78*
X62225000Y-69750000D03*
D79*
X62250000Y-70687000D03*
X62250000Y-71412000D03*
X62250000Y-72137000D03*
X62250000Y-72863000D03*
X62250000Y-73588000D03*
X62250000Y-74313000D03*
D80*
X63500000Y-74000000D03*
X64500000Y-74000000D03*
X65500000Y-74000000D03*
X66500000Y-74000000D03*
X63500000Y-73000000D03*
X64500000Y-73000000D03*
X65500000Y-73000000D03*
X66500000Y-73000000D03*
X63500000Y-72000000D03*
X64500000Y-72000000D03*
X65500000Y-72000000D03*
X66500000Y-72000000D03*
X63500000Y-71000000D03*
X64500000Y-71000000D03*
X65500000Y-71000000D03*
X66500000Y-71000000D03*
%TD*%
D51*
%TO.C,C64*%
X19075000Y-49400000D03*
X17525000Y-49400000D03*
%TD*%
D17*
%TO.C,C110*%
X32870000Y-89000000D03*
X33830000Y-89000000D03*
%TD*%
D41*
%TO.C,R12*%
X36100000Y-56610000D03*
X36100000Y-55590000D03*
%TD*%
D19*
%TO.C,C58*%
X25100000Y-44480000D03*
X25100000Y-43520000D03*
%TD*%
D35*
%TO.C,C42*%
X46080000Y-28700000D03*
X45120000Y-28700000D03*
%TD*%
D81*
%TO.C,U13*%
X66850000Y-48150000D03*
X69150000Y-48150000D03*
X66850000Y-45850000D03*
X69150000Y-45850000D03*
D22*
X65750000Y-49950000D03*
X66250000Y-49950000D03*
X66750000Y-49950000D03*
X67250000Y-49950000D03*
X67750000Y-49950000D03*
X68250000Y-49950000D03*
X68750000Y-49950000D03*
X69250000Y-49950000D03*
X69750000Y-49950000D03*
X70250000Y-49950000D03*
D23*
X70950000Y-49250000D03*
X70950000Y-48750000D03*
X70950000Y-48250000D03*
X70950000Y-47750000D03*
X70950000Y-47250000D03*
X70950000Y-46750000D03*
X70950000Y-46250000D03*
X70950000Y-45750000D03*
X70950000Y-45250000D03*
X70950000Y-44750000D03*
D22*
X70250000Y-44050000D03*
X69750000Y-44050000D03*
X69250000Y-44050000D03*
X68750000Y-44050000D03*
X68250000Y-44050000D03*
X67750000Y-44050000D03*
X67250000Y-44050000D03*
X66750000Y-44050000D03*
X66250000Y-44050000D03*
X65750000Y-44050000D03*
D23*
X65050000Y-44750000D03*
X65050000Y-45250000D03*
X65050000Y-45750000D03*
X65050000Y-46250000D03*
X65050000Y-46750000D03*
X65050000Y-47250000D03*
X65050000Y-47750000D03*
X65050000Y-48250000D03*
X65050000Y-48750000D03*
X65050000Y-49250000D03*
%TD*%
D15*
%TO.C,C122*%
X68300000Y-84025000D03*
X68300000Y-85575000D03*
%TD*%
D40*
%TO.C,L21*%
X74900000Y-65615000D03*
X74900000Y-66585000D03*
%TD*%
D12*
%TO.C,R31*%
X63300000Y-29890000D03*
X63300000Y-30910000D03*
%TD*%
D33*
%TO.C,L8*%
X21987500Y-48100000D03*
X20412500Y-48100000D03*
%TD*%
%TO.C,L4*%
X26187500Y-48000000D03*
X24612500Y-48000000D03*
%TD*%
D15*
%TO.C,C128*%
X7200000Y-9825000D03*
X7200000Y-11375000D03*
%TD*%
%TO.C,C115*%
X27800000Y-84025000D03*
X27800000Y-85575000D03*
%TD*%
D18*
%TO.C,C34*%
X56600000Y-71050000D03*
X56600000Y-72950000D03*
%TD*%
D16*
%TO.C,C50*%
X71700000Y-28920000D03*
X71700000Y-29880000D03*
%TD*%
D41*
%TO.C,R15*%
X53900000Y-56610000D03*
X53900000Y-55590000D03*
%TD*%
D30*
%TO.C,R25*%
X16690000Y-29000000D03*
X15670000Y-29000000D03*
%TD*%
D36*
%TO.C,C2*%
X70900000Y-22150000D03*
X70900000Y-20250000D03*
%TD*%
%TO.C,C27*%
X53000000Y-61150000D03*
X53000000Y-59250000D03*
%TD*%
D82*
%TO.C,U6*%
X35050000Y-35850000D03*
X33750000Y-35850000D03*
X35050000Y-37150000D03*
X33750000Y-37150000D03*
D83*
X35375000Y-34550000D03*
X34725000Y-34550000D03*
X34075000Y-34550000D03*
X33425000Y-34550000D03*
D84*
X32450000Y-35525000D03*
X32450000Y-36175000D03*
X32450000Y-36825000D03*
X32450000Y-37475000D03*
D83*
X33425000Y-38450000D03*
X34075000Y-38450000D03*
X34725000Y-38450000D03*
X35375000Y-38450000D03*
D84*
X36350000Y-37475000D03*
X36350000Y-36825000D03*
X36350000Y-36175000D03*
X36350000Y-35525000D03*
%TD*%
D18*
%TO.C,C8*%
X67800000Y-16150000D03*
X67800000Y-18050000D03*
%TD*%
D12*
%TO.C,R27*%
X35700000Y-32090000D03*
X35700000Y-33110000D03*
%TD*%
D36*
%TO.C,C17*%
X38800000Y-61150000D03*
X38800000Y-59250000D03*
%TD*%
D58*
%TO.C,L32*%
X61700000Y-84012500D03*
X61700000Y-85587500D03*
%TD*%
D18*
%TO.C,C23*%
X40600000Y-71050000D03*
X40600000Y-72950000D03*
%TD*%
D51*
%TO.C,C93*%
X74875000Y-64450000D03*
X73325000Y-64450000D03*
%TD*%
D18*
%TO.C,C20*%
X35200000Y-71050000D03*
X35200000Y-72950000D03*
%TD*%
D16*
%TO.C,C72*%
X19200000Y-72020000D03*
X19200000Y-72980000D03*
%TD*%
D36*
%TO.C,C25*%
X49400000Y-61150000D03*
X49400000Y-59250000D03*
%TD*%
M02*
