%TF.GenerationSoftware,KiCad,Pcbnew,9.0.6*%
%TF.CreationDate,2025-11-19T17:48:12+01:00*%
%TF.ProjectId,Spino CS,5370696e-6f20-4435-932e-6b696361645f,v2.1*%
%TF.SameCoordinates,PX68e7780PY2faf080*%
%TF.FileFunction,Legend,Bot*%
%TF.FilePolarity,Positive*%
%FSLAX46Y46*%
G04 Gerber Fmt 4.6, Leading zero omitted, Abs format (unit mm)*
G04 Created by KiCad (PCBNEW 9.0.6) date 2025-11-19 17:48:12*
%MOMM*%
%LPD*%
G01*
G04 APERTURE LIST*
%ADD10C,0.100000*%
%ADD11C,0.120000*%
G04 APERTURE END LIST*
D10*
X78233333Y-85918633D02*
X78233333Y-86418633D01*
X78233333Y-86418633D02*
X78266666Y-86518633D01*
X78266666Y-86518633D02*
X78333333Y-86585300D01*
X78333333Y-86585300D02*
X78433333Y-86618633D01*
X78433333Y-86618633D02*
X78500000Y-86618633D01*
X77800000Y-86218633D02*
X77866667Y-86185300D01*
X77866667Y-86185300D02*
X77900000Y-86151966D01*
X77900000Y-86151966D02*
X77933333Y-86085300D01*
X77933333Y-86085300D02*
X77933333Y-86051966D01*
X77933333Y-86051966D02*
X77900000Y-85985300D01*
X77900000Y-85985300D02*
X77866667Y-85951966D01*
X77866667Y-85951966D02*
X77800000Y-85918633D01*
X77800000Y-85918633D02*
X77666667Y-85918633D01*
X77666667Y-85918633D02*
X77600000Y-85951966D01*
X77600000Y-85951966D02*
X77566667Y-85985300D01*
X77566667Y-85985300D02*
X77533333Y-86051966D01*
X77533333Y-86051966D02*
X77533333Y-86085300D01*
X77533333Y-86085300D02*
X77566667Y-86151966D01*
X77566667Y-86151966D02*
X77600000Y-86185300D01*
X77600000Y-86185300D02*
X77666667Y-86218633D01*
X77666667Y-86218633D02*
X77800000Y-86218633D01*
X77800000Y-86218633D02*
X77866667Y-86251966D01*
X77866667Y-86251966D02*
X77900000Y-86285300D01*
X77900000Y-86285300D02*
X77933333Y-86351966D01*
X77933333Y-86351966D02*
X77933333Y-86485300D01*
X77933333Y-86485300D02*
X77900000Y-86551966D01*
X77900000Y-86551966D02*
X77866667Y-86585300D01*
X77866667Y-86585300D02*
X77800000Y-86618633D01*
X77800000Y-86618633D02*
X77666667Y-86618633D01*
X77666667Y-86618633D02*
X77600000Y-86585300D01*
X77600000Y-86585300D02*
X77566667Y-86551966D01*
X77566667Y-86551966D02*
X77533333Y-86485300D01*
X77533333Y-86485300D02*
X77533333Y-86351966D01*
X77533333Y-86351966D02*
X77566667Y-86285300D01*
X77566667Y-86285300D02*
X77600000Y-86251966D01*
X77600000Y-86251966D02*
X77666667Y-86218633D01*
X12233333Y-85918633D02*
X12233333Y-86418633D01*
X12233333Y-86418633D02*
X12266666Y-86518633D01*
X12266666Y-86518633D02*
X12333333Y-86585300D01*
X12333333Y-86585300D02*
X12433333Y-86618633D01*
X12433333Y-86618633D02*
X12500000Y-86618633D01*
X11600000Y-85918633D02*
X11733333Y-85918633D01*
X11733333Y-85918633D02*
X11800000Y-85951966D01*
X11800000Y-85951966D02*
X11833333Y-85985300D01*
X11833333Y-85985300D02*
X11900000Y-86085300D01*
X11900000Y-86085300D02*
X11933333Y-86218633D01*
X11933333Y-86218633D02*
X11933333Y-86485300D01*
X11933333Y-86485300D02*
X11900000Y-86551966D01*
X11900000Y-86551966D02*
X11866667Y-86585300D01*
X11866667Y-86585300D02*
X11800000Y-86618633D01*
X11800000Y-86618633D02*
X11666667Y-86618633D01*
X11666667Y-86618633D02*
X11600000Y-86585300D01*
X11600000Y-86585300D02*
X11566667Y-86551966D01*
X11566667Y-86551966D02*
X11533333Y-86485300D01*
X11533333Y-86485300D02*
X11533333Y-86318633D01*
X11533333Y-86318633D02*
X11566667Y-86251966D01*
X11566667Y-86251966D02*
X11600000Y-86218633D01*
X11600000Y-86218633D02*
X11666667Y-86185300D01*
X11666667Y-86185300D02*
X11800000Y-86185300D01*
X11800000Y-86185300D02*
X11866667Y-86218633D01*
X11866667Y-86218633D02*
X11900000Y-86251966D01*
X11900000Y-86251966D02*
X11933333Y-86318633D01*
X50233333Y-91318633D02*
X50233333Y-91818633D01*
X50233333Y-91818633D02*
X50266666Y-91918633D01*
X50266666Y-91918633D02*
X50333333Y-91985300D01*
X50333333Y-91985300D02*
X50433333Y-92018633D01*
X50433333Y-92018633D02*
X50500000Y-92018633D01*
X49866667Y-92018633D02*
X49733333Y-92018633D01*
X49733333Y-92018633D02*
X49666667Y-91985300D01*
X49666667Y-91985300D02*
X49633333Y-91951966D01*
X49633333Y-91951966D02*
X49566667Y-91851966D01*
X49566667Y-91851966D02*
X49533333Y-91718633D01*
X49533333Y-91718633D02*
X49533333Y-91451966D01*
X49533333Y-91451966D02*
X49566667Y-91385300D01*
X49566667Y-91385300D02*
X49600000Y-91351966D01*
X49600000Y-91351966D02*
X49666667Y-91318633D01*
X49666667Y-91318633D02*
X49800000Y-91318633D01*
X49800000Y-91318633D02*
X49866667Y-91351966D01*
X49866667Y-91351966D02*
X49900000Y-91385300D01*
X49900000Y-91385300D02*
X49933333Y-91451966D01*
X49933333Y-91451966D02*
X49933333Y-91618633D01*
X49933333Y-91618633D02*
X49900000Y-91685300D01*
X49900000Y-91685300D02*
X49866667Y-91718633D01*
X49866667Y-91718633D02*
X49800000Y-91751966D01*
X49800000Y-91751966D02*
X49666667Y-91751966D01*
X49666667Y-91751966D02*
X49600000Y-91718633D01*
X49600000Y-91718633D02*
X49566667Y-91685300D01*
X49566667Y-91685300D02*
X49533333Y-91618633D01*
X40233333Y-91318633D02*
X40233333Y-91818633D01*
X40233333Y-91818633D02*
X40266666Y-91918633D01*
X40266666Y-91918633D02*
X40333333Y-91985300D01*
X40333333Y-91985300D02*
X40433333Y-92018633D01*
X40433333Y-92018633D02*
X40500000Y-92018633D01*
X39966667Y-91318633D02*
X39500000Y-91318633D01*
X39500000Y-91318633D02*
X39800000Y-92018633D01*
D11*
%TO.C,J8*%
X73100000Y-87100000D02*
X76000000Y-87100000D01*
X73100000Y-90900000D02*
X73100000Y-87100000D01*
X76000000Y-90900000D02*
X73100000Y-90900000D01*
X76100000Y-88400000D02*
X76100000Y-89600000D01*
X78600000Y-87100000D02*
X77400000Y-87100000D01*
X78600000Y-90900000D02*
X77400000Y-90900000D01*
X79900000Y-88400000D02*
X79900000Y-89600000D01*
%TO.C,J6*%
X10100000Y-89600000D02*
X10100000Y-88400000D01*
X11400000Y-87100000D02*
X12600000Y-87100000D01*
X11400000Y-90900000D02*
X12600000Y-90900000D01*
X13900000Y-89600000D02*
X13900000Y-88400000D01*
X14000000Y-87100000D02*
X16900000Y-87100000D01*
X16900000Y-87100000D02*
X16900000Y-90900000D01*
X16900000Y-90900000D02*
X14000000Y-90900000D01*
%TO.C,J9*%
X48100000Y-84100000D02*
X51900000Y-84100000D01*
X48100000Y-87000000D02*
X48100000Y-84100000D01*
X48100000Y-89600000D02*
X48100000Y-88400000D01*
X50600000Y-87100000D02*
X49400000Y-87100000D01*
X50600000Y-90900000D02*
X49400000Y-90900000D01*
X51900000Y-84100000D02*
X51900000Y-87000000D01*
X51900000Y-89600000D02*
X51900000Y-88400000D01*
%TO.C,J7*%
X38100000Y-84100000D02*
X41900000Y-84100000D01*
X38100000Y-87000000D02*
X38100000Y-84100000D01*
X38100000Y-89600000D02*
X38100000Y-88400000D01*
X40600000Y-87100000D02*
X39400000Y-87100000D01*
X40600000Y-90900000D02*
X39400000Y-90900000D01*
X41900000Y-84100000D02*
X41900000Y-87000000D01*
X41900000Y-89600000D02*
X41900000Y-88400000D01*
%TD*%
M02*
