%TF.GenerationSoftware,KiCad,Pcbnew,9.0.6*%
%TF.CreationDate,2026-01-05T12:24:48+01:00*%
%TF.ProjectId,arduino_uno_custom,61726475-696e-46f5-9f75-6e6f5f637573,rev?*%
%TF.SameCoordinates,Original*%
%TF.FileFunction,Legend,Top*%
%TF.FilePolarity,Positive*%
%FSLAX46Y46*%
G04 Gerber Fmt 4.6, Leading zero omitted, Abs format (unit mm)*
G04 Created by KiCad (PCBNEW 9.0.6) date 2026-01-05 12:24:48*
%MOMM*%
%LPD*%
G01*
G04 APERTURE LIST*
%ADD10C,0.125000*%
%ADD11C,0.400000*%
%ADD12C,0.300000*%
%ADD13C,0.100000*%
%ADD14C,0.150000*%
%ADD15C,0.200000*%
%ADD16C,0.127000*%
%ADD17C,0.120000*%
G04 APERTURE END LIST*
D10*
X154895595Y-119146335D02*
X154895595Y-119527287D01*
X154895595Y-119527287D02*
X155276547Y-119565383D01*
X155276547Y-119565383D02*
X155238452Y-119527287D01*
X155238452Y-119527287D02*
X155200357Y-119451097D01*
X155200357Y-119451097D02*
X155200357Y-119260621D01*
X155200357Y-119260621D02*
X155238452Y-119184430D01*
X155238452Y-119184430D02*
X155276547Y-119146335D01*
X155276547Y-119146335D02*
X155352738Y-119108240D01*
X155352738Y-119108240D02*
X155543214Y-119108240D01*
X155543214Y-119108240D02*
X155619404Y-119146335D01*
X155619404Y-119146335D02*
X155657500Y-119184430D01*
X155657500Y-119184430D02*
X155695595Y-119260621D01*
X155695595Y-119260621D02*
X155695595Y-119451097D01*
X155695595Y-119451097D02*
X155657500Y-119527287D01*
X155657500Y-119527287D02*
X155619404Y-119565383D01*
X154895595Y-118879668D02*
X155695595Y-118613001D01*
X155695595Y-118613001D02*
X154895595Y-118346335D01*
D11*
X145982204Y-83135152D02*
X145886966Y-83254200D01*
X145886966Y-83254200D02*
X145601252Y-83373247D01*
X145601252Y-83373247D02*
X145410776Y-83373247D01*
X145410776Y-83373247D02*
X145125061Y-83254200D01*
X145125061Y-83254200D02*
X144934585Y-83016104D01*
X144934585Y-83016104D02*
X144839347Y-82778009D01*
X144839347Y-82778009D02*
X144744109Y-82301819D01*
X144744109Y-82301819D02*
X144744109Y-81944676D01*
X144744109Y-81944676D02*
X144839347Y-81468485D01*
X144839347Y-81468485D02*
X144934585Y-81230390D01*
X144934585Y-81230390D02*
X145125061Y-80992295D01*
X145125061Y-80992295D02*
X145410776Y-80873247D01*
X145410776Y-80873247D02*
X145601252Y-80873247D01*
X145601252Y-80873247D02*
X145886966Y-80992295D01*
X145886966Y-80992295D02*
X145982204Y-81111342D01*
X146744109Y-83254200D02*
X147029823Y-83373247D01*
X147029823Y-83373247D02*
X147506014Y-83373247D01*
X147506014Y-83373247D02*
X147696490Y-83254200D01*
X147696490Y-83254200D02*
X147791728Y-83135152D01*
X147791728Y-83135152D02*
X147886966Y-82897057D01*
X147886966Y-82897057D02*
X147886966Y-82658961D01*
X147886966Y-82658961D02*
X147791728Y-82420866D01*
X147791728Y-82420866D02*
X147696490Y-82301819D01*
X147696490Y-82301819D02*
X147506014Y-82182771D01*
X147506014Y-82182771D02*
X147125061Y-82063723D01*
X147125061Y-82063723D02*
X146934585Y-81944676D01*
X146934585Y-81944676D02*
X146839347Y-81825628D01*
X146839347Y-81825628D02*
X146744109Y-81587533D01*
X146744109Y-81587533D02*
X146744109Y-81349438D01*
X146744109Y-81349438D02*
X146839347Y-81111342D01*
X146839347Y-81111342D02*
X146934585Y-80992295D01*
X146934585Y-80992295D02*
X147125061Y-80873247D01*
X147125061Y-80873247D02*
X147601252Y-80873247D01*
X147601252Y-80873247D02*
X147886966Y-80992295D01*
X148744109Y-80873247D02*
X148744109Y-82897057D01*
X148744109Y-82897057D02*
X148839347Y-83135152D01*
X148839347Y-83135152D02*
X148934585Y-83254200D01*
X148934585Y-83254200D02*
X149125061Y-83373247D01*
X149125061Y-83373247D02*
X149506014Y-83373247D01*
X149506014Y-83373247D02*
X149696490Y-83254200D01*
X149696490Y-83254200D02*
X149791728Y-83135152D01*
X149791728Y-83135152D02*
X149886966Y-82897057D01*
X149886966Y-82897057D02*
X149886966Y-80873247D01*
X153506014Y-83135152D02*
X153410776Y-83254200D01*
X153410776Y-83254200D02*
X153125062Y-83373247D01*
X153125062Y-83373247D02*
X152934586Y-83373247D01*
X152934586Y-83373247D02*
X152648871Y-83254200D01*
X152648871Y-83254200D02*
X152458395Y-83016104D01*
X152458395Y-83016104D02*
X152363157Y-82778009D01*
X152363157Y-82778009D02*
X152267919Y-82301819D01*
X152267919Y-82301819D02*
X152267919Y-81944676D01*
X152267919Y-81944676D02*
X152363157Y-81468485D01*
X152363157Y-81468485D02*
X152458395Y-81230390D01*
X152458395Y-81230390D02*
X152648871Y-80992295D01*
X152648871Y-80992295D02*
X152934586Y-80873247D01*
X152934586Y-80873247D02*
X153125062Y-80873247D01*
X153125062Y-80873247D02*
X153410776Y-80992295D01*
X153410776Y-80992295D02*
X153506014Y-81111342D01*
X154648871Y-83373247D02*
X154458395Y-83254200D01*
X154458395Y-83254200D02*
X154363157Y-83135152D01*
X154363157Y-83135152D02*
X154267919Y-82897057D01*
X154267919Y-82897057D02*
X154267919Y-82182771D01*
X154267919Y-82182771D02*
X154363157Y-81944676D01*
X154363157Y-81944676D02*
X154458395Y-81825628D01*
X154458395Y-81825628D02*
X154648871Y-81706580D01*
X154648871Y-81706580D02*
X154934586Y-81706580D01*
X154934586Y-81706580D02*
X155125062Y-81825628D01*
X155125062Y-81825628D02*
X155220300Y-81944676D01*
X155220300Y-81944676D02*
X155315538Y-82182771D01*
X155315538Y-82182771D02*
X155315538Y-82897057D01*
X155315538Y-82897057D02*
X155220300Y-83135152D01*
X155220300Y-83135152D02*
X155125062Y-83254200D01*
X155125062Y-83254200D02*
X154934586Y-83373247D01*
X154934586Y-83373247D02*
X154648871Y-83373247D01*
X154458395Y-81111342D02*
X154839347Y-80754200D01*
X154839347Y-80754200D02*
X155220300Y-81111342D01*
X155886967Y-81706580D02*
X156648871Y-81706580D01*
X156172681Y-80873247D02*
X156172681Y-83016104D01*
X156172681Y-83016104D02*
X156267919Y-83254200D01*
X156267919Y-83254200D02*
X156458395Y-83373247D01*
X156458395Y-83373247D02*
X156648871Y-83373247D01*
X158077443Y-83254200D02*
X157886967Y-83373247D01*
X157886967Y-83373247D02*
X157506014Y-83373247D01*
X157506014Y-83373247D02*
X157315538Y-83254200D01*
X157315538Y-83254200D02*
X157220300Y-83016104D01*
X157220300Y-83016104D02*
X157220300Y-82063723D01*
X157220300Y-82063723D02*
X157315538Y-81825628D01*
X157315538Y-81825628D02*
X157506014Y-81706580D01*
X157506014Y-81706580D02*
X157886967Y-81706580D01*
X157886967Y-81706580D02*
X158077443Y-81825628D01*
X158077443Y-81825628D02*
X158172681Y-82063723D01*
X158172681Y-82063723D02*
X158172681Y-82301819D01*
X158172681Y-82301819D02*
X157220300Y-82539914D01*
X161410777Y-83373247D02*
X161410777Y-80873247D01*
X161410777Y-83254200D02*
X161220301Y-83373247D01*
X161220301Y-83373247D02*
X160839348Y-83373247D01*
X160839348Y-83373247D02*
X160648872Y-83254200D01*
X160648872Y-83254200D02*
X160553634Y-83135152D01*
X160553634Y-83135152D02*
X160458396Y-82897057D01*
X160458396Y-82897057D02*
X160458396Y-82182771D01*
X160458396Y-82182771D02*
X160553634Y-81944676D01*
X160553634Y-81944676D02*
X160648872Y-81825628D01*
X160648872Y-81825628D02*
X160839348Y-81706580D01*
X160839348Y-81706580D02*
X161220301Y-81706580D01*
X161220301Y-81706580D02*
X161410777Y-81825628D01*
X162458396Y-80873247D02*
X162267920Y-81349438D01*
X163220301Y-82658961D02*
X164172682Y-82658961D01*
X163029825Y-83373247D02*
X163696491Y-80873247D01*
X163696491Y-80873247D02*
X164363158Y-83373247D01*
X164839349Y-81706580D02*
X165886968Y-81706580D01*
X165886968Y-81706580D02*
X164839349Y-83373247D01*
X164839349Y-83373247D02*
X165886968Y-83373247D01*
X167506016Y-81706580D02*
X167506016Y-83373247D01*
X166648873Y-81706580D02*
X166648873Y-83016104D01*
X166648873Y-83016104D02*
X166744111Y-83254200D01*
X166744111Y-83254200D02*
X166934587Y-83373247D01*
X166934587Y-83373247D02*
X167220302Y-83373247D01*
X167220302Y-83373247D02*
X167410778Y-83254200D01*
X167410778Y-83254200D02*
X167506016Y-83135152D01*
X168458397Y-83373247D02*
X168458397Y-81706580D01*
X168458397Y-82182771D02*
X168553635Y-81944676D01*
X168553635Y-81944676D02*
X168648873Y-81825628D01*
X168648873Y-81825628D02*
X168839349Y-81706580D01*
X168839349Y-81706580D02*
X169029826Y-81706580D01*
D12*
X170554510Y-90029400D02*
X171697368Y-90029400D01*
X172411653Y-89600828D02*
X173554511Y-90029400D01*
X173554511Y-90029400D02*
X172411653Y-90457971D01*
X170554510Y-91829400D02*
X171697368Y-91829400D01*
X172411653Y-91400828D02*
X173554511Y-91829400D01*
X173554511Y-91829400D02*
X172411653Y-92257971D01*
D10*
G36*
X175804895Y-90446984D02*
G01*
X174283537Y-90446984D01*
X174283537Y-89870328D01*
X174372426Y-89870328D01*
X174374781Y-89894601D01*
X174376873Y-89897157D01*
X174376873Y-89900463D01*
X174391748Y-89915338D01*
X174405071Y-89931622D01*
X174408359Y-89931950D01*
X174410698Y-89934289D01*
X174431744Y-89934289D01*
X174452670Y-89936382D01*
X174455226Y-89934289D01*
X174458532Y-89934290D01*
X174478810Y-89920742D01*
X174509733Y-89889819D01*
X174563657Y-89862857D01*
X174724623Y-89862857D01*
X174778546Y-89889818D01*
X174802297Y-89913569D01*
X174829259Y-89967492D01*
X174829259Y-90128459D01*
X174802297Y-90182383D01*
X174778545Y-90206134D01*
X174724623Y-90233095D01*
X174563657Y-90233095D01*
X174509733Y-90206133D01*
X174478810Y-90175210D01*
X174458533Y-90161662D01*
X174410699Y-90161662D01*
X174376874Y-90195487D01*
X174376874Y-90243321D01*
X174390422Y-90263598D01*
X174428518Y-90301694D01*
X174436839Y-90307254D01*
X174444761Y-90313402D01*
X174520951Y-90351497D01*
X174523970Y-90352323D01*
X174524984Y-90353337D01*
X174534811Y-90355291D01*
X174544472Y-90357937D01*
X174545830Y-90357484D01*
X174548902Y-90358095D01*
X174739378Y-90358095D01*
X174742449Y-90357484D01*
X174743808Y-90357937D01*
X174753468Y-90355291D01*
X174763296Y-90353337D01*
X174764309Y-90352323D01*
X174767329Y-90351497D01*
X174843520Y-90313402D01*
X174851435Y-90307258D01*
X174859764Y-90301694D01*
X174897859Y-90263598D01*
X174903425Y-90255266D01*
X174909566Y-90247355D01*
X174947661Y-90171165D01*
X174948487Y-90168145D01*
X174949501Y-90167132D01*
X174951455Y-90157304D01*
X174954101Y-90147644D01*
X174953648Y-90146285D01*
X174954259Y-90143214D01*
X174954259Y-89952738D01*
X174953648Y-89949668D01*
X174954102Y-89948308D01*
X174951454Y-89938641D01*
X174949501Y-89928820D01*
X174948487Y-89927806D01*
X174947661Y-89924788D01*
X174909566Y-89848596D01*
X174903422Y-89840680D01*
X174897858Y-89832352D01*
X174859763Y-89794258D01*
X174851441Y-89788697D01*
X174843520Y-89782550D01*
X174767329Y-89744455D01*
X174764309Y-89743628D01*
X174763296Y-89742615D01*
X174753468Y-89740660D01*
X174743808Y-89738015D01*
X174742449Y-89738467D01*
X174739378Y-89737857D01*
X174548902Y-89737857D01*
X174545830Y-89738467D01*
X174544472Y-89738015D01*
X174534811Y-89740660D01*
X174524984Y-89742615D01*
X174523970Y-89743628D01*
X174520951Y-89744455D01*
X174510094Y-89749883D01*
X174529274Y-89558095D01*
X174853664Y-89558095D01*
X174877582Y-89553337D01*
X174911406Y-89519513D01*
X174911406Y-89491164D01*
X175057989Y-89491164D01*
X175061038Y-89515359D01*
X175327705Y-90315359D01*
X175339783Y-90336545D01*
X175343959Y-90338633D01*
X175346048Y-90342810D01*
X175364843Y-90349075D01*
X175382567Y-90357937D01*
X175386998Y-90356460D01*
X175391429Y-90357937D01*
X175409153Y-90349075D01*
X175427948Y-90342810D01*
X175430036Y-90338633D01*
X175434213Y-90336545D01*
X175446291Y-90315359D01*
X175712957Y-89515359D01*
X175716006Y-89491164D01*
X175694614Y-89448379D01*
X175649233Y-89433252D01*
X175606449Y-89454645D01*
X175594371Y-89475831D01*
X175386997Y-90097951D01*
X175179624Y-89475831D01*
X175167546Y-89454645D01*
X175124762Y-89433253D01*
X175079381Y-89448380D01*
X175057989Y-89491164D01*
X174911406Y-89491164D01*
X174911406Y-89471677D01*
X174877582Y-89437853D01*
X174853664Y-89433095D01*
X174472712Y-89433095D01*
X174457757Y-89436069D01*
X174454658Y-89435760D01*
X174453161Y-89436984D01*
X174448794Y-89437853D01*
X174433917Y-89452729D01*
X174417637Y-89466050D01*
X174416337Y-89470309D01*
X174414970Y-89471677D01*
X174414970Y-89474793D01*
X174410522Y-89489376D01*
X174372426Y-89870328D01*
X174283537Y-89870328D01*
X174283537Y-89344206D01*
X175804895Y-89344206D01*
X175804895Y-90446984D01*
G37*
X137796521Y-76257500D02*
X137882236Y-76295595D01*
X137882236Y-76295595D02*
X138025093Y-76295595D01*
X138025093Y-76295595D02*
X138082236Y-76257500D01*
X138082236Y-76257500D02*
X138110807Y-76219404D01*
X138110807Y-76219404D02*
X138139378Y-76143214D01*
X138139378Y-76143214D02*
X138139378Y-76067023D01*
X138139378Y-76067023D02*
X138110807Y-75990833D01*
X138110807Y-75990833D02*
X138082236Y-75952738D01*
X138082236Y-75952738D02*
X138025093Y-75914642D01*
X138025093Y-75914642D02*
X137910807Y-75876547D01*
X137910807Y-75876547D02*
X137853664Y-75838452D01*
X137853664Y-75838452D02*
X137825093Y-75800357D01*
X137825093Y-75800357D02*
X137796521Y-75724166D01*
X137796521Y-75724166D02*
X137796521Y-75647976D01*
X137796521Y-75647976D02*
X137825093Y-75571785D01*
X137825093Y-75571785D02*
X137853664Y-75533690D01*
X137853664Y-75533690D02*
X137910807Y-75495595D01*
X137910807Y-75495595D02*
X138053664Y-75495595D01*
X138053664Y-75495595D02*
X138139378Y-75533690D01*
X138396522Y-76295595D02*
X138396522Y-75495595D01*
X138396522Y-75495595D02*
X138539379Y-75495595D01*
X138539379Y-75495595D02*
X138625093Y-75533690D01*
X138625093Y-75533690D02*
X138682236Y-75609880D01*
X138682236Y-75609880D02*
X138710807Y-75686071D01*
X138710807Y-75686071D02*
X138739379Y-75838452D01*
X138739379Y-75838452D02*
X138739379Y-75952738D01*
X138739379Y-75952738D02*
X138710807Y-76105119D01*
X138710807Y-76105119D02*
X138682236Y-76181309D01*
X138682236Y-76181309D02*
X138625093Y-76257500D01*
X138625093Y-76257500D02*
X138539379Y-76295595D01*
X138539379Y-76295595D02*
X138396522Y-76295595D01*
X138967950Y-76067023D02*
X139253665Y-76067023D01*
X138910807Y-76295595D02*
X139110807Y-75495595D01*
X139110807Y-75495595D02*
X139310807Y-76295595D01*
X151695595Y-78127287D02*
X150895595Y-78127287D01*
X150895595Y-78127287D02*
X151467023Y-77860621D01*
X151467023Y-77860621D02*
X150895595Y-77593954D01*
X150895595Y-77593954D02*
X151695595Y-77593954D01*
X150895595Y-77060620D02*
X150895595Y-76908239D01*
X150895595Y-76908239D02*
X150933690Y-76832049D01*
X150933690Y-76832049D02*
X151009880Y-76755858D01*
X151009880Y-76755858D02*
X151162261Y-76717763D01*
X151162261Y-76717763D02*
X151428928Y-76717763D01*
X151428928Y-76717763D02*
X151581309Y-76755858D01*
X151581309Y-76755858D02*
X151657500Y-76832049D01*
X151657500Y-76832049D02*
X151695595Y-76908239D01*
X151695595Y-76908239D02*
X151695595Y-77060620D01*
X151695595Y-77060620D02*
X151657500Y-77136811D01*
X151657500Y-77136811D02*
X151581309Y-77213001D01*
X151581309Y-77213001D02*
X151428928Y-77251097D01*
X151428928Y-77251097D02*
X151162261Y-77251097D01*
X151162261Y-77251097D02*
X151009880Y-77213001D01*
X151009880Y-77213001D02*
X150933690Y-77136811D01*
X150933690Y-77136811D02*
X150895595Y-77060620D01*
X151657500Y-76413002D02*
X151695595Y-76298716D01*
X151695595Y-76298716D02*
X151695595Y-76108240D01*
X151695595Y-76108240D02*
X151657500Y-76032049D01*
X151657500Y-76032049D02*
X151619404Y-75993954D01*
X151619404Y-75993954D02*
X151543214Y-75955859D01*
X151543214Y-75955859D02*
X151467023Y-75955859D01*
X151467023Y-75955859D02*
X151390833Y-75993954D01*
X151390833Y-75993954D02*
X151352738Y-76032049D01*
X151352738Y-76032049D02*
X151314642Y-76108240D01*
X151314642Y-76108240D02*
X151276547Y-76260621D01*
X151276547Y-76260621D02*
X151238452Y-76336811D01*
X151238452Y-76336811D02*
X151200357Y-76374906D01*
X151200357Y-76374906D02*
X151124166Y-76413002D01*
X151124166Y-76413002D02*
X151047976Y-76413002D01*
X151047976Y-76413002D02*
X150971785Y-76374906D01*
X150971785Y-76374906D02*
X150933690Y-76336811D01*
X150933690Y-76336811D02*
X150895595Y-76260621D01*
X150895595Y-76260621D02*
X150895595Y-76070144D01*
X150895595Y-76070144D02*
X150933690Y-75955859D01*
X151695595Y-75613001D02*
X150895595Y-75613001D01*
X179992049Y-75982369D02*
X179825383Y-75601416D01*
X179706335Y-75982369D02*
X179706335Y-75182369D01*
X179706335Y-75182369D02*
X179896811Y-75182369D01*
X179896811Y-75182369D02*
X179944430Y-75220464D01*
X179944430Y-75220464D02*
X179968240Y-75258559D01*
X179968240Y-75258559D02*
X179992049Y-75334750D01*
X179992049Y-75334750D02*
X179992049Y-75449035D01*
X179992049Y-75449035D02*
X179968240Y-75525226D01*
X179968240Y-75525226D02*
X179944430Y-75563321D01*
X179944430Y-75563321D02*
X179896811Y-75601416D01*
X179896811Y-75601416D02*
X179706335Y-75601416D01*
X180158716Y-75182369D02*
X180492049Y-75982369D01*
X180492049Y-75182369D02*
X180158716Y-75982369D01*
X181039668Y-75144274D02*
X180611097Y-76172845D01*
X181301573Y-75182369D02*
X181349192Y-75182369D01*
X181349192Y-75182369D02*
X181396811Y-75220464D01*
X181396811Y-75220464D02*
X181420621Y-75258559D01*
X181420621Y-75258559D02*
X181444430Y-75334750D01*
X181444430Y-75334750D02*
X181468240Y-75487131D01*
X181468240Y-75487131D02*
X181468240Y-75677607D01*
X181468240Y-75677607D02*
X181444430Y-75829988D01*
X181444430Y-75829988D02*
X181420621Y-75906178D01*
X181420621Y-75906178D02*
X181396811Y-75944274D01*
X181396811Y-75944274D02*
X181349192Y-75982369D01*
X181349192Y-75982369D02*
X181301573Y-75982369D01*
X181301573Y-75982369D02*
X181253954Y-75944274D01*
X181253954Y-75944274D02*
X181230145Y-75906178D01*
X181230145Y-75906178D02*
X181206335Y-75829988D01*
X181206335Y-75829988D02*
X181182526Y-75677607D01*
X181182526Y-75677607D02*
X181182526Y-75487131D01*
X181182526Y-75487131D02*
X181206335Y-75334750D01*
X181206335Y-75334750D02*
X181230145Y-75258559D01*
X181230145Y-75258559D02*
X181253954Y-75220464D01*
X181253954Y-75220464D02*
X181301573Y-75182369D01*
X158638452Y-75813002D02*
X158600357Y-75889192D01*
X158600357Y-75889192D02*
X158562261Y-75927287D01*
X158562261Y-75927287D02*
X158486071Y-75965383D01*
X158486071Y-75965383D02*
X158447976Y-75965383D01*
X158447976Y-75965383D02*
X158371785Y-75927287D01*
X158371785Y-75927287D02*
X158333690Y-75889192D01*
X158333690Y-75889192D02*
X158295595Y-75813002D01*
X158295595Y-75813002D02*
X158295595Y-75660621D01*
X158295595Y-75660621D02*
X158333690Y-75584430D01*
X158333690Y-75584430D02*
X158371785Y-75546335D01*
X158371785Y-75546335D02*
X158447976Y-75508240D01*
X158447976Y-75508240D02*
X158486071Y-75508240D01*
X158486071Y-75508240D02*
X158562261Y-75546335D01*
X158562261Y-75546335D02*
X158600357Y-75584430D01*
X158600357Y-75584430D02*
X158638452Y-75660621D01*
X158638452Y-75660621D02*
X158638452Y-75813002D01*
X158638452Y-75813002D02*
X158676547Y-75889192D01*
X158676547Y-75889192D02*
X158714642Y-75927287D01*
X158714642Y-75927287D02*
X158790833Y-75965383D01*
X158790833Y-75965383D02*
X158943214Y-75965383D01*
X158943214Y-75965383D02*
X159019404Y-75927287D01*
X159019404Y-75927287D02*
X159057500Y-75889192D01*
X159057500Y-75889192D02*
X159095595Y-75813002D01*
X159095595Y-75813002D02*
X159095595Y-75660621D01*
X159095595Y-75660621D02*
X159057500Y-75584430D01*
X159057500Y-75584430D02*
X159019404Y-75546335D01*
X159019404Y-75546335D02*
X158943214Y-75508240D01*
X158943214Y-75508240D02*
X158790833Y-75508240D01*
X158790833Y-75508240D02*
X158714642Y-75546335D01*
X158714642Y-75546335D02*
X158676547Y-75584430D01*
X158676547Y-75584430D02*
X158638452Y-75660621D01*
X156390833Y-76641573D02*
X156352738Y-76603478D01*
X156352738Y-76603478D02*
X156314642Y-76527287D01*
X156314642Y-76527287D02*
X156390833Y-76374906D01*
X156390833Y-76374906D02*
X156352738Y-76298716D01*
X156352738Y-76298716D02*
X156314642Y-76260621D01*
X156695595Y-75917763D02*
X156695595Y-75765382D01*
X156695595Y-75765382D02*
X156657500Y-75689192D01*
X156657500Y-75689192D02*
X156619404Y-75651096D01*
X156619404Y-75651096D02*
X156505119Y-75574906D01*
X156505119Y-75574906D02*
X156352738Y-75536811D01*
X156352738Y-75536811D02*
X156047976Y-75536811D01*
X156047976Y-75536811D02*
X155971785Y-75574906D01*
X155971785Y-75574906D02*
X155933690Y-75613001D01*
X155933690Y-75613001D02*
X155895595Y-75689192D01*
X155895595Y-75689192D02*
X155895595Y-75841573D01*
X155895595Y-75841573D02*
X155933690Y-75917763D01*
X155933690Y-75917763D02*
X155971785Y-75955858D01*
X155971785Y-75955858D02*
X156047976Y-75993954D01*
X156047976Y-75993954D02*
X156238452Y-75993954D01*
X156238452Y-75993954D02*
X156314642Y-75955858D01*
X156314642Y-75955858D02*
X156352738Y-75917763D01*
X156352738Y-75917763D02*
X156390833Y-75841573D01*
X156390833Y-75841573D02*
X156390833Y-75689192D01*
X156390833Y-75689192D02*
X156352738Y-75613001D01*
X156352738Y-75613001D02*
X156314642Y-75574906D01*
X156314642Y-75574906D02*
X156238452Y-75536811D01*
X175171785Y-75965383D02*
X175133690Y-75927287D01*
X175133690Y-75927287D02*
X175095595Y-75851097D01*
X175095595Y-75851097D02*
X175095595Y-75660621D01*
X175095595Y-75660621D02*
X175133690Y-75584430D01*
X175133690Y-75584430D02*
X175171785Y-75546335D01*
X175171785Y-75546335D02*
X175247976Y-75508240D01*
X175247976Y-75508240D02*
X175324166Y-75508240D01*
X175324166Y-75508240D02*
X175438452Y-75546335D01*
X175438452Y-75546335D02*
X175895595Y-76003478D01*
X175895595Y-76003478D02*
X175895595Y-75508240D01*
X165390833Y-76641573D02*
X165352738Y-76603478D01*
X165352738Y-76603478D02*
X165314642Y-76527287D01*
X165314642Y-76527287D02*
X165390833Y-76374906D01*
X165390833Y-76374906D02*
X165352738Y-76298716D01*
X165352738Y-76298716D02*
X165314642Y-76260621D01*
X164895595Y-75613001D02*
X164895595Y-75765382D01*
X164895595Y-75765382D02*
X164933690Y-75841573D01*
X164933690Y-75841573D02*
X164971785Y-75879668D01*
X164971785Y-75879668D02*
X165086071Y-75955858D01*
X165086071Y-75955858D02*
X165238452Y-75993954D01*
X165238452Y-75993954D02*
X165543214Y-75993954D01*
X165543214Y-75993954D02*
X165619404Y-75955858D01*
X165619404Y-75955858D02*
X165657500Y-75917763D01*
X165657500Y-75917763D02*
X165695595Y-75841573D01*
X165695595Y-75841573D02*
X165695595Y-75689192D01*
X165695595Y-75689192D02*
X165657500Y-75613001D01*
X165657500Y-75613001D02*
X165619404Y-75574906D01*
X165619404Y-75574906D02*
X165543214Y-75536811D01*
X165543214Y-75536811D02*
X165352738Y-75536811D01*
X165352738Y-75536811D02*
X165276547Y-75574906D01*
X165276547Y-75574906D02*
X165238452Y-75613001D01*
X165238452Y-75613001D02*
X165200357Y-75689192D01*
X165200357Y-75689192D02*
X165200357Y-75841573D01*
X165200357Y-75841573D02*
X165238452Y-75917763D01*
X165238452Y-75917763D02*
X165276547Y-75955858D01*
X165276547Y-75955858D02*
X165352738Y-75993954D01*
D12*
X144683082Y-85972257D02*
X145397368Y-85972257D01*
X144540225Y-86400828D02*
X145040225Y-84900828D01*
X145040225Y-84900828D02*
X145540225Y-86400828D01*
X146040224Y-86257971D02*
X146111653Y-86329400D01*
X146111653Y-86329400D02*
X146040224Y-86400828D01*
X146040224Y-86400828D02*
X145968796Y-86329400D01*
X145968796Y-86329400D02*
X146040224Y-86257971D01*
X146040224Y-86257971D02*
X146040224Y-86400828D01*
X147897367Y-85615114D02*
X148397367Y-85615114D01*
X148611653Y-86400828D02*
X147897367Y-86400828D01*
X147897367Y-86400828D02*
X147897367Y-84900828D01*
X147897367Y-84900828D02*
X148611653Y-84900828D01*
X149468796Y-86400828D02*
X149325939Y-86329400D01*
X149325939Y-86329400D02*
X149254510Y-86186542D01*
X149254510Y-86186542D02*
X149254510Y-84900828D01*
X150040224Y-86400828D02*
X150040224Y-84900828D01*
X150183082Y-85829400D02*
X150611653Y-86400828D01*
X150611653Y-85400828D02*
X150040224Y-85972257D01*
X151825939Y-86329400D02*
X151683082Y-86400828D01*
X151683082Y-86400828D02*
X151397368Y-86400828D01*
X151397368Y-86400828D02*
X151254510Y-86329400D01*
X151254510Y-86329400D02*
X151183082Y-86186542D01*
X151183082Y-86186542D02*
X151183082Y-85615114D01*
X151183082Y-85615114D02*
X151254510Y-85472257D01*
X151254510Y-85472257D02*
X151397368Y-85400828D01*
X151397368Y-85400828D02*
X151683082Y-85400828D01*
X151683082Y-85400828D02*
X151825939Y-85472257D01*
X151825939Y-85472257D02*
X151897368Y-85615114D01*
X151897368Y-85615114D02*
X151897368Y-85757971D01*
X151897368Y-85757971D02*
X151183082Y-85900828D01*
X152540224Y-86400828D02*
X152540224Y-85400828D01*
X152540224Y-85686542D02*
X152611653Y-85543685D01*
X152611653Y-85543685D02*
X152683082Y-85472257D01*
X152683082Y-85472257D02*
X152825939Y-85400828D01*
X152825939Y-85400828D02*
X152968796Y-85400828D01*
X153468795Y-86400828D02*
X153468795Y-85400828D01*
X153468795Y-85543685D02*
X153540224Y-85472257D01*
X153540224Y-85472257D02*
X153683081Y-85400828D01*
X153683081Y-85400828D02*
X153897367Y-85400828D01*
X153897367Y-85400828D02*
X154040224Y-85472257D01*
X154040224Y-85472257D02*
X154111653Y-85615114D01*
X154111653Y-85615114D02*
X154111653Y-86400828D01*
X154111653Y-85615114D02*
X154183081Y-85472257D01*
X154183081Y-85472257D02*
X154325938Y-85400828D01*
X154325938Y-85400828D02*
X154540224Y-85400828D01*
X154540224Y-85400828D02*
X154683081Y-85472257D01*
X154683081Y-85472257D02*
X154754510Y-85615114D01*
X154754510Y-85615114D02*
X154754510Y-86400828D01*
X157683081Y-84829400D02*
X156397367Y-86757971D01*
X159825938Y-85615114D02*
X159325938Y-85615114D01*
X159325938Y-86400828D02*
X159325938Y-84900828D01*
X159325938Y-84900828D02*
X160040224Y-84900828D01*
X160611652Y-86257971D02*
X160683081Y-86329400D01*
X160683081Y-86329400D02*
X160611652Y-86400828D01*
X160611652Y-86400828D02*
X160540224Y-86329400D01*
X160540224Y-86329400D02*
X160611652Y-86257971D01*
X160611652Y-86257971D02*
X160611652Y-86400828D01*
X162468795Y-86400828D02*
X162468795Y-84900828D01*
X162468795Y-84900828D02*
X162968795Y-85972257D01*
X162968795Y-85972257D02*
X163468795Y-84900828D01*
X163468795Y-84900828D02*
X163468795Y-86400828D01*
X164183081Y-86400828D02*
X164183081Y-85400828D01*
X164183081Y-84900828D02*
X164111653Y-84972257D01*
X164111653Y-84972257D02*
X164183081Y-85043685D01*
X164183081Y-85043685D02*
X164254510Y-84972257D01*
X164254510Y-84972257D02*
X164183081Y-84900828D01*
X164183081Y-84900828D02*
X164183081Y-85043685D01*
X165111653Y-86400828D02*
X164968796Y-86329400D01*
X164968796Y-86329400D02*
X164897367Y-86186542D01*
X164897367Y-86186542D02*
X164897367Y-84900828D01*
X165897367Y-86400828D02*
X165754510Y-86329400D01*
X165754510Y-86329400D02*
X165683081Y-86186542D01*
X165683081Y-86186542D02*
X165683081Y-84900828D01*
X166683081Y-86400828D02*
X166540224Y-86329400D01*
X166540224Y-86329400D02*
X166468795Y-86257971D01*
X166468795Y-86257971D02*
X166397367Y-86115114D01*
X166397367Y-86115114D02*
X166397367Y-85686542D01*
X166397367Y-85686542D02*
X166468795Y-85543685D01*
X166468795Y-85543685D02*
X166540224Y-85472257D01*
X166540224Y-85472257D02*
X166683081Y-85400828D01*
X166683081Y-85400828D02*
X166897367Y-85400828D01*
X166897367Y-85400828D02*
X167040224Y-85472257D01*
X167040224Y-85472257D02*
X167111653Y-85543685D01*
X167111653Y-85543685D02*
X167183081Y-85686542D01*
X167183081Y-85686542D02*
X167183081Y-86115114D01*
X167183081Y-86115114D02*
X167111653Y-86257971D01*
X167111653Y-86257971D02*
X167040224Y-86329400D01*
X167040224Y-86329400D02*
X166897367Y-86400828D01*
X166897367Y-86400828D02*
X166683081Y-86400828D01*
X168468796Y-85400828D02*
X168468796Y-86400828D01*
X167825938Y-85400828D02*
X167825938Y-86186542D01*
X167825938Y-86186542D02*
X167897367Y-86329400D01*
X167897367Y-86329400D02*
X168040224Y-86400828D01*
X168040224Y-86400828D02*
X168254510Y-86400828D01*
X168254510Y-86400828D02*
X168397367Y-86329400D01*
X168397367Y-86329400D02*
X168468796Y-86257971D01*
X169183081Y-86400828D02*
X169183081Y-85400828D01*
X169183081Y-85686542D02*
X169254510Y-85543685D01*
X169254510Y-85543685D02*
X169325939Y-85472257D01*
X169325939Y-85472257D02*
X169468796Y-85400828D01*
X169468796Y-85400828D02*
X169611653Y-85400828D01*
D10*
X177034616Y-119657500D02*
X177148902Y-119695595D01*
X177148902Y-119695595D02*
X177339378Y-119695595D01*
X177339378Y-119695595D02*
X177415569Y-119657500D01*
X177415569Y-119657500D02*
X177453664Y-119619404D01*
X177453664Y-119619404D02*
X177491759Y-119543214D01*
X177491759Y-119543214D02*
X177491759Y-119467023D01*
X177491759Y-119467023D02*
X177453664Y-119390833D01*
X177453664Y-119390833D02*
X177415569Y-119352738D01*
X177415569Y-119352738D02*
X177339378Y-119314642D01*
X177339378Y-119314642D02*
X177186997Y-119276547D01*
X177186997Y-119276547D02*
X177110807Y-119238452D01*
X177110807Y-119238452D02*
X177072712Y-119200357D01*
X177072712Y-119200357D02*
X177034616Y-119124166D01*
X177034616Y-119124166D02*
X177034616Y-119047976D01*
X177034616Y-119047976D02*
X177072712Y-118971785D01*
X177072712Y-118971785D02*
X177110807Y-118933690D01*
X177110807Y-118933690D02*
X177186997Y-118895595D01*
X177186997Y-118895595D02*
X177377474Y-118895595D01*
X177377474Y-118895595D02*
X177491759Y-118933690D01*
X177834617Y-119695595D02*
X177834617Y-118895595D01*
X177834617Y-118895595D02*
X178025093Y-118895595D01*
X178025093Y-118895595D02*
X178139379Y-118933690D01*
X178139379Y-118933690D02*
X178215569Y-119009880D01*
X178215569Y-119009880D02*
X178253664Y-119086071D01*
X178253664Y-119086071D02*
X178291760Y-119238452D01*
X178291760Y-119238452D02*
X178291760Y-119352738D01*
X178291760Y-119352738D02*
X178253664Y-119505119D01*
X178253664Y-119505119D02*
X178215569Y-119581309D01*
X178215569Y-119581309D02*
X178139379Y-119657500D01*
X178139379Y-119657500D02*
X178025093Y-119695595D01*
X178025093Y-119695595D02*
X177834617Y-119695595D01*
X178596521Y-119467023D02*
X178977474Y-119467023D01*
X178520331Y-119695595D02*
X178786998Y-118895595D01*
X178786998Y-118895595D02*
X179053664Y-119695595D01*
X173190833Y-76641573D02*
X173152738Y-76603478D01*
X173152738Y-76603478D02*
X173114642Y-76527287D01*
X173114642Y-76527287D02*
X173190833Y-76374906D01*
X173190833Y-76374906D02*
X173152738Y-76298716D01*
X173152738Y-76298716D02*
X173114642Y-76260621D01*
X172695595Y-76032049D02*
X172695595Y-75536811D01*
X172695595Y-75536811D02*
X173000357Y-75803477D01*
X173000357Y-75803477D02*
X173000357Y-75689192D01*
X173000357Y-75689192D02*
X173038452Y-75613001D01*
X173038452Y-75613001D02*
X173076547Y-75574906D01*
X173076547Y-75574906D02*
X173152738Y-75536811D01*
X173152738Y-75536811D02*
X173343214Y-75536811D01*
X173343214Y-75536811D02*
X173419404Y-75574906D01*
X173419404Y-75574906D02*
X173457500Y-75613001D01*
X173457500Y-75613001D02*
X173495595Y-75689192D01*
X173495595Y-75689192D02*
X173495595Y-75917763D01*
X173495595Y-75917763D02*
X173457500Y-75993954D01*
X173457500Y-75993954D02*
X173419404Y-76032049D01*
X162495595Y-119841573D02*
X163295595Y-119574906D01*
X163295595Y-119574906D02*
X162495595Y-119308240D01*
X163295595Y-119041573D02*
X162495595Y-119041573D01*
X163295595Y-118660621D02*
X162495595Y-118660621D01*
X162495595Y-118660621D02*
X163295595Y-118203478D01*
X163295595Y-118203478D02*
X162495595Y-118203478D01*
D13*
X152265789Y-116567657D02*
X153027693Y-116567657D01*
X153027694Y-116567657D02*
X153789598Y-116567657D01*
X153789599Y-116567657D02*
X154551503Y-116567657D01*
X154551504Y-116567657D02*
X155313408Y-116567657D01*
X155313409Y-116567657D02*
X156075313Y-116567657D01*
X156075314Y-116567657D02*
X156837218Y-116567657D01*
X156837219Y-116567657D02*
X157599123Y-116567657D01*
X157599124Y-116567657D02*
X158361028Y-116567657D01*
X158361029Y-116567657D02*
X159122933Y-116567657D01*
X159122934Y-116567657D02*
X159884838Y-116567657D01*
X159884839Y-116567657D02*
X160646743Y-116567657D01*
X160646744Y-116567657D02*
X161408648Y-116567657D01*
X161408649Y-116567657D02*
X162170553Y-116567657D01*
X162170554Y-116567657D02*
X162932458Y-116567657D01*
X162932459Y-116567657D02*
X163694363Y-116567657D01*
D10*
X175667023Y-119765383D02*
X175667023Y-119384430D01*
X175895595Y-119841573D02*
X175095595Y-119574906D01*
X175095595Y-119574906D02*
X175895595Y-119308240D01*
X175095595Y-119117764D02*
X175095595Y-118622526D01*
X175095595Y-118622526D02*
X175400357Y-118889192D01*
X175400357Y-118889192D02*
X175400357Y-118774907D01*
X175400357Y-118774907D02*
X175438452Y-118698716D01*
X175438452Y-118698716D02*
X175476547Y-118660621D01*
X175476547Y-118660621D02*
X175552738Y-118622526D01*
X175552738Y-118622526D02*
X175743214Y-118622526D01*
X175743214Y-118622526D02*
X175819404Y-118660621D01*
X175819404Y-118660621D02*
X175857500Y-118698716D01*
X175857500Y-118698716D02*
X175895595Y-118774907D01*
X175895595Y-118774907D02*
X175895595Y-119003478D01*
X175895595Y-119003478D02*
X175857500Y-119079669D01*
X175857500Y-119079669D02*
X175819404Y-119117764D01*
X146457500Y-77565383D02*
X146495595Y-77451097D01*
X146495595Y-77451097D02*
X146495595Y-77260621D01*
X146495595Y-77260621D02*
X146457500Y-77184430D01*
X146457500Y-77184430D02*
X146419404Y-77146335D01*
X146419404Y-77146335D02*
X146343214Y-77108240D01*
X146343214Y-77108240D02*
X146267023Y-77108240D01*
X146267023Y-77108240D02*
X146190833Y-77146335D01*
X146190833Y-77146335D02*
X146152738Y-77184430D01*
X146152738Y-77184430D02*
X146114642Y-77260621D01*
X146114642Y-77260621D02*
X146076547Y-77413002D01*
X146076547Y-77413002D02*
X146038452Y-77489192D01*
X146038452Y-77489192D02*
X146000357Y-77527287D01*
X146000357Y-77527287D02*
X145924166Y-77565383D01*
X145924166Y-77565383D02*
X145847976Y-77565383D01*
X145847976Y-77565383D02*
X145771785Y-77527287D01*
X145771785Y-77527287D02*
X145733690Y-77489192D01*
X145733690Y-77489192D02*
X145695595Y-77413002D01*
X145695595Y-77413002D02*
X145695595Y-77222525D01*
X145695595Y-77222525D02*
X145733690Y-77108240D01*
X146419404Y-76308239D02*
X146457500Y-76346335D01*
X146457500Y-76346335D02*
X146495595Y-76460620D01*
X146495595Y-76460620D02*
X146495595Y-76536811D01*
X146495595Y-76536811D02*
X146457500Y-76651097D01*
X146457500Y-76651097D02*
X146381309Y-76727287D01*
X146381309Y-76727287D02*
X146305119Y-76765382D01*
X146305119Y-76765382D02*
X146152738Y-76803478D01*
X146152738Y-76803478D02*
X146038452Y-76803478D01*
X146038452Y-76803478D02*
X145886071Y-76765382D01*
X145886071Y-76765382D02*
X145809880Y-76727287D01*
X145809880Y-76727287D02*
X145733690Y-76651097D01*
X145733690Y-76651097D02*
X145695595Y-76536811D01*
X145695595Y-76536811D02*
X145695595Y-76460620D01*
X145695595Y-76460620D02*
X145733690Y-76346335D01*
X145733690Y-76346335D02*
X145771785Y-76308239D01*
X146495595Y-75965382D02*
X145695595Y-75965382D01*
X146495595Y-75508239D02*
X146038452Y-75851097D01*
X145695595Y-75508239D02*
X146152738Y-75965382D01*
X170362261Y-75584430D02*
X170895595Y-75584430D01*
X170057500Y-75774906D02*
X170628928Y-75965383D01*
X170628928Y-75965383D02*
X170628928Y-75470144D01*
X173067023Y-119765383D02*
X173067023Y-119384430D01*
X173295595Y-119841573D02*
X172495595Y-119574906D01*
X172495595Y-119574906D02*
X173295595Y-119308240D01*
X172571785Y-119079669D02*
X172533690Y-119041573D01*
X172533690Y-119041573D02*
X172495595Y-118965383D01*
X172495595Y-118965383D02*
X172495595Y-118774907D01*
X172495595Y-118774907D02*
X172533690Y-118698716D01*
X172533690Y-118698716D02*
X172571785Y-118660621D01*
X172571785Y-118660621D02*
X172647976Y-118622526D01*
X172647976Y-118622526D02*
X172724166Y-118622526D01*
X172724166Y-118622526D02*
X172838452Y-118660621D01*
X172838452Y-118660621D02*
X173295595Y-119117764D01*
X173295595Y-119117764D02*
X173295595Y-118622526D01*
X167867023Y-119765383D02*
X167867023Y-119384430D01*
X168095595Y-119841573D02*
X167295595Y-119574906D01*
X167295595Y-119574906D02*
X168095595Y-119308240D01*
X167295595Y-118889192D02*
X167295595Y-118813002D01*
X167295595Y-118813002D02*
X167333690Y-118736811D01*
X167333690Y-118736811D02*
X167371785Y-118698716D01*
X167371785Y-118698716D02*
X167447976Y-118660621D01*
X167447976Y-118660621D02*
X167600357Y-118622526D01*
X167600357Y-118622526D02*
X167790833Y-118622526D01*
X167790833Y-118622526D02*
X167943214Y-118660621D01*
X167943214Y-118660621D02*
X168019404Y-118698716D01*
X168019404Y-118698716D02*
X168057500Y-118736811D01*
X168057500Y-118736811D02*
X168095595Y-118813002D01*
X168095595Y-118813002D02*
X168095595Y-118889192D01*
X168095595Y-118889192D02*
X168057500Y-118965383D01*
X168057500Y-118965383D02*
X168019404Y-119003478D01*
X168019404Y-119003478D02*
X167943214Y-119041573D01*
X167943214Y-119041573D02*
X167790833Y-119079669D01*
X167790833Y-119079669D02*
X167600357Y-119079669D01*
X167600357Y-119079669D02*
X167447976Y-119041573D01*
X167447976Y-119041573D02*
X167371785Y-119003478D01*
X167371785Y-119003478D02*
X167333690Y-118965383D01*
X167333690Y-118965383D02*
X167295595Y-118889192D01*
D13*
X141265789Y-79167657D02*
X142027693Y-79167657D01*
X142027694Y-79167657D02*
X142789598Y-79167657D01*
X142789599Y-79167657D02*
X143551503Y-79167657D01*
X143551504Y-79167657D02*
X144313408Y-79167657D01*
X144313409Y-79167657D02*
X145075313Y-79167657D01*
X145075314Y-79167657D02*
X145837218Y-79167657D01*
X145837219Y-79167657D02*
X146599123Y-79167657D01*
X146599124Y-79167657D02*
X147361028Y-79167657D01*
X147361029Y-79167657D02*
X148122933Y-79167657D01*
X148122934Y-79167657D02*
X148884838Y-79167657D01*
X148884839Y-79167657D02*
X149646743Y-79167657D01*
X149646744Y-79167657D02*
X150408648Y-79167657D01*
X150408649Y-79167657D02*
X151170553Y-79167657D01*
X151170554Y-79167657D02*
X151932458Y-79167657D01*
X151932459Y-79167657D02*
X152694363Y-79167657D01*
X152694364Y-79167657D02*
X153456268Y-79167657D01*
X153456269Y-79167657D02*
X154218173Y-79167657D01*
X154218174Y-79167657D02*
X154980078Y-79167657D01*
X154980079Y-79167657D02*
X155741983Y-79167657D01*
X155741984Y-79167657D02*
X156503888Y-79167657D01*
X156503889Y-79167657D02*
X157265793Y-79167657D01*
X157265794Y-79167657D02*
X158027698Y-79167657D01*
X158027699Y-79167657D02*
X158789603Y-79167657D01*
X158789604Y-79167657D02*
X159551508Y-79167657D01*
X159551509Y-79167657D02*
X160313413Y-79167657D01*
X160313414Y-79167657D02*
X161075318Y-79167657D01*
X161075319Y-79167657D02*
X161837223Y-79167657D01*
X161837224Y-79167657D02*
X162599128Y-79167657D01*
X162599129Y-79167657D02*
X163361033Y-79167657D01*
X163361034Y-79167657D02*
X164122938Y-79167657D01*
X164122939Y-79167657D02*
X164884843Y-79167657D01*
X164884844Y-79167657D02*
X165646748Y-79167657D01*
X165646749Y-79167657D02*
X166408653Y-79167657D01*
X166408654Y-79167657D02*
X167170558Y-79167657D01*
X167170559Y-79167657D02*
X167932463Y-79167657D01*
X167932464Y-79167657D02*
X168694368Y-79167657D01*
X168694369Y-79167657D02*
X169456273Y-79167657D01*
X169456274Y-79167657D02*
X170218178Y-79167657D01*
X170218179Y-79167657D02*
X170980083Y-79167657D01*
X170980084Y-79167657D02*
X171741988Y-79167657D01*
X171741989Y-79167657D02*
X172503893Y-79167657D01*
X172503894Y-79167657D02*
X173265798Y-79167657D01*
X173265799Y-79167657D02*
X174027703Y-79167657D01*
X174027704Y-79167657D02*
X174789608Y-79167657D01*
D10*
X149095595Y-78127287D02*
X148295595Y-78127287D01*
X148295595Y-78127287D02*
X148867023Y-77860621D01*
X148867023Y-77860621D02*
X148295595Y-77593954D01*
X148295595Y-77593954D02*
X149095595Y-77593954D01*
X149095595Y-77213001D02*
X148295595Y-77213001D01*
X149057500Y-76870145D02*
X149095595Y-76755859D01*
X149095595Y-76755859D02*
X149095595Y-76565383D01*
X149095595Y-76565383D02*
X149057500Y-76489192D01*
X149057500Y-76489192D02*
X149019404Y-76451097D01*
X149019404Y-76451097D02*
X148943214Y-76413002D01*
X148943214Y-76413002D02*
X148867023Y-76413002D01*
X148867023Y-76413002D02*
X148790833Y-76451097D01*
X148790833Y-76451097D02*
X148752738Y-76489192D01*
X148752738Y-76489192D02*
X148714642Y-76565383D01*
X148714642Y-76565383D02*
X148676547Y-76717764D01*
X148676547Y-76717764D02*
X148638452Y-76793954D01*
X148638452Y-76793954D02*
X148600357Y-76832049D01*
X148600357Y-76832049D02*
X148524166Y-76870145D01*
X148524166Y-76870145D02*
X148447976Y-76870145D01*
X148447976Y-76870145D02*
X148371785Y-76832049D01*
X148371785Y-76832049D02*
X148333690Y-76793954D01*
X148333690Y-76793954D02*
X148295595Y-76717764D01*
X148295595Y-76717764D02*
X148295595Y-76527287D01*
X148295595Y-76527287D02*
X148333690Y-76413002D01*
X148295595Y-75917763D02*
X148295595Y-75765382D01*
X148295595Y-75765382D02*
X148333690Y-75689192D01*
X148333690Y-75689192D02*
X148409880Y-75613001D01*
X148409880Y-75613001D02*
X148562261Y-75574906D01*
X148562261Y-75574906D02*
X148828928Y-75574906D01*
X148828928Y-75574906D02*
X148981309Y-75613001D01*
X148981309Y-75613001D02*
X149057500Y-75689192D01*
X149057500Y-75689192D02*
X149095595Y-75765382D01*
X149095595Y-75765382D02*
X149095595Y-75917763D01*
X149095595Y-75917763D02*
X149057500Y-75993954D01*
X149057500Y-75993954D02*
X148981309Y-76070144D01*
X148981309Y-76070144D02*
X148828928Y-76108240D01*
X148828928Y-76108240D02*
X148562261Y-76108240D01*
X148562261Y-76108240D02*
X148409880Y-76070144D01*
X148409880Y-76070144D02*
X148333690Y-75993954D01*
X148333690Y-75993954D02*
X148295595Y-75917763D01*
X162495595Y-76203478D02*
X162495595Y-75670144D01*
X162495595Y-75670144D02*
X163295595Y-76013002D01*
X135196521Y-76257500D02*
X135282236Y-76295595D01*
X135282236Y-76295595D02*
X135425093Y-76295595D01*
X135425093Y-76295595D02*
X135482236Y-76257500D01*
X135482236Y-76257500D02*
X135510807Y-76219404D01*
X135510807Y-76219404D02*
X135539378Y-76143214D01*
X135539378Y-76143214D02*
X135539378Y-76067023D01*
X135539378Y-76067023D02*
X135510807Y-75990833D01*
X135510807Y-75990833D02*
X135482236Y-75952738D01*
X135482236Y-75952738D02*
X135425093Y-75914642D01*
X135425093Y-75914642D02*
X135310807Y-75876547D01*
X135310807Y-75876547D02*
X135253664Y-75838452D01*
X135253664Y-75838452D02*
X135225093Y-75800357D01*
X135225093Y-75800357D02*
X135196521Y-75724166D01*
X135196521Y-75724166D02*
X135196521Y-75647976D01*
X135196521Y-75647976D02*
X135225093Y-75571785D01*
X135225093Y-75571785D02*
X135253664Y-75533690D01*
X135253664Y-75533690D02*
X135310807Y-75495595D01*
X135310807Y-75495595D02*
X135453664Y-75495595D01*
X135453664Y-75495595D02*
X135539378Y-75533690D01*
X136139379Y-76219404D02*
X136110807Y-76257500D01*
X136110807Y-76257500D02*
X136025093Y-76295595D01*
X136025093Y-76295595D02*
X135967950Y-76295595D01*
X135967950Y-76295595D02*
X135882236Y-76257500D01*
X135882236Y-76257500D02*
X135825093Y-76181309D01*
X135825093Y-76181309D02*
X135796522Y-76105119D01*
X135796522Y-76105119D02*
X135767950Y-75952738D01*
X135767950Y-75952738D02*
X135767950Y-75838452D01*
X135767950Y-75838452D02*
X135796522Y-75686071D01*
X135796522Y-75686071D02*
X135825093Y-75609880D01*
X135825093Y-75609880D02*
X135882236Y-75533690D01*
X135882236Y-75533690D02*
X135967950Y-75495595D01*
X135967950Y-75495595D02*
X136025093Y-75495595D01*
X136025093Y-75495595D02*
X136110807Y-75533690D01*
X136110807Y-75533690D02*
X136139379Y-75571785D01*
X136682236Y-76295595D02*
X136396522Y-76295595D01*
X136396522Y-76295595D02*
X136396522Y-75495595D01*
X141267023Y-78165383D02*
X141267023Y-77784430D01*
X141495595Y-78241573D02*
X140695595Y-77974906D01*
X140695595Y-77974906D02*
X141495595Y-77708240D01*
X141495595Y-76984430D02*
X141114642Y-77251097D01*
X141495595Y-77441573D02*
X140695595Y-77441573D01*
X140695595Y-77441573D02*
X140695595Y-77136811D01*
X140695595Y-77136811D02*
X140733690Y-77060621D01*
X140733690Y-77060621D02*
X140771785Y-77022526D01*
X140771785Y-77022526D02*
X140847976Y-76984430D01*
X140847976Y-76984430D02*
X140962261Y-76984430D01*
X140962261Y-76984430D02*
X141038452Y-77022526D01*
X141038452Y-77022526D02*
X141076547Y-77060621D01*
X141076547Y-77060621D02*
X141114642Y-77136811D01*
X141114642Y-77136811D02*
X141114642Y-77441573D01*
X141076547Y-76641573D02*
X141076547Y-76374907D01*
X141495595Y-76260621D02*
X141495595Y-76641573D01*
X141495595Y-76641573D02*
X140695595Y-76641573D01*
X140695595Y-76641573D02*
X140695595Y-76260621D01*
X141076547Y-75651097D02*
X141076547Y-75917763D01*
X141495595Y-75917763D02*
X140695595Y-75917763D01*
X140695595Y-75917763D02*
X140695595Y-75536811D01*
X170467023Y-119765383D02*
X170467023Y-119384430D01*
X170695595Y-119841573D02*
X169895595Y-119574906D01*
X169895595Y-119574906D02*
X170695595Y-119308240D01*
X170695595Y-118622526D02*
X170695595Y-119079669D01*
X170695595Y-118851097D02*
X169895595Y-118851097D01*
X169895595Y-118851097D02*
X170009880Y-118927288D01*
X170009880Y-118927288D02*
X170086071Y-119003478D01*
X170086071Y-119003478D02*
X170124166Y-119079669D01*
X150695595Y-119470144D02*
X150314642Y-119736811D01*
X150695595Y-119927287D02*
X149895595Y-119927287D01*
X149895595Y-119927287D02*
X149895595Y-119622525D01*
X149895595Y-119622525D02*
X149933690Y-119546335D01*
X149933690Y-119546335D02*
X149971785Y-119508240D01*
X149971785Y-119508240D02*
X150047976Y-119470144D01*
X150047976Y-119470144D02*
X150162261Y-119470144D01*
X150162261Y-119470144D02*
X150238452Y-119508240D01*
X150238452Y-119508240D02*
X150276547Y-119546335D01*
X150276547Y-119546335D02*
X150314642Y-119622525D01*
X150314642Y-119622525D02*
X150314642Y-119927287D01*
X150276547Y-119127287D02*
X150276547Y-118860621D01*
X150695595Y-118746335D02*
X150695595Y-119127287D01*
X150695595Y-119127287D02*
X149895595Y-119127287D01*
X149895595Y-119127287D02*
X149895595Y-118746335D01*
X150657500Y-118441573D02*
X150695595Y-118327287D01*
X150695595Y-118327287D02*
X150695595Y-118136811D01*
X150695595Y-118136811D02*
X150657500Y-118060620D01*
X150657500Y-118060620D02*
X150619404Y-118022525D01*
X150619404Y-118022525D02*
X150543214Y-117984430D01*
X150543214Y-117984430D02*
X150467023Y-117984430D01*
X150467023Y-117984430D02*
X150390833Y-118022525D01*
X150390833Y-118022525D02*
X150352738Y-118060620D01*
X150352738Y-118060620D02*
X150314642Y-118136811D01*
X150314642Y-118136811D02*
X150276547Y-118289192D01*
X150276547Y-118289192D02*
X150238452Y-118365382D01*
X150238452Y-118365382D02*
X150200357Y-118403477D01*
X150200357Y-118403477D02*
X150124166Y-118441573D01*
X150124166Y-118441573D02*
X150047976Y-118441573D01*
X150047976Y-118441573D02*
X149971785Y-118403477D01*
X149971785Y-118403477D02*
X149933690Y-118365382D01*
X149933690Y-118365382D02*
X149895595Y-118289192D01*
X149895595Y-118289192D02*
X149895595Y-118098715D01*
X149895595Y-118098715D02*
X149933690Y-117984430D01*
X150276547Y-117641572D02*
X150276547Y-117374906D01*
X150695595Y-117260620D02*
X150695595Y-117641572D01*
X150695595Y-117641572D02*
X149895595Y-117641572D01*
X149895595Y-117641572D02*
X149895595Y-117260620D01*
X149895595Y-117032048D02*
X149895595Y-116574905D01*
X150695595Y-116803477D02*
X149895595Y-116803477D01*
X167990833Y-76641573D02*
X167952738Y-76603478D01*
X167952738Y-76603478D02*
X167914642Y-76527287D01*
X167914642Y-76527287D02*
X167990833Y-76374906D01*
X167990833Y-76374906D02*
X167952738Y-76298716D01*
X167952738Y-76298716D02*
X167914642Y-76260621D01*
X167495595Y-75574906D02*
X167495595Y-75955858D01*
X167495595Y-75955858D02*
X167876547Y-75993954D01*
X167876547Y-75993954D02*
X167838452Y-75955858D01*
X167838452Y-75955858D02*
X167800357Y-75879668D01*
X167800357Y-75879668D02*
X167800357Y-75689192D01*
X167800357Y-75689192D02*
X167838452Y-75613001D01*
X167838452Y-75613001D02*
X167876547Y-75574906D01*
X167876547Y-75574906D02*
X167952738Y-75536811D01*
X167952738Y-75536811D02*
X168143214Y-75536811D01*
X168143214Y-75536811D02*
X168219404Y-75574906D01*
X168219404Y-75574906D02*
X168257500Y-75613001D01*
X168257500Y-75613001D02*
X168295595Y-75689192D01*
X168295595Y-75689192D02*
X168295595Y-75879668D01*
X168295595Y-75879668D02*
X168257500Y-75955858D01*
X168257500Y-75955858D02*
X168219404Y-75993954D01*
G36*
X161016643Y-116985057D02*
G01*
X161073419Y-117041833D01*
X161105450Y-117169955D01*
X161105450Y-117421233D01*
X161073419Y-117549356D01*
X161016643Y-117606133D01*
X160962719Y-117633095D01*
X160839848Y-117633095D01*
X160785924Y-117606133D01*
X160729147Y-117549356D01*
X160697116Y-117421232D01*
X160697116Y-117169956D01*
X160729147Y-117041832D01*
X160785922Y-116985057D01*
X160839848Y-116958095D01*
X160962719Y-116958095D01*
X161016643Y-116985057D01*
G37*
G36*
X163492833Y-116985056D02*
G01*
X163516583Y-117008807D01*
X163543546Y-117062731D01*
X163543546Y-117147505D01*
X163516583Y-117201429D01*
X163492833Y-117225180D01*
X163438910Y-117252142D01*
X163211403Y-117252142D01*
X163211403Y-116958095D01*
X163438910Y-116958095D01*
X163492833Y-116985056D01*
G37*
G36*
X160216642Y-116985056D02*
G01*
X160240392Y-117008807D01*
X160267355Y-117062731D01*
X160267355Y-117147505D01*
X160240392Y-117201429D01*
X160216642Y-117225180D01*
X160162719Y-117252142D01*
X159935212Y-117252142D01*
X159935212Y-116958095D01*
X160162719Y-116958095D01*
X160216642Y-116985056D01*
G37*
G36*
X163757435Y-117846984D02*
G01*
X159721323Y-117846984D01*
X159721323Y-116895595D01*
X159810212Y-116895595D01*
X159810212Y-117695595D01*
X159814970Y-117719513D01*
X159848794Y-117753337D01*
X159896630Y-117753337D01*
X159930454Y-117719513D01*
X159935212Y-117695595D01*
X159935212Y-117377142D01*
X160177474Y-117377142D01*
X160180545Y-117376531D01*
X160181904Y-117376984D01*
X160191564Y-117374338D01*
X160201392Y-117372384D01*
X160202405Y-117371370D01*
X160205425Y-117370544D01*
X160281615Y-117332449D01*
X160289536Y-117326301D01*
X160297858Y-117320741D01*
X160335953Y-117282647D01*
X160341520Y-117274314D01*
X160347661Y-117266403D01*
X160385756Y-117190212D01*
X160386582Y-117187193D01*
X160387597Y-117186179D01*
X160389552Y-117176348D01*
X160392197Y-117166692D01*
X160391743Y-117165332D01*
X160392355Y-117162261D01*
X160572116Y-117162261D01*
X160572116Y-117428928D01*
X160573609Y-117436437D01*
X160573982Y-117444087D01*
X160612078Y-117596468D01*
X160614970Y-117602589D01*
X160614970Y-117605226D01*
X160619221Y-117611589D01*
X160622495Y-117618518D01*
X160624758Y-117619875D01*
X160628518Y-117625503D01*
X160704708Y-117701694D01*
X160713029Y-117707254D01*
X160720951Y-117713402D01*
X160797143Y-117751497D01*
X160800161Y-117752323D01*
X160801175Y-117753337D01*
X160810996Y-117755290D01*
X160820663Y-117757938D01*
X160822023Y-117757484D01*
X160825093Y-117758095D01*
X160977474Y-117758095D01*
X160980545Y-117757484D01*
X160981904Y-117757937D01*
X160991564Y-117755291D01*
X161001392Y-117753337D01*
X161002405Y-117752323D01*
X161005425Y-117751497D01*
X161081615Y-117713402D01*
X161089536Y-117707254D01*
X161097858Y-117701694D01*
X161174049Y-117625503D01*
X161177809Y-117619874D01*
X161180072Y-117618517D01*
X161183343Y-117611592D01*
X161187597Y-117605226D01*
X161187597Y-117602588D01*
X161190489Y-117596467D01*
X161228584Y-117444086D01*
X161228956Y-117436437D01*
X161230450Y-117428928D01*
X161230450Y-117162261D01*
X161228956Y-117154751D01*
X161228584Y-117147103D01*
X161190489Y-116994722D01*
X161187597Y-116988600D01*
X161187597Y-116985963D01*
X161183343Y-116979596D01*
X161180072Y-116972672D01*
X161177809Y-116971314D01*
X161174049Y-116965686D01*
X161097858Y-116889496D01*
X161092180Y-116885702D01*
X161372904Y-116885702D01*
X161373816Y-116910071D01*
X161564292Y-117710071D01*
X161574460Y-117732237D01*
X161582420Y-117737136D01*
X161587104Y-117745225D01*
X161602036Y-117749206D01*
X161615199Y-117757307D01*
X161624292Y-117755141D01*
X161633324Y-117757550D01*
X161646698Y-117749806D01*
X161661734Y-117746227D01*
X161666633Y-117738266D01*
X161674722Y-117733583D01*
X161685482Y-117711699D01*
X161777472Y-117366732D01*
X161869464Y-117711699D01*
X161880225Y-117733584D01*
X161888313Y-117738266D01*
X161893212Y-117746227D01*
X161908245Y-117749806D01*
X161921622Y-117757551D01*
X161930654Y-117755142D01*
X161939747Y-117757307D01*
X161952909Y-117749207D01*
X161967842Y-117745225D01*
X161972525Y-117737135D01*
X161980486Y-117732237D01*
X161990654Y-117710071D01*
X162181131Y-116910072D01*
X162181673Y-116895595D01*
X162362593Y-116895595D01*
X162362593Y-117695595D01*
X162367351Y-117719513D01*
X162401175Y-117753337D01*
X162425093Y-117758095D01*
X162806045Y-117758095D01*
X162829963Y-117753337D01*
X162863787Y-117719513D01*
X162863787Y-117671677D01*
X162829963Y-117637853D01*
X162806045Y-117633095D01*
X162487593Y-117633095D01*
X162487593Y-117339047D01*
X162691759Y-117339047D01*
X162715677Y-117334289D01*
X162749501Y-117300465D01*
X162749501Y-117252629D01*
X162715677Y-117218805D01*
X162691759Y-117214047D01*
X162487593Y-117214047D01*
X162487593Y-116958095D01*
X162806045Y-116958095D01*
X162829963Y-116953337D01*
X162863787Y-116919513D01*
X162863787Y-116895595D01*
X163086403Y-116895595D01*
X163086403Y-117695595D01*
X163091161Y-117719513D01*
X163124985Y-117753337D01*
X163172821Y-117753337D01*
X163206645Y-117719513D01*
X163211403Y-117695595D01*
X163211403Y-117377142D01*
X163306838Y-117377142D01*
X163554844Y-117731436D01*
X163572458Y-117748302D01*
X163619564Y-117756615D01*
X163658753Y-117729183D01*
X163667066Y-117682076D01*
X163657248Y-117659753D01*
X163459113Y-117376705D01*
X163467755Y-117374338D01*
X163477583Y-117372384D01*
X163478596Y-117371370D01*
X163481616Y-117370544D01*
X163557806Y-117332449D01*
X163565727Y-117326301D01*
X163574049Y-117320741D01*
X163612144Y-117282647D01*
X163617711Y-117274314D01*
X163623852Y-117266403D01*
X163661947Y-117190212D01*
X163662773Y-117187193D01*
X163663788Y-117186179D01*
X163665743Y-117176348D01*
X163668388Y-117166692D01*
X163667934Y-117165332D01*
X163668546Y-117162261D01*
X163668546Y-117047976D01*
X163667934Y-117044904D01*
X163668388Y-117043545D01*
X163665743Y-117033888D01*
X163663788Y-117024058D01*
X163662773Y-117023043D01*
X163661947Y-117020025D01*
X163623852Y-116943834D01*
X163617711Y-116935922D01*
X163612144Y-116927590D01*
X163574049Y-116889496D01*
X163565727Y-116883935D01*
X163557806Y-116877788D01*
X163481616Y-116839693D01*
X163478596Y-116838866D01*
X163477583Y-116837853D01*
X163467755Y-116835898D01*
X163458095Y-116833253D01*
X163456736Y-116833705D01*
X163453665Y-116833095D01*
X163148903Y-116833095D01*
X163124985Y-116837853D01*
X163091161Y-116871677D01*
X163086403Y-116895595D01*
X162863787Y-116895595D01*
X162863787Y-116871677D01*
X162829963Y-116837853D01*
X162806045Y-116833095D01*
X162425093Y-116833095D01*
X162401175Y-116837853D01*
X162367351Y-116871677D01*
X162362593Y-116895595D01*
X162181673Y-116895595D01*
X162182043Y-116885702D01*
X162156973Y-116844964D01*
X162110438Y-116833884D01*
X162069699Y-116858953D01*
X162059531Y-116881119D01*
X161926423Y-117440166D01*
X161837863Y-117108062D01*
X161827103Y-117086178D01*
X161819729Y-117081909D01*
X161815461Y-117074536D01*
X161799762Y-117070349D01*
X161785705Y-117062211D01*
X161777474Y-117064405D01*
X161769241Y-117062210D01*
X161755179Y-117070350D01*
X161739485Y-117074536D01*
X161735216Y-117081908D01*
X161727844Y-117086177D01*
X161717083Y-117108062D01*
X161628522Y-117440165D01*
X161495416Y-116881119D01*
X161485248Y-116858953D01*
X161444509Y-116833883D01*
X161397974Y-116844963D01*
X161372904Y-116885702D01*
X161092180Y-116885702D01*
X161089536Y-116883935D01*
X161081615Y-116877788D01*
X161005425Y-116839693D01*
X161002405Y-116838866D01*
X161001392Y-116837853D01*
X160991564Y-116835898D01*
X160981904Y-116833253D01*
X160980545Y-116833705D01*
X160977474Y-116833095D01*
X160825093Y-116833095D01*
X160822023Y-116833705D01*
X160820663Y-116833252D01*
X160810996Y-116835899D01*
X160801175Y-116837853D01*
X160800161Y-116838866D01*
X160797143Y-116839693D01*
X160720951Y-116877788D01*
X160713029Y-116883935D01*
X160704708Y-116889496D01*
X160628518Y-116965686D01*
X160624758Y-116971313D01*
X160622495Y-116972671D01*
X160619221Y-116979599D01*
X160614970Y-116985963D01*
X160614970Y-116988599D01*
X160612078Y-116994721D01*
X160573982Y-117147102D01*
X160573609Y-117154751D01*
X160572116Y-117162261D01*
X160392355Y-117162261D01*
X160392355Y-117047976D01*
X160391743Y-117044904D01*
X160392197Y-117043545D01*
X160389552Y-117033888D01*
X160387597Y-117024058D01*
X160386582Y-117023043D01*
X160385756Y-117020025D01*
X160347661Y-116943834D01*
X160341520Y-116935922D01*
X160335953Y-116927590D01*
X160297858Y-116889496D01*
X160289536Y-116883935D01*
X160281615Y-116877788D01*
X160205425Y-116839693D01*
X160202405Y-116838866D01*
X160201392Y-116837853D01*
X160191564Y-116835898D01*
X160181904Y-116833253D01*
X160180545Y-116833705D01*
X160177474Y-116833095D01*
X159872712Y-116833095D01*
X159848794Y-116837853D01*
X159814970Y-116871677D01*
X159810212Y-116895595D01*
X159721323Y-116895595D01*
X159721323Y-116744206D01*
X163757435Y-116744206D01*
X163757435Y-117846984D01*
G37*
X177268255Y-75182369D02*
X177553969Y-75182369D01*
X177411112Y-75982369D02*
X177411112Y-75182369D01*
X177673016Y-75182369D02*
X178006349Y-75982369D01*
X178006349Y-75182369D02*
X177673016Y-75982369D01*
X178553968Y-75144274D02*
X178125397Y-76172845D01*
X178982540Y-75982369D02*
X178696826Y-75982369D01*
X178839683Y-75982369D02*
X178839683Y-75182369D01*
X178839683Y-75182369D02*
X178792064Y-75296654D01*
X178792064Y-75296654D02*
X178744445Y-75372845D01*
X178744445Y-75372845D02*
X178696826Y-75410940D01*
D13*
X164198942Y-116642928D02*
X164960846Y-116642928D01*
X164960847Y-116642928D02*
X165722751Y-116642928D01*
X165722752Y-116642928D02*
X166484656Y-116642928D01*
X166484657Y-116642928D02*
X167246561Y-116642928D01*
X167246562Y-116642928D02*
X168008466Y-116642928D01*
X168008467Y-116642928D02*
X168770371Y-116642928D01*
X168770372Y-116642928D02*
X169532276Y-116642928D01*
X169532277Y-116642928D02*
X170294181Y-116642928D01*
X170294182Y-116642928D02*
X171056086Y-116642928D01*
X171056087Y-116642928D02*
X171817991Y-116642928D01*
X171817992Y-116642928D02*
X172579896Y-116642928D01*
X172579897Y-116642928D02*
X173341801Y-116642928D01*
X173341802Y-116642928D02*
X174103706Y-116642928D01*
X174103707Y-116642928D02*
X174865611Y-116642928D01*
X174865612Y-116642928D02*
X175627516Y-116642928D01*
D10*
G36*
X170673785Y-116985057D02*
G01*
X170730561Y-117041833D01*
X170762592Y-117169955D01*
X170762592Y-117421233D01*
X170730561Y-117549356D01*
X170673785Y-117606133D01*
X170619861Y-117633095D01*
X170496990Y-117633095D01*
X170443066Y-117606133D01*
X170386289Y-117549356D01*
X170354258Y-117421232D01*
X170354258Y-117169956D01*
X170386289Y-117041832D01*
X170443064Y-116985057D01*
X170496990Y-116958095D01*
X170619861Y-116958095D01*
X170673785Y-116985057D01*
G37*
G36*
X167728854Y-117404523D02*
G01*
X167521331Y-117404523D01*
X167625092Y-117093238D01*
X167728854Y-117404523D01*
G37*
G36*
X169252663Y-117404523D02*
G01*
X169045140Y-117404523D01*
X169148901Y-117093238D01*
X169252663Y-117404523D01*
G37*
G36*
X173566957Y-117846984D02*
G01*
X167207195Y-117846984D01*
X167207195Y-117700026D01*
X167296084Y-117700026D01*
X167317476Y-117742810D01*
X167362857Y-117757937D01*
X167405641Y-117736545D01*
X167417719Y-117715359D01*
X167479664Y-117529523D01*
X167770521Y-117529523D01*
X167832466Y-117715359D01*
X167844544Y-117736545D01*
X167887328Y-117757938D01*
X167932709Y-117742811D01*
X167954101Y-117700026D01*
X167951052Y-117675831D01*
X167690974Y-116895595D01*
X168095926Y-116895595D01*
X168095926Y-117695595D01*
X168100684Y-117719513D01*
X168134508Y-117753337D01*
X168182344Y-117753337D01*
X168216168Y-117719513D01*
X168220926Y-117695595D01*
X168220926Y-117130942D01*
X168561304Y-117726604D01*
X168577302Y-117745010D01*
X168585582Y-117747268D01*
X168591651Y-117753337D01*
X168607834Y-117753337D01*
X168623450Y-117757596D01*
X168630903Y-117753337D01*
X168639487Y-117753337D01*
X168650932Y-117741891D01*
X168664984Y-117733862D01*
X168667242Y-117725581D01*
X168673311Y-117719513D01*
X168677188Y-117700026D01*
X168819893Y-117700026D01*
X168841285Y-117742810D01*
X168886666Y-117757937D01*
X168929450Y-117736545D01*
X168941528Y-117715359D01*
X169003473Y-117529523D01*
X169294330Y-117529523D01*
X169356275Y-117715359D01*
X169368353Y-117736545D01*
X169411137Y-117757938D01*
X169456518Y-117742811D01*
X169477910Y-117700026D01*
X169474861Y-117675831D01*
X169214783Y-116895595D01*
X169619735Y-116895595D01*
X169619735Y-117695595D01*
X169624493Y-117719513D01*
X169658317Y-117753337D01*
X169682235Y-117758095D01*
X170063187Y-117758095D01*
X170087105Y-117753337D01*
X170120929Y-117719513D01*
X170120929Y-117671677D01*
X170087105Y-117637853D01*
X170063187Y-117633095D01*
X169744735Y-117633095D01*
X169744735Y-117162261D01*
X170229258Y-117162261D01*
X170229258Y-117428928D01*
X170230751Y-117436437D01*
X170231124Y-117444087D01*
X170269220Y-117596468D01*
X170272112Y-117602589D01*
X170272112Y-117605226D01*
X170276363Y-117611589D01*
X170279637Y-117618518D01*
X170281900Y-117619875D01*
X170285660Y-117625503D01*
X170361850Y-117701694D01*
X170370171Y-117707254D01*
X170378093Y-117713402D01*
X170454285Y-117751497D01*
X170457303Y-117752323D01*
X170458317Y-117753337D01*
X170468138Y-117755290D01*
X170477805Y-117757938D01*
X170479165Y-117757484D01*
X170482235Y-117758095D01*
X170634616Y-117758095D01*
X170637687Y-117757484D01*
X170639046Y-117757937D01*
X170648706Y-117755291D01*
X170658534Y-117753337D01*
X170659547Y-117752323D01*
X170662567Y-117751497D01*
X170738757Y-117713402D01*
X170746678Y-117707254D01*
X170755000Y-117701694D01*
X170831191Y-117625503D01*
X170834951Y-117619874D01*
X170837214Y-117618517D01*
X170840485Y-117611592D01*
X170844739Y-117605226D01*
X170844739Y-117602588D01*
X170847631Y-117596467D01*
X170885726Y-117444086D01*
X170886098Y-117436437D01*
X170887592Y-117428928D01*
X170887592Y-117238452D01*
X171067353Y-117238452D01*
X171067353Y-117352738D01*
X171068846Y-117360247D01*
X171069219Y-117367897D01*
X171107315Y-117520278D01*
X171110239Y-117526468D01*
X171112047Y-117533070D01*
X171150142Y-117609260D01*
X171156289Y-117617181D01*
X171161850Y-117625503D01*
X171238040Y-117701694D01*
X171240643Y-117703433D01*
X171241284Y-117704715D01*
X171249988Y-117709677D01*
X171258317Y-117715242D01*
X171259749Y-117715242D01*
X171262470Y-117716793D01*
X171376756Y-117754888D01*
X171386694Y-117756140D01*
X171396520Y-117758095D01*
X171472711Y-117758095D01*
X171482536Y-117756140D01*
X171492475Y-117754888D01*
X171606760Y-117716793D01*
X171609481Y-117715242D01*
X171610913Y-117715242D01*
X171619241Y-117709677D01*
X171627946Y-117704715D01*
X171628586Y-117703433D01*
X171631190Y-117701694D01*
X171669286Y-117663598D01*
X171682831Y-117643324D01*
X171682834Y-117643322D01*
X171687592Y-117619404D01*
X171687592Y-117352738D01*
X171682834Y-117328820D01*
X171649010Y-117294996D01*
X171625092Y-117290238D01*
X171472711Y-117290238D01*
X171448793Y-117294996D01*
X171414969Y-117328820D01*
X171414969Y-117376656D01*
X171448793Y-117410480D01*
X171472711Y-117415238D01*
X171562592Y-117415238D01*
X171562592Y-117593516D01*
X171553235Y-117602872D01*
X171462568Y-117633095D01*
X171406663Y-117633095D01*
X171315995Y-117602872D01*
X171257411Y-117544288D01*
X171226918Y-117483303D01*
X171192353Y-117345042D01*
X171192353Y-117246147D01*
X171226919Y-117107885D01*
X171257410Y-117046901D01*
X171315994Y-116988317D01*
X171406663Y-116958095D01*
X171496051Y-116958095D01*
X171559045Y-116989592D01*
X171582566Y-116996032D01*
X171627946Y-116980906D01*
X171649338Y-116938120D01*
X171635164Y-116895595D01*
X172514973Y-116895595D01*
X172514973Y-117695595D01*
X172519731Y-117719513D01*
X172553555Y-117753337D01*
X172601391Y-117753337D01*
X172635215Y-117719513D01*
X172639973Y-117695595D01*
X172639973Y-116895595D01*
X172895925Y-116895595D01*
X172895925Y-117695595D01*
X172900683Y-117719513D01*
X172934507Y-117753337D01*
X172982343Y-117753337D01*
X173016167Y-117719513D01*
X173020925Y-117695595D01*
X173020925Y-117130942D01*
X173361303Y-117726604D01*
X173377301Y-117745010D01*
X173385581Y-117747268D01*
X173391650Y-117753337D01*
X173407833Y-117753337D01*
X173423449Y-117757596D01*
X173430902Y-117753337D01*
X173439486Y-117753337D01*
X173450931Y-117741891D01*
X173464983Y-117733862D01*
X173467241Y-117725581D01*
X173473310Y-117719513D01*
X173478068Y-117695595D01*
X173478068Y-116895595D01*
X173473310Y-116871677D01*
X173439486Y-116837853D01*
X173391650Y-116837853D01*
X173357826Y-116871677D01*
X173353068Y-116895595D01*
X173353068Y-117460247D01*
X173012690Y-116864586D01*
X172996692Y-116846180D01*
X172988411Y-116843921D01*
X172982343Y-116837853D01*
X172966160Y-116837853D01*
X172950544Y-116833594D01*
X172943091Y-116837853D01*
X172934507Y-116837853D01*
X172923061Y-116849298D01*
X172909010Y-116857328D01*
X172906751Y-116865608D01*
X172900683Y-116871677D01*
X172895925Y-116895595D01*
X172639973Y-116895595D01*
X172635215Y-116871677D01*
X172601391Y-116837853D01*
X172553555Y-116837853D01*
X172519731Y-116871677D01*
X172514973Y-116895595D01*
X171635164Y-116895595D01*
X171634212Y-116892740D01*
X171614947Y-116877788D01*
X171538757Y-116839693D01*
X171535737Y-116838866D01*
X171534724Y-116837853D01*
X171524896Y-116835898D01*
X171515236Y-116833253D01*
X171513877Y-116833705D01*
X171510806Y-116833095D01*
X171396520Y-116833095D01*
X171386694Y-116835049D01*
X171376756Y-116836302D01*
X171262470Y-116874397D01*
X171259749Y-116875948D01*
X171258317Y-116875948D01*
X171249988Y-116881512D01*
X171241284Y-116886475D01*
X171240643Y-116887756D01*
X171238040Y-116889496D01*
X171161850Y-116965686D01*
X171156289Y-116974007D01*
X171150142Y-116981929D01*
X171112047Y-117058120D01*
X171110239Y-117064721D01*
X171107315Y-117070912D01*
X171069219Y-117223293D01*
X171068846Y-117230942D01*
X171067353Y-117238452D01*
X170887592Y-117238452D01*
X170887592Y-117162261D01*
X170886098Y-117154751D01*
X170885726Y-117147103D01*
X170847631Y-116994722D01*
X170844739Y-116988600D01*
X170844739Y-116985963D01*
X170840485Y-116979596D01*
X170837214Y-116972672D01*
X170834951Y-116971314D01*
X170831191Y-116965686D01*
X170755000Y-116889496D01*
X170746678Y-116883935D01*
X170738757Y-116877788D01*
X170662567Y-116839693D01*
X170659547Y-116838866D01*
X170658534Y-116837853D01*
X170648706Y-116835898D01*
X170639046Y-116833253D01*
X170637687Y-116833705D01*
X170634616Y-116833095D01*
X170482235Y-116833095D01*
X170479165Y-116833705D01*
X170477805Y-116833252D01*
X170468138Y-116835899D01*
X170458317Y-116837853D01*
X170457303Y-116838866D01*
X170454285Y-116839693D01*
X170378093Y-116877788D01*
X170370171Y-116883935D01*
X170361850Y-116889496D01*
X170285660Y-116965686D01*
X170281900Y-116971313D01*
X170279637Y-116972671D01*
X170276363Y-116979599D01*
X170272112Y-116985963D01*
X170272112Y-116988599D01*
X170269220Y-116994721D01*
X170231124Y-117147102D01*
X170230751Y-117154751D01*
X170229258Y-117162261D01*
X169744735Y-117162261D01*
X169744735Y-116895595D01*
X169739977Y-116871677D01*
X169706153Y-116837853D01*
X169658317Y-116837853D01*
X169624493Y-116871677D01*
X169619735Y-116895595D01*
X169214783Y-116895595D01*
X169208195Y-116875831D01*
X169196117Y-116854645D01*
X169191940Y-116852556D01*
X169189852Y-116848380D01*
X169171057Y-116842115D01*
X169153333Y-116833253D01*
X169148902Y-116834730D01*
X169144471Y-116833253D01*
X169126747Y-116842115D01*
X169107952Y-116848380D01*
X169105863Y-116852556D01*
X169101687Y-116854645D01*
X169089609Y-116875831D01*
X168822942Y-117675831D01*
X168819893Y-117700026D01*
X168677188Y-117700026D01*
X168678069Y-117695595D01*
X168678069Y-116895595D01*
X168673311Y-116871677D01*
X168639487Y-116837853D01*
X168591651Y-116837853D01*
X168557827Y-116871677D01*
X168553069Y-116895595D01*
X168553069Y-117460247D01*
X168212691Y-116864586D01*
X168196693Y-116846180D01*
X168188412Y-116843921D01*
X168182344Y-116837853D01*
X168166161Y-116837853D01*
X168150545Y-116833594D01*
X168143092Y-116837853D01*
X168134508Y-116837853D01*
X168123062Y-116849298D01*
X168109011Y-116857328D01*
X168106752Y-116865608D01*
X168100684Y-116871677D01*
X168095926Y-116895595D01*
X167690974Y-116895595D01*
X167684386Y-116875831D01*
X167672308Y-116854645D01*
X167668131Y-116852556D01*
X167666043Y-116848380D01*
X167647248Y-116842115D01*
X167629524Y-116833253D01*
X167625093Y-116834730D01*
X167620662Y-116833253D01*
X167602938Y-116842115D01*
X167584143Y-116848380D01*
X167582054Y-116852556D01*
X167577878Y-116854645D01*
X167565800Y-116875831D01*
X167299133Y-117675831D01*
X167296084Y-117700026D01*
X167207195Y-117700026D01*
X167207195Y-116744206D01*
X173566957Y-116744206D01*
X173566957Y-117846984D01*
G37*
G36*
X160320113Y-118990697D02*
G01*
X160396781Y-119052031D01*
X160434500Y-119112382D01*
X160476878Y-119247989D01*
X160476878Y-119343200D01*
X160434500Y-119478806D01*
X160396781Y-119539157D01*
X160320111Y-119600492D01*
X160197854Y-119633095D01*
X160030450Y-119633095D01*
X160030450Y-118958095D01*
X160197854Y-118958095D01*
X160320113Y-118990697D01*
G37*
G36*
X160690767Y-119846984D02*
G01*
X157721323Y-119846984D01*
X157721323Y-119238452D01*
X157810212Y-119238452D01*
X157810212Y-119352738D01*
X157812053Y-119361993D01*
X157813057Y-119371380D01*
X157860676Y-119523761D01*
X157864499Y-119530773D01*
X157867331Y-119538244D01*
X157914950Y-119614434D01*
X157922144Y-119622080D01*
X157928906Y-119630113D01*
X158024145Y-119706304D01*
X158024969Y-119706731D01*
X158025200Y-119707130D01*
X158035564Y-119712225D01*
X158045794Y-119717531D01*
X158046250Y-119717480D01*
X158047084Y-119717890D01*
X158189941Y-119755985D01*
X158198064Y-119756507D01*
X158206045Y-119758095D01*
X158301283Y-119758095D01*
X158309263Y-119756507D01*
X158317387Y-119755985D01*
X158460244Y-119717890D01*
X158461079Y-119717479D01*
X158461535Y-119717530D01*
X158471763Y-119712226D01*
X158482128Y-119707130D01*
X158482358Y-119706732D01*
X158483184Y-119706304D01*
X158530803Y-119668208D01*
X158546508Y-119649551D01*
X158546912Y-119645910D01*
X158549501Y-119643322D01*
X158554259Y-119619404D01*
X158554259Y-119352738D01*
X158549501Y-119328820D01*
X158515677Y-119294996D01*
X158491759Y-119290238D01*
X158301283Y-119290238D01*
X158277365Y-119294996D01*
X158243541Y-119328820D01*
X158243541Y-119376656D01*
X158277365Y-119410480D01*
X158301283Y-119415238D01*
X158429259Y-119415238D01*
X158429259Y-119589365D01*
X158415349Y-119600493D01*
X158293092Y-119633095D01*
X158214236Y-119633095D01*
X158091978Y-119600493D01*
X158015307Y-119539155D01*
X157977589Y-119478806D01*
X157935212Y-119343200D01*
X157935212Y-119247989D01*
X157977589Y-119112382D01*
X158015308Y-119052031D01*
X158091976Y-118990697D01*
X158214236Y-118958095D01*
X158336865Y-118958095D01*
X158420928Y-118991720D01*
X158444902Y-118996185D01*
X158488869Y-118977342D01*
X158506635Y-118932927D01*
X158490635Y-118895595D01*
X158857831Y-118895595D01*
X158857831Y-119695595D01*
X158862589Y-119719513D01*
X158896413Y-119753337D01*
X158944249Y-119753337D01*
X158978073Y-119719513D01*
X158982831Y-119695595D01*
X158982831Y-119090623D01*
X159440901Y-119731923D01*
X159458675Y-119748620D01*
X159464013Y-119749509D01*
X159467841Y-119753337D01*
X159486976Y-119753337D01*
X159505858Y-119756484D01*
X159510264Y-119753337D01*
X159515677Y-119753337D01*
X159529209Y-119739804D01*
X159544784Y-119728680D01*
X159545674Y-119723340D01*
X159549501Y-119719513D01*
X159554259Y-119695595D01*
X159554259Y-118895595D01*
X159905450Y-118895595D01*
X159905450Y-119695595D01*
X159910208Y-119719513D01*
X159944032Y-119753337D01*
X159967950Y-119758095D01*
X160206045Y-119758095D01*
X160214025Y-119756507D01*
X160222149Y-119755985D01*
X160365006Y-119717890D01*
X160365841Y-119717479D01*
X160366297Y-119717530D01*
X160376525Y-119712226D01*
X160386890Y-119707130D01*
X160387120Y-119706732D01*
X160387946Y-119706304D01*
X160483184Y-119630113D01*
X160489945Y-119622080D01*
X160497140Y-119614434D01*
X160544759Y-119538244D01*
X160547590Y-119530771D01*
X160551414Y-119523761D01*
X160599033Y-119371380D01*
X160600036Y-119361993D01*
X160601878Y-119352738D01*
X160601878Y-119238452D01*
X160600036Y-119229196D01*
X160599033Y-119219810D01*
X160551414Y-119067429D01*
X160547590Y-119060417D01*
X160544759Y-119052946D01*
X160497140Y-118976755D01*
X160489943Y-118969106D01*
X160483183Y-118961076D01*
X160387945Y-118884886D01*
X160387120Y-118884458D01*
X160386890Y-118884060D01*
X160376506Y-118878954D01*
X160366296Y-118873660D01*
X160365840Y-118873710D01*
X160365006Y-118873300D01*
X160222149Y-118835205D01*
X160214025Y-118834682D01*
X160206045Y-118833095D01*
X159967950Y-118833095D01*
X159944032Y-118837853D01*
X159910208Y-118871677D01*
X159905450Y-118895595D01*
X159554259Y-118895595D01*
X159549501Y-118871677D01*
X159515677Y-118837853D01*
X159467841Y-118837853D01*
X159434017Y-118871677D01*
X159429259Y-118895595D01*
X159429259Y-119500565D01*
X158971189Y-118859268D01*
X158953416Y-118842570D01*
X158948076Y-118841680D01*
X158944249Y-118837853D01*
X158925114Y-118837853D01*
X158906232Y-118834706D01*
X158901826Y-118837853D01*
X158896413Y-118837853D01*
X158882880Y-118851385D01*
X158867306Y-118862510D01*
X158866416Y-118867850D01*
X158862589Y-118871677D01*
X158857831Y-118895595D01*
X158490635Y-118895595D01*
X158487792Y-118888961D01*
X158467351Y-118875660D01*
X158372114Y-118837565D01*
X158360489Y-118835400D01*
X158348902Y-118833095D01*
X158206045Y-118833095D01*
X158198064Y-118834682D01*
X158189941Y-118835205D01*
X158047084Y-118873300D01*
X158046249Y-118873710D01*
X158045794Y-118873660D01*
X158035583Y-118878954D01*
X158025200Y-118884060D01*
X158024969Y-118884458D01*
X158024145Y-118884886D01*
X157928907Y-118961076D01*
X157922150Y-118969102D01*
X157914950Y-118976755D01*
X157867331Y-119052946D01*
X157864499Y-119060416D01*
X157860676Y-119067429D01*
X157813057Y-119219810D01*
X157812053Y-119229196D01*
X157810212Y-119238452D01*
X157721323Y-119238452D01*
X157721323Y-118744206D01*
X160690767Y-118744206D01*
X160690767Y-119846984D01*
G37*
G36*
X176547752Y-92246984D02*
G01*
X173849889Y-92246984D01*
X173849889Y-92043320D01*
X173938778Y-92043320D01*
X173952326Y-92063598D01*
X173990421Y-92101693D01*
X173998744Y-92107254D01*
X174006665Y-92113402D01*
X174082857Y-92151497D01*
X174085875Y-92152323D01*
X174086889Y-92153337D01*
X174096710Y-92155290D01*
X174106377Y-92157938D01*
X174107737Y-92157484D01*
X174110807Y-92158095D01*
X174339378Y-92158095D01*
X174342449Y-92157484D01*
X174343808Y-92157937D01*
X174353468Y-92155291D01*
X174363296Y-92153337D01*
X174364309Y-92152323D01*
X174367329Y-92151497D01*
X174443520Y-92113402D01*
X174451435Y-92107258D01*
X174459764Y-92101694D01*
X174497859Y-92063598D01*
X174503425Y-92055266D01*
X174509566Y-92047355D01*
X174516452Y-92033584D01*
X174738778Y-92033584D01*
X174738779Y-92081418D01*
X174752327Y-92101695D01*
X174790423Y-92139790D01*
X174810700Y-92153338D01*
X174858535Y-92153337D01*
X174858537Y-92153334D01*
X174878811Y-92139789D01*
X174916906Y-92101695D01*
X174930454Y-92081418D01*
X174930454Y-92060354D01*
X174930455Y-92043320D01*
X175081635Y-92043320D01*
X175095183Y-92063598D01*
X175133278Y-92101693D01*
X175141601Y-92107254D01*
X175149522Y-92113402D01*
X175225714Y-92151497D01*
X175228732Y-92152323D01*
X175229746Y-92153337D01*
X175239567Y-92155290D01*
X175249234Y-92157938D01*
X175250594Y-92157484D01*
X175253664Y-92158095D01*
X175482235Y-92158095D01*
X175485306Y-92157484D01*
X175486665Y-92157937D01*
X175496325Y-92155291D01*
X175506153Y-92153337D01*
X175507166Y-92152323D01*
X175510186Y-92151497D01*
X175586377Y-92113402D01*
X175594292Y-92107258D01*
X175602621Y-92101694D01*
X175640716Y-92063598D01*
X175646282Y-92055266D01*
X175652423Y-92047355D01*
X175690518Y-91971165D01*
X175691344Y-91968145D01*
X175692358Y-91967132D01*
X175694312Y-91957304D01*
X175696958Y-91947644D01*
X175696505Y-91946285D01*
X175697116Y-91943214D01*
X175697116Y-91752738D01*
X175696505Y-91749668D01*
X175696959Y-91748308D01*
X175694311Y-91738641D01*
X175692358Y-91728820D01*
X175691344Y-91727806D01*
X175690518Y-91724788D01*
X175652423Y-91648596D01*
X175646279Y-91640680D01*
X175640715Y-91632352D01*
X175602620Y-91594258D01*
X175594298Y-91588697D01*
X175586377Y-91582550D01*
X175510186Y-91544455D01*
X175507166Y-91543628D01*
X175506153Y-91542615D01*
X175502208Y-91541830D01*
X175681652Y-91336751D01*
X175690521Y-91321349D01*
X175692358Y-91319513D01*
X175692358Y-91318160D01*
X175693822Y-91315618D01*
X175692358Y-91293658D01*
X175692358Y-91291164D01*
X175800846Y-91291164D01*
X175803895Y-91315359D01*
X176070562Y-92115359D01*
X176082640Y-92136545D01*
X176086816Y-92138633D01*
X176088905Y-92142810D01*
X176107700Y-92149075D01*
X176125424Y-92157937D01*
X176129855Y-92156460D01*
X176134286Y-92157937D01*
X176152010Y-92149075D01*
X176170805Y-92142810D01*
X176172893Y-92138633D01*
X176177070Y-92136545D01*
X176189148Y-92115359D01*
X176455814Y-91315359D01*
X176458863Y-91291164D01*
X176437471Y-91248379D01*
X176392090Y-91233252D01*
X176349306Y-91254645D01*
X176337228Y-91275831D01*
X176129854Y-91897951D01*
X175922481Y-91275831D01*
X175910403Y-91254645D01*
X175867619Y-91233253D01*
X175822238Y-91248380D01*
X175800846Y-91291164D01*
X175692358Y-91291164D01*
X175692358Y-91271677D01*
X175690787Y-91270106D01*
X175690640Y-91267889D01*
X175674083Y-91253402D01*
X175658534Y-91237853D01*
X175655658Y-91237280D01*
X175654639Y-91236389D01*
X175652044Y-91236561D01*
X175634616Y-91233095D01*
X175139378Y-91233095D01*
X175115460Y-91237853D01*
X175081636Y-91271677D01*
X175081636Y-91319513D01*
X175115460Y-91353337D01*
X175139378Y-91358095D01*
X175496881Y-91358095D01*
X175320914Y-91559201D01*
X175312046Y-91574600D01*
X175310208Y-91576439D01*
X175310208Y-91577793D01*
X175308745Y-91580334D01*
X175310208Y-91602278D01*
X175310208Y-91624275D01*
X175311779Y-91625846D01*
X175311927Y-91628062D01*
X175328471Y-91642538D01*
X175344032Y-91658099D01*
X175346909Y-91658671D01*
X175347927Y-91659562D01*
X175350518Y-91659389D01*
X175367950Y-91662857D01*
X175467480Y-91662857D01*
X175521403Y-91689818D01*
X175545154Y-91713569D01*
X175572116Y-91767492D01*
X175572116Y-91928459D01*
X175545154Y-91982383D01*
X175521402Y-92006134D01*
X175467480Y-92033095D01*
X175268419Y-92033095D01*
X175214496Y-92006134D01*
X175183573Y-91975210D01*
X175163296Y-91961662D01*
X175115462Y-91961661D01*
X175081636Y-91995486D01*
X175081635Y-92043320D01*
X174930455Y-92043320D01*
X174930455Y-92033583D01*
X174916907Y-92013306D01*
X174878812Y-91975210D01*
X174858535Y-91961662D01*
X174810701Y-91961661D01*
X174810700Y-91961662D01*
X174810699Y-91961662D01*
X174810696Y-91961664D01*
X174790423Y-91975210D01*
X174752327Y-92013306D01*
X174738779Y-92033582D01*
X174738778Y-92033584D01*
X174516452Y-92033584D01*
X174547661Y-91971165D01*
X174548487Y-91968145D01*
X174549501Y-91967132D01*
X174551455Y-91957304D01*
X174554101Y-91947644D01*
X174553648Y-91946285D01*
X174554259Y-91943214D01*
X174554259Y-91752738D01*
X174553648Y-91749668D01*
X174554102Y-91748308D01*
X174551454Y-91738641D01*
X174549501Y-91728820D01*
X174548487Y-91727806D01*
X174547661Y-91724788D01*
X174509566Y-91648596D01*
X174503422Y-91640680D01*
X174497858Y-91632352D01*
X174459763Y-91594258D01*
X174451441Y-91588697D01*
X174443520Y-91582550D01*
X174367329Y-91544455D01*
X174364309Y-91543628D01*
X174363296Y-91542615D01*
X174359351Y-91541830D01*
X174538795Y-91336751D01*
X174547664Y-91321349D01*
X174549501Y-91319513D01*
X174549501Y-91318160D01*
X174550965Y-91315618D01*
X174549501Y-91293658D01*
X174549501Y-91271677D01*
X174547930Y-91270106D01*
X174547783Y-91267889D01*
X174531226Y-91253402D01*
X174515677Y-91237853D01*
X174512801Y-91237280D01*
X174511782Y-91236389D01*
X174509187Y-91236561D01*
X174491759Y-91233095D01*
X173996521Y-91233095D01*
X173972603Y-91237853D01*
X173938779Y-91271677D01*
X173938779Y-91319513D01*
X173972603Y-91353337D01*
X173996521Y-91358095D01*
X174354024Y-91358095D01*
X174178057Y-91559201D01*
X174169189Y-91574600D01*
X174167351Y-91576439D01*
X174167351Y-91577793D01*
X174165888Y-91580334D01*
X174167351Y-91602278D01*
X174167351Y-91624275D01*
X174168922Y-91625846D01*
X174169070Y-91628062D01*
X174185614Y-91642538D01*
X174201175Y-91658099D01*
X174204052Y-91658671D01*
X174205070Y-91659562D01*
X174207661Y-91659389D01*
X174225093Y-91662857D01*
X174324623Y-91662857D01*
X174378546Y-91689818D01*
X174402297Y-91713569D01*
X174429259Y-91767492D01*
X174429259Y-91928459D01*
X174402297Y-91982383D01*
X174378545Y-92006134D01*
X174324623Y-92033095D01*
X174125562Y-92033095D01*
X174071639Y-92006134D01*
X174040716Y-91975210D01*
X174020439Y-91961662D01*
X173972605Y-91961661D01*
X173938779Y-91995486D01*
X173938778Y-92043320D01*
X173849889Y-92043320D01*
X173849889Y-91144206D01*
X176547752Y-91144206D01*
X176547752Y-92246984D01*
G37*
G36*
X153743713Y-78188317D02*
G01*
X153802296Y-78246900D01*
X153832789Y-78307885D01*
X153867355Y-78446147D01*
X153867355Y-78545042D01*
X153832789Y-78683303D01*
X153802296Y-78744288D01*
X153743713Y-78802872D01*
X153653045Y-78833095D01*
X153535212Y-78833095D01*
X153535212Y-78158095D01*
X153653045Y-78158095D01*
X153743713Y-78188317D01*
G37*
G36*
X156700282Y-78604523D02*
G01*
X156492759Y-78604523D01*
X156596520Y-78293238D01*
X156700282Y-78604523D01*
G37*
G36*
X160330927Y-78185056D02*
G01*
X160354677Y-78208807D01*
X160381640Y-78262731D01*
X160381640Y-78347505D01*
X160354677Y-78401429D01*
X160330927Y-78425180D01*
X160277004Y-78452142D01*
X160049497Y-78452142D01*
X160049497Y-78158095D01*
X160277004Y-78158095D01*
X160330927Y-78185056D01*
G37*
G36*
X163028867Y-79046984D02*
G01*
X153321323Y-79046984D01*
X153321323Y-78095595D01*
X153410212Y-78095595D01*
X153410212Y-78895595D01*
X153414970Y-78919513D01*
X153448794Y-78953337D01*
X153472712Y-78958095D01*
X153663188Y-78958095D01*
X153673013Y-78956140D01*
X153682952Y-78954888D01*
X153797238Y-78916793D01*
X153799959Y-78915242D01*
X153801392Y-78915242D01*
X153809723Y-78909675D01*
X153818424Y-78904715D01*
X153819064Y-78903433D01*
X153821668Y-78901694D01*
X153897859Y-78825503D01*
X153903425Y-78817171D01*
X153909566Y-78809260D01*
X153947661Y-78733070D01*
X153949468Y-78726468D01*
X153952393Y-78720278D01*
X153990489Y-78567897D01*
X153990861Y-78560247D01*
X153992355Y-78552738D01*
X153992355Y-78438452D01*
X153990861Y-78430942D01*
X153990489Y-78423293D01*
X153952393Y-78270912D01*
X153949468Y-78264722D01*
X153947661Y-78258121D01*
X153909566Y-78181929D01*
X153903418Y-78174007D01*
X153897858Y-78165686D01*
X153827767Y-78095595D01*
X154210212Y-78095595D01*
X154210212Y-78895595D01*
X154214970Y-78919513D01*
X154248794Y-78953337D01*
X154296630Y-78953337D01*
X154330454Y-78919513D01*
X154335212Y-78895595D01*
X154335212Y-78438452D01*
X154553068Y-78438452D01*
X154553068Y-78552738D01*
X154554561Y-78560247D01*
X154554934Y-78567897D01*
X154593030Y-78720278D01*
X154595954Y-78726468D01*
X154597762Y-78733070D01*
X154635857Y-78809260D01*
X154642004Y-78817181D01*
X154647565Y-78825503D01*
X154723755Y-78901694D01*
X154726358Y-78903433D01*
X154726999Y-78904715D01*
X154735703Y-78909677D01*
X154744032Y-78915242D01*
X154745464Y-78915242D01*
X154748185Y-78916793D01*
X154862471Y-78954888D01*
X154872409Y-78956140D01*
X154882235Y-78958095D01*
X154958426Y-78958095D01*
X154968251Y-78956140D01*
X154978190Y-78954888D01*
X155092475Y-78916793D01*
X155095196Y-78915242D01*
X155096628Y-78915242D01*
X155104956Y-78909677D01*
X155113661Y-78904715D01*
X155114301Y-78903433D01*
X155116905Y-78901694D01*
X155155001Y-78863598D01*
X155168546Y-78843324D01*
X155168549Y-78843322D01*
X155173307Y-78819404D01*
X155173307Y-78552738D01*
X155168549Y-78528820D01*
X155134725Y-78494996D01*
X155110807Y-78490238D01*
X154958426Y-78490238D01*
X154934508Y-78494996D01*
X154900684Y-78528820D01*
X154900684Y-78576656D01*
X154934508Y-78610480D01*
X154958426Y-78615238D01*
X155048307Y-78615238D01*
X155048307Y-78793516D01*
X155038950Y-78802872D01*
X154948283Y-78833095D01*
X154892378Y-78833095D01*
X154801710Y-78802872D01*
X154743126Y-78744288D01*
X154712633Y-78683303D01*
X154678068Y-78545042D01*
X154678068Y-78446147D01*
X154712634Y-78307885D01*
X154743125Y-78246901D01*
X154801709Y-78188317D01*
X154892378Y-78158095D01*
X154981766Y-78158095D01*
X155044760Y-78189592D01*
X155068281Y-78196032D01*
X155113661Y-78180906D01*
X155135053Y-78138120D01*
X155120879Y-78095595D01*
X155391164Y-78095595D01*
X155391164Y-78895595D01*
X155395922Y-78919513D01*
X155429746Y-78953337D01*
X155477582Y-78953337D01*
X155511406Y-78919513D01*
X155516164Y-78895595D01*
X155516164Y-78095595D01*
X155511406Y-78071677D01*
X155662588Y-78071677D01*
X155662588Y-78119513D01*
X155696412Y-78153337D01*
X155720330Y-78158095D01*
X155886401Y-78158095D01*
X155886401Y-78895595D01*
X155891159Y-78919513D01*
X155924983Y-78953337D01*
X155972819Y-78953337D01*
X156006643Y-78919513D01*
X156010520Y-78900026D01*
X156267512Y-78900026D01*
X156288904Y-78942810D01*
X156334285Y-78957937D01*
X156377069Y-78936545D01*
X156389147Y-78915359D01*
X156451092Y-78729523D01*
X156741949Y-78729523D01*
X156803894Y-78915359D01*
X156815972Y-78936545D01*
X156858756Y-78957938D01*
X156904137Y-78942811D01*
X156925529Y-78900026D01*
X156922480Y-78875831D01*
X156662402Y-78095595D01*
X157067354Y-78095595D01*
X157067354Y-78895595D01*
X157072112Y-78919513D01*
X157105936Y-78953337D01*
X157129854Y-78958095D01*
X157510806Y-78958095D01*
X157534724Y-78953337D01*
X157568548Y-78919513D01*
X157568548Y-78871677D01*
X157534724Y-78837853D01*
X157510806Y-78833095D01*
X157192354Y-78833095D01*
X157192354Y-78566915D01*
X158329255Y-78566915D01*
X158329255Y-78614751D01*
X158363079Y-78648575D01*
X158386997Y-78653333D01*
X158996521Y-78653333D01*
X159020439Y-78648575D01*
X159054263Y-78614751D01*
X159054263Y-78566915D01*
X159020439Y-78533091D01*
X158996521Y-78528333D01*
X158386997Y-78528333D01*
X158363079Y-78533091D01*
X158329255Y-78566915D01*
X157192354Y-78566915D01*
X157192354Y-78095595D01*
X159924497Y-78095595D01*
X159924497Y-78895595D01*
X159929255Y-78919513D01*
X159963079Y-78953337D01*
X160010915Y-78953337D01*
X160044739Y-78919513D01*
X160049497Y-78895595D01*
X160049497Y-78577142D01*
X160291759Y-78577142D01*
X160294830Y-78576531D01*
X160296189Y-78576984D01*
X160305849Y-78574338D01*
X160315677Y-78572384D01*
X160316690Y-78571370D01*
X160319710Y-78570544D01*
X160395900Y-78532449D01*
X160403821Y-78526301D01*
X160412143Y-78520741D01*
X160450238Y-78482647D01*
X160455805Y-78474314D01*
X160461946Y-78466403D01*
X160500041Y-78390212D01*
X160500867Y-78387193D01*
X160501882Y-78386179D01*
X160503837Y-78376348D01*
X160506482Y-78366692D01*
X160506028Y-78365332D01*
X160506640Y-78362261D01*
X160506640Y-78247976D01*
X160506028Y-78244904D01*
X160506482Y-78243545D01*
X160503837Y-78233888D01*
X160501882Y-78224058D01*
X160500867Y-78223043D01*
X160500041Y-78220025D01*
X160461946Y-78143834D01*
X160455805Y-78135922D01*
X160450238Y-78127590D01*
X160412143Y-78089496D01*
X160406465Y-78085702D01*
X160649094Y-78085702D01*
X160650006Y-78110071D01*
X160840482Y-78910071D01*
X160850650Y-78932237D01*
X160858610Y-78937136D01*
X160863294Y-78945225D01*
X160878226Y-78949206D01*
X160891389Y-78957307D01*
X160900482Y-78955141D01*
X160909514Y-78957550D01*
X160922888Y-78949806D01*
X160937924Y-78946227D01*
X160942823Y-78938266D01*
X160950912Y-78933583D01*
X160961672Y-78911699D01*
X161053662Y-78566732D01*
X161145654Y-78911699D01*
X161156415Y-78933584D01*
X161164503Y-78938266D01*
X161169402Y-78946227D01*
X161184435Y-78949806D01*
X161197812Y-78957551D01*
X161206844Y-78955142D01*
X161215937Y-78957307D01*
X161229099Y-78949207D01*
X161244032Y-78945225D01*
X161248715Y-78937135D01*
X161256676Y-78932237D01*
X161266844Y-78910071D01*
X161457321Y-78110072D01*
X161457863Y-78095595D01*
X161638783Y-78095595D01*
X161638783Y-78895595D01*
X161643541Y-78919513D01*
X161677365Y-78953337D01*
X161725201Y-78953337D01*
X161759025Y-78919513D01*
X161763783Y-78895595D01*
X161763783Y-78377317D01*
X161911313Y-78693454D01*
X161920841Y-78706441D01*
X161921857Y-78709233D01*
X161923427Y-78709966D01*
X161925739Y-78713116D01*
X161945844Y-78720427D01*
X161965205Y-78729462D01*
X161967947Y-78728464D01*
X161970693Y-78729463D01*
X161990072Y-78720419D01*
X162010159Y-78713115D01*
X162012467Y-78709968D01*
X162014041Y-78709234D01*
X162015057Y-78706438D01*
X162024585Y-78693453D01*
X162172116Y-78377315D01*
X162172116Y-78895595D01*
X162176874Y-78919513D01*
X162210698Y-78953337D01*
X162258534Y-78953337D01*
X162292358Y-78919513D01*
X162297116Y-78895595D01*
X162297116Y-78566916D01*
X162443541Y-78566916D01*
X162443541Y-78614750D01*
X162477366Y-78648575D01*
X162525200Y-78648575D01*
X162545477Y-78635027D01*
X162576400Y-78604104D01*
X162615569Y-78584519D01*
X162739999Y-78646734D01*
X162763519Y-78653175D01*
X162767949Y-78651698D01*
X162772380Y-78653175D01*
X162795901Y-78646735D01*
X162872091Y-78608640D01*
X162880006Y-78602496D01*
X162888335Y-78596932D01*
X162926430Y-78558836D01*
X162939978Y-78538559D01*
X162939977Y-78490724D01*
X162906151Y-78456899D01*
X162858317Y-78456900D01*
X162838040Y-78470449D01*
X162807117Y-78501372D01*
X162767950Y-78520955D01*
X162643520Y-78458740D01*
X162619999Y-78452300D01*
X162615568Y-78453776D01*
X162611138Y-78452300D01*
X162587618Y-78458741D01*
X162511427Y-78496836D01*
X162503515Y-78502976D01*
X162495183Y-78508544D01*
X162457089Y-78546639D01*
X162443541Y-78566916D01*
X162297116Y-78566916D01*
X162297116Y-78095595D01*
X162292358Y-78071677D01*
X162284503Y-78063822D01*
X162280708Y-78053385D01*
X162268254Y-78047573D01*
X162258534Y-78037853D01*
X162247425Y-78037853D01*
X162237360Y-78033156D01*
X162224443Y-78037853D01*
X162210698Y-78037853D01*
X162202843Y-78045707D01*
X162192406Y-78049503D01*
X162177980Y-78069165D01*
X161967949Y-78519229D01*
X161757919Y-78069165D01*
X161743493Y-78049503D01*
X161733055Y-78045707D01*
X161725201Y-78037853D01*
X161711456Y-78037853D01*
X161698539Y-78033156D01*
X161688474Y-78037853D01*
X161677365Y-78037853D01*
X161667644Y-78047573D01*
X161655191Y-78053385D01*
X161651395Y-78063822D01*
X161643541Y-78071677D01*
X161638783Y-78095595D01*
X161457863Y-78095595D01*
X161458233Y-78085702D01*
X161433163Y-78044964D01*
X161386628Y-78033884D01*
X161345889Y-78058953D01*
X161335721Y-78081119D01*
X161202613Y-78640166D01*
X161114053Y-78308062D01*
X161103293Y-78286178D01*
X161095919Y-78281909D01*
X161091651Y-78274536D01*
X161075952Y-78270349D01*
X161061895Y-78262211D01*
X161053664Y-78264405D01*
X161045431Y-78262210D01*
X161031369Y-78270350D01*
X161015675Y-78274536D01*
X161011406Y-78281908D01*
X161004034Y-78286177D01*
X160993273Y-78308062D01*
X160904712Y-78640165D01*
X160771606Y-78081119D01*
X160761438Y-78058953D01*
X160720699Y-78033883D01*
X160674164Y-78044963D01*
X160649094Y-78085702D01*
X160406465Y-78085702D01*
X160403821Y-78083935D01*
X160395900Y-78077788D01*
X160319710Y-78039693D01*
X160316690Y-78038866D01*
X160315677Y-78037853D01*
X160305849Y-78035898D01*
X160296189Y-78033253D01*
X160294830Y-78033705D01*
X160291759Y-78033095D01*
X159986997Y-78033095D01*
X159963079Y-78037853D01*
X159929255Y-78071677D01*
X159924497Y-78095595D01*
X157192354Y-78095595D01*
X157187596Y-78071677D01*
X157153772Y-78037853D01*
X157105936Y-78037853D01*
X157072112Y-78071677D01*
X157067354Y-78095595D01*
X156662402Y-78095595D01*
X156655814Y-78075831D01*
X156643736Y-78054645D01*
X156639559Y-78052556D01*
X156637471Y-78048380D01*
X156618676Y-78042115D01*
X156600952Y-78033253D01*
X156596521Y-78034730D01*
X156592090Y-78033253D01*
X156574366Y-78042115D01*
X156555571Y-78048380D01*
X156553482Y-78052556D01*
X156549306Y-78054645D01*
X156537228Y-78075831D01*
X156270561Y-78875831D01*
X156267512Y-78900026D01*
X156010520Y-78900026D01*
X156011401Y-78895595D01*
X156011401Y-78158095D01*
X156177473Y-78158095D01*
X156201391Y-78153337D01*
X156235215Y-78119513D01*
X156235215Y-78071677D01*
X156201391Y-78037853D01*
X156177473Y-78033095D01*
X155720330Y-78033095D01*
X155696412Y-78037853D01*
X155662588Y-78071677D01*
X155511406Y-78071677D01*
X155477582Y-78037853D01*
X155429746Y-78037853D01*
X155395922Y-78071677D01*
X155391164Y-78095595D01*
X155120879Y-78095595D01*
X155119927Y-78092740D01*
X155100662Y-78077788D01*
X155024472Y-78039693D01*
X155021452Y-78038866D01*
X155020439Y-78037853D01*
X155010611Y-78035898D01*
X155000951Y-78033253D01*
X154999592Y-78033705D01*
X154996521Y-78033095D01*
X154882235Y-78033095D01*
X154872409Y-78035049D01*
X154862471Y-78036302D01*
X154748185Y-78074397D01*
X154745464Y-78075948D01*
X154744032Y-78075948D01*
X154735703Y-78081512D01*
X154726999Y-78086475D01*
X154726358Y-78087756D01*
X154723755Y-78089496D01*
X154647565Y-78165686D01*
X154642004Y-78174007D01*
X154635857Y-78181929D01*
X154597762Y-78258120D01*
X154595954Y-78264721D01*
X154593030Y-78270912D01*
X154554934Y-78423293D01*
X154554561Y-78430942D01*
X154553068Y-78438452D01*
X154335212Y-78438452D01*
X154335212Y-78095595D01*
X154330454Y-78071677D01*
X154296630Y-78037853D01*
X154248794Y-78037853D01*
X154214970Y-78071677D01*
X154210212Y-78095595D01*
X153827767Y-78095595D01*
X153821668Y-78089496D01*
X153819064Y-78087756D01*
X153818424Y-78086475D01*
X153809719Y-78081512D01*
X153801391Y-78075948D01*
X153799959Y-78075948D01*
X153797238Y-78074397D01*
X153682952Y-78036302D01*
X153673013Y-78035049D01*
X153663188Y-78033095D01*
X153472712Y-78033095D01*
X153448794Y-78037853D01*
X153414970Y-78071677D01*
X153410212Y-78095595D01*
X153321323Y-78095595D01*
X153321323Y-77944206D01*
X163028867Y-77944206D01*
X163028867Y-79046984D01*
G37*
X152295595Y-119603478D02*
X152295595Y-119108240D01*
X152295595Y-119108240D02*
X152600357Y-119374906D01*
X152600357Y-119374906D02*
X152600357Y-119260621D01*
X152600357Y-119260621D02*
X152638452Y-119184430D01*
X152638452Y-119184430D02*
X152676547Y-119146335D01*
X152676547Y-119146335D02*
X152752738Y-119108240D01*
X152752738Y-119108240D02*
X152943214Y-119108240D01*
X152943214Y-119108240D02*
X153019404Y-119146335D01*
X153019404Y-119146335D02*
X153057500Y-119184430D01*
X153057500Y-119184430D02*
X153095595Y-119260621D01*
X153095595Y-119260621D02*
X153095595Y-119489192D01*
X153095595Y-119489192D02*
X153057500Y-119565383D01*
X153057500Y-119565383D02*
X153019404Y-119603478D01*
X153019404Y-118765382D02*
X153057500Y-118727287D01*
X153057500Y-118727287D02*
X153095595Y-118765382D01*
X153095595Y-118765382D02*
X153057500Y-118803478D01*
X153057500Y-118803478D02*
X153019404Y-118765382D01*
X153019404Y-118765382D02*
X153095595Y-118765382D01*
X152295595Y-118460621D02*
X152295595Y-117965383D01*
X152295595Y-117965383D02*
X152600357Y-118232049D01*
X152600357Y-118232049D02*
X152600357Y-118117764D01*
X152600357Y-118117764D02*
X152638452Y-118041573D01*
X152638452Y-118041573D02*
X152676547Y-118003478D01*
X152676547Y-118003478D02*
X152752738Y-117965383D01*
X152752738Y-117965383D02*
X152943214Y-117965383D01*
X152943214Y-117965383D02*
X153019404Y-118003478D01*
X153019404Y-118003478D02*
X153057500Y-118041573D01*
X153057500Y-118041573D02*
X153095595Y-118117764D01*
X153095595Y-118117764D02*
X153095595Y-118346335D01*
X153095595Y-118346335D02*
X153057500Y-118422526D01*
X153057500Y-118422526D02*
X153019404Y-118460621D01*
X152295595Y-117736811D02*
X153095595Y-117470144D01*
X153095595Y-117470144D02*
X152295595Y-117203478D01*
G36*
X143683303Y-75729114D02*
G01*
X143744288Y-75759607D01*
X143802872Y-75818191D01*
X143833095Y-75908858D01*
X143833095Y-76026692D01*
X143158095Y-76026692D01*
X143158095Y-75908858D01*
X143188317Y-75818190D01*
X143246900Y-75759607D01*
X143307885Y-75729114D01*
X143446147Y-75694549D01*
X143545043Y-75694549D01*
X143683303Y-75729114D01*
G37*
G36*
X144046984Y-77916772D02*
G01*
X142944206Y-77916772D01*
X142944206Y-77384430D01*
X143033095Y-77384430D01*
X143033095Y-77498716D01*
X143035049Y-77508541D01*
X143036302Y-77518480D01*
X143074397Y-77632766D01*
X143075948Y-77635486D01*
X143075948Y-77636919D01*
X143081512Y-77645247D01*
X143086475Y-77653952D01*
X143087756Y-77654592D01*
X143089496Y-77657196D01*
X143165686Y-77733386D01*
X143174007Y-77738946D01*
X143181929Y-77745094D01*
X143258121Y-77783189D01*
X143264722Y-77784996D01*
X143270912Y-77787921D01*
X143423293Y-77826017D01*
X143430942Y-77826389D01*
X143438452Y-77827883D01*
X143552738Y-77827883D01*
X143560247Y-77826389D01*
X143567897Y-77826017D01*
X143720278Y-77787921D01*
X143726468Y-77784996D01*
X143733070Y-77783189D01*
X143809260Y-77745094D01*
X143817181Y-77738946D01*
X143825503Y-77733386D01*
X143901694Y-77657196D01*
X143903433Y-77654592D01*
X143904715Y-77653952D01*
X143909677Y-77645247D01*
X143915242Y-77636919D01*
X143915242Y-77635486D01*
X143916793Y-77632766D01*
X143954888Y-77518480D01*
X143956140Y-77508541D01*
X143958095Y-77498716D01*
X143958095Y-77422525D01*
X143956140Y-77412699D01*
X143954888Y-77402761D01*
X143916793Y-77288476D01*
X143915242Y-77285755D01*
X143915242Y-77284323D01*
X143909677Y-77275994D01*
X143904715Y-77267290D01*
X143903433Y-77266649D01*
X143901694Y-77264046D01*
X143863598Y-77225950D01*
X143843324Y-77212404D01*
X143843322Y-77212402D01*
X143819404Y-77207644D01*
X143552738Y-77207644D01*
X143528820Y-77212402D01*
X143494996Y-77246226D01*
X143490238Y-77270144D01*
X143490238Y-77422525D01*
X143494996Y-77446443D01*
X143528820Y-77480267D01*
X143576656Y-77480267D01*
X143610480Y-77446443D01*
X143615238Y-77422525D01*
X143615238Y-77332644D01*
X143793516Y-77332644D01*
X143802872Y-77342000D01*
X143833095Y-77432668D01*
X143833095Y-77488573D01*
X143802872Y-77579240D01*
X143744288Y-77637825D01*
X143683303Y-77668317D01*
X143545043Y-77702883D01*
X143446147Y-77702883D01*
X143307885Y-77668317D01*
X143246900Y-77637824D01*
X143188317Y-77579241D01*
X143158095Y-77488573D01*
X143158095Y-77399185D01*
X143189592Y-77336191D01*
X143196032Y-77312670D01*
X143180906Y-77267290D01*
X143138120Y-77245898D01*
X143092740Y-77261024D01*
X143077788Y-77280289D01*
X143039693Y-77356479D01*
X143038866Y-77359498D01*
X143037853Y-77360512D01*
X143035898Y-77370339D01*
X143033253Y-77380000D01*
X143033705Y-77381358D01*
X143033095Y-77384430D01*
X142944206Y-77384430D01*
X142944206Y-76935168D01*
X143033594Y-76935168D01*
X143037853Y-76942621D01*
X143037853Y-76951205D01*
X143049298Y-76962650D01*
X143057328Y-76976702D01*
X143065608Y-76978960D01*
X143071677Y-76985029D01*
X143095595Y-76989787D01*
X143895595Y-76989787D01*
X143919513Y-76985029D01*
X143953337Y-76951205D01*
X143953337Y-76903369D01*
X143919513Y-76869545D01*
X143895595Y-76864787D01*
X143330943Y-76864787D01*
X143926604Y-76524409D01*
X143945010Y-76508411D01*
X143947268Y-76500130D01*
X143953337Y-76494062D01*
X143953337Y-76477879D01*
X143957596Y-76462263D01*
X143953337Y-76454809D01*
X143953337Y-76446226D01*
X143941891Y-76434780D01*
X143933862Y-76420729D01*
X143925581Y-76418470D01*
X143919513Y-76412402D01*
X143895595Y-76407644D01*
X143095595Y-76407644D01*
X143071677Y-76412402D01*
X143037853Y-76446226D01*
X143037853Y-76494062D01*
X143071677Y-76527886D01*
X143095595Y-76532644D01*
X143660247Y-76532644D01*
X143064586Y-76873022D01*
X143046180Y-76889020D01*
X143043921Y-76897300D01*
X143037853Y-76903369D01*
X143037853Y-76919551D01*
X143033594Y-76935168D01*
X142944206Y-76935168D01*
X142944206Y-75898716D01*
X143033095Y-75898716D01*
X143033095Y-76089192D01*
X143037853Y-76113110D01*
X143071677Y-76146934D01*
X143095595Y-76151692D01*
X143895595Y-76151692D01*
X143919513Y-76146934D01*
X143953337Y-76113110D01*
X143958095Y-76089192D01*
X143958095Y-75898716D01*
X143956140Y-75888890D01*
X143954888Y-75878952D01*
X143916793Y-75764666D01*
X143915242Y-75761945D01*
X143915242Y-75760513D01*
X143909677Y-75752184D01*
X143904715Y-75743480D01*
X143903433Y-75742839D01*
X143901694Y-75740236D01*
X143825503Y-75664046D01*
X143817181Y-75658485D01*
X143809260Y-75652338D01*
X143733070Y-75614243D01*
X143726468Y-75612435D01*
X143720278Y-75609511D01*
X143567897Y-75571415D01*
X143560247Y-75571042D01*
X143552738Y-75569549D01*
X143438452Y-75569549D01*
X143430942Y-75571042D01*
X143423293Y-75571415D01*
X143270912Y-75609511D01*
X143264722Y-75612435D01*
X143258121Y-75614243D01*
X143181929Y-75652338D01*
X143174007Y-75658485D01*
X143165686Y-75664046D01*
X143089496Y-75740236D01*
X143087756Y-75742839D01*
X143086475Y-75743480D01*
X143081512Y-75752184D01*
X143075948Y-75760513D01*
X143075948Y-75761945D01*
X143074397Y-75764666D01*
X143036302Y-75878952D01*
X143035049Y-75888890D01*
X143033095Y-75898716D01*
X142944206Y-75898716D01*
X142944206Y-75480660D01*
X144046984Y-75480660D01*
X144046984Y-77916772D01*
G37*
X146653664Y-119095595D02*
X146272712Y-119095595D01*
X146272712Y-119095595D02*
X146234616Y-119476547D01*
X146234616Y-119476547D02*
X146272712Y-119438452D01*
X146272712Y-119438452D02*
X146348902Y-119400357D01*
X146348902Y-119400357D02*
X146539378Y-119400357D01*
X146539378Y-119400357D02*
X146615569Y-119438452D01*
X146615569Y-119438452D02*
X146653664Y-119476547D01*
X146653664Y-119476547D02*
X146691759Y-119552738D01*
X146691759Y-119552738D02*
X146691759Y-119743214D01*
X146691759Y-119743214D02*
X146653664Y-119819404D01*
X146653664Y-119819404D02*
X146615569Y-119857500D01*
X146615569Y-119857500D02*
X146539378Y-119895595D01*
X146539378Y-119895595D02*
X146348902Y-119895595D01*
X146348902Y-119895595D02*
X146272712Y-119857500D01*
X146272712Y-119857500D02*
X146234616Y-119819404D01*
X146920331Y-119095595D02*
X147186998Y-119895595D01*
X147186998Y-119895595D02*
X147453664Y-119095595D01*
X147720331Y-119895595D02*
X147720331Y-119095595D01*
X147720331Y-119095595D02*
X147910807Y-119095595D01*
X147910807Y-119095595D02*
X148025093Y-119133690D01*
X148025093Y-119133690D02*
X148101283Y-119209880D01*
X148101283Y-119209880D02*
X148139378Y-119286071D01*
X148139378Y-119286071D02*
X148177474Y-119438452D01*
X148177474Y-119438452D02*
X148177474Y-119552738D01*
X148177474Y-119552738D02*
X148139378Y-119705119D01*
X148139378Y-119705119D02*
X148101283Y-119781309D01*
X148101283Y-119781309D02*
X148025093Y-119857500D01*
X148025093Y-119857500D02*
X147910807Y-119895595D01*
X147910807Y-119895595D02*
X147720331Y-119895595D01*
X148977474Y-119895595D02*
X148710807Y-119514642D01*
X148520331Y-119895595D02*
X148520331Y-119095595D01*
X148520331Y-119095595D02*
X148825093Y-119095595D01*
X148825093Y-119095595D02*
X148901283Y-119133690D01*
X148901283Y-119133690D02*
X148939378Y-119171785D01*
X148939378Y-119171785D02*
X148977474Y-119247976D01*
X148977474Y-119247976D02*
X148977474Y-119362261D01*
X148977474Y-119362261D02*
X148939378Y-119438452D01*
X148939378Y-119438452D02*
X148901283Y-119476547D01*
X148901283Y-119476547D02*
X148825093Y-119514642D01*
X148825093Y-119514642D02*
X148520331Y-119514642D01*
X179834616Y-119657500D02*
X179948902Y-119695595D01*
X179948902Y-119695595D02*
X180139378Y-119695595D01*
X180139378Y-119695595D02*
X180215569Y-119657500D01*
X180215569Y-119657500D02*
X180253664Y-119619404D01*
X180253664Y-119619404D02*
X180291759Y-119543214D01*
X180291759Y-119543214D02*
X180291759Y-119467023D01*
X180291759Y-119467023D02*
X180253664Y-119390833D01*
X180253664Y-119390833D02*
X180215569Y-119352738D01*
X180215569Y-119352738D02*
X180139378Y-119314642D01*
X180139378Y-119314642D02*
X179986997Y-119276547D01*
X179986997Y-119276547D02*
X179910807Y-119238452D01*
X179910807Y-119238452D02*
X179872712Y-119200357D01*
X179872712Y-119200357D02*
X179834616Y-119124166D01*
X179834616Y-119124166D02*
X179834616Y-119047976D01*
X179834616Y-119047976D02*
X179872712Y-118971785D01*
X179872712Y-118971785D02*
X179910807Y-118933690D01*
X179910807Y-118933690D02*
X179986997Y-118895595D01*
X179986997Y-118895595D02*
X180177474Y-118895595D01*
X180177474Y-118895595D02*
X180291759Y-118933690D01*
X181091760Y-119619404D02*
X181053664Y-119657500D01*
X181053664Y-119657500D02*
X180939379Y-119695595D01*
X180939379Y-119695595D02*
X180863188Y-119695595D01*
X180863188Y-119695595D02*
X180748902Y-119657500D01*
X180748902Y-119657500D02*
X180672712Y-119581309D01*
X180672712Y-119581309D02*
X180634617Y-119505119D01*
X180634617Y-119505119D02*
X180596521Y-119352738D01*
X180596521Y-119352738D02*
X180596521Y-119238452D01*
X180596521Y-119238452D02*
X180634617Y-119086071D01*
X180634617Y-119086071D02*
X180672712Y-119009880D01*
X180672712Y-119009880D02*
X180748902Y-118933690D01*
X180748902Y-118933690D02*
X180863188Y-118895595D01*
X180863188Y-118895595D02*
X180939379Y-118895595D01*
X180939379Y-118895595D02*
X181053664Y-118933690D01*
X181053664Y-118933690D02*
X181091760Y-118971785D01*
X181815569Y-119695595D02*
X181434617Y-119695595D01*
X181434617Y-119695595D02*
X181434617Y-118895595D01*
X154257500Y-76765383D02*
X154295595Y-76651097D01*
X154295595Y-76651097D02*
X154295595Y-76460621D01*
X154295595Y-76460621D02*
X154257500Y-76384430D01*
X154257500Y-76384430D02*
X154219404Y-76346335D01*
X154219404Y-76346335D02*
X154143214Y-76308240D01*
X154143214Y-76308240D02*
X154067023Y-76308240D01*
X154067023Y-76308240D02*
X153990833Y-76346335D01*
X153990833Y-76346335D02*
X153952738Y-76384430D01*
X153952738Y-76384430D02*
X153914642Y-76460621D01*
X153914642Y-76460621D02*
X153876547Y-76613002D01*
X153876547Y-76613002D02*
X153838452Y-76689192D01*
X153838452Y-76689192D02*
X153800357Y-76727287D01*
X153800357Y-76727287D02*
X153724166Y-76765383D01*
X153724166Y-76765383D02*
X153647976Y-76765383D01*
X153647976Y-76765383D02*
X153571785Y-76727287D01*
X153571785Y-76727287D02*
X153533690Y-76689192D01*
X153533690Y-76689192D02*
X153495595Y-76613002D01*
X153495595Y-76613002D02*
X153495595Y-76422525D01*
X153495595Y-76422525D02*
X153533690Y-76308240D01*
X154257500Y-76003478D02*
X154295595Y-75889192D01*
X154295595Y-75889192D02*
X154295595Y-75698716D01*
X154295595Y-75698716D02*
X154257500Y-75622525D01*
X154257500Y-75622525D02*
X154219404Y-75584430D01*
X154219404Y-75584430D02*
X154143214Y-75546335D01*
X154143214Y-75546335D02*
X154067023Y-75546335D01*
X154067023Y-75546335D02*
X153990833Y-75584430D01*
X153990833Y-75584430D02*
X153952738Y-75622525D01*
X153952738Y-75622525D02*
X153914642Y-75698716D01*
X153914642Y-75698716D02*
X153876547Y-75851097D01*
X153876547Y-75851097D02*
X153838452Y-75927287D01*
X153838452Y-75927287D02*
X153800357Y-75965382D01*
X153800357Y-75965382D02*
X153724166Y-76003478D01*
X153724166Y-76003478D02*
X153647976Y-76003478D01*
X153647976Y-76003478D02*
X153571785Y-75965382D01*
X153571785Y-75965382D02*
X153533690Y-75927287D01*
X153533690Y-75927287D02*
X153495595Y-75851097D01*
X153495595Y-75851097D02*
X153495595Y-75660620D01*
X153495595Y-75660620D02*
X153533690Y-75546335D01*
D14*
X145433333Y-100254819D02*
X145100000Y-99778628D01*
X144861905Y-100254819D02*
X144861905Y-99254819D01*
X144861905Y-99254819D02*
X145242857Y-99254819D01*
X145242857Y-99254819D02*
X145338095Y-99302438D01*
X145338095Y-99302438D02*
X145385714Y-99350057D01*
X145385714Y-99350057D02*
X145433333Y-99445295D01*
X145433333Y-99445295D02*
X145433333Y-99588152D01*
X145433333Y-99588152D02*
X145385714Y-99683390D01*
X145385714Y-99683390D02*
X145338095Y-99731009D01*
X145338095Y-99731009D02*
X145242857Y-99778628D01*
X145242857Y-99778628D02*
X144861905Y-99778628D01*
X145766667Y-99254819D02*
X146433333Y-100254819D01*
X146433333Y-99254819D02*
X145766667Y-100254819D01*
X157304819Y-98924404D02*
X158114342Y-98924404D01*
X158114342Y-98924404D02*
X158209580Y-98876785D01*
X158209580Y-98876785D02*
X158257200Y-98829166D01*
X158257200Y-98829166D02*
X158304819Y-98733928D01*
X158304819Y-98733928D02*
X158304819Y-98543452D01*
X158304819Y-98543452D02*
X158257200Y-98448214D01*
X158257200Y-98448214D02*
X158209580Y-98400595D01*
X158209580Y-98400595D02*
X158114342Y-98352976D01*
X158114342Y-98352976D02*
X157304819Y-98352976D01*
X158304819Y-97352976D02*
X158304819Y-97924404D01*
X158304819Y-97638690D02*
X157304819Y-97638690D01*
X157304819Y-97638690D02*
X157447676Y-97733928D01*
X157447676Y-97733928D02*
X157542914Y-97829166D01*
X157542914Y-97829166D02*
X157590533Y-97924404D01*
X144838095Y-97054819D02*
X145409523Y-97054819D01*
X145123809Y-98054819D02*
X145123809Y-97054819D01*
X145647619Y-97054819D02*
X146314285Y-98054819D01*
X146314285Y-97054819D02*
X145647619Y-98054819D01*
X120980952Y-105626819D02*
X121171428Y-105626819D01*
X121171428Y-105626819D02*
X121266666Y-105674438D01*
X121266666Y-105674438D02*
X121361904Y-105769676D01*
X121361904Y-105769676D02*
X121409523Y-105960152D01*
X121409523Y-105960152D02*
X121409523Y-106293485D01*
X121409523Y-106293485D02*
X121361904Y-106483961D01*
X121361904Y-106483961D02*
X121266666Y-106579200D01*
X121266666Y-106579200D02*
X121171428Y-106626819D01*
X121171428Y-106626819D02*
X120980952Y-106626819D01*
X120980952Y-106626819D02*
X120885714Y-106579200D01*
X120885714Y-106579200D02*
X120790476Y-106483961D01*
X120790476Y-106483961D02*
X120742857Y-106293485D01*
X120742857Y-106293485D02*
X120742857Y-105960152D01*
X120742857Y-105960152D02*
X120790476Y-105769676D01*
X120790476Y-105769676D02*
X120885714Y-105674438D01*
X120885714Y-105674438D02*
X120980952Y-105626819D01*
X121838095Y-106626819D02*
X121838095Y-105626819D01*
X121838095Y-105626819D02*
X122409523Y-106626819D01*
X122409523Y-106626819D02*
X122409523Y-105626819D01*
D15*
%TO.C,J3*%
X176850000Y-82000000D02*
G75*
G02*
X176650000Y-82000000I-100000J0D01*
G01*
X176650000Y-82000000D02*
G75*
G02*
X176850000Y-82000000I100000J0D01*
G01*
D16*
X182625000Y-82380000D02*
X182625000Y-78620000D01*
X180705000Y-83500000D02*
X178375000Y-83500000D01*
X178375000Y-83500000D02*
X178375000Y-82620000D01*
X178375000Y-78380000D02*
X178375000Y-77500000D01*
X178375000Y-77500000D02*
X180705000Y-77500000D01*
D17*
%TO.C,J1*%
X132140000Y-77620000D02*
X132140000Y-82920000D01*
X137330000Y-77620000D02*
X132140000Y-77620000D01*
X137330000Y-77620000D02*
X137330000Y-80270000D01*
X137330000Y-80270000D02*
X139980000Y-80270000D01*
X138600000Y-77620000D02*
X139980000Y-77620000D01*
X139980000Y-77620000D02*
X139980000Y-79000000D01*
X139980000Y-80270000D02*
X139980000Y-82920000D01*
X139980000Y-82920000D02*
X132140000Y-82920000D01*
%TO.C,U2*%
X134427500Y-94540000D02*
X134877500Y-94540000D01*
X134427500Y-94990000D02*
X134427500Y-94540000D01*
X134427500Y-99760000D02*
X134427500Y-99310000D01*
X134877500Y-99760000D02*
X134427500Y-99760000D01*
X139197500Y-94540000D02*
X139647500Y-94540000D01*
X139647500Y-94540000D02*
X139647500Y-94990000D01*
X139647500Y-99310000D02*
X139647500Y-99760000D01*
X139647500Y-99760000D02*
X139197500Y-99760000D01*
X134877500Y-100400000D02*
X134407500Y-100740000D01*
X134407500Y-100060000D01*
X134877500Y-100400000D01*
G36*
X134877500Y-100400000D02*
G01*
X134407500Y-100740000D01*
X134407500Y-100060000D01*
X134877500Y-100400000D01*
G37*
D16*
%TO.C,J9*%
X175600000Y-102600000D02*
X185400000Y-102600000D01*
X175600000Y-112600000D02*
X175600000Y-102600000D01*
X185400000Y-102600000D02*
X185400000Y-112600000D01*
X185400000Y-112600000D02*
X175600000Y-112600000D01*
D15*
X177100000Y-113350000D02*
G75*
G02*
X176900000Y-113350000I-100000J0D01*
G01*
X176900000Y-113350000D02*
G75*
G02*
X177100000Y-113350000I100000J0D01*
G01*
D17*
%TO.C,R8*%
X168062258Y-100477500D02*
X167587742Y-100477500D01*
X168062258Y-101522500D02*
X167587742Y-101522500D01*
%TO.C,D3*%
X117515000Y-92465000D02*
X117515000Y-93935000D01*
X117515000Y-93935000D02*
X119800000Y-93935000D01*
X119800000Y-92465000D02*
X117515000Y-92465000D01*
%TO.C,Q1*%
X124102500Y-92390000D02*
X125622500Y-92390000D01*
X124102500Y-93390000D02*
X124102500Y-92390000D01*
X124102500Y-95510000D02*
X124102500Y-94510000D01*
X125622500Y-92390000D02*
X125622500Y-92440000D01*
X125622500Y-93560000D02*
X125622500Y-94340000D01*
X125622500Y-95460000D02*
X125622500Y-95510000D01*
X125622500Y-95510000D02*
X124102500Y-95510000D01*
X126162500Y-94330000D02*
X125922500Y-94000000D01*
X126402500Y-94000000D01*
X126162500Y-94330000D01*
G36*
X126162500Y-94330000D02*
G01*
X125922500Y-94000000D01*
X126402500Y-94000000D01*
X126162500Y-94330000D01*
G37*
%TO.C,F1*%
X128649721Y-86690000D02*
X128975279Y-86690000D01*
X128649721Y-87710000D02*
X128975279Y-87710000D01*
%TO.C,J8*%
X123207500Y-80850000D02*
X121577500Y-80850000D01*
X123207500Y-90050000D02*
X121577500Y-90050000D01*
%TO.C,C9*%
X133565580Y-104490000D02*
X133284420Y-104490000D01*
X133565580Y-105510000D02*
X133284420Y-105510000D01*
%TO.C,X1*%
X117400000Y-107400000D02*
X132000000Y-107400000D01*
X117400000Y-116600000D02*
X117400000Y-107400000D01*
X126400000Y-116600000D02*
X117400000Y-116600000D01*
X130500000Y-107160000D02*
X132240000Y-107160000D01*
X132000000Y-107400000D02*
X132000000Y-110200000D01*
X132000000Y-113800000D02*
X132000000Y-116600000D01*
X132000000Y-116600000D02*
X130000000Y-116600000D01*
X132240000Y-107160000D02*
X132240000Y-108900000D01*
%TO.C,D1*%
X138310000Y-83800000D02*
X134300000Y-83800000D01*
X138310000Y-85800000D02*
X134300000Y-85800000D01*
X138310000Y-85800000D02*
X138310000Y-83800000D01*
%TO.C,U3*%
X145318000Y-106410500D02*
X145368000Y-106410500D01*
X145318000Y-108230500D02*
X145318000Y-106410500D01*
X145368000Y-108230500D02*
X145318000Y-108230500D01*
X146488000Y-106410500D02*
X147268000Y-106410500D01*
X148388000Y-106410500D02*
X148438000Y-106410500D01*
X148438000Y-106410500D02*
X148438000Y-108230500D01*
X148438000Y-108230500D02*
X148388000Y-108230500D01*
X145368000Y-108770500D02*
X145038000Y-109010500D01*
X145038000Y-108530500D01*
X145368000Y-108770500D01*
G36*
X145368000Y-108770500D02*
G01*
X145038000Y-109010500D01*
X145038000Y-108530500D01*
X145368000Y-108770500D01*
G37*
%TO.C,C15*%
X156484420Y-115090000D02*
X156765580Y-115090000D01*
X156484420Y-116110000D02*
X156765580Y-116110000D01*
%TO.C,C10*%
X133540580Y-102290000D02*
X133259420Y-102290000D01*
X133540580Y-103310000D02*
X133259420Y-103310000D01*
%TO.C,R3*%
X141277500Y-87387742D02*
X141277500Y-87862258D01*
X142322500Y-87387742D02*
X142322500Y-87862258D01*
%TO.C,RN2*%
X130150000Y-94880000D02*
X130950000Y-94880000D01*
X130150000Y-98320000D02*
X130950000Y-98320000D01*
%TO.C,R1*%
X151077500Y-97587742D02*
X151077500Y-98062258D01*
X152122500Y-97587742D02*
X152122500Y-98062258D01*
%TO.C,C6*%
X131290000Y-89915580D02*
X131290000Y-89634420D01*
X132310000Y-89915580D02*
X132310000Y-89634420D01*
%TO.C,C18*%
X134284420Y-108090000D02*
X134565580Y-108090000D01*
X134284420Y-109110000D02*
X134565580Y-109110000D01*
%TO.C,C12*%
X145284420Y-103090000D02*
X145565580Y-103090000D01*
X145284420Y-104110000D02*
X145565580Y-104110000D01*
%TO.C,R2*%
X156862258Y-111477500D02*
X156387742Y-111477500D01*
X156862258Y-112522500D02*
X156387742Y-112522500D01*
%TO.C,C3*%
X156484420Y-109690000D02*
X156765580Y-109690000D01*
X156484420Y-110710000D02*
X156765580Y-110710000D01*
%TO.C,J5*%
X166670000Y-120470000D02*
X166670000Y-123130000D01*
X179430000Y-120470000D02*
X166670000Y-120470000D01*
X179430000Y-120470000D02*
X179430000Y-123130000D01*
X179430000Y-123130000D02*
X166670000Y-123130000D01*
X182030000Y-121800000D02*
X182030000Y-123130000D01*
X182030000Y-123130000D02*
X180700000Y-123130000D01*
%TO.C,J7*%
X143710000Y-120470000D02*
X145040000Y-120470000D01*
X143710000Y-121800000D02*
X143710000Y-120470000D01*
X146310000Y-120470000D02*
X164150000Y-120470000D01*
X146310000Y-123130000D02*
X146310000Y-120470000D01*
X146310000Y-123130000D02*
X164150000Y-123130000D01*
X164150000Y-123130000D02*
X164150000Y-120470000D01*
%TO.C,Y2*%
X133540000Y-90410000D02*
X140210000Y-90410000D01*
X140210000Y-86390000D02*
X133540000Y-86390000D01*
X140210000Y-90410000D02*
X140210000Y-86390000D01*
%TO.C,C14*%
X156484420Y-113290000D02*
X156765580Y-113290000D01*
X156484420Y-114310000D02*
X156765580Y-114310000D01*
%TO.C,RX*%
X141527500Y-99065000D02*
X141527500Y-100535000D01*
X141527500Y-100535000D02*
X143812500Y-100535000D01*
X143812500Y-99065000D02*
X141527500Y-99065000D01*
%TO.C,C5*%
X156484420Y-107090000D02*
X156765580Y-107090000D01*
X156484420Y-108110000D02*
X156765580Y-108110000D01*
%TO.C,U8*%
X175540000Y-86365000D02*
X178060000Y-86365000D01*
X177905568Y-88735000D02*
X175540000Y-88735000D01*
X178340000Y-88930000D02*
X178060000Y-88930000D01*
X178200000Y-88740000D01*
X178340000Y-88930000D01*
G36*
X178340000Y-88930000D02*
G01*
X178060000Y-88930000D01*
X178200000Y-88740000D01*
X178340000Y-88930000D01*
G37*
%TO.C,C4*%
X151090000Y-101634420D02*
X151090000Y-101915580D01*
X152110000Y-101634420D02*
X152110000Y-101915580D01*
%TO.C,Y3*%
X154600000Y-88200000D02*
X154600000Y-90200000D01*
X154600000Y-90200000D02*
X154600000Y-90600000D01*
X154800000Y-88200000D02*
X155800000Y-88200000D01*
X154800000Y-90200000D02*
X154800000Y-88200000D01*
X154800000Y-90200000D02*
X154800000Y-90600000D01*
X155800000Y-90600000D02*
X154800000Y-90600000D01*
X155800000Y-90600000D02*
X155800000Y-91000000D01*
X157600000Y-88200000D02*
X158400000Y-88200000D01*
X158400000Y-88200000D02*
X158400000Y-90200000D01*
X158400000Y-90200000D02*
X158400000Y-90600000D01*
X158400000Y-90600000D02*
X157600000Y-90600000D01*
%TO.C,R5*%
X129012258Y-91677500D02*
X128537742Y-91677500D01*
X129012258Y-92722500D02*
X128537742Y-92722500D01*
%TO.C,C21*%
X172140580Y-100490000D02*
X171859420Y-100490000D01*
X172140580Y-101510000D02*
X171859420Y-101510000D01*
%TO.C,SW1*%
X121650000Y-71200000D02*
X121650000Y-71500000D01*
X121650000Y-74000000D02*
X121650000Y-73700000D01*
X124950000Y-71200000D02*
X121650000Y-71200000D01*
X124950000Y-71500000D02*
X124950000Y-71200000D01*
X124950000Y-73700000D02*
X124950000Y-74000000D01*
X124950000Y-74000000D02*
X121650000Y-74000000D01*
%TO.C,U1*%
X155240000Y-95552500D02*
X155690000Y-95552500D01*
X155240000Y-96002500D02*
X155240000Y-95552500D01*
X155240000Y-100772500D02*
X155240000Y-100322500D01*
X155690000Y-100772500D02*
X155240000Y-100772500D01*
X160010000Y-95552500D02*
X160460000Y-95552500D01*
X160460000Y-95552500D02*
X160460000Y-96002500D01*
X160460000Y-100322500D02*
X160460000Y-100772500D01*
X160460000Y-100772500D02*
X160010000Y-100772500D01*
X160480000Y-95252500D02*
X160010000Y-94912500D01*
X160480000Y-94572500D01*
X160480000Y-95252500D01*
G36*
X160480000Y-95252500D02*
G01*
X160010000Y-94912500D01*
X160480000Y-94572500D01*
X160480000Y-95252500D01*
G37*
%TO.C,SW2*%
X165850000Y-89650000D02*
X165850000Y-89450000D01*
X165850000Y-92650000D02*
X165850000Y-90950000D01*
X166900000Y-94500000D02*
X167690000Y-94500000D01*
X167690000Y-87600000D02*
X166900000Y-87600000D01*
X168700000Y-92450000D02*
X169990000Y-92450000D01*
X168700000Y-93900000D02*
X168700000Y-88200000D01*
X169990000Y-91150000D02*
X168700000Y-91150000D01*
X169990000Y-91150000D02*
X170200000Y-91350000D01*
X169990000Y-92450000D02*
X170200000Y-92250000D01*
X170200000Y-92250000D02*
X170200000Y-91350000D01*
%TO.C,TX*%
X141527500Y-96865000D02*
X141527500Y-98335000D01*
X141527500Y-98335000D02*
X143812500Y-98335000D01*
X143812500Y-96865000D02*
X141527500Y-96865000D01*
%TO.C,D4*%
X142910000Y-120350000D02*
X137400000Y-120350000D01*
X142910000Y-123650000D02*
X137400000Y-123650000D01*
X142910000Y-123650000D02*
X142910000Y-120350000D01*
%TO.C,U6*%
X165590000Y-108150000D02*
X165590000Y-111910000D01*
X165590000Y-111910000D02*
X166850000Y-111910000D01*
X172410000Y-108150000D02*
X172410000Y-111910000D01*
X172410000Y-111910000D02*
X171150000Y-111910000D01*
X172640000Y-107110000D02*
X172310000Y-106870000D01*
X172640000Y-106630000D01*
X172640000Y-107110000D01*
G36*
X172640000Y-107110000D02*
G01*
X172310000Y-106870000D01*
X172640000Y-106630000D01*
X172640000Y-107110000D01*
G37*
%TO.C,ON*%
X117527500Y-105437000D02*
X117527500Y-106907000D01*
X117527500Y-106907000D02*
X119812500Y-106907000D01*
X119812500Y-105437000D02*
X117527500Y-105437000D01*
%TO.C,C17*%
X133590000Y-112654437D02*
X133590000Y-118410000D01*
X133590000Y-118410000D02*
X135940000Y-118410000D01*
X134654437Y-111590000D02*
X133590000Y-112654437D01*
X134654437Y-111590000D02*
X135940000Y-111590000D01*
X138847500Y-110562500D02*
X138847500Y-111350000D01*
X139241250Y-110956250D02*
X138453750Y-110956250D01*
X139345563Y-111590000D02*
X138060000Y-111590000D01*
X139345563Y-111590000D02*
X140410000Y-112654437D01*
X140410000Y-112654437D02*
X140410000Y-118410000D01*
X140410000Y-118410000D02*
X138060000Y-118410000D01*
%TO.C,C19*%
X172115580Y-102490000D02*
X171834420Y-102490000D01*
X172115580Y-103510000D02*
X171834420Y-103510000D01*
%TO.C,FB1*%
X123449721Y-76690000D02*
X123775279Y-76690000D01*
X123449721Y-77710000D02*
X123775279Y-77710000D01*
%TO.C,R4*%
X129012258Y-89077500D02*
X128537742Y-89077500D01*
X129012258Y-90122500D02*
X128537742Y-90122500D01*
%TO.C,U7*%
X175894432Y-99215000D02*
X178260000Y-99215000D01*
X178260000Y-101585000D02*
X175740000Y-101585000D01*
X175600000Y-99210000D02*
X175460000Y-99020000D01*
X175740000Y-99020000D01*
X175600000Y-99210000D01*
G36*
X175600000Y-99210000D02*
G01*
X175460000Y-99020000D01*
X175740000Y-99020000D01*
X175600000Y-99210000D01*
G37*
%TO.C,U4*%
X137065000Y-101745000D02*
X141185000Y-101745000D01*
X137065000Y-101840000D02*
X137065000Y-101745000D01*
X137065000Y-106865000D02*
X137065000Y-106770000D01*
X141185000Y-101745000D02*
X141185000Y-101840000D01*
X141185000Y-106770000D02*
X141185000Y-106865000D01*
X141185000Y-106865000D02*
X137065000Y-106865000D01*
X141965000Y-107105000D02*
X141485000Y-107105000D01*
X141725000Y-106775000D01*
X141965000Y-107105000D01*
G36*
X141965000Y-107105000D02*
G01*
X141485000Y-107105000D01*
X141725000Y-106775000D01*
X141965000Y-107105000D01*
G37*
%TO.C,C11*%
X141290000Y-90965580D02*
X141290000Y-90684420D01*
X142310000Y-90965580D02*
X142310000Y-90684420D01*
%TO.C,RN4*%
X147950000Y-97080000D02*
X148750000Y-97080000D01*
X147950000Y-100520000D02*
X148750000Y-100520000D01*
%TO.C,RESET-EN1*%
X140350000Y-83600000D02*
X143150000Y-83600000D01*
X140350000Y-85600000D02*
X140350000Y-83600000D01*
X143150000Y-83600000D02*
X143150000Y-85600000D01*
X143150000Y-85600000D02*
X140350000Y-85600000D01*
%TO.C,R7*%
X127837258Y-79277500D02*
X127362742Y-79277500D01*
X127837258Y-80322500D02*
X127362742Y-80322500D01*
%TO.C,RN3*%
X129150000Y-81480000D02*
X129950000Y-81480000D01*
X129150000Y-84920000D02*
X129950000Y-84920000D01*
%TO.C,R11*%
X171937742Y-84677500D02*
X172412258Y-84677500D01*
X171937742Y-85722500D02*
X172412258Y-85722500D01*
%TO.C,RN1*%
X140450000Y-107680000D02*
X141250000Y-107680000D01*
X140450000Y-111120000D02*
X141250000Y-111120000D01*
%TO.C,C16*%
X141590000Y-112454437D02*
X141590000Y-118210000D01*
X141590000Y-118210000D02*
X143940000Y-118210000D01*
X142654437Y-111390000D02*
X141590000Y-112454437D01*
X142654437Y-111390000D02*
X143940000Y-111390000D01*
X146847500Y-110362500D02*
X146847500Y-111150000D01*
X147241250Y-110756250D02*
X146453750Y-110756250D01*
X147345563Y-111390000D02*
X146060000Y-111390000D01*
X147345563Y-111390000D02*
X148410000Y-112454437D01*
X148410000Y-112454437D02*
X148410000Y-118210000D01*
X148410000Y-118210000D02*
X146060000Y-118210000D01*
%TO.C,R6*%
X127837258Y-76677500D02*
X127362742Y-76677500D01*
X127837258Y-77722500D02*
X127362742Y-77722500D01*
%TO.C,J6*%
X161530000Y-72270000D02*
X162860000Y-72270000D01*
X161530000Y-73600000D02*
X161530000Y-72270000D01*
X164130000Y-72270000D02*
X181970000Y-72270000D01*
X164130000Y-74930000D02*
X164130000Y-72270000D01*
X164130000Y-74930000D02*
X181970000Y-74930000D01*
X181970000Y-74930000D02*
X181970000Y-72270000D01*
%TO.C,R10*%
X172412258Y-82277500D02*
X171937742Y-82277500D01*
X172412258Y-83322500D02*
X171937742Y-83322500D01*
%TO.C,C13*%
X152890000Y-110884420D02*
X152890000Y-111165580D01*
X153910000Y-110884420D02*
X153910000Y-111165580D01*
%TO.C,J4*%
X134610000Y-72270000D02*
X134610000Y-74930000D01*
X157530000Y-72270000D02*
X134610000Y-72270000D01*
X157530000Y-72270000D02*
X157530000Y-74930000D01*
X157530000Y-74930000D02*
X134610000Y-74930000D01*
X160130000Y-73600000D02*
X160130000Y-74930000D01*
X160130000Y-74930000D02*
X158800000Y-74930000D01*
%TO.C,J2*%
X143680000Y-90420000D02*
X148980000Y-90420000D01*
X143680000Y-93070000D02*
X143680000Y-90420000D01*
X143680000Y-95720000D02*
X143680000Y-94340000D01*
X145060000Y-95720000D02*
X143680000Y-95720000D01*
X146330000Y-93070000D02*
X143680000Y-93070000D01*
X146330000Y-95720000D02*
X146330000Y-93070000D01*
X146330000Y-95720000D02*
X148980000Y-95720000D01*
X148980000Y-95720000D02*
X148980000Y-90420000D01*
%TO.C,C8*%
X138615580Y-91290000D02*
X138334420Y-91290000D01*
X138615580Y-92310000D02*
X138334420Y-92310000D01*
%TO.C,FB2*%
X160100279Y-108890000D02*
X159774721Y-108890000D01*
X160100279Y-109910000D02*
X159774721Y-109910000D01*
%TO.C,U5*%
X125140000Y-99190000D02*
X125140000Y-100450000D01*
X125140000Y-106010000D02*
X125140000Y-104750000D01*
X128900000Y-99190000D02*
X125140000Y-99190000D01*
X128900000Y-106010000D02*
X125140000Y-106010000D01*
X130420000Y-106240000D02*
X129940000Y-106240000D01*
X130180000Y-105910000D01*
X130420000Y-106240000D01*
G36*
X130420000Y-106240000D02*
G01*
X129940000Y-106240000D01*
X130180000Y-105910000D01*
X130420000Y-106240000D01*
G37*
%TO.C,D2*%
X127910000Y-96200000D02*
X123900000Y-96200000D01*
X127910000Y-98200000D02*
X123900000Y-98200000D01*
X127910000Y-98200000D02*
X127910000Y-96200000D01*
%TO.C,R9*%
X167587742Y-102477500D02*
X168062258Y-102477500D01*
X167587742Y-103522500D02*
X168062258Y-103522500D01*
%TO.C,ICSP1*%
X180020000Y-92420000D02*
X181400000Y-92420000D01*
X180020000Y-93800000D02*
X180020000Y-92420000D01*
X180020000Y-95070000D02*
X180020000Y-100260000D01*
X180020000Y-95070000D02*
X182670000Y-95070000D01*
X180020000Y-100260000D02*
X185320000Y-100260000D01*
X182670000Y-92420000D02*
X185320000Y-92420000D01*
X182670000Y-95070000D02*
X182670000Y-92420000D01*
X185320000Y-92420000D02*
X185320000Y-100260000D01*
%TO.C,C7*%
X135365580Y-91290000D02*
X135084420Y-91290000D01*
X135365580Y-92310000D02*
X135084420Y-92310000D01*
%TD*%
M02*
