%TF.GenerationSoftware,KiCad,Pcbnew,9.0.5*%
%TF.CreationDate,2025-10-24T18:10:23+02:00*%
%TF.ProjectId,panel,70616e65-6c2e-46b6-9963-61645f706362,rev?*%
%TF.SameCoordinates,Original*%
%TF.FileFunction,Profile,NP*%
%FSLAX46Y46*%
G04 Gerber Fmt 4.6, Leading zero omitted, Abs format (unit mm)*
G04 Created by KiCad (PCBNEW 9.0.5) date 2025-10-24 18:10:23*
%MOMM*%
%LPD*%
G01*
G04 APERTURE LIST*
%TA.AperFunction,Profile*%
%ADD10C,0.100000*%
%TD*%
G04 APERTURE END LIST*
D10*
X126951462Y-43963415D02*
X126848077Y-44056819D01*
X169661826Y-64218384D02*
X169782243Y-64142319D01*
X147211699Y-21538916D02*
X147147190Y-21415419D01*
X145827215Y-43522866D02*
X145697826Y-43471181D01*
X168250000Y-43300000D02*
X162753631Y-43300000D01*
X126408965Y-63304651D02*
X126485637Y-63420987D01*
X149514109Y-38828212D02*
X149531712Y-38966426D01*
X125996266Y-61989285D02*
X126006846Y-62128212D01*
X169410021Y-64351369D02*
X169537642Y-64288129D01*
X126848077Y-44056819D02*
X126749556Y-44155340D01*
X170647423Y-39911932D02*
X170714553Y-39786315D01*
X128326310Y-41268287D02*
X128464524Y-41285890D01*
X134246368Y-42301500D02*
X134246368Y-43300000D01*
X125992737Y-61850000D02*
X125996266Y-61989285D01*
X149671181Y-45094910D02*
X149626117Y-45226751D01*
X126024449Y-45633573D02*
X126006846Y-45771787D01*
X145225305Y-41264705D02*
X145364846Y-41236164D01*
X169461083Y-20281037D02*
X169334478Y-20222866D01*
X139246368Y-41299999D02*
X144942736Y-41299999D01*
X147066632Y-63333916D02*
X147140160Y-63211932D01*
X170875857Y-62691052D02*
X170915785Y-62554334D01*
X149845546Y-63184580D02*
X149916228Y-63304651D01*
X147404949Y-45360705D02*
X147366619Y-45226751D01*
X134246368Y-42299500D02*
X134246368Y-42301500D01*
X147497517Y-33150000D02*
X148499000Y-33150000D01*
X126024449Y-22333573D02*
X126006846Y-22471787D01*
X149514109Y-22471787D02*
X149503529Y-22610714D01*
X170336584Y-20958725D02*
X170243180Y-20855340D01*
X149556292Y-45496429D02*
X149531712Y-45633573D01*
X149500000Y-51450000D02*
X148501000Y-51450000D01*
X168528212Y-20014109D02*
X168389285Y-20003529D01*
X134246368Y-43300000D02*
X128742737Y-43300000D01*
X125992737Y-22750000D02*
X125992737Y-38550000D01*
X126273774Y-21538916D02*
X126215603Y-21665521D01*
X170573895Y-40033916D02*
X170647423Y-39911932D01*
X147485295Y-62134384D02*
X147496321Y-61992382D01*
X147492737Y-46050000D02*
X147489207Y-45910714D01*
X125992737Y-46050000D02*
X125992737Y-61850000D01*
X151696429Y-43356292D02*
X151560705Y-43387787D01*
X126848077Y-40543180D02*
X126951462Y-40636584D01*
X146901187Y-40265689D02*
X146986904Y-40151940D01*
X146534011Y-20663415D02*
X146426028Y-20575366D01*
X126118854Y-21926751D02*
X126080524Y-22060705D01*
X170948600Y-62415735D02*
X170974213Y-62275628D01*
X170219982Y-40479162D02*
X170316974Y-40374860D01*
X127531653Y-20281037D02*
X127408156Y-20345546D01*
X168449999Y-64599999D02*
X168591740Y-64586003D01*
X145902758Y-64351369D02*
X146030379Y-64288129D01*
X150256819Y-44155340D02*
X150163415Y-44258725D01*
X170573895Y-63333916D02*
X170647423Y-63211932D01*
X149626117Y-39373248D02*
X149671181Y-39505089D01*
X150075366Y-63533291D02*
X150163415Y-63641274D01*
X127919488Y-41173882D02*
X128053442Y-41212212D01*
X146712719Y-63779162D02*
X146809711Y-63674860D01*
X146986904Y-40151940D02*
X147066632Y-40033916D01*
X149500000Y-46050000D02*
X149500000Y-51450000D01*
X145772042Y-41107934D02*
X145902758Y-41051369D01*
X147076508Y-44595348D02*
X146999836Y-44479012D01*
X170219982Y-63779162D02*
X170316974Y-63674860D01*
X169009990Y-64500455D02*
X169145843Y-64457674D01*
X147147190Y-21415419D02*
X147076508Y-21295348D01*
X127919488Y-64473882D02*
X128053442Y-64512212D01*
X126049029Y-45496429D02*
X126024449Y-45633573D01*
X149845546Y-39884580D02*
X149916228Y-40004651D01*
X145432031Y-20087787D02*
X145296307Y-20056292D01*
X171007263Y-61850000D02*
X171000000Y-46050000D01*
X151038916Y-20281037D02*
X150915419Y-20345546D01*
X126080524Y-22060705D02*
X126049029Y-22196429D01*
X168528212Y-43314109D02*
X168389285Y-43303529D01*
X146809711Y-63674860D02*
X146901187Y-63565689D01*
X171000000Y-22750000D02*
X170996470Y-22610714D01*
X169584580Y-20345546D02*
X169461083Y-20281037D01*
X150163415Y-40341274D02*
X150256819Y-40444659D01*
X126080524Y-45360705D02*
X126049029Y-45496429D01*
X150795348Y-64183771D02*
X150915419Y-64254453D01*
X127658258Y-41077133D02*
X127787647Y-41128818D01*
X149556292Y-62403570D02*
X149587787Y-62539294D01*
X168449999Y-41299999D02*
X168591740Y-41286003D01*
X170875857Y-39391052D02*
X170915785Y-39254334D01*
X148501000Y-56450000D02*
X149500000Y-56450000D01*
X170243180Y-44155340D02*
X170144659Y-44056819D01*
X151426751Y-43426117D02*
X151294910Y-43471181D01*
X145953820Y-20281037D02*
X145827215Y-20222866D01*
X126408965Y-21295348D02*
X126338283Y-21415419D01*
X150355340Y-44056819D02*
X150256819Y-44155340D01*
X151696429Y-20056292D02*
X151560705Y-20087787D01*
X170117734Y-40578316D02*
X170219982Y-40479162D01*
X168591740Y-41286003D02*
X168732568Y-41264705D01*
X146426028Y-20575366D02*
X146313724Y-20492900D01*
X147495219Y-28150000D02*
X147492737Y-22750000D01*
X170647423Y-63211932D02*
X170714553Y-63086315D01*
X147076508Y-21295348D02*
X146999836Y-21179012D01*
X151560705Y-43387787D02*
X151426751Y-43426117D01*
X145296307Y-43356292D02*
X145159163Y-43331712D01*
X170985890Y-22471787D02*
X170968287Y-22333573D01*
X127408156Y-40954453D02*
X127531653Y-41018962D01*
X147436444Y-22196429D02*
X147404949Y-22060705D01*
X150355340Y-63843180D02*
X150458725Y-63936584D01*
X152250000Y-43300000D02*
X152110714Y-43303529D01*
X145565985Y-20126117D02*
X145432031Y-20087787D01*
X170714553Y-63086315D02*
X170775107Y-62957398D01*
X147441337Y-39115735D02*
X147466950Y-38975628D01*
X126951462Y-40636584D02*
X127059445Y-40724633D01*
X150075366Y-44366708D02*
X149992900Y-44479012D01*
X149722866Y-62934478D02*
X149781037Y-63061083D01*
X170336584Y-44258725D02*
X170243180Y-44155340D01*
X162753631Y-41299999D02*
X168449999Y-41299999D01*
X126049029Y-62403570D02*
X126080524Y-62539294D01*
X128053442Y-43387787D02*
X127919488Y-43426117D01*
X128742737Y-43300000D02*
X128603451Y-43303529D01*
X145502727Y-64500455D02*
X145638580Y-64457674D01*
X146809711Y-40374860D02*
X146901187Y-40265689D01*
X128053442Y-64512212D02*
X128189166Y-64543707D01*
X128603451Y-20003529D02*
X128464524Y-20014109D01*
X151165521Y-64377133D02*
X151294910Y-64428818D01*
X170873882Y-45226751D02*
X170828818Y-45094910D01*
X168872109Y-64536164D02*
X169009990Y-64500455D01*
X126215603Y-44965521D02*
X126163918Y-45094910D01*
X149722866Y-39634478D02*
X149781037Y-39761083D01*
X128326310Y-43331712D02*
X128189166Y-43356292D01*
X127059445Y-43875366D02*
X126951462Y-43963415D01*
X157753631Y-42299500D02*
X157753631Y-42301500D01*
X147489207Y-22610714D02*
X147478627Y-22471787D01*
X150075366Y-40233291D02*
X150163415Y-40341274D01*
X169279305Y-41107934D02*
X169410021Y-41051369D01*
X126006846Y-62128212D02*
X126024449Y-62266426D01*
X149626117Y-21926751D02*
X149587787Y-22060705D01*
X127171749Y-43792900D02*
X127059445Y-43875366D01*
X126118854Y-39373248D02*
X126163918Y-39505089D01*
X126848077Y-20756819D02*
X126749556Y-20855340D01*
X126049029Y-39103570D02*
X126080524Y-39239294D01*
X147492737Y-22750000D02*
X147489207Y-22610714D01*
X169584580Y-43645546D02*
X169461083Y-43581037D01*
X146274980Y-40842319D02*
X146391309Y-40760137D01*
X170912212Y-22060705D02*
X170873882Y-21926751D01*
X168666426Y-43331712D02*
X168528212Y-43314109D01*
X149992900Y-40120987D02*
X150075366Y-40233291D01*
X170775107Y-39657398D02*
X170828923Y-39525527D01*
X149916228Y-63304651D02*
X149992900Y-63420987D01*
X128189166Y-20056292D02*
X128053442Y-20087787D01*
X146077317Y-43645546D02*
X145953820Y-43581037D01*
X125996266Y-22610714D02*
X125992737Y-22750000D01*
X169820987Y-43792900D02*
X169704651Y-43716228D01*
X149500000Y-56450000D02*
X149500000Y-61850000D01*
X149626117Y-45226751D02*
X149587787Y-45360705D01*
X126118854Y-62673248D02*
X126163918Y-62805089D01*
X145638580Y-64457674D02*
X145772042Y-64407934D01*
X149500000Y-61850000D02*
X149503529Y-61989285D01*
X126118854Y-45226751D02*
X126080524Y-45360705D01*
X151696429Y-41243707D02*
X151833573Y-41268287D01*
X146637396Y-20756819D02*
X146534011Y-20663415D01*
X128189166Y-43356292D02*
X128053442Y-43387787D01*
X145364846Y-41236164D02*
X145502727Y-41200455D01*
X146154563Y-64218384D02*
X146274980Y-64142319D01*
X149992900Y-21179012D02*
X149916228Y-21295348D01*
X150163415Y-20958725D02*
X150075366Y-21066708D01*
X148499000Y-51450000D02*
X147495219Y-51450000D01*
X146610471Y-40578316D02*
X146712719Y-40479162D01*
X145364846Y-64536164D02*
X145502727Y-64500455D01*
X169334478Y-20222866D02*
X169205089Y-20171181D01*
X147408522Y-62554334D02*
X147441337Y-62415735D01*
X147207290Y-63086315D02*
X147267844Y-62957398D01*
X128053442Y-41212212D02*
X128189166Y-41243707D01*
X170992558Y-62134384D02*
X171003584Y-61992382D01*
X126006846Y-38828212D02*
X126024449Y-38966426D01*
X149531712Y-22333573D02*
X149514109Y-22471787D01*
X149531712Y-38966426D02*
X149556292Y-39103570D01*
X147500000Y-38550000D02*
X147497517Y-33150000D01*
X170041274Y-20663415D02*
X169933291Y-20575366D01*
X147408522Y-39254334D02*
X147441337Y-39115735D01*
X146829321Y-20958725D02*
X146735917Y-20855340D01*
X147466950Y-38975628D02*
X147485295Y-38834384D01*
X151696429Y-64543707D02*
X151833573Y-64568287D01*
X170718962Y-21538916D02*
X170654453Y-21415419D01*
X170714553Y-39786315D02*
X170775107Y-39657398D01*
X145638580Y-41157674D02*
X145772042Y-41107934D01*
X125996266Y-45910714D02*
X125992737Y-46050000D01*
X151833573Y-64568287D02*
X151971787Y-64585890D01*
X145502727Y-41200455D02*
X145638580Y-41157674D01*
X170996470Y-45910714D02*
X170985890Y-45771787D01*
X145159163Y-20031712D02*
X145020949Y-20014109D01*
X170424633Y-21066708D02*
X170336584Y-20958725D01*
X148501000Y-28150000D02*
X148499000Y-28150000D01*
X149514109Y-62128212D02*
X149531712Y-62266426D01*
X147267844Y-39657398D02*
X147321660Y-39525527D01*
X147066632Y-40033916D02*
X147140160Y-39911932D01*
X146313724Y-20492900D02*
X146197388Y-20416228D01*
X147496321Y-61992382D02*
X147500000Y-61850000D01*
X147478627Y-22471787D02*
X147461024Y-22333573D01*
X169537642Y-40988129D02*
X169661826Y-40918384D01*
X151038916Y-41018962D02*
X151165521Y-41077133D01*
X150256819Y-20855340D02*
X150163415Y-20958725D01*
X170915785Y-62554334D02*
X170948600Y-62415735D01*
X127288085Y-20416228D02*
X127171749Y-20492900D01*
X170144659Y-20756819D02*
X170041274Y-20663415D01*
X128742737Y-20000000D02*
X128603451Y-20003529D01*
X151426751Y-20126117D02*
X151294910Y-20171181D01*
X170494167Y-40151940D02*
X170573895Y-40033916D01*
X150566708Y-40724633D02*
X150679012Y-40807099D01*
X170777133Y-21665521D02*
X170718962Y-21538916D01*
X149781037Y-44838916D02*
X149722866Y-44965521D01*
X149916228Y-44595348D02*
X149845546Y-44715419D01*
X150679012Y-64107099D02*
X150795348Y-64183771D01*
X128189166Y-64543707D02*
X128326310Y-64568287D01*
X151971787Y-20014109D02*
X151833573Y-20031712D01*
X127531653Y-43581037D02*
X127408156Y-43645546D01*
X170583771Y-44595348D02*
X170507099Y-44479012D01*
X146829321Y-44258725D02*
X146735917Y-44155340D01*
X146735917Y-20855340D02*
X146637396Y-20756819D01*
X147207290Y-39786315D02*
X147267844Y-39657398D01*
X170873882Y-21926751D02*
X170828818Y-21794910D01*
X127171749Y-40807099D02*
X127288085Y-40883771D01*
X150795348Y-40883771D02*
X150915419Y-40954453D01*
X169898572Y-40760137D02*
X170010502Y-40672058D01*
X126485637Y-63420987D02*
X126568103Y-63533291D01*
X145225305Y-64564705D02*
X145364846Y-64536164D01*
X144942736Y-41299999D02*
X145084477Y-41286003D01*
X170316974Y-63674860D02*
X170408450Y-63565689D01*
X147147190Y-44715419D02*
X147076508Y-44595348D01*
X126215603Y-21665521D02*
X126163918Y-21794910D01*
X134246368Y-41299999D02*
X134246368Y-42299500D01*
X170985890Y-45771787D02*
X170968287Y-45633573D01*
X147321555Y-45094910D02*
X147269870Y-44965521D01*
X126485637Y-44479012D02*
X126408965Y-44595348D01*
X147500000Y-61850000D02*
X147497517Y-56450000D01*
X145827215Y-20222866D02*
X145697826Y-20171181D01*
X145565985Y-43426117D02*
X145432031Y-43387787D01*
X127408156Y-64254453D02*
X127531653Y-64318962D01*
X150163415Y-63641274D02*
X150256819Y-63744659D01*
X126951462Y-63936584D02*
X127059445Y-64024633D01*
X149671181Y-21794910D02*
X149626117Y-21926751D01*
X147321555Y-21794910D02*
X147269870Y-21665521D01*
X152110714Y-20003529D02*
X151971787Y-20014109D01*
X147211699Y-44838916D02*
X147147190Y-44715419D01*
X126408965Y-44595348D02*
X126338283Y-44715419D01*
X126338283Y-44715419D02*
X126273774Y-44838916D01*
X170915785Y-39254334D02*
X170948600Y-39115735D01*
X147321660Y-39525527D02*
X147368594Y-39391052D01*
X145159163Y-43331712D02*
X145020949Y-43314109D01*
X149722866Y-21665521D02*
X149671181Y-21794910D01*
X151426751Y-41173882D02*
X151560705Y-41212212D01*
X126656152Y-20958725D02*
X126568103Y-21066708D01*
X126273774Y-39761083D02*
X126338283Y-39884580D01*
X146986904Y-63451940D02*
X147066632Y-63333916D01*
X151560705Y-41212212D02*
X151696429Y-41243707D01*
X128464524Y-64585890D02*
X128603451Y-64596470D01*
X144882022Y-43303529D02*
X144742737Y-43300000D01*
X151294910Y-64428818D02*
X151426751Y-64473882D01*
X128326310Y-20031712D02*
X128189166Y-20056292D01*
X146391309Y-40760137D02*
X146503239Y-40672058D01*
X146274980Y-64142319D02*
X146391309Y-64060137D01*
X151294910Y-43471181D02*
X151165521Y-43522866D01*
X168803570Y-43356292D02*
X168666426Y-43331712D01*
X146917370Y-44366708D02*
X146829321Y-44258725D01*
X169334478Y-43522866D02*
X169205089Y-43471181D01*
X152250000Y-41300000D02*
X157753631Y-41299999D01*
X169820987Y-20492900D02*
X169704651Y-20416228D01*
X170010502Y-63972058D02*
X170117734Y-63878316D01*
X170968287Y-22333573D02*
X170943707Y-22196429D01*
X147496321Y-38692382D02*
X147500000Y-38550000D01*
X152110714Y-41296470D02*
X152250000Y-41300000D01*
X170996470Y-22610714D02*
X170985890Y-22471787D01*
X150458725Y-63936584D02*
X150566708Y-64024633D01*
X147140160Y-63211932D02*
X147207290Y-63086315D01*
X127658258Y-20222866D02*
X127531653Y-20281037D01*
X150256819Y-63744659D02*
X150355340Y-63843180D01*
X169009990Y-41200455D02*
X169145843Y-41157674D01*
X149556292Y-39103570D02*
X149587787Y-39239294D01*
X147140160Y-39911932D02*
X147207290Y-39786315D01*
X170316974Y-40374860D02*
X170408450Y-40265689D01*
X139246368Y-42299500D02*
X139246368Y-41299999D01*
X151294910Y-20171181D02*
X151165521Y-20222866D01*
X145296307Y-20056292D02*
X145159163Y-20031712D01*
X151971787Y-41285890D02*
X152110714Y-41296470D01*
X146637396Y-44056819D02*
X146534011Y-43963415D01*
X151971787Y-64585890D02*
X152110714Y-64596470D01*
X149500000Y-33150000D02*
X149500000Y-38550000D01*
X170041274Y-43963415D02*
X169933291Y-43875366D01*
X146030379Y-40988129D02*
X146154563Y-40918384D01*
X168389285Y-43303529D02*
X168250000Y-43300000D01*
X149626117Y-62673248D02*
X149671181Y-62805089D01*
X150163415Y-44258725D02*
X150075366Y-44366708D01*
X170974213Y-38975628D02*
X170992558Y-38834384D01*
X126163918Y-21794910D02*
X126118854Y-21926751D01*
X128742737Y-64600000D02*
X144942736Y-64599999D01*
X169898572Y-64060137D02*
X170010502Y-63972058D01*
X168939294Y-20087787D02*
X168803570Y-20056292D01*
X148499000Y-28150000D02*
X147495219Y-28150000D01*
X149500000Y-28150000D02*
X148501000Y-28150000D01*
X126749556Y-44155340D02*
X126656152Y-44258725D01*
X150679012Y-43792900D02*
X150566708Y-43875366D01*
X169073248Y-43426117D02*
X168939294Y-43387787D01*
X128189166Y-41243707D02*
X128326310Y-41268287D01*
X127288085Y-40883771D02*
X127408156Y-40954453D01*
X149781037Y-21538916D02*
X149722866Y-21665521D01*
X146712719Y-40479162D02*
X146809711Y-40374860D01*
X149556292Y-22196429D02*
X149531712Y-22333573D01*
X170912212Y-45360705D02*
X170873882Y-45226751D01*
X170777133Y-44965521D02*
X170718962Y-44838916D01*
X145697826Y-43471181D02*
X145565985Y-43426117D01*
X147466950Y-62275628D02*
X147485295Y-62134384D01*
X171007263Y-38550000D02*
X171000000Y-22750000D01*
X126006846Y-45771787D02*
X125996266Y-45910714D01*
X149781037Y-63061083D02*
X149845546Y-63184580D01*
X169073248Y-20126117D02*
X168939294Y-20087787D01*
X168591740Y-64586003D02*
X168732568Y-64564705D01*
X151833573Y-43331712D02*
X151696429Y-43356292D01*
X170943707Y-22196429D02*
X170912212Y-22060705D01*
X170144659Y-44056819D02*
X170041274Y-43963415D01*
X171003584Y-38692382D02*
X171007263Y-38550000D01*
X126848077Y-63843180D02*
X126951462Y-63936584D01*
X170968287Y-45633573D02*
X170943707Y-45496429D01*
X146197388Y-43716228D02*
X146077317Y-43645546D01*
X170943707Y-45496429D02*
X170912212Y-45360705D01*
X126749556Y-20855340D02*
X126656152Y-20958725D01*
X152250000Y-64600000D02*
X168449999Y-64599999D01*
X149531712Y-45633573D02*
X149514109Y-45771787D01*
X169410021Y-41051369D02*
X169537642Y-40988129D01*
X149503529Y-22610714D02*
X149500000Y-22750000D01*
X128464524Y-41285890D02*
X128603451Y-41296470D01*
X147497517Y-56450000D02*
X148499000Y-56450000D01*
X149671181Y-62805089D02*
X149722866Y-62934478D01*
X147269870Y-44965521D02*
X147211699Y-44838916D01*
X151294910Y-41128818D02*
X151426751Y-41173882D01*
X170583771Y-21295348D02*
X170507099Y-21179012D01*
X170507099Y-44479012D02*
X170424633Y-44366708D01*
X145084477Y-64586003D02*
X145225305Y-64564705D01*
X127531653Y-41018962D02*
X127658258Y-41077133D01*
X149845546Y-21415419D02*
X149781037Y-21538916D01*
X126338283Y-63184580D02*
X126408965Y-63304651D01*
X169145843Y-64457674D02*
X169279305Y-64407934D01*
X149992900Y-63420987D02*
X150075366Y-63533291D01*
X169461083Y-43581037D02*
X169334478Y-43522866D01*
X146503239Y-40672058D02*
X146610471Y-40578316D01*
X151971787Y-43314109D02*
X151833573Y-43331712D01*
X169205089Y-20171181D02*
X169073248Y-20126117D01*
X147461024Y-45633573D02*
X147436444Y-45496429D01*
X147461024Y-22333573D02*
X147436444Y-22196429D01*
X145772042Y-64407934D02*
X145902758Y-64351369D01*
X127787647Y-20171181D02*
X127658258Y-20222866D01*
X146503239Y-63972058D02*
X146610471Y-63878316D01*
X145902758Y-41051369D02*
X146030379Y-40988129D01*
X149587787Y-45360705D02*
X149556292Y-45496429D01*
X126215603Y-39634478D02*
X126273774Y-39761083D01*
X170654453Y-21415419D02*
X170583771Y-21295348D01*
X169205089Y-43471181D02*
X169073248Y-43426117D01*
X128603451Y-41296470D02*
X128742737Y-41300000D01*
X146735917Y-44155340D02*
X146637396Y-44056819D01*
X145697826Y-20171181D02*
X145565985Y-20126117D01*
X126749556Y-40444659D02*
X126848077Y-40543180D01*
X170974213Y-62275628D02*
X170992558Y-62134384D01*
X170992558Y-38834384D02*
X171003584Y-38692382D01*
X149992900Y-44479012D02*
X149916228Y-44595348D01*
X157753631Y-41299999D02*
X157753631Y-42299500D01*
X127787647Y-64428818D02*
X127919488Y-64473882D01*
X150458725Y-20663415D02*
X150355340Y-20756819D01*
X147495219Y-51450000D02*
X147492737Y-46050000D01*
X128464524Y-43314109D02*
X128326310Y-43331712D01*
X151833573Y-41268287D02*
X151971787Y-41285890D01*
X127171749Y-20492900D02*
X127059445Y-20575366D01*
X149587787Y-22060705D02*
X149556292Y-22196429D01*
X168250000Y-20000000D02*
X152250000Y-20000000D01*
X127658258Y-64377133D02*
X127787647Y-64428818D01*
X151038916Y-43581037D02*
X150915419Y-43645546D01*
X145432031Y-43387787D02*
X145296307Y-43356292D01*
X151426751Y-64473882D02*
X151560705Y-64512212D01*
X149500000Y-38550000D02*
X149503529Y-38689285D01*
X148499000Y-56450000D02*
X148501000Y-56450000D01*
X146077317Y-20345546D02*
X145953820Y-20281037D01*
X151560705Y-20087787D02*
X151426751Y-20126117D01*
X147489207Y-45910714D02*
X147478627Y-45771787D01*
X126024449Y-62266426D02*
X126049029Y-62403570D01*
X126080524Y-39239294D02*
X126118854Y-39373248D01*
X171003584Y-61992382D02*
X171007263Y-61850000D01*
X162753631Y-43300000D02*
X162753631Y-42301500D01*
X149587787Y-39239294D02*
X149626117Y-39373248D01*
X126049029Y-22196429D02*
X126024449Y-22333573D01*
X126485637Y-40120987D02*
X126568103Y-40233291D01*
X152250000Y-20000000D02*
X152110714Y-20003529D01*
X126024449Y-38966426D02*
X126049029Y-39103570D01*
X170948600Y-39115735D02*
X170974213Y-38975628D01*
X128326310Y-64568287D02*
X128464524Y-64585890D01*
X168389285Y-20003529D02*
X168250000Y-20000000D01*
X170828818Y-21794910D02*
X170777133Y-21665521D01*
X170010502Y-40672058D02*
X170117734Y-40578316D01*
X168732568Y-64564705D02*
X168872109Y-64536164D01*
X127919488Y-43426117D02*
X127787647Y-43471181D01*
X126656152Y-63641274D02*
X126749556Y-63744659D01*
X126215603Y-62934478D02*
X126273774Y-63061083D01*
X147368594Y-62691052D02*
X147408522Y-62554334D01*
X150458725Y-40636584D02*
X150566708Y-40724633D01*
X150355340Y-20756819D02*
X150256819Y-20855340D01*
X150915419Y-40954453D02*
X151038916Y-41018962D01*
X144942736Y-64599999D02*
X145084477Y-64586003D01*
X144742737Y-43300000D02*
X139246368Y-43300000D01*
X127531653Y-64318962D02*
X127658258Y-64377133D01*
X150355340Y-40543180D02*
X150458725Y-40636584D01*
X150566708Y-20575366D02*
X150458725Y-20663415D01*
X149916228Y-21295348D02*
X149845546Y-21415419D01*
X127408156Y-20345546D02*
X127288085Y-20416228D01*
X148501000Y-51450000D02*
X148499000Y-51450000D01*
X150566708Y-43875366D02*
X150458725Y-43963415D01*
X147366619Y-45226751D02*
X147321555Y-45094910D01*
X147321660Y-62825527D02*
X147368594Y-62691052D01*
X170424633Y-44366708D02*
X170336584Y-44258725D01*
X150458725Y-43963415D02*
X150355340Y-44056819D01*
X149503529Y-61989285D02*
X149514109Y-62128212D01*
X150075366Y-21066708D02*
X149992900Y-21179012D01*
X146197388Y-20416228D02*
X146077317Y-20345546D01*
X150679012Y-20492900D02*
X150566708Y-20575366D01*
X126656152Y-40341274D02*
X126749556Y-40444659D01*
X151560705Y-64512212D02*
X151696429Y-64543707D01*
X127059445Y-20575366D02*
X126951462Y-20663415D01*
X171000000Y-46050000D02*
X170996470Y-45910714D01*
X152110714Y-43303529D02*
X151971787Y-43314109D01*
X126163918Y-39505089D02*
X126215603Y-39634478D01*
X126163918Y-45094910D02*
X126118854Y-45226751D01*
X126951462Y-20663415D02*
X126848077Y-20756819D01*
X127658258Y-43522866D02*
X127531653Y-43581037D01*
X126006846Y-22471787D02*
X125996266Y-22610714D01*
X170775107Y-62957398D02*
X170828923Y-62825527D01*
X127059445Y-64024633D02*
X127171749Y-64107099D01*
X151833573Y-20031712D02*
X151696429Y-20056292D01*
X169704651Y-43716228D02*
X169584580Y-43645546D01*
X128603451Y-64596470D02*
X128742737Y-64600000D01*
X162753631Y-42299500D02*
X162753631Y-41299999D01*
X126485637Y-21179012D02*
X126408965Y-21295348D01*
X170243180Y-20855340D02*
X170144659Y-20756819D01*
X170654453Y-44715419D02*
X170583771Y-44595348D01*
X126568103Y-40233291D02*
X126656152Y-40341274D01*
X147441337Y-62415735D02*
X147466950Y-62275628D01*
X149845546Y-44715419D02*
X149781037Y-44838916D01*
X126080524Y-62539294D02*
X126118854Y-62673248D01*
X146610471Y-63878316D02*
X146712719Y-63779162D01*
X150915419Y-20345546D02*
X150795348Y-20416228D01*
X127171749Y-64107099D02*
X127288085Y-64183771D01*
X149671181Y-39505089D02*
X149722866Y-39634478D01*
X139246368Y-42301500D02*
X139246368Y-42299500D01*
X149503529Y-38689285D02*
X149514109Y-38828212D01*
X144882022Y-20003529D02*
X144742737Y-20000000D01*
X145953820Y-43581037D02*
X145827215Y-43522866D01*
X146999836Y-44479012D02*
X146917370Y-44366708D01*
X128464524Y-20014109D02*
X128326310Y-20031712D01*
X168803570Y-20056292D02*
X168666426Y-20031712D01*
X147269870Y-21665521D02*
X147211699Y-21538916D01*
X145020949Y-43314109D02*
X144882022Y-43303529D01*
X162753631Y-42301500D02*
X162753631Y-42299500D01*
X148499000Y-33150000D02*
X148501000Y-33150000D01*
X125996266Y-38689285D02*
X126006846Y-38828212D01*
X126273774Y-44838916D02*
X126215603Y-44965521D01*
X169782243Y-64142319D02*
X169898572Y-64060137D01*
X168939294Y-43387787D02*
X168803570Y-43356292D01*
X169933291Y-20575366D02*
X169820987Y-20492900D01*
X168732568Y-41264705D02*
X168872109Y-41236164D01*
X151165521Y-20222866D02*
X151038916Y-20281037D01*
X128603451Y-43303529D02*
X128464524Y-43314109D01*
X126568103Y-63533291D02*
X126656152Y-63641274D01*
X144742737Y-20000000D02*
X128742737Y-20000000D01*
X128053442Y-20087787D02*
X127919488Y-20126117D01*
X149781037Y-39761083D02*
X149845546Y-39884580D01*
X145084477Y-41286003D02*
X145225305Y-41264705D01*
X151165521Y-43522866D02*
X151038916Y-43581037D01*
X126338283Y-21415419D02*
X126273774Y-21538916D01*
X170117734Y-63878316D02*
X170219982Y-63779162D01*
X150915419Y-43645546D02*
X150795348Y-43716228D01*
X157753631Y-42301500D02*
X157753631Y-43300000D01*
X147478627Y-45771787D02*
X147461024Y-45633573D01*
X170718962Y-44838916D02*
X170654453Y-44715419D01*
X149500000Y-22750000D02*
X149500000Y-28150000D01*
X126338283Y-39884580D02*
X126408965Y-40004651D01*
X150795348Y-20416228D02*
X150679012Y-20492900D01*
X169279305Y-64407934D02*
X169410021Y-64351369D01*
X145020949Y-20014109D02*
X144882022Y-20003529D01*
X169661826Y-40918384D02*
X169782243Y-40842319D01*
X157753631Y-43300000D02*
X152250000Y-43300000D01*
X169704651Y-20416228D02*
X169584580Y-20345546D01*
X151165521Y-41077133D02*
X151294910Y-41128818D01*
X170494167Y-63451940D02*
X170573895Y-63333916D01*
X149514109Y-45771787D02*
X149503529Y-45910714D01*
X170408450Y-63565689D02*
X170494167Y-63451940D01*
X170828923Y-62825527D02*
X170875857Y-62691052D01*
X127408156Y-43645546D02*
X127288085Y-43716228D01*
X152110714Y-64596470D02*
X152250000Y-64600000D01*
X150256819Y-40444659D02*
X150355340Y-40543180D01*
X150915419Y-64254453D02*
X151038916Y-64318962D01*
X139246368Y-43300000D02*
X139246368Y-42301500D01*
X150795348Y-43716228D02*
X150679012Y-43792900D01*
X168872109Y-41236164D02*
X169009990Y-41200455D01*
X127919488Y-20126117D02*
X127787647Y-20171181D01*
X146901187Y-63565689D02*
X146986904Y-63451940D01*
X126568103Y-21066708D02*
X126485637Y-21179012D01*
X147366619Y-21926751D02*
X147321555Y-21794910D01*
X149531712Y-62266426D02*
X149556292Y-62403570D01*
X147368594Y-39391052D02*
X147408522Y-39254334D01*
X127288085Y-64183771D02*
X127408156Y-64254453D01*
X147267844Y-62957398D02*
X147321660Y-62825527D01*
X125992737Y-38550000D02*
X125996266Y-38689285D01*
X150566708Y-64024633D02*
X150679012Y-64107099D01*
X128742737Y-41300000D02*
X134246368Y-41299999D01*
X149916228Y-40004651D02*
X149992900Y-40120987D01*
X169537642Y-64288129D02*
X169661826Y-64218384D01*
X146391309Y-64060137D02*
X146503239Y-63972058D01*
X127787647Y-43471181D02*
X127658258Y-43522866D01*
X169145843Y-41157674D02*
X169279305Y-41107934D01*
X168666426Y-20031712D02*
X168528212Y-20014109D01*
X149722866Y-44965521D02*
X149671181Y-45094910D01*
X127059445Y-40724633D02*
X127171749Y-40807099D01*
X146917370Y-21066708D02*
X146829321Y-20958725D01*
X170408450Y-40265689D02*
X170494167Y-40151940D01*
X149503529Y-45910714D02*
X149500000Y-46050000D01*
X151038916Y-64318962D02*
X151165521Y-64377133D01*
X147436444Y-45496429D02*
X147404949Y-45360705D01*
X127288085Y-43716228D02*
X127171749Y-43792900D01*
X126568103Y-44366708D02*
X126485637Y-44479012D01*
X126749556Y-63744659D02*
X126848077Y-63843180D01*
X146030379Y-64288129D02*
X146154563Y-64218384D01*
X146426028Y-43875366D02*
X146313724Y-43792900D01*
X148501000Y-33150000D02*
X149500000Y-33150000D01*
X169933291Y-43875366D02*
X169820987Y-43792900D01*
X126408965Y-40004651D02*
X126485637Y-40120987D01*
X126656152Y-44258725D02*
X126568103Y-44366708D01*
X127787647Y-41128818D02*
X127919488Y-41173882D01*
X146534011Y-43963415D02*
X146426028Y-43875366D01*
X170507099Y-21179012D02*
X170424633Y-21066708D01*
X170828923Y-39525527D02*
X170875857Y-39391052D01*
X147404949Y-22060705D02*
X147366619Y-21926751D01*
X147485295Y-38834384D02*
X147496321Y-38692382D01*
X150679012Y-40807099D02*
X150795348Y-40883771D01*
X126273774Y-63061083D02*
X126338283Y-63184580D01*
X149587787Y-62539294D02*
X149626117Y-62673248D01*
X170828818Y-45094910D02*
X170777133Y-44965521D01*
X169782243Y-40842319D02*
X169898572Y-40760137D01*
X146313724Y-43792900D02*
X146197388Y-43716228D01*
X146999836Y-21179012D02*
X146917370Y-21066708D01*
X146154563Y-40918384D02*
X146274980Y-40842319D01*
X126163918Y-62805089D02*
X126215603Y-62934478D01*
M02*
