M48
; DRILL file {KiCad 9.0.5} date 2025-10-24T18:10:25+0200
; FORMAT={-:-/ absolute / metric / decimal}
; #@! TF.CreationDate,2025-10-24T18:10:25+02:00
; #@! TF.GenerationSoftware,Kicad,Pcbnew,9.0.5
; #@! TF.FileFunction,Plated,1,2,PTH
FMAT,2
METRIC
; #@! TA.AperFunction,Plated,PTH,ViaDrill
T1C0.300
; #@! TA.AperFunction,Plated,PTH,ComponentDrill
T2C1.000
; #@! TA.AperFunction,Plated,PTH,ComponentDrill
T3C2.500
%
G90
G05
T1
X134.143Y-31.75
X134.143Y-33.825
X134.143Y-55.05
X134.143Y-57.125
X140.143Y-31.75
X140.143Y-33.8
X140.143Y-55.05
X140.143Y-57.1
X157.65Y-31.75
X157.65Y-33.825
X157.65Y-55.05
X157.65Y-57.125
X163.65Y-31.75
X163.65Y-33.8
X163.65Y-55.05
X163.65Y-57.1
T2
X144.943Y-28.55
X144.943Y-31.09
X144.943Y-51.85
X144.943Y-54.39
X168.45Y-28.55
X168.45Y-31.09
X168.45Y-51.85
X168.45Y-54.39
T3
X128.743Y-22.75
X128.743Y-38.55
X128.743Y-46.05
X128.743Y-61.85
X144.743Y-22.75
X144.743Y-38.55
X144.743Y-46.05
X144.743Y-61.85
X152.25Y-22.75
X152.25Y-38.55
X152.25Y-46.05
X152.25Y-61.85
X168.25Y-22.75
X168.25Y-38.55
X168.25Y-46.05
X168.25Y-61.85
M30
