M48
; DRILL file {KiCad 9.0.5} date 2025-10-24T18:10:25+0200
; FORMAT={-:-/ absolute / metric / decimal}
; #@! TF.CreationDate,2025-10-24T18:10:25+02:00
; #@! TF.GenerationSoftware,Kicad,Pcbnew,9.0.5
; #@! TF.FileFunction,NonPlated,1,2,NPTH
FMAT,2
METRIC
; #@! TA.AperFunction,NonPlated,NPTH,ComponentDrill
T1C0.500
%
G90
G05
T1
X134.246Y-41.1
X134.246Y-43.5
X135.246Y-41.1
X135.246Y-43.5
X136.246Y-41.1
X136.246Y-43.5
X137.246Y-41.1
X137.246Y-43.5
X138.246Y-41.1
X138.246Y-43.5
X139.246Y-41.1
X139.246Y-43.5
X147.295Y-28.15
X147.295Y-51.45
X147.296Y-29.15
X147.296Y-52.45
X147.296Y-30.15
X147.296Y-53.45
X147.297Y-31.15
X147.297Y-54.45
X147.297Y-32.15
X147.297Y-55.45
X147.298Y-33.15
X147.298Y-56.45
X149.7Y-28.15
X149.7Y-29.15
X149.7Y-30.15
X149.7Y-31.15
X149.7Y-32.15
X149.7Y-33.15
X149.7Y-51.45
X149.7Y-52.45
X149.7Y-53.45
X149.7Y-54.45
X149.7Y-55.45
X149.7Y-56.45
X157.754Y-41.1
X157.754Y-43.5
X158.754Y-41.1
X158.754Y-43.5
X159.754Y-41.1
X159.754Y-43.5
X160.754Y-41.1
X160.754Y-43.5
X161.754Y-41.1
X161.754Y-43.5
X162.754Y-41.1
X162.754Y-43.5
M30
