%TF.GenerationSoftware,KiCad,Pcbnew,9.0.5*%
%TF.CreationDate,2025-10-24T18:10:23+02:00*%
%TF.ProjectId,panel,70616e65-6c2e-46b6-9963-61645f706362,rev?*%
%TF.SameCoordinates,Original*%
%TF.FileFunction,Paste,Top*%
%TF.FilePolarity,Positive*%
%FSLAX46Y46*%
G04 Gerber Fmt 4.6, Leading zero omitted, Abs format (unit mm)*
G04 Created by KiCad (PCBNEW 9.0.5) date 2025-10-24 18:10:23*
%MOMM*%
%LPD*%
G01*
G04 APERTURE LIST*
G04 Aperture macros list*
%AMRoundRect*
0 Rectangle with rounded corners*
0 $1 Rounding radius*
0 $2 $3 $4 $5 $6 $7 $8 $9 X,Y pos of 4 corners*
0 Add a 4 corners polygon primitive as box body*
4,1,4,$2,$3,$4,$5,$6,$7,$8,$9,$2,$3,0*
0 Add four circle primitives for the rounded corners*
1,1,$1+$1,$2,$3*
1,1,$1+$1,$4,$5*
1,1,$1+$1,$6,$7*
1,1,$1+$1,$8,$9*
0 Add four rect primitives between the rounded corners*
20,1,$1+$1,$2,$3,$4,$5,0*
20,1,$1+$1,$4,$5,$6,$7,0*
20,1,$1+$1,$6,$7,$8,$9,0*
20,1,$1+$1,$8,$9,$2,$3,0*%
G04 Aperture macros list end*
%ADD10RoundRect,0.200000X0.275000X-0.200000X0.275000X0.200000X-0.275000X0.200000X-0.275000X-0.200000X0*%
%ADD11RoundRect,0.150000X-0.587500X-0.150000X0.587500X-0.150000X0.587500X0.150000X-0.587500X0.150000X0*%
%ADD12RoundRect,0.218750X0.218750X0.256250X-0.218750X0.256250X-0.218750X-0.256250X0.218750X-0.256250X0*%
%ADD13RoundRect,0.225000X0.225000X0.250000X-0.225000X0.250000X-0.225000X-0.250000X0.225000X-0.250000X0*%
G04 APERTURE END LIST*
D10*
%TO.C,R3*%
X161650000Y-56500000D03*
X161650000Y-54850000D03*
%TD*%
D11*
%TO.C,Q2*%
X132467737Y-27600000D03*
X132467737Y-29500000D03*
X134342737Y-28550000D03*
%TD*%
%TO.C,Q2*%
X155975000Y-27600000D03*
X155975000Y-29500000D03*
X157850000Y-28550000D03*
%TD*%
D10*
%TO.C,R4*%
X135142737Y-56525000D03*
X135142737Y-54875000D03*
%TD*%
D12*
%TO.C,D1*%
X163637500Y-34950000D03*
X162062500Y-34950000D03*
%TD*%
D10*
%TO.C,R4*%
X158650000Y-33225000D03*
X158650000Y-31575000D03*
%TD*%
D11*
%TO.C,Q1*%
X163512500Y-50900000D03*
X163512500Y-52800000D03*
X165387500Y-51850000D03*
%TD*%
D13*
%TO.C,C1*%
X161450000Y-27350000D03*
X159900000Y-27350000D03*
%TD*%
D10*
%TO.C,R1*%
X141186059Y-33200000D03*
X141186059Y-31550000D03*
%TD*%
D13*
%TO.C,C2*%
X161425000Y-52450000D03*
X159875000Y-52450000D03*
%TD*%
%TO.C,C2*%
X137917737Y-52450000D03*
X136367737Y-52450000D03*
%TD*%
%TO.C,C1*%
X161450000Y-50650000D03*
X159900000Y-50650000D03*
%TD*%
D11*
%TO.C,Q1*%
X140005237Y-50900000D03*
X140005237Y-52800000D03*
X141880237Y-51850000D03*
%TD*%
D10*
%TO.C,R3*%
X138142737Y-33200000D03*
X138142737Y-31550000D03*
%TD*%
D12*
%TO.C,D2*%
X134130237Y-34950000D03*
X132555237Y-34950000D03*
%TD*%
D13*
%TO.C,C1*%
X137942737Y-27350000D03*
X136392737Y-27350000D03*
%TD*%
D10*
%TO.C,R4*%
X135142737Y-33225000D03*
X135142737Y-31575000D03*
%TD*%
D12*
%TO.C,D2*%
X157637500Y-34950000D03*
X156062500Y-34950000D03*
%TD*%
D10*
%TO.C,R2*%
X132342737Y-33225000D03*
X132342737Y-31575000D03*
%TD*%
%TO.C,R1*%
X164693322Y-56500000D03*
X164693322Y-54850000D03*
%TD*%
D12*
%TO.C,D1*%
X140130237Y-34950000D03*
X138555237Y-34950000D03*
%TD*%
D13*
%TO.C,C2*%
X137917737Y-29150000D03*
X136367737Y-29150000D03*
%TD*%
%TO.C,C1*%
X137942737Y-50650000D03*
X136392737Y-50650000D03*
%TD*%
D10*
%TO.C,R4*%
X158650000Y-56525000D03*
X158650000Y-54875000D03*
%TD*%
%TO.C,R2*%
X155850000Y-56525000D03*
X155850000Y-54875000D03*
%TD*%
%TO.C,R3*%
X138142737Y-56500000D03*
X138142737Y-54850000D03*
%TD*%
D12*
%TO.C,D2*%
X157637500Y-58250000D03*
X156062500Y-58250000D03*
%TD*%
%TO.C,D1*%
X140130237Y-58250000D03*
X138555237Y-58250000D03*
%TD*%
D10*
%TO.C,R2*%
X155850000Y-33225000D03*
X155850000Y-31575000D03*
%TD*%
D12*
%TO.C,D2*%
X134130237Y-58250000D03*
X132555237Y-58250000D03*
%TD*%
D11*
%TO.C,Q1*%
X163512500Y-27600000D03*
X163512500Y-29500000D03*
X165387500Y-28550000D03*
%TD*%
D10*
%TO.C,R3*%
X161650000Y-33200000D03*
X161650000Y-31550000D03*
%TD*%
%TO.C,R1*%
X141186059Y-56500000D03*
X141186059Y-54850000D03*
%TD*%
D13*
%TO.C,C2*%
X161425000Y-29150000D03*
X159875000Y-29150000D03*
%TD*%
D12*
%TO.C,D1*%
X163637500Y-58250000D03*
X162062500Y-58250000D03*
%TD*%
D10*
%TO.C,R1*%
X164693322Y-33200000D03*
X164693322Y-31550000D03*
%TD*%
D11*
%TO.C,Q1*%
X140005237Y-27600000D03*
X140005237Y-29500000D03*
X141880237Y-28550000D03*
%TD*%
%TO.C,Q2*%
X155975000Y-50900000D03*
X155975000Y-52800000D03*
X157850000Y-51850000D03*
%TD*%
D10*
%TO.C,R2*%
X132342737Y-56525000D03*
X132342737Y-54875000D03*
%TD*%
D11*
%TO.C,Q2*%
X132467737Y-50900000D03*
X132467737Y-52800000D03*
X134342737Y-51850000D03*
%TD*%
M02*
