%TF.GenerationSoftware,KiCad,Pcbnew,9.0.5*%
%TF.CreationDate,2025-10-31T15:40:08+01:00*%
%TF.ProjectId,ATMEGA32_evaluation_board,41544d45-4741-4333-925f-6576616c7561,rev?*%
%TF.SameCoordinates,Original*%
%TF.FileFunction,Copper,L2,Inr*%
%TF.FilePolarity,Positive*%
%FSLAX46Y46*%
G04 Gerber Fmt 4.6, Leading zero omitted, Abs format (unit mm)*
G04 Created by KiCad (PCBNEW 9.0.5) date 2025-10-31 15:40:08*
%MOMM*%
%LPD*%
G01*
G04 APERTURE LIST*
%TA.AperFunction,ComponentPad*%
%ADD10C,2.000000*%
%TD*%
%TA.AperFunction,ComponentPad*%
%ADD11C,5.000000*%
%TD*%
%TA.AperFunction,ComponentPad*%
%ADD12R,1.700000X1.700000*%
%TD*%
%TA.AperFunction,ComponentPad*%
%ADD13C,1.700000*%
%TD*%
%TA.AperFunction,ViaPad*%
%ADD14C,0.400000*%
%TD*%
G04 APERTURE END LIST*
D10*
%TO.N,Net-(C20-Pad2)*%
%TO.C,SW1*%
X116900000Y-83200000D03*
X123400000Y-83200000D03*
%TO.N,RST*%
X116900000Y-87700000D03*
X123400000Y-87700000D03*
%TD*%
D11*
%TO.N,GNDD*%
%TO.C,H1*%
X155800000Y-70800000D03*
%TD*%
%TO.N,GNDD*%
%TO.C,H3*%
X116800000Y-119200000D03*
%TD*%
D12*
%TO.N,PB5*%
%TO.C,J2*%
X127800000Y-80600000D03*
D13*
%TO.N,PB6*%
X127800000Y-83140000D03*
%TO.N,PB7*%
X127800000Y-85680000D03*
%TO.N,RST*%
X127800000Y-88220000D03*
%TO.N,+3V3D*%
X127800000Y-90760000D03*
%TO.N,GNDD*%
X127800000Y-93300000D03*
%TD*%
D12*
%TO.N,+9VD*%
%TO.C,J1*%
X149660000Y-113600000D03*
D13*
%TO.N,GNDD*%
X152200000Y-113600000D03*
X154740000Y-113600000D03*
%TD*%
D11*
%TO.N,GNDD*%
%TO.C,H2*%
X155800000Y-119200000D03*
%TD*%
%TO.N,GNDD*%
%TO.C,H4*%
X116800000Y-70800000D03*
%TD*%
D14*
%TO.N,+3V3D*%
X134600000Y-86200000D03*
X131200000Y-86400000D03*
X138800000Y-83400000D03*
X136000000Y-96000000D03*
X131200000Y-80600000D03*
X129800000Y-75600000D03*
X128000000Y-73800000D03*
%TD*%
%TA.AperFunction,Conductor*%
%TO.N,GNDA*%
G36*
X153897211Y-68270185D02*
G01*
X153942966Y-68322989D01*
X153952910Y-68392147D01*
X153923885Y-68455703D01*
X153907484Y-68471447D01*
X153797483Y-68559168D01*
X153559174Y-68797477D01*
X153349053Y-69060962D01*
X153169752Y-69346316D01*
X153023532Y-69649945D01*
X152912227Y-69968034D01*
X152912223Y-69968046D01*
X152837233Y-70296602D01*
X152837231Y-70296618D01*
X152799500Y-70631491D01*
X152799500Y-70968508D01*
X152837231Y-71303381D01*
X152837233Y-71303397D01*
X152912223Y-71631953D01*
X152912227Y-71631965D01*
X153023532Y-71950054D01*
X153169752Y-72253683D01*
X153169754Y-72253686D01*
X153349054Y-72539039D01*
X153559175Y-72802523D01*
X153797477Y-73040825D01*
X154060961Y-73250946D01*
X154346314Y-73430246D01*
X154649949Y-73576469D01*
X154888848Y-73660063D01*
X154968034Y-73687772D01*
X154968046Y-73687776D01*
X155296606Y-73762767D01*
X155631492Y-73800499D01*
X155631493Y-73800500D01*
X155631496Y-73800500D01*
X155968507Y-73800500D01*
X155968507Y-73800499D01*
X156303394Y-73762767D01*
X156631954Y-73687776D01*
X156950051Y-73576469D01*
X157253686Y-73430246D01*
X157539039Y-73250946D01*
X157802523Y-73040825D01*
X158040825Y-72802523D01*
X158040831Y-72802516D01*
X158128553Y-72692516D01*
X158185741Y-72652375D01*
X158255552Y-72649525D01*
X158315823Y-72684870D01*
X158347416Y-72747189D01*
X158349500Y-72769828D01*
X158349500Y-117230171D01*
X158329815Y-117297210D01*
X158277011Y-117342965D01*
X158207853Y-117352909D01*
X158144297Y-117323884D01*
X158128553Y-117307484D01*
X158040825Y-117197477D01*
X157802522Y-116959174D01*
X157735606Y-116905811D01*
X157539039Y-116749054D01*
X157253686Y-116569754D01*
X157253683Y-116569752D01*
X156950054Y-116423532D01*
X156631965Y-116312227D01*
X156631953Y-116312223D01*
X156303397Y-116237233D01*
X156303381Y-116237231D01*
X155968508Y-116199500D01*
X155968504Y-116199500D01*
X155631496Y-116199500D01*
X155631491Y-116199500D01*
X155296618Y-116237231D01*
X155296602Y-116237233D01*
X154968046Y-116312223D01*
X154968034Y-116312227D01*
X154649945Y-116423532D01*
X154346316Y-116569752D01*
X154060962Y-116749053D01*
X153797477Y-116959174D01*
X153559174Y-117197477D01*
X153349053Y-117460962D01*
X153169752Y-117746316D01*
X153023532Y-118049945D01*
X152912227Y-118368034D01*
X152912223Y-118368046D01*
X152837233Y-118696602D01*
X152837231Y-118696618D01*
X152799500Y-119031491D01*
X152799500Y-119368508D01*
X152837231Y-119703381D01*
X152837233Y-119703397D01*
X152912223Y-120031953D01*
X152912227Y-120031965D01*
X153023532Y-120350054D01*
X153169752Y-120653683D01*
X153169754Y-120653686D01*
X153349054Y-120939039D01*
X153505811Y-121135606D01*
X153559174Y-121202522D01*
X153797483Y-121440831D01*
X153907484Y-121528553D01*
X153947625Y-121585741D01*
X153950475Y-121655552D01*
X153915130Y-121715823D01*
X153852811Y-121747416D01*
X153830172Y-121749500D01*
X118769828Y-121749500D01*
X118702789Y-121729815D01*
X118657034Y-121677011D01*
X118647090Y-121607853D01*
X118676115Y-121544297D01*
X118692516Y-121528553D01*
X118802516Y-121440831D01*
X118802518Y-121440828D01*
X118802523Y-121440825D01*
X119040825Y-121202523D01*
X119250946Y-120939039D01*
X119430246Y-120653686D01*
X119576469Y-120350051D01*
X119687776Y-120031954D01*
X119762767Y-119703394D01*
X119800500Y-119368504D01*
X119800500Y-119031496D01*
X119762767Y-118696606D01*
X119687776Y-118368046D01*
X119576469Y-118049949D01*
X119430246Y-117746314D01*
X119250946Y-117460961D01*
X119040825Y-117197477D01*
X118802523Y-116959175D01*
X118539039Y-116749054D01*
X118253686Y-116569754D01*
X118253683Y-116569752D01*
X117950054Y-116423532D01*
X117631965Y-116312227D01*
X117631953Y-116312223D01*
X117303397Y-116237233D01*
X117303381Y-116237231D01*
X116968508Y-116199500D01*
X116968504Y-116199500D01*
X116631496Y-116199500D01*
X116631491Y-116199500D01*
X116296618Y-116237231D01*
X116296602Y-116237233D01*
X115968046Y-116312223D01*
X115968034Y-116312227D01*
X115649945Y-116423532D01*
X115346316Y-116569752D01*
X115060962Y-116749053D01*
X114797477Y-116959174D01*
X114559174Y-117197477D01*
X114471447Y-117307484D01*
X114414259Y-117347624D01*
X114344447Y-117350474D01*
X114284177Y-117315128D01*
X114252584Y-117252810D01*
X114250500Y-117230171D01*
X114250500Y-112702135D01*
X148309500Y-112702135D01*
X148309500Y-114497870D01*
X148309501Y-114497876D01*
X148315908Y-114557483D01*
X148366202Y-114692328D01*
X148366206Y-114692335D01*
X148452452Y-114807544D01*
X148452455Y-114807547D01*
X148567664Y-114893793D01*
X148567671Y-114893797D01*
X148702517Y-114944091D01*
X148702516Y-114944091D01*
X148709444Y-114944835D01*
X148762127Y-114950500D01*
X150557872Y-114950499D01*
X150617483Y-114944091D01*
X150752331Y-114893796D01*
X150867546Y-114807546D01*
X150953796Y-114692331D01*
X151002810Y-114560916D01*
X151044681Y-114504984D01*
X151110145Y-114480566D01*
X151178418Y-114495417D01*
X151206673Y-114516569D01*
X151320213Y-114630109D01*
X151492179Y-114755048D01*
X151492181Y-114755049D01*
X151492184Y-114755051D01*
X151681588Y-114851557D01*
X151883757Y-114917246D01*
X152093713Y-114950500D01*
X152093714Y-114950500D01*
X152306286Y-114950500D01*
X152306287Y-114950500D01*
X152516243Y-114917246D01*
X152718412Y-114851557D01*
X152907816Y-114755051D01*
X152994138Y-114692335D01*
X153079786Y-114630109D01*
X153079788Y-114630106D01*
X153079792Y-114630104D01*
X153230104Y-114479792D01*
X153230106Y-114479788D01*
X153230109Y-114479786D01*
X153355048Y-114307820D01*
X153355047Y-114307820D01*
X153355051Y-114307816D01*
X153359514Y-114299054D01*
X153407488Y-114248259D01*
X153475308Y-114231463D01*
X153541444Y-114253999D01*
X153580486Y-114299056D01*
X153584951Y-114307820D01*
X153709890Y-114479786D01*
X153860213Y-114630109D01*
X154032179Y-114755048D01*
X154032181Y-114755049D01*
X154032184Y-114755051D01*
X154221588Y-114851557D01*
X154423757Y-114917246D01*
X154633713Y-114950500D01*
X154633714Y-114950500D01*
X154846286Y-114950500D01*
X154846287Y-114950500D01*
X155056243Y-114917246D01*
X155258412Y-114851557D01*
X155447816Y-114755051D01*
X155534138Y-114692335D01*
X155619786Y-114630109D01*
X155619788Y-114630106D01*
X155619792Y-114630104D01*
X155770104Y-114479792D01*
X155770106Y-114479788D01*
X155770109Y-114479786D01*
X155895048Y-114307820D01*
X155895047Y-114307820D01*
X155895051Y-114307816D01*
X155991557Y-114118412D01*
X156057246Y-113916243D01*
X156090500Y-113706287D01*
X156090500Y-113493713D01*
X156057246Y-113283757D01*
X155991557Y-113081588D01*
X155895051Y-112892184D01*
X155895049Y-112892181D01*
X155895048Y-112892179D01*
X155770109Y-112720213D01*
X155619786Y-112569890D01*
X155447820Y-112444951D01*
X155258414Y-112348444D01*
X155258413Y-112348443D01*
X155258412Y-112348443D01*
X155056243Y-112282754D01*
X155056241Y-112282753D01*
X155056240Y-112282753D01*
X154894957Y-112257208D01*
X154846287Y-112249500D01*
X154633713Y-112249500D01*
X154585042Y-112257208D01*
X154423760Y-112282753D01*
X154221585Y-112348444D01*
X154032179Y-112444951D01*
X153860213Y-112569890D01*
X153709890Y-112720213D01*
X153584949Y-112892182D01*
X153580484Y-112900946D01*
X153532509Y-112951742D01*
X153464688Y-112968536D01*
X153398553Y-112945998D01*
X153359516Y-112900946D01*
X153355050Y-112892182D01*
X153230109Y-112720213D01*
X153079786Y-112569890D01*
X152907820Y-112444951D01*
X152718414Y-112348444D01*
X152718413Y-112348443D01*
X152718412Y-112348443D01*
X152516243Y-112282754D01*
X152516241Y-112282753D01*
X152516240Y-112282753D01*
X152354957Y-112257208D01*
X152306287Y-112249500D01*
X152093713Y-112249500D01*
X152045042Y-112257208D01*
X151883760Y-112282753D01*
X151681585Y-112348444D01*
X151492179Y-112444951D01*
X151320215Y-112569889D01*
X151206673Y-112683431D01*
X151145350Y-112716915D01*
X151075658Y-112711931D01*
X151019725Y-112670059D01*
X151002810Y-112639082D01*
X150953797Y-112507671D01*
X150953793Y-112507664D01*
X150867547Y-112392455D01*
X150867544Y-112392452D01*
X150752335Y-112306206D01*
X150752328Y-112306202D01*
X150617482Y-112255908D01*
X150617483Y-112255908D01*
X150557883Y-112249501D01*
X150557881Y-112249500D01*
X150557873Y-112249500D01*
X150557864Y-112249500D01*
X148762129Y-112249500D01*
X148762123Y-112249501D01*
X148702516Y-112255908D01*
X148567671Y-112306202D01*
X148567664Y-112306206D01*
X148452455Y-112392452D01*
X148452452Y-112392455D01*
X148366206Y-112507664D01*
X148366202Y-112507671D01*
X148315908Y-112642517D01*
X148309501Y-112702116D01*
X148309500Y-112702135D01*
X114250500Y-112702135D01*
X114250500Y-96068995D01*
X135299499Y-96068995D01*
X135326418Y-96204322D01*
X135326421Y-96204332D01*
X135379221Y-96331804D01*
X135379228Y-96331817D01*
X135455885Y-96446541D01*
X135455888Y-96446545D01*
X135553454Y-96544111D01*
X135553458Y-96544114D01*
X135668182Y-96620771D01*
X135668195Y-96620778D01*
X135795667Y-96673578D01*
X135795672Y-96673580D01*
X135795676Y-96673580D01*
X135795677Y-96673581D01*
X135931004Y-96700500D01*
X135931007Y-96700500D01*
X136068995Y-96700500D01*
X136160041Y-96682389D01*
X136204328Y-96673580D01*
X136331811Y-96620775D01*
X136446542Y-96544114D01*
X136544114Y-96446542D01*
X136620775Y-96331811D01*
X136673580Y-96204328D01*
X136700500Y-96068993D01*
X136700500Y-95931007D01*
X136700500Y-95931004D01*
X136673581Y-95795677D01*
X136673580Y-95795676D01*
X136673580Y-95795672D01*
X136673578Y-95795667D01*
X136620778Y-95668195D01*
X136620771Y-95668182D01*
X136544114Y-95553458D01*
X136544111Y-95553454D01*
X136446545Y-95455888D01*
X136446541Y-95455885D01*
X136331817Y-95379228D01*
X136331804Y-95379221D01*
X136204332Y-95326421D01*
X136204322Y-95326418D01*
X136068995Y-95299500D01*
X136068993Y-95299500D01*
X135931007Y-95299500D01*
X135931005Y-95299500D01*
X135795677Y-95326418D01*
X135795667Y-95326421D01*
X135668195Y-95379221D01*
X135668182Y-95379228D01*
X135553458Y-95455885D01*
X135553454Y-95455888D01*
X135455888Y-95553454D01*
X135455885Y-95553458D01*
X135379228Y-95668182D01*
X135379221Y-95668195D01*
X135326421Y-95795667D01*
X135326418Y-95795677D01*
X135299500Y-95931004D01*
X135299500Y-95931007D01*
X135299500Y-96068993D01*
X135299500Y-96068995D01*
X135299499Y-96068995D01*
X114250500Y-96068995D01*
X114250500Y-87581902D01*
X115399500Y-87581902D01*
X115399500Y-87818097D01*
X115436446Y-88051368D01*
X115509433Y-88275996D01*
X115616657Y-88486433D01*
X115755483Y-88677510D01*
X115922490Y-88844517D01*
X116113567Y-88983343D01*
X116212991Y-89034002D01*
X116324003Y-89090566D01*
X116324005Y-89090566D01*
X116324008Y-89090568D01*
X116444412Y-89129689D01*
X116548631Y-89163553D01*
X116781903Y-89200500D01*
X116781908Y-89200500D01*
X117018097Y-89200500D01*
X117251368Y-89163553D01*
X117475992Y-89090568D01*
X117686433Y-88983343D01*
X117877510Y-88844517D01*
X118044517Y-88677510D01*
X118183343Y-88486433D01*
X118290568Y-88275992D01*
X118363553Y-88051368D01*
X118386932Y-87903760D01*
X118400500Y-87818097D01*
X118400500Y-87581902D01*
X121899500Y-87581902D01*
X121899500Y-87818097D01*
X121936446Y-88051368D01*
X122009433Y-88275996D01*
X122116657Y-88486433D01*
X122255483Y-88677510D01*
X122422490Y-88844517D01*
X122613567Y-88983343D01*
X122712991Y-89034002D01*
X122824003Y-89090566D01*
X122824005Y-89090566D01*
X122824008Y-89090568D01*
X122944412Y-89129689D01*
X123048631Y-89163553D01*
X123281903Y-89200500D01*
X123281908Y-89200500D01*
X123518097Y-89200500D01*
X123751368Y-89163553D01*
X123975992Y-89090568D01*
X124186433Y-88983343D01*
X124377510Y-88844517D01*
X124544517Y-88677510D01*
X124683343Y-88486433D01*
X124790568Y-88275992D01*
X124863553Y-88051368D01*
X124886932Y-87903760D01*
X124900500Y-87818097D01*
X124900500Y-87581902D01*
X124863553Y-87348631D01*
X124790566Y-87124003D01*
X124733758Y-87012512D01*
X124683343Y-86913567D01*
X124544517Y-86722490D01*
X124377510Y-86555483D01*
X124186433Y-86416657D01*
X124162224Y-86404322D01*
X123975996Y-86309433D01*
X123751368Y-86236446D01*
X123518097Y-86199500D01*
X123518092Y-86199500D01*
X123281908Y-86199500D01*
X123281903Y-86199500D01*
X123048631Y-86236446D01*
X122824003Y-86309433D01*
X122613566Y-86416657D01*
X122541533Y-86468993D01*
X122422490Y-86555483D01*
X122422488Y-86555485D01*
X122422487Y-86555485D01*
X122255485Y-86722487D01*
X122255485Y-86722488D01*
X122255483Y-86722490D01*
X122195862Y-86804550D01*
X122116657Y-86913566D01*
X122009433Y-87124003D01*
X121936446Y-87348631D01*
X121899500Y-87581902D01*
X118400500Y-87581902D01*
X118363553Y-87348631D01*
X118290566Y-87124003D01*
X118233758Y-87012512D01*
X118183343Y-86913567D01*
X118044517Y-86722490D01*
X117877510Y-86555483D01*
X117686433Y-86416657D01*
X117662224Y-86404322D01*
X117475996Y-86309433D01*
X117251368Y-86236446D01*
X117018097Y-86199500D01*
X117018092Y-86199500D01*
X116781908Y-86199500D01*
X116781903Y-86199500D01*
X116548631Y-86236446D01*
X116324003Y-86309433D01*
X116113566Y-86416657D01*
X116041533Y-86468993D01*
X115922490Y-86555483D01*
X115922488Y-86555485D01*
X115922487Y-86555485D01*
X115755485Y-86722487D01*
X115755485Y-86722488D01*
X115755483Y-86722490D01*
X115695862Y-86804550D01*
X115616657Y-86913566D01*
X115509433Y-87124003D01*
X115436446Y-87348631D01*
X115399500Y-87581902D01*
X114250500Y-87581902D01*
X114250500Y-83081902D01*
X115399500Y-83081902D01*
X115399500Y-83318097D01*
X115436446Y-83551368D01*
X115509433Y-83775996D01*
X115595093Y-83944111D01*
X115616657Y-83986433D01*
X115755483Y-84177510D01*
X115922490Y-84344517D01*
X116113567Y-84483343D01*
X116212991Y-84534002D01*
X116324003Y-84590566D01*
X116324005Y-84590566D01*
X116324008Y-84590568D01*
X116444412Y-84629689D01*
X116548631Y-84663553D01*
X116781903Y-84700500D01*
X116781908Y-84700500D01*
X117018097Y-84700500D01*
X117251368Y-84663553D01*
X117475992Y-84590568D01*
X117686433Y-84483343D01*
X117877510Y-84344517D01*
X118044517Y-84177510D01*
X118183343Y-83986433D01*
X118290568Y-83775992D01*
X118363553Y-83551368D01*
X118400500Y-83318097D01*
X118400500Y-83081902D01*
X121899500Y-83081902D01*
X121899500Y-83318097D01*
X121936446Y-83551368D01*
X122009433Y-83775996D01*
X122095093Y-83944111D01*
X122116657Y-83986433D01*
X122255483Y-84177510D01*
X122422490Y-84344517D01*
X122613567Y-84483343D01*
X122712991Y-84534002D01*
X122824003Y-84590566D01*
X122824005Y-84590566D01*
X122824008Y-84590568D01*
X122944412Y-84629689D01*
X123048631Y-84663553D01*
X123281903Y-84700500D01*
X123281908Y-84700500D01*
X123518097Y-84700500D01*
X123751368Y-84663553D01*
X123975992Y-84590568D01*
X124186433Y-84483343D01*
X124377510Y-84344517D01*
X124544517Y-84177510D01*
X124683343Y-83986433D01*
X124790568Y-83775992D01*
X124863553Y-83551368D01*
X124900500Y-83318097D01*
X124900500Y-83081902D01*
X124863553Y-82848631D01*
X124790566Y-82624003D01*
X124734002Y-82512991D01*
X124683343Y-82413567D01*
X124544517Y-82222490D01*
X124377510Y-82055483D01*
X124186433Y-81916657D01*
X124141560Y-81893793D01*
X123975996Y-81809433D01*
X123751368Y-81736446D01*
X123518097Y-81699500D01*
X123518092Y-81699500D01*
X123281908Y-81699500D01*
X123281903Y-81699500D01*
X123048631Y-81736446D01*
X122824003Y-81809433D01*
X122613566Y-81916657D01*
X122566986Y-81950500D01*
X122422490Y-82055483D01*
X122422488Y-82055485D01*
X122422487Y-82055485D01*
X122255485Y-82222487D01*
X122255485Y-82222488D01*
X122255483Y-82222490D01*
X122228079Y-82260208D01*
X122116657Y-82413566D01*
X122009433Y-82624003D01*
X121936446Y-82848631D01*
X121899500Y-83081902D01*
X118400500Y-83081902D01*
X118363553Y-82848631D01*
X118290566Y-82624003D01*
X118234002Y-82512991D01*
X118183343Y-82413567D01*
X118044517Y-82222490D01*
X117877510Y-82055483D01*
X117686433Y-81916657D01*
X117641560Y-81893793D01*
X117475996Y-81809433D01*
X117251368Y-81736446D01*
X117018097Y-81699500D01*
X117018092Y-81699500D01*
X116781908Y-81699500D01*
X116781903Y-81699500D01*
X116548631Y-81736446D01*
X116324003Y-81809433D01*
X116113566Y-81916657D01*
X116066986Y-81950500D01*
X115922490Y-82055483D01*
X115922488Y-82055485D01*
X115922487Y-82055485D01*
X115755485Y-82222487D01*
X115755485Y-82222488D01*
X115755483Y-82222490D01*
X115728079Y-82260208D01*
X115616657Y-82413566D01*
X115509433Y-82624003D01*
X115436446Y-82848631D01*
X115399500Y-83081902D01*
X114250500Y-83081902D01*
X114250500Y-79702135D01*
X126449500Y-79702135D01*
X126449500Y-81497870D01*
X126449501Y-81497876D01*
X126455908Y-81557483D01*
X126506202Y-81692328D01*
X126506206Y-81692335D01*
X126592452Y-81807544D01*
X126592455Y-81807547D01*
X126707664Y-81893793D01*
X126707671Y-81893797D01*
X126839082Y-81942810D01*
X126895016Y-81984681D01*
X126919433Y-82050145D01*
X126904582Y-82118418D01*
X126883431Y-82146673D01*
X126769889Y-82260215D01*
X126644951Y-82432179D01*
X126548444Y-82621585D01*
X126482753Y-82823760D01*
X126462212Y-82953454D01*
X126449500Y-83033713D01*
X126449500Y-83246287D01*
X126482754Y-83456243D01*
X126530871Y-83604332D01*
X126548444Y-83658414D01*
X126644951Y-83847820D01*
X126769890Y-84019786D01*
X126920213Y-84170109D01*
X127092182Y-84295050D01*
X127100946Y-84299516D01*
X127151742Y-84347491D01*
X127168536Y-84415312D01*
X127145998Y-84481447D01*
X127100946Y-84520484D01*
X127092182Y-84524949D01*
X126920213Y-84649890D01*
X126769890Y-84800213D01*
X126644951Y-84972179D01*
X126548444Y-85161585D01*
X126482753Y-85363760D01*
X126449500Y-85573713D01*
X126449500Y-85786286D01*
X126482663Y-85995672D01*
X126482754Y-85996243D01*
X126547554Y-86195677D01*
X126548444Y-86198414D01*
X126644951Y-86387820D01*
X126769890Y-86559786D01*
X126920213Y-86710109D01*
X127092182Y-86835050D01*
X127100946Y-86839516D01*
X127151742Y-86887491D01*
X127168536Y-86955312D01*
X127145998Y-87021447D01*
X127100946Y-87060484D01*
X127092182Y-87064949D01*
X126920213Y-87189890D01*
X126769890Y-87340213D01*
X126644951Y-87512179D01*
X126548444Y-87701585D01*
X126482753Y-87903760D01*
X126449500Y-88113713D01*
X126449500Y-88326287D01*
X126482754Y-88536243D01*
X126528655Y-88677512D01*
X126548444Y-88738414D01*
X126644951Y-88927820D01*
X126769890Y-89099786D01*
X126920213Y-89250109D01*
X127092182Y-89375050D01*
X127100946Y-89379516D01*
X127151742Y-89427491D01*
X127168536Y-89495312D01*
X127145998Y-89561447D01*
X127100946Y-89600484D01*
X127092182Y-89604949D01*
X126920213Y-89729890D01*
X126769890Y-89880213D01*
X126644951Y-90052179D01*
X126548444Y-90241585D01*
X126482753Y-90443760D01*
X126449500Y-90653713D01*
X126449500Y-90866286D01*
X126482753Y-91076239D01*
X126548444Y-91278414D01*
X126644951Y-91467820D01*
X126769890Y-91639786D01*
X126920213Y-91790109D01*
X127092182Y-91915050D01*
X127100946Y-91919516D01*
X127151742Y-91967491D01*
X127168536Y-92035312D01*
X127145998Y-92101447D01*
X127100946Y-92140484D01*
X127092182Y-92144949D01*
X126920213Y-92269890D01*
X126769890Y-92420213D01*
X126644951Y-92592179D01*
X126548444Y-92781585D01*
X126482753Y-92983760D01*
X126449500Y-93193713D01*
X126449500Y-93406286D01*
X126482753Y-93616239D01*
X126548444Y-93818414D01*
X126644951Y-94007820D01*
X126769890Y-94179786D01*
X126920213Y-94330109D01*
X127092179Y-94455048D01*
X127092181Y-94455049D01*
X127092184Y-94455051D01*
X127281588Y-94551557D01*
X127483757Y-94617246D01*
X127693713Y-94650500D01*
X127693714Y-94650500D01*
X127906286Y-94650500D01*
X127906287Y-94650500D01*
X128116243Y-94617246D01*
X128318412Y-94551557D01*
X128507816Y-94455051D01*
X128529789Y-94439086D01*
X128679786Y-94330109D01*
X128679788Y-94330106D01*
X128679792Y-94330104D01*
X128830104Y-94179792D01*
X128830106Y-94179788D01*
X128830109Y-94179786D01*
X128955048Y-94007820D01*
X128955047Y-94007820D01*
X128955051Y-94007816D01*
X129051557Y-93818412D01*
X129117246Y-93616243D01*
X129150500Y-93406287D01*
X129150500Y-93193713D01*
X129117246Y-92983757D01*
X129051557Y-92781588D01*
X128955051Y-92592184D01*
X128955049Y-92592181D01*
X128955048Y-92592179D01*
X128830109Y-92420213D01*
X128679786Y-92269890D01*
X128507820Y-92144951D01*
X128507115Y-92144591D01*
X128499054Y-92140485D01*
X128448259Y-92092512D01*
X128431463Y-92024692D01*
X128453999Y-91958556D01*
X128499054Y-91919515D01*
X128507816Y-91915051D01*
X128529789Y-91899086D01*
X128679786Y-91790109D01*
X128679788Y-91790106D01*
X128679792Y-91790104D01*
X128830104Y-91639792D01*
X128830106Y-91639788D01*
X128830109Y-91639786D01*
X128955048Y-91467820D01*
X128955047Y-91467820D01*
X128955051Y-91467816D01*
X129051557Y-91278412D01*
X129117246Y-91076243D01*
X129150500Y-90866287D01*
X129150500Y-90653713D01*
X129117246Y-90443757D01*
X129051557Y-90241588D01*
X128955051Y-90052184D01*
X128955049Y-90052181D01*
X128955048Y-90052179D01*
X128830109Y-89880213D01*
X128679786Y-89729890D01*
X128507820Y-89604951D01*
X128507115Y-89604591D01*
X128499054Y-89600485D01*
X128448259Y-89552512D01*
X128431463Y-89484692D01*
X128453999Y-89418556D01*
X128499054Y-89379515D01*
X128507816Y-89375051D01*
X128529789Y-89359086D01*
X128679786Y-89250109D01*
X128679788Y-89250106D01*
X128679792Y-89250104D01*
X128830104Y-89099792D01*
X128830106Y-89099788D01*
X128830109Y-89099786D01*
X128955048Y-88927820D01*
X128955047Y-88927820D01*
X128955051Y-88927816D01*
X129051557Y-88738412D01*
X129117246Y-88536243D01*
X129150500Y-88326287D01*
X129150500Y-88113713D01*
X129117246Y-87903757D01*
X129051557Y-87701588D01*
X128955051Y-87512184D01*
X128955049Y-87512181D01*
X128955048Y-87512179D01*
X128830109Y-87340213D01*
X128679786Y-87189890D01*
X128507820Y-87064951D01*
X128507115Y-87064591D01*
X128499054Y-87060485D01*
X128448259Y-87012512D01*
X128431463Y-86944692D01*
X128453999Y-86878556D01*
X128499054Y-86839515D01*
X128507816Y-86835051D01*
X128529789Y-86819086D01*
X128679786Y-86710109D01*
X128679788Y-86710106D01*
X128679792Y-86710104D01*
X128830104Y-86559792D01*
X128830106Y-86559788D01*
X128830109Y-86559786D01*
X128896071Y-86468995D01*
X130499499Y-86468995D01*
X130526418Y-86604322D01*
X130526421Y-86604332D01*
X130579221Y-86731804D01*
X130579228Y-86731817D01*
X130655885Y-86846541D01*
X130655888Y-86846545D01*
X130753454Y-86944111D01*
X130753458Y-86944114D01*
X130868182Y-87020771D01*
X130868195Y-87020778D01*
X130995667Y-87073578D01*
X130995672Y-87073580D01*
X130995676Y-87073580D01*
X130995677Y-87073581D01*
X131131004Y-87100500D01*
X131131007Y-87100500D01*
X131268995Y-87100500D01*
X131360041Y-87082389D01*
X131404328Y-87073580D01*
X131531811Y-87020775D01*
X131646542Y-86944114D01*
X131744114Y-86846542D01*
X131820775Y-86731811D01*
X131873580Y-86604328D01*
X131883296Y-86555483D01*
X131900500Y-86468995D01*
X131900500Y-86331004D01*
X131888165Y-86268995D01*
X133899499Y-86268995D01*
X133926418Y-86404322D01*
X133926421Y-86404332D01*
X133979221Y-86531804D01*
X133979228Y-86531817D01*
X134055885Y-86646541D01*
X134055888Y-86646545D01*
X134153454Y-86744111D01*
X134153458Y-86744114D01*
X134268182Y-86820771D01*
X134268195Y-86820778D01*
X134395667Y-86873578D01*
X134395672Y-86873580D01*
X134395676Y-86873580D01*
X134395677Y-86873581D01*
X134531004Y-86900500D01*
X134531007Y-86900500D01*
X134668995Y-86900500D01*
X134779312Y-86878556D01*
X134804328Y-86873580D01*
X134931811Y-86820775D01*
X135046542Y-86744114D01*
X135144114Y-86646542D01*
X135220775Y-86531811D01*
X135273580Y-86404328D01*
X135300500Y-86268993D01*
X135300500Y-86131007D01*
X135300500Y-86131004D01*
X135273581Y-85995677D01*
X135273580Y-85995676D01*
X135273580Y-85995672D01*
X135273578Y-85995667D01*
X135220778Y-85868195D01*
X135220771Y-85868182D01*
X135144114Y-85753458D01*
X135144111Y-85753454D01*
X135046545Y-85655888D01*
X135046541Y-85655885D01*
X134931817Y-85579228D01*
X134931804Y-85579221D01*
X134804332Y-85526421D01*
X134804322Y-85526418D01*
X134668995Y-85499500D01*
X134668993Y-85499500D01*
X134531007Y-85499500D01*
X134531005Y-85499500D01*
X134395677Y-85526418D01*
X134395667Y-85526421D01*
X134268195Y-85579221D01*
X134268182Y-85579228D01*
X134153458Y-85655885D01*
X134153454Y-85655888D01*
X134055888Y-85753454D01*
X134055885Y-85753458D01*
X133979228Y-85868182D01*
X133979221Y-85868195D01*
X133926421Y-85995667D01*
X133926418Y-85995677D01*
X133899500Y-86131004D01*
X133899500Y-86131007D01*
X133899500Y-86268993D01*
X133899500Y-86268995D01*
X133899499Y-86268995D01*
X131888165Y-86268995D01*
X131873581Y-86195677D01*
X131873580Y-86195676D01*
X131873580Y-86195672D01*
X131845796Y-86128595D01*
X131820778Y-86068195D01*
X131820771Y-86068182D01*
X131744114Y-85953458D01*
X131744111Y-85953454D01*
X131646545Y-85855888D01*
X131646541Y-85855885D01*
X131531817Y-85779228D01*
X131531804Y-85779221D01*
X131404332Y-85726421D01*
X131404322Y-85726418D01*
X131268995Y-85699500D01*
X131268993Y-85699500D01*
X131131007Y-85699500D01*
X131131005Y-85699500D01*
X130995677Y-85726418D01*
X130995667Y-85726421D01*
X130868195Y-85779221D01*
X130868182Y-85779228D01*
X130753458Y-85855885D01*
X130753454Y-85855888D01*
X130655888Y-85953454D01*
X130655885Y-85953458D01*
X130579228Y-86068182D01*
X130579221Y-86068195D01*
X130526421Y-86195667D01*
X130526418Y-86195677D01*
X130499500Y-86331004D01*
X130499500Y-86331007D01*
X130499500Y-86468993D01*
X130499500Y-86468995D01*
X130499499Y-86468995D01*
X128896071Y-86468995D01*
X128939086Y-86409789D01*
X128955051Y-86387816D01*
X129051557Y-86198412D01*
X129117246Y-85996243D01*
X129150500Y-85786287D01*
X129150500Y-85573713D01*
X129117246Y-85363757D01*
X129051557Y-85161588D01*
X128955051Y-84972184D01*
X128955049Y-84972181D01*
X128955048Y-84972179D01*
X128830109Y-84800213D01*
X128679786Y-84649890D01*
X128507820Y-84524951D01*
X128507115Y-84524591D01*
X128499054Y-84520485D01*
X128448259Y-84472512D01*
X128431463Y-84404692D01*
X128453999Y-84338556D01*
X128499054Y-84299515D01*
X128507816Y-84295051D01*
X128529789Y-84279086D01*
X128679786Y-84170109D01*
X128679788Y-84170106D01*
X128679792Y-84170104D01*
X128830104Y-84019792D01*
X128830106Y-84019788D01*
X128830109Y-84019786D01*
X128955048Y-83847820D01*
X128955047Y-83847820D01*
X128955051Y-83847816D01*
X129051557Y-83658412D01*
X129113103Y-83468995D01*
X138099499Y-83468995D01*
X138126418Y-83604322D01*
X138126421Y-83604332D01*
X138179221Y-83731804D01*
X138179228Y-83731817D01*
X138255885Y-83846541D01*
X138255888Y-83846545D01*
X138353454Y-83944111D01*
X138353458Y-83944114D01*
X138468182Y-84020771D01*
X138468195Y-84020778D01*
X138595667Y-84073578D01*
X138595672Y-84073580D01*
X138595676Y-84073580D01*
X138595677Y-84073581D01*
X138731004Y-84100500D01*
X138731007Y-84100500D01*
X138868995Y-84100500D01*
X138960041Y-84082389D01*
X139004328Y-84073580D01*
X139131811Y-84020775D01*
X139246542Y-83944114D01*
X139344114Y-83846542D01*
X139420775Y-83731811D01*
X139473580Y-83604328D01*
X139482389Y-83560041D01*
X139500500Y-83468995D01*
X139500500Y-83331004D01*
X139473581Y-83195677D01*
X139473580Y-83195676D01*
X139473580Y-83195672D01*
X139426458Y-83081908D01*
X139420778Y-83068195D01*
X139420771Y-83068182D01*
X139344114Y-82953458D01*
X139344111Y-82953454D01*
X139246545Y-82855888D01*
X139246541Y-82855885D01*
X139131817Y-82779228D01*
X139131804Y-82779221D01*
X139004332Y-82726421D01*
X139004322Y-82726418D01*
X138868995Y-82699500D01*
X138868993Y-82699500D01*
X138731007Y-82699500D01*
X138731005Y-82699500D01*
X138595677Y-82726418D01*
X138595667Y-82726421D01*
X138468195Y-82779221D01*
X138468182Y-82779228D01*
X138353458Y-82855885D01*
X138353454Y-82855888D01*
X138255888Y-82953454D01*
X138255885Y-82953458D01*
X138179228Y-83068182D01*
X138179221Y-83068195D01*
X138126421Y-83195667D01*
X138126418Y-83195677D01*
X138099500Y-83331004D01*
X138099500Y-83331007D01*
X138099500Y-83468993D01*
X138099500Y-83468995D01*
X138099499Y-83468995D01*
X129113103Y-83468995D01*
X129117246Y-83456243D01*
X129150500Y-83246287D01*
X129150500Y-83033713D01*
X129117246Y-82823757D01*
X129051557Y-82621588D01*
X128955051Y-82432184D01*
X128955049Y-82432181D01*
X128955048Y-82432179D01*
X128830109Y-82260213D01*
X128716569Y-82146673D01*
X128683084Y-82085350D01*
X128688068Y-82015658D01*
X128729940Y-81959725D01*
X128760915Y-81942810D01*
X128892331Y-81893796D01*
X129007546Y-81807546D01*
X129093796Y-81692331D01*
X129144091Y-81557483D01*
X129150500Y-81497873D01*
X129150500Y-80668995D01*
X130499499Y-80668995D01*
X130526418Y-80804322D01*
X130526421Y-80804332D01*
X130579221Y-80931804D01*
X130579228Y-80931817D01*
X130655885Y-81046541D01*
X130655888Y-81046545D01*
X130753454Y-81144111D01*
X130753458Y-81144114D01*
X130868182Y-81220771D01*
X130868195Y-81220778D01*
X130995667Y-81273578D01*
X130995672Y-81273580D01*
X130995676Y-81273580D01*
X130995677Y-81273581D01*
X131131004Y-81300500D01*
X131131007Y-81300500D01*
X131268995Y-81300500D01*
X131360041Y-81282389D01*
X131404328Y-81273580D01*
X131531811Y-81220775D01*
X131646542Y-81144114D01*
X131744114Y-81046542D01*
X131820775Y-80931811D01*
X131873580Y-80804328D01*
X131900500Y-80668993D01*
X131900500Y-80531007D01*
X131900500Y-80531004D01*
X131873581Y-80395677D01*
X131873580Y-80395676D01*
X131873580Y-80395672D01*
X131873578Y-80395667D01*
X131820778Y-80268195D01*
X131820771Y-80268182D01*
X131744114Y-80153458D01*
X131744111Y-80153454D01*
X131646545Y-80055888D01*
X131646541Y-80055885D01*
X131531817Y-79979228D01*
X131531804Y-79979221D01*
X131404332Y-79926421D01*
X131404322Y-79926418D01*
X131268995Y-79899500D01*
X131268993Y-79899500D01*
X131131007Y-79899500D01*
X131131005Y-79899500D01*
X130995677Y-79926418D01*
X130995667Y-79926421D01*
X130868195Y-79979221D01*
X130868182Y-79979228D01*
X130753458Y-80055885D01*
X130753454Y-80055888D01*
X130655888Y-80153454D01*
X130655885Y-80153458D01*
X130579228Y-80268182D01*
X130579221Y-80268195D01*
X130526421Y-80395667D01*
X130526418Y-80395677D01*
X130499500Y-80531004D01*
X130499500Y-80531007D01*
X130499500Y-80668993D01*
X130499500Y-80668995D01*
X130499499Y-80668995D01*
X129150500Y-80668995D01*
X129150499Y-79702128D01*
X129144091Y-79642517D01*
X129093796Y-79507669D01*
X129093795Y-79507668D01*
X129093793Y-79507664D01*
X129007547Y-79392455D01*
X129007544Y-79392452D01*
X128892335Y-79306206D01*
X128892328Y-79306202D01*
X128757482Y-79255908D01*
X128757483Y-79255908D01*
X128697883Y-79249501D01*
X128697881Y-79249500D01*
X128697873Y-79249500D01*
X128697864Y-79249500D01*
X126902129Y-79249500D01*
X126902123Y-79249501D01*
X126842516Y-79255908D01*
X126707671Y-79306202D01*
X126707664Y-79306206D01*
X126592455Y-79392452D01*
X126592452Y-79392455D01*
X126506206Y-79507664D01*
X126506202Y-79507671D01*
X126455908Y-79642517D01*
X126449501Y-79702116D01*
X126449501Y-79702123D01*
X126449500Y-79702135D01*
X114250500Y-79702135D01*
X114250500Y-75668995D01*
X129099499Y-75668995D01*
X129126418Y-75804322D01*
X129126421Y-75804332D01*
X129179221Y-75931804D01*
X129179228Y-75931817D01*
X129255885Y-76046541D01*
X129255888Y-76046545D01*
X129353454Y-76144111D01*
X129353458Y-76144114D01*
X129468182Y-76220771D01*
X129468195Y-76220778D01*
X129595667Y-76273578D01*
X129595672Y-76273580D01*
X129595676Y-76273580D01*
X129595677Y-76273581D01*
X129731004Y-76300500D01*
X129731007Y-76300500D01*
X129868995Y-76300500D01*
X129960041Y-76282389D01*
X130004328Y-76273580D01*
X130131811Y-76220775D01*
X130246542Y-76144114D01*
X130344114Y-76046542D01*
X130420775Y-75931811D01*
X130473580Y-75804328D01*
X130500500Y-75668993D01*
X130500500Y-75531007D01*
X130500500Y-75531004D01*
X130473581Y-75395677D01*
X130473580Y-75395676D01*
X130473580Y-75395672D01*
X130473578Y-75395667D01*
X130420778Y-75268195D01*
X130420771Y-75268182D01*
X130344114Y-75153458D01*
X130344111Y-75153454D01*
X130246545Y-75055888D01*
X130246541Y-75055885D01*
X130131817Y-74979228D01*
X130131804Y-74979221D01*
X130004332Y-74926421D01*
X130004322Y-74926418D01*
X129868995Y-74899500D01*
X129868993Y-74899500D01*
X129731007Y-74899500D01*
X129731005Y-74899500D01*
X129595677Y-74926418D01*
X129595667Y-74926421D01*
X129468195Y-74979221D01*
X129468182Y-74979228D01*
X129353458Y-75055885D01*
X129353454Y-75055888D01*
X129255888Y-75153454D01*
X129255885Y-75153458D01*
X129179228Y-75268182D01*
X129179221Y-75268195D01*
X129126421Y-75395667D01*
X129126418Y-75395677D01*
X129099500Y-75531004D01*
X129099500Y-75531007D01*
X129099500Y-75668993D01*
X129099500Y-75668995D01*
X129099499Y-75668995D01*
X114250500Y-75668995D01*
X114250500Y-73868995D01*
X127299499Y-73868995D01*
X127326418Y-74004322D01*
X127326421Y-74004332D01*
X127379221Y-74131804D01*
X127379228Y-74131817D01*
X127455885Y-74246541D01*
X127455888Y-74246545D01*
X127553454Y-74344111D01*
X127553458Y-74344114D01*
X127668182Y-74420771D01*
X127668195Y-74420778D01*
X127795667Y-74473578D01*
X127795672Y-74473580D01*
X127795676Y-74473580D01*
X127795677Y-74473581D01*
X127931004Y-74500500D01*
X127931007Y-74500500D01*
X128068995Y-74500500D01*
X128160041Y-74482389D01*
X128204328Y-74473580D01*
X128331811Y-74420775D01*
X128446542Y-74344114D01*
X128544114Y-74246542D01*
X128620775Y-74131811D01*
X128673580Y-74004328D01*
X128700500Y-73868993D01*
X128700500Y-73731007D01*
X128700500Y-73731004D01*
X128673581Y-73595677D01*
X128673580Y-73595676D01*
X128673580Y-73595672D01*
X128665625Y-73576467D01*
X128620778Y-73468195D01*
X128620771Y-73468182D01*
X128544114Y-73353458D01*
X128544111Y-73353454D01*
X128446545Y-73255888D01*
X128446541Y-73255885D01*
X128331817Y-73179228D01*
X128331804Y-73179221D01*
X128204332Y-73126421D01*
X128204322Y-73126418D01*
X128068995Y-73099500D01*
X128068993Y-73099500D01*
X127931007Y-73099500D01*
X127931005Y-73099500D01*
X127795677Y-73126418D01*
X127795667Y-73126421D01*
X127668195Y-73179221D01*
X127668182Y-73179228D01*
X127553458Y-73255885D01*
X127553454Y-73255888D01*
X127455888Y-73353454D01*
X127455885Y-73353458D01*
X127379228Y-73468182D01*
X127379221Y-73468195D01*
X127326421Y-73595667D01*
X127326418Y-73595677D01*
X127299500Y-73731004D01*
X127299500Y-73731007D01*
X127299500Y-73868993D01*
X127299500Y-73868995D01*
X127299499Y-73868995D01*
X114250500Y-73868995D01*
X114250500Y-72769828D01*
X114270185Y-72702789D01*
X114322989Y-72657034D01*
X114392147Y-72647090D01*
X114455703Y-72676115D01*
X114471447Y-72692516D01*
X114559168Y-72802516D01*
X114559174Y-72802522D01*
X114559175Y-72802523D01*
X114797477Y-73040825D01*
X115060961Y-73250946D01*
X115346314Y-73430246D01*
X115649949Y-73576469D01*
X115888848Y-73660063D01*
X115968034Y-73687772D01*
X115968046Y-73687776D01*
X116296606Y-73762767D01*
X116631492Y-73800499D01*
X116631493Y-73800500D01*
X116631496Y-73800500D01*
X116968507Y-73800500D01*
X116968507Y-73800499D01*
X117303394Y-73762767D01*
X117631954Y-73687776D01*
X117950051Y-73576469D01*
X118253686Y-73430246D01*
X118539039Y-73250946D01*
X118802523Y-73040825D01*
X119040825Y-72802523D01*
X119250946Y-72539039D01*
X119430246Y-72253686D01*
X119576469Y-71950051D01*
X119687776Y-71631954D01*
X119762767Y-71303394D01*
X119800500Y-70968504D01*
X119800500Y-70631496D01*
X119762767Y-70296606D01*
X119687776Y-69968046D01*
X119576469Y-69649949D01*
X119430246Y-69346314D01*
X119250946Y-69060961D01*
X119040825Y-68797477D01*
X118802523Y-68559175D01*
X118802516Y-68559168D01*
X118692516Y-68471447D01*
X118652375Y-68414259D01*
X118649525Y-68344448D01*
X118684870Y-68284177D01*
X118747189Y-68252584D01*
X118769828Y-68250500D01*
X153830172Y-68250500D01*
X153897211Y-68270185D01*
G37*
%TD.AperFunction*%
%TD*%
M02*
