%TF.GenerationSoftware,KiCad,Pcbnew,9.0.5*%
%TF.CreationDate,2025-10-31T15:40:08+01:00*%
%TF.ProjectId,ATMEGA32_evaluation_board,41544d45-4741-4333-925f-6576616c7561,rev?*%
%TF.SameCoordinates,Original*%
%TF.FileFunction,Soldermask,Top*%
%TF.FilePolarity,Negative*%
%FSLAX46Y46*%
G04 Gerber Fmt 4.6, Leading zero omitted, Abs format (unit mm)*
G04 Created by KiCad (PCBNEW 9.0.5) date 2025-10-31 15:40:08*
%MOMM*%
%LPD*%
G01*
G04 APERTURE LIST*
G04 Aperture macros list*
%AMRoundRect*
0 Rectangle with rounded corners*
0 $1 Rounding radius*
0 $2 $3 $4 $5 $6 $7 $8 $9 X,Y pos of 4 corners*
0 Add a 4 corners polygon primitive as box body*
4,1,4,$2,$3,$4,$5,$6,$7,$8,$9,$2,$3,0*
0 Add four circle primitives for the rounded corners*
1,1,$1+$1,$2,$3*
1,1,$1+$1,$4,$5*
1,1,$1+$1,$6,$7*
1,1,$1+$1,$8,$9*
0 Add four rect primitives between the rounded corners*
20,1,$1+$1,$2,$3,$4,$5,0*
20,1,$1+$1,$4,$5,$6,$7,0*
20,1,$1+$1,$6,$7,$8,$9,0*
20,1,$1+$1,$8,$9,$2,$3,0*%
G04 Aperture macros list end*
%ADD10RoundRect,0.225000X-0.225000X-0.250000X0.225000X-0.250000X0.225000X0.250000X-0.225000X0.250000X0*%
%ADD11RoundRect,0.375000X-0.625000X-0.375000X0.625000X-0.375000X0.625000X0.375000X-0.625000X0.375000X0*%
%ADD12RoundRect,0.500000X-0.500000X-1.400000X0.500000X-1.400000X0.500000X1.400000X-0.500000X1.400000X0*%
%ADD13RoundRect,0.225000X0.225000X0.250000X-0.225000X0.250000X-0.225000X-0.250000X0.225000X-0.250000X0*%
%ADD14RoundRect,0.200000X-0.200000X-0.275000X0.200000X-0.275000X0.200000X0.275000X-0.200000X0.275000X0*%
%ADD15C,2.000000*%
%ADD16RoundRect,0.200000X0.275000X-0.200000X0.275000X0.200000X-0.275000X0.200000X-0.275000X-0.200000X0*%
%ADD17C,5.000000*%
%ADD18C,3.000000*%
%ADD19RoundRect,0.200000X0.200000X0.275000X-0.200000X0.275000X-0.200000X-0.275000X0.200000X-0.275000X0*%
%ADD20R,1.700000X1.700000*%
%ADD21C,1.700000*%
%ADD22RoundRect,0.375000X0.625000X0.375000X-0.625000X0.375000X-0.625000X-0.375000X0.625000X-0.375000X0*%
%ADD23RoundRect,0.500000X0.500000X1.400000X-0.500000X1.400000X-0.500000X-1.400000X0.500000X-1.400000X0*%
%ADD24RoundRect,0.250000X-0.700000X-1.000000X0.700000X-1.000000X0.700000X1.000000X-0.700000X1.000000X0*%
%ADD25RoundRect,0.218750X-0.218750X-0.256250X0.218750X-0.256250X0.218750X0.256250X-0.218750X0.256250X0*%
%ADD26RoundRect,0.225000X-0.250000X0.225000X-0.250000X-0.225000X0.250000X-0.225000X0.250000X0.225000X0*%
%ADD27RoundRect,0.218750X0.218750X0.256250X-0.218750X0.256250X-0.218750X-0.256250X0.218750X-0.256250X0*%
%ADD28RoundRect,0.250000X-1.000000X-0.650000X1.000000X-0.650000X1.000000X0.650000X-1.000000X0.650000X0*%
%ADD29RoundRect,0.137500X-0.600000X-0.137500X0.600000X-0.137500X0.600000X0.137500X-0.600000X0.137500X0*%
%ADD30RoundRect,0.137500X-0.137500X-0.600000X0.137500X-0.600000X0.137500X0.600000X-0.137500X0.600000X0*%
G04 APERTURE END LIST*
D10*
%TO.C,C7*%
X143250000Y-105800000D03*
X144800000Y-105800000D03*
%TD*%
D11*
%TO.C,U2*%
X139450000Y-97300000D03*
X139450000Y-99600000D03*
D12*
X145750000Y-99600000D03*
D11*
X139450000Y-101900000D03*
%TD*%
D10*
%TO.C,C14*%
X131315000Y-72820000D03*
X132865000Y-72820000D03*
%TD*%
D13*
%TO.C,C13*%
X143800000Y-77000000D03*
X142250000Y-77000000D03*
%TD*%
D14*
%TO.C,R2*%
X150950000Y-99600000D03*
X152600000Y-99600000D03*
%TD*%
D10*
%TO.C,C16*%
X131150000Y-78220000D03*
X132700000Y-78220000D03*
%TD*%
D15*
%TO.C,SW1*%
X116900000Y-83200000D03*
X123400000Y-83200000D03*
X116900000Y-87700000D03*
X123400000Y-87700000D03*
%TD*%
D16*
%TO.C,R3*%
X123600000Y-92650000D03*
X123600000Y-91000000D03*
%TD*%
D17*
%TO.C,H1*%
X155800000Y-70800000D03*
%TD*%
%TO.C,H3*%
X116800000Y-119200000D03*
%TD*%
D10*
%TO.C,C15*%
X131315000Y-75330000D03*
X132865000Y-75330000D03*
%TD*%
D18*
%TO.C,FID1*%
X137000000Y-70200000D03*
%TD*%
D19*
%TO.C,R4*%
X149050000Y-84000000D03*
X147400000Y-84000000D03*
%TD*%
D18*
%TO.C,FID2*%
X115800000Y-94900000D03*
%TD*%
D20*
%TO.C,J2*%
X127800000Y-80600000D03*
D21*
X127800000Y-83140000D03*
X127800000Y-85680000D03*
X127800000Y-88220000D03*
X127800000Y-90760000D03*
X127800000Y-93300000D03*
%TD*%
D22*
%TO.C,U1*%
X135400000Y-109400000D03*
X135400000Y-107100000D03*
D23*
X129100000Y-107100000D03*
D22*
X135400000Y-104800000D03*
%TD*%
D24*
%TO.C,Y1*%
X147000000Y-77000000D03*
X151400000Y-77000000D03*
%TD*%
D10*
%TO.C,C2*%
X130450000Y-101500000D03*
X132000000Y-101500000D03*
%TD*%
D13*
%TO.C,C10*%
X152600000Y-86600000D03*
X151050000Y-86600000D03*
%TD*%
D10*
%TO.C,C11*%
X147850000Y-86600000D03*
X149400000Y-86600000D03*
%TD*%
D25*
%TO.C,D2*%
X151012500Y-104600000D03*
X152587500Y-104600000D03*
%TD*%
D10*
%TO.C,C1*%
X130450000Y-98300000D03*
X132000000Y-98300000D03*
%TD*%
D26*
%TO.C,C18*%
X122400000Y-75000000D03*
X122400000Y-76550000D03*
%TD*%
D10*
%TO.C,C20*%
X119050000Y-91800000D03*
X120600000Y-91800000D03*
%TD*%
D27*
%TO.C,D1*%
X135800000Y-113600000D03*
X134225000Y-113600000D03*
%TD*%
D10*
%TO.C,C5*%
X138850000Y-105800000D03*
X140400000Y-105800000D03*
%TD*%
D28*
%TO.C,D3*%
X140800000Y-113600000D03*
X144800000Y-113600000D03*
%TD*%
D13*
%TO.C,C3*%
X135800000Y-101600000D03*
X134250000Y-101600000D03*
%TD*%
D10*
%TO.C,C6*%
X138650000Y-109400000D03*
X140200000Y-109400000D03*
%TD*%
D29*
%TO.C,U3*%
X132937500Y-83537500D03*
X132937500Y-84337500D03*
X132937500Y-85137500D03*
X132937500Y-85937500D03*
X132937500Y-86737500D03*
X132937500Y-87537500D03*
X132937500Y-88337500D03*
X132937500Y-89137500D03*
X132937500Y-89937500D03*
X132937500Y-90737500D03*
X132937500Y-91537500D03*
D30*
X134600000Y-93200000D03*
X135400000Y-93200000D03*
X136200000Y-93200000D03*
X137000000Y-93200000D03*
X137800000Y-93200000D03*
X138600000Y-93200000D03*
X139400000Y-93200000D03*
X140200000Y-93200000D03*
X141000000Y-93200000D03*
X141800000Y-93200000D03*
X142600000Y-93200000D03*
D29*
X144262500Y-91537500D03*
X144262500Y-90737500D03*
X144262500Y-89937500D03*
X144262500Y-89137500D03*
X144262500Y-88337500D03*
X144262500Y-87537500D03*
X144262500Y-86737500D03*
X144262500Y-85937500D03*
X144262500Y-85137500D03*
X144262500Y-84337500D03*
X144262500Y-83537500D03*
D30*
X142600000Y-81875000D03*
X141800000Y-81875000D03*
X141000000Y-81875000D03*
X140200000Y-81875000D03*
X139400000Y-81875000D03*
X138600000Y-81875000D03*
X137800000Y-81875000D03*
X137000000Y-81875000D03*
X136200000Y-81875000D03*
X135400000Y-81875000D03*
X134600000Y-81875000D03*
%TD*%
D10*
%TO.C,C8*%
X143250000Y-109200000D03*
X144800000Y-109200000D03*
%TD*%
D26*
%TO.C,C19*%
X117400000Y-75025000D03*
X117400000Y-76575000D03*
%TD*%
%TO.C,C17*%
X127400000Y-75000000D03*
X127400000Y-76550000D03*
%TD*%
D27*
%TO.C,FB1*%
X152600000Y-95200000D03*
X151025000Y-95200000D03*
%TD*%
D18*
%TO.C,FID3*%
X137000000Y-119800000D03*
%TD*%
D14*
%TO.C,R1*%
X128950000Y-113600000D03*
X130600000Y-113600000D03*
%TD*%
D13*
%TO.C,C9*%
X152600000Y-83800000D03*
X151050000Y-83800000D03*
%TD*%
D10*
%TO.C,C12*%
X146850000Y-82400000D03*
X148400000Y-82400000D03*
%TD*%
D20*
%TO.C,J1*%
X149660000Y-113600000D03*
D21*
X152200000Y-113600000D03*
X154740000Y-113600000D03*
%TD*%
D17*
%TO.C,H2*%
X155800000Y-119200000D03*
%TD*%
%TO.C,H4*%
X116800000Y-70800000D03*
%TD*%
D13*
%TO.C,C4*%
X135800000Y-98400000D03*
X134250000Y-98400000D03*
%TD*%
M02*
