%TF.GenerationSoftware,KiCad,Pcbnew,9.0.5*%
%TF.CreationDate,2025-10-31T15:40:08+01:00*%
%TF.ProjectId,ATMEGA32_evaluation_board,41544d45-4741-4333-925f-6576616c7561,rev?*%
%TF.SameCoordinates,Original*%
%TF.FileFunction,Legend,Top*%
%TF.FilePolarity,Positive*%
%FSLAX46Y46*%
G04 Gerber Fmt 4.6, Leading zero omitted, Abs format (unit mm)*
G04 Created by KiCad (PCBNEW 9.0.5) date 2025-10-31 15:40:08*
%MOMM*%
%LPD*%
G01*
G04 APERTURE LIST*
%ADD10C,0.100000*%
%ADD11C,0.150000*%
%ADD12C,0.120000*%
G04 APERTURE END LIST*
D10*
X117856265Y-107186704D02*
X118332455Y-107186704D01*
X117761027Y-107472419D02*
X118094360Y-106472419D01*
X118094360Y-106472419D02*
X118427693Y-107472419D01*
X118761027Y-107377180D02*
X118808646Y-107424800D01*
X118808646Y-107424800D02*
X118761027Y-107472419D01*
X118761027Y-107472419D02*
X118713408Y-107424800D01*
X118713408Y-107424800D02*
X118761027Y-107377180D01*
X118761027Y-107377180D02*
X118761027Y-107472419D01*
X119237217Y-106948609D02*
X119570550Y-106948609D01*
X119713407Y-107472419D02*
X119237217Y-107472419D01*
X119237217Y-107472419D02*
X119237217Y-106472419D01*
X119237217Y-106472419D02*
X119713407Y-106472419D01*
X120618169Y-107472419D02*
X120141979Y-107472419D01*
X120141979Y-107472419D02*
X120141979Y-106472419D01*
X120951503Y-107472419D02*
X120951503Y-106472419D01*
X121522931Y-107472419D02*
X121094360Y-106900990D01*
X121522931Y-106472419D02*
X120951503Y-107043847D01*
X121951503Y-106948609D02*
X122284836Y-106948609D01*
X122427693Y-107472419D02*
X121951503Y-107472419D01*
X121951503Y-107472419D02*
X121951503Y-106472419D01*
X121951503Y-106472419D02*
X122427693Y-106472419D01*
X123427693Y-107472419D02*
X123094360Y-106996228D01*
X122856265Y-107472419D02*
X122856265Y-106472419D01*
X122856265Y-106472419D02*
X123237217Y-106472419D01*
X123237217Y-106472419D02*
X123332455Y-106520038D01*
X123332455Y-106520038D02*
X123380074Y-106567657D01*
X123380074Y-106567657D02*
X123427693Y-106662895D01*
X123427693Y-106662895D02*
X123427693Y-106805752D01*
X123427693Y-106805752D02*
X123380074Y-106900990D01*
X123380074Y-106900990D02*
X123332455Y-106948609D01*
X123332455Y-106948609D02*
X123237217Y-106996228D01*
X123237217Y-106996228D02*
X122856265Y-106996228D01*
X123856265Y-107472419D02*
X123856265Y-106472419D01*
X123856265Y-106472419D02*
X124189598Y-107186704D01*
X124189598Y-107186704D02*
X124522931Y-106472419D01*
X124522931Y-106472419D02*
X124522931Y-107472419D01*
D11*
X143858333Y-104729580D02*
X143810714Y-104777200D01*
X143810714Y-104777200D02*
X143667857Y-104824819D01*
X143667857Y-104824819D02*
X143572619Y-104824819D01*
X143572619Y-104824819D02*
X143429762Y-104777200D01*
X143429762Y-104777200D02*
X143334524Y-104681961D01*
X143334524Y-104681961D02*
X143286905Y-104586723D01*
X143286905Y-104586723D02*
X143239286Y-104396247D01*
X143239286Y-104396247D02*
X143239286Y-104253390D01*
X143239286Y-104253390D02*
X143286905Y-104062914D01*
X143286905Y-104062914D02*
X143334524Y-103967676D01*
X143334524Y-103967676D02*
X143429762Y-103872438D01*
X143429762Y-103872438D02*
X143572619Y-103824819D01*
X143572619Y-103824819D02*
X143667857Y-103824819D01*
X143667857Y-103824819D02*
X143810714Y-103872438D01*
X143810714Y-103872438D02*
X143858333Y-103920057D01*
X144191667Y-103824819D02*
X144858333Y-103824819D01*
X144858333Y-103824819D02*
X144429762Y-104824819D01*
X141438095Y-103454819D02*
X141438095Y-104264342D01*
X141438095Y-104264342D02*
X141485714Y-104359580D01*
X141485714Y-104359580D02*
X141533333Y-104407200D01*
X141533333Y-104407200D02*
X141628571Y-104454819D01*
X141628571Y-104454819D02*
X141819047Y-104454819D01*
X141819047Y-104454819D02*
X141914285Y-104407200D01*
X141914285Y-104407200D02*
X141961904Y-104359580D01*
X141961904Y-104359580D02*
X142009523Y-104264342D01*
X142009523Y-104264342D02*
X142009523Y-103454819D01*
X142438095Y-103550057D02*
X142485714Y-103502438D01*
X142485714Y-103502438D02*
X142580952Y-103454819D01*
X142580952Y-103454819D02*
X142819047Y-103454819D01*
X142819047Y-103454819D02*
X142914285Y-103502438D01*
X142914285Y-103502438D02*
X142961904Y-103550057D01*
X142961904Y-103550057D02*
X143009523Y-103645295D01*
X143009523Y-103645295D02*
X143009523Y-103740533D01*
X143009523Y-103740533D02*
X142961904Y-103883390D01*
X142961904Y-103883390D02*
X142390476Y-104454819D01*
X142390476Y-104454819D02*
X143009523Y-104454819D01*
X134557142Y-73559580D02*
X134509523Y-73607200D01*
X134509523Y-73607200D02*
X134366666Y-73654819D01*
X134366666Y-73654819D02*
X134271428Y-73654819D01*
X134271428Y-73654819D02*
X134128571Y-73607200D01*
X134128571Y-73607200D02*
X134033333Y-73511961D01*
X134033333Y-73511961D02*
X133985714Y-73416723D01*
X133985714Y-73416723D02*
X133938095Y-73226247D01*
X133938095Y-73226247D02*
X133938095Y-73083390D01*
X133938095Y-73083390D02*
X133985714Y-72892914D01*
X133985714Y-72892914D02*
X134033333Y-72797676D01*
X134033333Y-72797676D02*
X134128571Y-72702438D01*
X134128571Y-72702438D02*
X134271428Y-72654819D01*
X134271428Y-72654819D02*
X134366666Y-72654819D01*
X134366666Y-72654819D02*
X134509523Y-72702438D01*
X134509523Y-72702438D02*
X134557142Y-72750057D01*
X135509523Y-73654819D02*
X134938095Y-73654819D01*
X135223809Y-73654819D02*
X135223809Y-72654819D01*
X135223809Y-72654819D02*
X135128571Y-72797676D01*
X135128571Y-72797676D02*
X135033333Y-72892914D01*
X135033333Y-72892914D02*
X134938095Y-72940533D01*
X136366666Y-72988152D02*
X136366666Y-73654819D01*
X136128571Y-72607200D02*
X135890476Y-73321485D01*
X135890476Y-73321485D02*
X136509523Y-73321485D01*
X142382142Y-78789580D02*
X142334523Y-78837200D01*
X142334523Y-78837200D02*
X142191666Y-78884819D01*
X142191666Y-78884819D02*
X142096428Y-78884819D01*
X142096428Y-78884819D02*
X141953571Y-78837200D01*
X141953571Y-78837200D02*
X141858333Y-78741961D01*
X141858333Y-78741961D02*
X141810714Y-78646723D01*
X141810714Y-78646723D02*
X141763095Y-78456247D01*
X141763095Y-78456247D02*
X141763095Y-78313390D01*
X141763095Y-78313390D02*
X141810714Y-78122914D01*
X141810714Y-78122914D02*
X141858333Y-78027676D01*
X141858333Y-78027676D02*
X141953571Y-77932438D01*
X141953571Y-77932438D02*
X142096428Y-77884819D01*
X142096428Y-77884819D02*
X142191666Y-77884819D01*
X142191666Y-77884819D02*
X142334523Y-77932438D01*
X142334523Y-77932438D02*
X142382142Y-77980057D01*
X143334523Y-78884819D02*
X142763095Y-78884819D01*
X143048809Y-78884819D02*
X143048809Y-77884819D01*
X143048809Y-77884819D02*
X142953571Y-78027676D01*
X142953571Y-78027676D02*
X142858333Y-78122914D01*
X142858333Y-78122914D02*
X142763095Y-78170533D01*
X143667857Y-77884819D02*
X144286904Y-77884819D01*
X144286904Y-77884819D02*
X143953571Y-78265771D01*
X143953571Y-78265771D02*
X144096428Y-78265771D01*
X144096428Y-78265771D02*
X144191666Y-78313390D01*
X144191666Y-78313390D02*
X144239285Y-78361009D01*
X144239285Y-78361009D02*
X144286904Y-78456247D01*
X144286904Y-78456247D02*
X144286904Y-78694342D01*
X144286904Y-78694342D02*
X144239285Y-78789580D01*
X144239285Y-78789580D02*
X144191666Y-78837200D01*
X144191666Y-78837200D02*
X144096428Y-78884819D01*
X144096428Y-78884819D02*
X143810714Y-78884819D01*
X143810714Y-78884819D02*
X143715476Y-78837200D01*
X143715476Y-78837200D02*
X143667857Y-78789580D01*
X151608333Y-98624819D02*
X151275000Y-98148628D01*
X151036905Y-98624819D02*
X151036905Y-97624819D01*
X151036905Y-97624819D02*
X151417857Y-97624819D01*
X151417857Y-97624819D02*
X151513095Y-97672438D01*
X151513095Y-97672438D02*
X151560714Y-97720057D01*
X151560714Y-97720057D02*
X151608333Y-97815295D01*
X151608333Y-97815295D02*
X151608333Y-97958152D01*
X151608333Y-97958152D02*
X151560714Y-98053390D01*
X151560714Y-98053390D02*
X151513095Y-98101009D01*
X151513095Y-98101009D02*
X151417857Y-98148628D01*
X151417857Y-98148628D02*
X151036905Y-98148628D01*
X151989286Y-97720057D02*
X152036905Y-97672438D01*
X152036905Y-97672438D02*
X152132143Y-97624819D01*
X152132143Y-97624819D02*
X152370238Y-97624819D01*
X152370238Y-97624819D02*
X152465476Y-97672438D01*
X152465476Y-97672438D02*
X152513095Y-97720057D01*
X152513095Y-97720057D02*
X152560714Y-97815295D01*
X152560714Y-97815295D02*
X152560714Y-97910533D01*
X152560714Y-97910533D02*
X152513095Y-98053390D01*
X152513095Y-98053390D02*
X151941667Y-98624819D01*
X151941667Y-98624819D02*
X152560714Y-98624819D01*
X134357142Y-77849580D02*
X134309523Y-77897200D01*
X134309523Y-77897200D02*
X134166666Y-77944819D01*
X134166666Y-77944819D02*
X134071428Y-77944819D01*
X134071428Y-77944819D02*
X133928571Y-77897200D01*
X133928571Y-77897200D02*
X133833333Y-77801961D01*
X133833333Y-77801961D02*
X133785714Y-77706723D01*
X133785714Y-77706723D02*
X133738095Y-77516247D01*
X133738095Y-77516247D02*
X133738095Y-77373390D01*
X133738095Y-77373390D02*
X133785714Y-77182914D01*
X133785714Y-77182914D02*
X133833333Y-77087676D01*
X133833333Y-77087676D02*
X133928571Y-76992438D01*
X133928571Y-76992438D02*
X134071428Y-76944819D01*
X134071428Y-76944819D02*
X134166666Y-76944819D01*
X134166666Y-76944819D02*
X134309523Y-76992438D01*
X134309523Y-76992438D02*
X134357142Y-77040057D01*
X135309523Y-77944819D02*
X134738095Y-77944819D01*
X135023809Y-77944819D02*
X135023809Y-76944819D01*
X135023809Y-76944819D02*
X134928571Y-77087676D01*
X134928571Y-77087676D02*
X134833333Y-77182914D01*
X134833333Y-77182914D02*
X134738095Y-77230533D01*
X136166666Y-76944819D02*
X135976190Y-76944819D01*
X135976190Y-76944819D02*
X135880952Y-76992438D01*
X135880952Y-76992438D02*
X135833333Y-77040057D01*
X135833333Y-77040057D02*
X135738095Y-77182914D01*
X135738095Y-77182914D02*
X135690476Y-77373390D01*
X135690476Y-77373390D02*
X135690476Y-77754342D01*
X135690476Y-77754342D02*
X135738095Y-77849580D01*
X135738095Y-77849580D02*
X135785714Y-77897200D01*
X135785714Y-77897200D02*
X135880952Y-77944819D01*
X135880952Y-77944819D02*
X136071428Y-77944819D01*
X136071428Y-77944819D02*
X136166666Y-77897200D01*
X136166666Y-77897200D02*
X136214285Y-77849580D01*
X136214285Y-77849580D02*
X136261904Y-77754342D01*
X136261904Y-77754342D02*
X136261904Y-77516247D01*
X136261904Y-77516247D02*
X136214285Y-77421009D01*
X136214285Y-77421009D02*
X136166666Y-77373390D01*
X136166666Y-77373390D02*
X136071428Y-77325771D01*
X136071428Y-77325771D02*
X135880952Y-77325771D01*
X135880952Y-77325771D02*
X135785714Y-77373390D01*
X135785714Y-77373390D02*
X135738095Y-77421009D01*
X135738095Y-77421009D02*
X135690476Y-77516247D01*
X118816667Y-81607200D02*
X118959524Y-81654819D01*
X118959524Y-81654819D02*
X119197619Y-81654819D01*
X119197619Y-81654819D02*
X119292857Y-81607200D01*
X119292857Y-81607200D02*
X119340476Y-81559580D01*
X119340476Y-81559580D02*
X119388095Y-81464342D01*
X119388095Y-81464342D02*
X119388095Y-81369104D01*
X119388095Y-81369104D02*
X119340476Y-81273866D01*
X119340476Y-81273866D02*
X119292857Y-81226247D01*
X119292857Y-81226247D02*
X119197619Y-81178628D01*
X119197619Y-81178628D02*
X119007143Y-81131009D01*
X119007143Y-81131009D02*
X118911905Y-81083390D01*
X118911905Y-81083390D02*
X118864286Y-81035771D01*
X118864286Y-81035771D02*
X118816667Y-80940533D01*
X118816667Y-80940533D02*
X118816667Y-80845295D01*
X118816667Y-80845295D02*
X118864286Y-80750057D01*
X118864286Y-80750057D02*
X118911905Y-80702438D01*
X118911905Y-80702438D02*
X119007143Y-80654819D01*
X119007143Y-80654819D02*
X119245238Y-80654819D01*
X119245238Y-80654819D02*
X119388095Y-80702438D01*
X119721429Y-80654819D02*
X119959524Y-81654819D01*
X119959524Y-81654819D02*
X120150000Y-80940533D01*
X120150000Y-80940533D02*
X120340476Y-81654819D01*
X120340476Y-81654819D02*
X120578572Y-80654819D01*
X121483333Y-81654819D02*
X120911905Y-81654819D01*
X121197619Y-81654819D02*
X121197619Y-80654819D01*
X121197619Y-80654819D02*
X121102381Y-80797676D01*
X121102381Y-80797676D02*
X121007143Y-80892914D01*
X121007143Y-80892914D02*
X120911905Y-80940533D01*
X122624819Y-91991666D02*
X122148628Y-92324999D01*
X122624819Y-92563094D02*
X121624819Y-92563094D01*
X121624819Y-92563094D02*
X121624819Y-92182142D01*
X121624819Y-92182142D02*
X121672438Y-92086904D01*
X121672438Y-92086904D02*
X121720057Y-92039285D01*
X121720057Y-92039285D02*
X121815295Y-91991666D01*
X121815295Y-91991666D02*
X121958152Y-91991666D01*
X121958152Y-91991666D02*
X122053390Y-92039285D01*
X122053390Y-92039285D02*
X122101009Y-92086904D01*
X122101009Y-92086904D02*
X122148628Y-92182142D01*
X122148628Y-92182142D02*
X122148628Y-92563094D01*
X121624819Y-91658332D02*
X121624819Y-91039285D01*
X121624819Y-91039285D02*
X122005771Y-91372618D01*
X122005771Y-91372618D02*
X122005771Y-91229761D01*
X122005771Y-91229761D02*
X122053390Y-91134523D01*
X122053390Y-91134523D02*
X122101009Y-91086904D01*
X122101009Y-91086904D02*
X122196247Y-91039285D01*
X122196247Y-91039285D02*
X122434342Y-91039285D01*
X122434342Y-91039285D02*
X122529580Y-91086904D01*
X122529580Y-91086904D02*
X122577200Y-91134523D01*
X122577200Y-91134523D02*
X122624819Y-91229761D01*
X122624819Y-91229761D02*
X122624819Y-91515475D01*
X122624819Y-91515475D02*
X122577200Y-91610713D01*
X122577200Y-91610713D02*
X122529580Y-91658332D01*
X150838095Y-71454819D02*
X150838095Y-70454819D01*
X150838095Y-70931009D02*
X151409523Y-70931009D01*
X151409523Y-71454819D02*
X151409523Y-70454819D01*
X152409523Y-71454819D02*
X151838095Y-71454819D01*
X152123809Y-71454819D02*
X152123809Y-70454819D01*
X152123809Y-70454819D02*
X152028571Y-70597676D01*
X152028571Y-70597676D02*
X151933333Y-70692914D01*
X151933333Y-70692914D02*
X151838095Y-70740533D01*
X119838095Y-119254819D02*
X119838095Y-118254819D01*
X119838095Y-118731009D02*
X120409523Y-118731009D01*
X120409523Y-119254819D02*
X120409523Y-118254819D01*
X120790476Y-118254819D02*
X121409523Y-118254819D01*
X121409523Y-118254819D02*
X121076190Y-118635771D01*
X121076190Y-118635771D02*
X121219047Y-118635771D01*
X121219047Y-118635771D02*
X121314285Y-118683390D01*
X121314285Y-118683390D02*
X121361904Y-118731009D01*
X121361904Y-118731009D02*
X121409523Y-118826247D01*
X121409523Y-118826247D02*
X121409523Y-119064342D01*
X121409523Y-119064342D02*
X121361904Y-119159580D01*
X121361904Y-119159580D02*
X121314285Y-119207200D01*
X121314285Y-119207200D02*
X121219047Y-119254819D01*
X121219047Y-119254819D02*
X120933333Y-119254819D01*
X120933333Y-119254819D02*
X120838095Y-119207200D01*
X120838095Y-119207200D02*
X120790476Y-119159580D01*
X134357142Y-75759580D02*
X134309523Y-75807200D01*
X134309523Y-75807200D02*
X134166666Y-75854819D01*
X134166666Y-75854819D02*
X134071428Y-75854819D01*
X134071428Y-75854819D02*
X133928571Y-75807200D01*
X133928571Y-75807200D02*
X133833333Y-75711961D01*
X133833333Y-75711961D02*
X133785714Y-75616723D01*
X133785714Y-75616723D02*
X133738095Y-75426247D01*
X133738095Y-75426247D02*
X133738095Y-75283390D01*
X133738095Y-75283390D02*
X133785714Y-75092914D01*
X133785714Y-75092914D02*
X133833333Y-74997676D01*
X133833333Y-74997676D02*
X133928571Y-74902438D01*
X133928571Y-74902438D02*
X134071428Y-74854819D01*
X134071428Y-74854819D02*
X134166666Y-74854819D01*
X134166666Y-74854819D02*
X134309523Y-74902438D01*
X134309523Y-74902438D02*
X134357142Y-74950057D01*
X135309523Y-75854819D02*
X134738095Y-75854819D01*
X135023809Y-75854819D02*
X135023809Y-74854819D01*
X135023809Y-74854819D02*
X134928571Y-74997676D01*
X134928571Y-74997676D02*
X134833333Y-75092914D01*
X134833333Y-75092914D02*
X134738095Y-75140533D01*
X136214285Y-74854819D02*
X135738095Y-74854819D01*
X135738095Y-74854819D02*
X135690476Y-75331009D01*
X135690476Y-75331009D02*
X135738095Y-75283390D01*
X135738095Y-75283390D02*
X135833333Y-75235771D01*
X135833333Y-75235771D02*
X136071428Y-75235771D01*
X136071428Y-75235771D02*
X136166666Y-75283390D01*
X136166666Y-75283390D02*
X136214285Y-75331009D01*
X136214285Y-75331009D02*
X136261904Y-75426247D01*
X136261904Y-75426247D02*
X136261904Y-75664342D01*
X136261904Y-75664342D02*
X136214285Y-75759580D01*
X136214285Y-75759580D02*
X136166666Y-75807200D01*
X136166666Y-75807200D02*
X136071428Y-75854819D01*
X136071428Y-75854819D02*
X135833333Y-75854819D01*
X135833333Y-75854819D02*
X135738095Y-75807200D01*
X135738095Y-75807200D02*
X135690476Y-75759580D01*
X139528571Y-70131009D02*
X139195238Y-70131009D01*
X139195238Y-70654819D02*
X139195238Y-69654819D01*
X139195238Y-69654819D02*
X139671428Y-69654819D01*
X140052381Y-70654819D02*
X140052381Y-69654819D01*
X140528571Y-70654819D02*
X140528571Y-69654819D01*
X140528571Y-69654819D02*
X140766666Y-69654819D01*
X140766666Y-69654819D02*
X140909523Y-69702438D01*
X140909523Y-69702438D02*
X141004761Y-69797676D01*
X141004761Y-69797676D02*
X141052380Y-69892914D01*
X141052380Y-69892914D02*
X141099999Y-70083390D01*
X141099999Y-70083390D02*
X141099999Y-70226247D01*
X141099999Y-70226247D02*
X141052380Y-70416723D01*
X141052380Y-70416723D02*
X141004761Y-70511961D01*
X141004761Y-70511961D02*
X140909523Y-70607200D01*
X140909523Y-70607200D02*
X140766666Y-70654819D01*
X140766666Y-70654819D02*
X140528571Y-70654819D01*
X142052380Y-70654819D02*
X141480952Y-70654819D01*
X141766666Y-70654819D02*
X141766666Y-69654819D01*
X141766666Y-69654819D02*
X141671428Y-69797676D01*
X141671428Y-69797676D02*
X141576190Y-69892914D01*
X141576190Y-69892914D02*
X141480952Y-69940533D01*
X148233333Y-85854819D02*
X147900000Y-85378628D01*
X147661905Y-85854819D02*
X147661905Y-84854819D01*
X147661905Y-84854819D02*
X148042857Y-84854819D01*
X148042857Y-84854819D02*
X148138095Y-84902438D01*
X148138095Y-84902438D02*
X148185714Y-84950057D01*
X148185714Y-84950057D02*
X148233333Y-85045295D01*
X148233333Y-85045295D02*
X148233333Y-85188152D01*
X148233333Y-85188152D02*
X148185714Y-85283390D01*
X148185714Y-85283390D02*
X148138095Y-85331009D01*
X148138095Y-85331009D02*
X148042857Y-85378628D01*
X148042857Y-85378628D02*
X147661905Y-85378628D01*
X149090476Y-85188152D02*
X149090476Y-85854819D01*
X148852381Y-84807200D02*
X148614286Y-85521485D01*
X148614286Y-85521485D02*
X149233333Y-85521485D01*
X114728571Y-92381009D02*
X114395238Y-92381009D01*
X114395238Y-92904819D02*
X114395238Y-91904819D01*
X114395238Y-91904819D02*
X114871428Y-91904819D01*
X115252381Y-92904819D02*
X115252381Y-91904819D01*
X115728571Y-92904819D02*
X115728571Y-91904819D01*
X115728571Y-91904819D02*
X115966666Y-91904819D01*
X115966666Y-91904819D02*
X116109523Y-91952438D01*
X116109523Y-91952438D02*
X116204761Y-92047676D01*
X116204761Y-92047676D02*
X116252380Y-92142914D01*
X116252380Y-92142914D02*
X116299999Y-92333390D01*
X116299999Y-92333390D02*
X116299999Y-92476247D01*
X116299999Y-92476247D02*
X116252380Y-92666723D01*
X116252380Y-92666723D02*
X116204761Y-92761961D01*
X116204761Y-92761961D02*
X116109523Y-92857200D01*
X116109523Y-92857200D02*
X115966666Y-92904819D01*
X115966666Y-92904819D02*
X115728571Y-92904819D01*
X116680952Y-92000057D02*
X116728571Y-91952438D01*
X116728571Y-91952438D02*
X116823809Y-91904819D01*
X116823809Y-91904819D02*
X117061904Y-91904819D01*
X117061904Y-91904819D02*
X117157142Y-91952438D01*
X117157142Y-91952438D02*
X117204761Y-92000057D01*
X117204761Y-92000057D02*
X117252380Y-92095295D01*
X117252380Y-92095295D02*
X117252380Y-92190533D01*
X117252380Y-92190533D02*
X117204761Y-92333390D01*
X117204761Y-92333390D02*
X116633333Y-92904819D01*
X116633333Y-92904819D02*
X117252380Y-92904819D01*
X127466666Y-77674819D02*
X127466666Y-78389104D01*
X127466666Y-78389104D02*
X127419047Y-78531961D01*
X127419047Y-78531961D02*
X127323809Y-78627200D01*
X127323809Y-78627200D02*
X127180952Y-78674819D01*
X127180952Y-78674819D02*
X127085714Y-78674819D01*
X127895238Y-77770057D02*
X127942857Y-77722438D01*
X127942857Y-77722438D02*
X128038095Y-77674819D01*
X128038095Y-77674819D02*
X128276190Y-77674819D01*
X128276190Y-77674819D02*
X128371428Y-77722438D01*
X128371428Y-77722438D02*
X128419047Y-77770057D01*
X128419047Y-77770057D02*
X128466666Y-77865295D01*
X128466666Y-77865295D02*
X128466666Y-77960533D01*
X128466666Y-77960533D02*
X128419047Y-78103390D01*
X128419047Y-78103390D02*
X127847619Y-78674819D01*
X127847619Y-78674819D02*
X128466666Y-78674819D01*
X131488095Y-111054819D02*
X131488095Y-111864342D01*
X131488095Y-111864342D02*
X131535714Y-111959580D01*
X131535714Y-111959580D02*
X131583333Y-112007200D01*
X131583333Y-112007200D02*
X131678571Y-112054819D01*
X131678571Y-112054819D02*
X131869047Y-112054819D01*
X131869047Y-112054819D02*
X131964285Y-112007200D01*
X131964285Y-112007200D02*
X132011904Y-111959580D01*
X132011904Y-111959580D02*
X132059523Y-111864342D01*
X132059523Y-111864342D02*
X132059523Y-111054819D01*
X133059523Y-112054819D02*
X132488095Y-112054819D01*
X132773809Y-112054819D02*
X132773809Y-111054819D01*
X132773809Y-111054819D02*
X132678571Y-111197676D01*
X132678571Y-111197676D02*
X132583333Y-111292914D01*
X132583333Y-111292914D02*
X132488095Y-111340533D01*
X148723809Y-74028628D02*
X148723809Y-74504819D01*
X148390476Y-73504819D02*
X148723809Y-74028628D01*
X148723809Y-74028628D02*
X149057142Y-73504819D01*
X149914285Y-74504819D02*
X149342857Y-74504819D01*
X149628571Y-74504819D02*
X149628571Y-73504819D01*
X149628571Y-73504819D02*
X149533333Y-73647676D01*
X149533333Y-73647676D02*
X149438095Y-73742914D01*
X149438095Y-73742914D02*
X149342857Y-73790533D01*
X131058333Y-100429580D02*
X131010714Y-100477200D01*
X131010714Y-100477200D02*
X130867857Y-100524819D01*
X130867857Y-100524819D02*
X130772619Y-100524819D01*
X130772619Y-100524819D02*
X130629762Y-100477200D01*
X130629762Y-100477200D02*
X130534524Y-100381961D01*
X130534524Y-100381961D02*
X130486905Y-100286723D01*
X130486905Y-100286723D02*
X130439286Y-100096247D01*
X130439286Y-100096247D02*
X130439286Y-99953390D01*
X130439286Y-99953390D02*
X130486905Y-99762914D01*
X130486905Y-99762914D02*
X130534524Y-99667676D01*
X130534524Y-99667676D02*
X130629762Y-99572438D01*
X130629762Y-99572438D02*
X130772619Y-99524819D01*
X130772619Y-99524819D02*
X130867857Y-99524819D01*
X130867857Y-99524819D02*
X131010714Y-99572438D01*
X131010714Y-99572438D02*
X131058333Y-99620057D01*
X131439286Y-99620057D02*
X131486905Y-99572438D01*
X131486905Y-99572438D02*
X131582143Y-99524819D01*
X131582143Y-99524819D02*
X131820238Y-99524819D01*
X131820238Y-99524819D02*
X131915476Y-99572438D01*
X131915476Y-99572438D02*
X131963095Y-99620057D01*
X131963095Y-99620057D02*
X132010714Y-99715295D01*
X132010714Y-99715295D02*
X132010714Y-99810533D01*
X132010714Y-99810533D02*
X131963095Y-99953390D01*
X131963095Y-99953390D02*
X131391667Y-100524819D01*
X131391667Y-100524819D02*
X132010714Y-100524819D01*
X151182142Y-88389580D02*
X151134523Y-88437200D01*
X151134523Y-88437200D02*
X150991666Y-88484819D01*
X150991666Y-88484819D02*
X150896428Y-88484819D01*
X150896428Y-88484819D02*
X150753571Y-88437200D01*
X150753571Y-88437200D02*
X150658333Y-88341961D01*
X150658333Y-88341961D02*
X150610714Y-88246723D01*
X150610714Y-88246723D02*
X150563095Y-88056247D01*
X150563095Y-88056247D02*
X150563095Y-87913390D01*
X150563095Y-87913390D02*
X150610714Y-87722914D01*
X150610714Y-87722914D02*
X150658333Y-87627676D01*
X150658333Y-87627676D02*
X150753571Y-87532438D01*
X150753571Y-87532438D02*
X150896428Y-87484819D01*
X150896428Y-87484819D02*
X150991666Y-87484819D01*
X150991666Y-87484819D02*
X151134523Y-87532438D01*
X151134523Y-87532438D02*
X151182142Y-87580057D01*
X152134523Y-88484819D02*
X151563095Y-88484819D01*
X151848809Y-88484819D02*
X151848809Y-87484819D01*
X151848809Y-87484819D02*
X151753571Y-87627676D01*
X151753571Y-87627676D02*
X151658333Y-87722914D01*
X151658333Y-87722914D02*
X151563095Y-87770533D01*
X152753571Y-87484819D02*
X152848809Y-87484819D01*
X152848809Y-87484819D02*
X152944047Y-87532438D01*
X152944047Y-87532438D02*
X152991666Y-87580057D01*
X152991666Y-87580057D02*
X153039285Y-87675295D01*
X153039285Y-87675295D02*
X153086904Y-87865771D01*
X153086904Y-87865771D02*
X153086904Y-88103866D01*
X153086904Y-88103866D02*
X153039285Y-88294342D01*
X153039285Y-88294342D02*
X152991666Y-88389580D01*
X152991666Y-88389580D02*
X152944047Y-88437200D01*
X152944047Y-88437200D02*
X152848809Y-88484819D01*
X152848809Y-88484819D02*
X152753571Y-88484819D01*
X152753571Y-88484819D02*
X152658333Y-88437200D01*
X152658333Y-88437200D02*
X152610714Y-88389580D01*
X152610714Y-88389580D02*
X152563095Y-88294342D01*
X152563095Y-88294342D02*
X152515476Y-88103866D01*
X152515476Y-88103866D02*
X152515476Y-87865771D01*
X152515476Y-87865771D02*
X152563095Y-87675295D01*
X152563095Y-87675295D02*
X152610714Y-87580057D01*
X152610714Y-87580057D02*
X152658333Y-87532438D01*
X152658333Y-87532438D02*
X152753571Y-87484819D01*
X147841562Y-88359580D02*
X147793943Y-88407200D01*
X147793943Y-88407200D02*
X147651086Y-88454819D01*
X147651086Y-88454819D02*
X147555848Y-88454819D01*
X147555848Y-88454819D02*
X147412991Y-88407200D01*
X147412991Y-88407200D02*
X147317753Y-88311961D01*
X147317753Y-88311961D02*
X147270134Y-88216723D01*
X147270134Y-88216723D02*
X147222515Y-88026247D01*
X147222515Y-88026247D02*
X147222515Y-87883390D01*
X147222515Y-87883390D02*
X147270134Y-87692914D01*
X147270134Y-87692914D02*
X147317753Y-87597676D01*
X147317753Y-87597676D02*
X147412991Y-87502438D01*
X147412991Y-87502438D02*
X147555848Y-87454819D01*
X147555848Y-87454819D02*
X147651086Y-87454819D01*
X147651086Y-87454819D02*
X147793943Y-87502438D01*
X147793943Y-87502438D02*
X147841562Y-87550057D01*
X148793943Y-88454819D02*
X148222515Y-88454819D01*
X148508229Y-88454819D02*
X148508229Y-87454819D01*
X148508229Y-87454819D02*
X148412991Y-87597676D01*
X148412991Y-87597676D02*
X148317753Y-87692914D01*
X148317753Y-87692914D02*
X148222515Y-87740533D01*
X149746324Y-88454819D02*
X149174896Y-88454819D01*
X149460610Y-88454819D02*
X149460610Y-87454819D01*
X149460610Y-87454819D02*
X149365372Y-87597676D01*
X149365372Y-87597676D02*
X149270134Y-87692914D01*
X149270134Y-87692914D02*
X149174896Y-87740533D01*
X151061905Y-103624819D02*
X151061905Y-102624819D01*
X151061905Y-102624819D02*
X151300000Y-102624819D01*
X151300000Y-102624819D02*
X151442857Y-102672438D01*
X151442857Y-102672438D02*
X151538095Y-102767676D01*
X151538095Y-102767676D02*
X151585714Y-102862914D01*
X151585714Y-102862914D02*
X151633333Y-103053390D01*
X151633333Y-103053390D02*
X151633333Y-103196247D01*
X151633333Y-103196247D02*
X151585714Y-103386723D01*
X151585714Y-103386723D02*
X151538095Y-103481961D01*
X151538095Y-103481961D02*
X151442857Y-103577200D01*
X151442857Y-103577200D02*
X151300000Y-103624819D01*
X151300000Y-103624819D02*
X151061905Y-103624819D01*
X152014286Y-102720057D02*
X152061905Y-102672438D01*
X152061905Y-102672438D02*
X152157143Y-102624819D01*
X152157143Y-102624819D02*
X152395238Y-102624819D01*
X152395238Y-102624819D02*
X152490476Y-102672438D01*
X152490476Y-102672438D02*
X152538095Y-102720057D01*
X152538095Y-102720057D02*
X152585714Y-102815295D01*
X152585714Y-102815295D02*
X152585714Y-102910533D01*
X152585714Y-102910533D02*
X152538095Y-103053390D01*
X152538095Y-103053390D02*
X151966667Y-103624819D01*
X151966667Y-103624819D02*
X152585714Y-103624819D01*
X131058333Y-97229580D02*
X131010714Y-97277200D01*
X131010714Y-97277200D02*
X130867857Y-97324819D01*
X130867857Y-97324819D02*
X130772619Y-97324819D01*
X130772619Y-97324819D02*
X130629762Y-97277200D01*
X130629762Y-97277200D02*
X130534524Y-97181961D01*
X130534524Y-97181961D02*
X130486905Y-97086723D01*
X130486905Y-97086723D02*
X130439286Y-96896247D01*
X130439286Y-96896247D02*
X130439286Y-96753390D01*
X130439286Y-96753390D02*
X130486905Y-96562914D01*
X130486905Y-96562914D02*
X130534524Y-96467676D01*
X130534524Y-96467676D02*
X130629762Y-96372438D01*
X130629762Y-96372438D02*
X130772619Y-96324819D01*
X130772619Y-96324819D02*
X130867857Y-96324819D01*
X130867857Y-96324819D02*
X131010714Y-96372438D01*
X131010714Y-96372438D02*
X131058333Y-96420057D01*
X132010714Y-97324819D02*
X131439286Y-97324819D01*
X131725000Y-97324819D02*
X131725000Y-96324819D01*
X131725000Y-96324819D02*
X131629762Y-96467676D01*
X131629762Y-96467676D02*
X131534524Y-96562914D01*
X131534524Y-96562914D02*
X131439286Y-96610533D01*
X124189580Y-76417857D02*
X124237200Y-76465476D01*
X124237200Y-76465476D02*
X124284819Y-76608333D01*
X124284819Y-76608333D02*
X124284819Y-76703571D01*
X124284819Y-76703571D02*
X124237200Y-76846428D01*
X124237200Y-76846428D02*
X124141961Y-76941666D01*
X124141961Y-76941666D02*
X124046723Y-76989285D01*
X124046723Y-76989285D02*
X123856247Y-77036904D01*
X123856247Y-77036904D02*
X123713390Y-77036904D01*
X123713390Y-77036904D02*
X123522914Y-76989285D01*
X123522914Y-76989285D02*
X123427676Y-76941666D01*
X123427676Y-76941666D02*
X123332438Y-76846428D01*
X123332438Y-76846428D02*
X123284819Y-76703571D01*
X123284819Y-76703571D02*
X123284819Y-76608333D01*
X123284819Y-76608333D02*
X123332438Y-76465476D01*
X123332438Y-76465476D02*
X123380057Y-76417857D01*
X124284819Y-75465476D02*
X124284819Y-76036904D01*
X124284819Y-75751190D02*
X123284819Y-75751190D01*
X123284819Y-75751190D02*
X123427676Y-75846428D01*
X123427676Y-75846428D02*
X123522914Y-75941666D01*
X123522914Y-75941666D02*
X123570533Y-76036904D01*
X123713390Y-74894047D02*
X123665771Y-74989285D01*
X123665771Y-74989285D02*
X123618152Y-75036904D01*
X123618152Y-75036904D02*
X123522914Y-75084523D01*
X123522914Y-75084523D02*
X123475295Y-75084523D01*
X123475295Y-75084523D02*
X123380057Y-75036904D01*
X123380057Y-75036904D02*
X123332438Y-74989285D01*
X123332438Y-74989285D02*
X123284819Y-74894047D01*
X123284819Y-74894047D02*
X123284819Y-74703571D01*
X123284819Y-74703571D02*
X123332438Y-74608333D01*
X123332438Y-74608333D02*
X123380057Y-74560714D01*
X123380057Y-74560714D02*
X123475295Y-74513095D01*
X123475295Y-74513095D02*
X123522914Y-74513095D01*
X123522914Y-74513095D02*
X123618152Y-74560714D01*
X123618152Y-74560714D02*
X123665771Y-74608333D01*
X123665771Y-74608333D02*
X123713390Y-74703571D01*
X123713390Y-74703571D02*
X123713390Y-74894047D01*
X123713390Y-74894047D02*
X123761009Y-74989285D01*
X123761009Y-74989285D02*
X123808628Y-75036904D01*
X123808628Y-75036904D02*
X123903866Y-75084523D01*
X123903866Y-75084523D02*
X124094342Y-75084523D01*
X124094342Y-75084523D02*
X124189580Y-75036904D01*
X124189580Y-75036904D02*
X124237200Y-74989285D01*
X124237200Y-74989285D02*
X124284819Y-74894047D01*
X124284819Y-74894047D02*
X124284819Y-74703571D01*
X124284819Y-74703571D02*
X124237200Y-74608333D01*
X124237200Y-74608333D02*
X124189580Y-74560714D01*
X124189580Y-74560714D02*
X124094342Y-74513095D01*
X124094342Y-74513095D02*
X123903866Y-74513095D01*
X123903866Y-74513095D02*
X123808628Y-74560714D01*
X123808628Y-74560714D02*
X123761009Y-74608333D01*
X123761009Y-74608333D02*
X123713390Y-74703571D01*
X119182142Y-90729580D02*
X119134523Y-90777200D01*
X119134523Y-90777200D02*
X118991666Y-90824819D01*
X118991666Y-90824819D02*
X118896428Y-90824819D01*
X118896428Y-90824819D02*
X118753571Y-90777200D01*
X118753571Y-90777200D02*
X118658333Y-90681961D01*
X118658333Y-90681961D02*
X118610714Y-90586723D01*
X118610714Y-90586723D02*
X118563095Y-90396247D01*
X118563095Y-90396247D02*
X118563095Y-90253390D01*
X118563095Y-90253390D02*
X118610714Y-90062914D01*
X118610714Y-90062914D02*
X118658333Y-89967676D01*
X118658333Y-89967676D02*
X118753571Y-89872438D01*
X118753571Y-89872438D02*
X118896428Y-89824819D01*
X118896428Y-89824819D02*
X118991666Y-89824819D01*
X118991666Y-89824819D02*
X119134523Y-89872438D01*
X119134523Y-89872438D02*
X119182142Y-89920057D01*
X119563095Y-89920057D02*
X119610714Y-89872438D01*
X119610714Y-89872438D02*
X119705952Y-89824819D01*
X119705952Y-89824819D02*
X119944047Y-89824819D01*
X119944047Y-89824819D02*
X120039285Y-89872438D01*
X120039285Y-89872438D02*
X120086904Y-89920057D01*
X120086904Y-89920057D02*
X120134523Y-90015295D01*
X120134523Y-90015295D02*
X120134523Y-90110533D01*
X120134523Y-90110533D02*
X120086904Y-90253390D01*
X120086904Y-90253390D02*
X119515476Y-90824819D01*
X119515476Y-90824819D02*
X120134523Y-90824819D01*
X120753571Y-89824819D02*
X120848809Y-89824819D01*
X120848809Y-89824819D02*
X120944047Y-89872438D01*
X120944047Y-89872438D02*
X120991666Y-89920057D01*
X120991666Y-89920057D02*
X121039285Y-90015295D01*
X121039285Y-90015295D02*
X121086904Y-90205771D01*
X121086904Y-90205771D02*
X121086904Y-90443866D01*
X121086904Y-90443866D02*
X121039285Y-90634342D01*
X121039285Y-90634342D02*
X120991666Y-90729580D01*
X120991666Y-90729580D02*
X120944047Y-90777200D01*
X120944047Y-90777200D02*
X120848809Y-90824819D01*
X120848809Y-90824819D02*
X120753571Y-90824819D01*
X120753571Y-90824819D02*
X120658333Y-90777200D01*
X120658333Y-90777200D02*
X120610714Y-90729580D01*
X120610714Y-90729580D02*
X120563095Y-90634342D01*
X120563095Y-90634342D02*
X120515476Y-90443866D01*
X120515476Y-90443866D02*
X120515476Y-90205771D01*
X120515476Y-90205771D02*
X120563095Y-90015295D01*
X120563095Y-90015295D02*
X120610714Y-89920057D01*
X120610714Y-89920057D02*
X120658333Y-89872438D01*
X120658333Y-89872438D02*
X120753571Y-89824819D01*
X134616905Y-112654819D02*
X134616905Y-111654819D01*
X134616905Y-111654819D02*
X134855000Y-111654819D01*
X134855000Y-111654819D02*
X134997857Y-111702438D01*
X134997857Y-111702438D02*
X135093095Y-111797676D01*
X135093095Y-111797676D02*
X135140714Y-111892914D01*
X135140714Y-111892914D02*
X135188333Y-112083390D01*
X135188333Y-112083390D02*
X135188333Y-112226247D01*
X135188333Y-112226247D02*
X135140714Y-112416723D01*
X135140714Y-112416723D02*
X135093095Y-112511961D01*
X135093095Y-112511961D02*
X134997857Y-112607200D01*
X134997857Y-112607200D02*
X134855000Y-112654819D01*
X134855000Y-112654819D02*
X134616905Y-112654819D01*
X136140714Y-112654819D02*
X135569286Y-112654819D01*
X135855000Y-112654819D02*
X135855000Y-111654819D01*
X135855000Y-111654819D02*
X135759762Y-111797676D01*
X135759762Y-111797676D02*
X135664524Y-111892914D01*
X135664524Y-111892914D02*
X135569286Y-111940533D01*
X139458333Y-104729580D02*
X139410714Y-104777200D01*
X139410714Y-104777200D02*
X139267857Y-104824819D01*
X139267857Y-104824819D02*
X139172619Y-104824819D01*
X139172619Y-104824819D02*
X139029762Y-104777200D01*
X139029762Y-104777200D02*
X138934524Y-104681961D01*
X138934524Y-104681961D02*
X138886905Y-104586723D01*
X138886905Y-104586723D02*
X138839286Y-104396247D01*
X138839286Y-104396247D02*
X138839286Y-104253390D01*
X138839286Y-104253390D02*
X138886905Y-104062914D01*
X138886905Y-104062914D02*
X138934524Y-103967676D01*
X138934524Y-103967676D02*
X139029762Y-103872438D01*
X139029762Y-103872438D02*
X139172619Y-103824819D01*
X139172619Y-103824819D02*
X139267857Y-103824819D01*
X139267857Y-103824819D02*
X139410714Y-103872438D01*
X139410714Y-103872438D02*
X139458333Y-103920057D01*
X140363095Y-103824819D02*
X139886905Y-103824819D01*
X139886905Y-103824819D02*
X139839286Y-104301009D01*
X139839286Y-104301009D02*
X139886905Y-104253390D01*
X139886905Y-104253390D02*
X139982143Y-104205771D01*
X139982143Y-104205771D02*
X140220238Y-104205771D01*
X140220238Y-104205771D02*
X140315476Y-104253390D01*
X140315476Y-104253390D02*
X140363095Y-104301009D01*
X140363095Y-104301009D02*
X140410714Y-104396247D01*
X140410714Y-104396247D02*
X140410714Y-104634342D01*
X140410714Y-104634342D02*
X140363095Y-104729580D01*
X140363095Y-104729580D02*
X140315476Y-104777200D01*
X140315476Y-104777200D02*
X140220238Y-104824819D01*
X140220238Y-104824819D02*
X139982143Y-104824819D01*
X139982143Y-104824819D02*
X139886905Y-104777200D01*
X139886905Y-104777200D02*
X139839286Y-104729580D01*
X142061905Y-111554819D02*
X142061905Y-110554819D01*
X142061905Y-110554819D02*
X142300000Y-110554819D01*
X142300000Y-110554819D02*
X142442857Y-110602438D01*
X142442857Y-110602438D02*
X142538095Y-110697676D01*
X142538095Y-110697676D02*
X142585714Y-110792914D01*
X142585714Y-110792914D02*
X142633333Y-110983390D01*
X142633333Y-110983390D02*
X142633333Y-111126247D01*
X142633333Y-111126247D02*
X142585714Y-111316723D01*
X142585714Y-111316723D02*
X142538095Y-111411961D01*
X142538095Y-111411961D02*
X142442857Y-111507200D01*
X142442857Y-111507200D02*
X142300000Y-111554819D01*
X142300000Y-111554819D02*
X142061905Y-111554819D01*
X142966667Y-110554819D02*
X143585714Y-110554819D01*
X143585714Y-110554819D02*
X143252381Y-110935771D01*
X143252381Y-110935771D02*
X143395238Y-110935771D01*
X143395238Y-110935771D02*
X143490476Y-110983390D01*
X143490476Y-110983390D02*
X143538095Y-111031009D01*
X143538095Y-111031009D02*
X143585714Y-111126247D01*
X143585714Y-111126247D02*
X143585714Y-111364342D01*
X143585714Y-111364342D02*
X143538095Y-111459580D01*
X143538095Y-111459580D02*
X143490476Y-111507200D01*
X143490476Y-111507200D02*
X143395238Y-111554819D01*
X143395238Y-111554819D02*
X143109524Y-111554819D01*
X143109524Y-111554819D02*
X143014286Y-111507200D01*
X143014286Y-111507200D02*
X142966667Y-111459580D01*
X134833333Y-100559580D02*
X134785714Y-100607200D01*
X134785714Y-100607200D02*
X134642857Y-100654819D01*
X134642857Y-100654819D02*
X134547619Y-100654819D01*
X134547619Y-100654819D02*
X134404762Y-100607200D01*
X134404762Y-100607200D02*
X134309524Y-100511961D01*
X134309524Y-100511961D02*
X134261905Y-100416723D01*
X134261905Y-100416723D02*
X134214286Y-100226247D01*
X134214286Y-100226247D02*
X134214286Y-100083390D01*
X134214286Y-100083390D02*
X134261905Y-99892914D01*
X134261905Y-99892914D02*
X134309524Y-99797676D01*
X134309524Y-99797676D02*
X134404762Y-99702438D01*
X134404762Y-99702438D02*
X134547619Y-99654819D01*
X134547619Y-99654819D02*
X134642857Y-99654819D01*
X134642857Y-99654819D02*
X134785714Y-99702438D01*
X134785714Y-99702438D02*
X134833333Y-99750057D01*
X135166667Y-99654819D02*
X135785714Y-99654819D01*
X135785714Y-99654819D02*
X135452381Y-100035771D01*
X135452381Y-100035771D02*
X135595238Y-100035771D01*
X135595238Y-100035771D02*
X135690476Y-100083390D01*
X135690476Y-100083390D02*
X135738095Y-100131009D01*
X135738095Y-100131009D02*
X135785714Y-100226247D01*
X135785714Y-100226247D02*
X135785714Y-100464342D01*
X135785714Y-100464342D02*
X135738095Y-100559580D01*
X135738095Y-100559580D02*
X135690476Y-100607200D01*
X135690476Y-100607200D02*
X135595238Y-100654819D01*
X135595238Y-100654819D02*
X135309524Y-100654819D01*
X135309524Y-100654819D02*
X135214286Y-100607200D01*
X135214286Y-100607200D02*
X135166667Y-100559580D01*
X139258333Y-108329580D02*
X139210714Y-108377200D01*
X139210714Y-108377200D02*
X139067857Y-108424819D01*
X139067857Y-108424819D02*
X138972619Y-108424819D01*
X138972619Y-108424819D02*
X138829762Y-108377200D01*
X138829762Y-108377200D02*
X138734524Y-108281961D01*
X138734524Y-108281961D02*
X138686905Y-108186723D01*
X138686905Y-108186723D02*
X138639286Y-107996247D01*
X138639286Y-107996247D02*
X138639286Y-107853390D01*
X138639286Y-107853390D02*
X138686905Y-107662914D01*
X138686905Y-107662914D02*
X138734524Y-107567676D01*
X138734524Y-107567676D02*
X138829762Y-107472438D01*
X138829762Y-107472438D02*
X138972619Y-107424819D01*
X138972619Y-107424819D02*
X139067857Y-107424819D01*
X139067857Y-107424819D02*
X139210714Y-107472438D01*
X139210714Y-107472438D02*
X139258333Y-107520057D01*
X140115476Y-107424819D02*
X139925000Y-107424819D01*
X139925000Y-107424819D02*
X139829762Y-107472438D01*
X139829762Y-107472438D02*
X139782143Y-107520057D01*
X139782143Y-107520057D02*
X139686905Y-107662914D01*
X139686905Y-107662914D02*
X139639286Y-107853390D01*
X139639286Y-107853390D02*
X139639286Y-108234342D01*
X139639286Y-108234342D02*
X139686905Y-108329580D01*
X139686905Y-108329580D02*
X139734524Y-108377200D01*
X139734524Y-108377200D02*
X139829762Y-108424819D01*
X139829762Y-108424819D02*
X140020238Y-108424819D01*
X140020238Y-108424819D02*
X140115476Y-108377200D01*
X140115476Y-108377200D02*
X140163095Y-108329580D01*
X140163095Y-108329580D02*
X140210714Y-108234342D01*
X140210714Y-108234342D02*
X140210714Y-107996247D01*
X140210714Y-107996247D02*
X140163095Y-107901009D01*
X140163095Y-107901009D02*
X140115476Y-107853390D01*
X140115476Y-107853390D02*
X140020238Y-107805771D01*
X140020238Y-107805771D02*
X139829762Y-107805771D01*
X139829762Y-107805771D02*
X139734524Y-107853390D01*
X139734524Y-107853390D02*
X139686905Y-107901009D01*
X139686905Y-107901009D02*
X139639286Y-107996247D01*
X137838095Y-79642319D02*
X137838095Y-80451842D01*
X137838095Y-80451842D02*
X137885714Y-80547080D01*
X137885714Y-80547080D02*
X137933333Y-80594700D01*
X137933333Y-80594700D02*
X138028571Y-80642319D01*
X138028571Y-80642319D02*
X138219047Y-80642319D01*
X138219047Y-80642319D02*
X138314285Y-80594700D01*
X138314285Y-80594700D02*
X138361904Y-80547080D01*
X138361904Y-80547080D02*
X138409523Y-80451842D01*
X138409523Y-80451842D02*
X138409523Y-79642319D01*
X138790476Y-79642319D02*
X139409523Y-79642319D01*
X139409523Y-79642319D02*
X139076190Y-80023271D01*
X139076190Y-80023271D02*
X139219047Y-80023271D01*
X139219047Y-80023271D02*
X139314285Y-80070890D01*
X139314285Y-80070890D02*
X139361904Y-80118509D01*
X139361904Y-80118509D02*
X139409523Y-80213747D01*
X139409523Y-80213747D02*
X139409523Y-80451842D01*
X139409523Y-80451842D02*
X139361904Y-80547080D01*
X139361904Y-80547080D02*
X139314285Y-80594700D01*
X139314285Y-80594700D02*
X139219047Y-80642319D01*
X139219047Y-80642319D02*
X138933333Y-80642319D01*
X138933333Y-80642319D02*
X138838095Y-80594700D01*
X138838095Y-80594700D02*
X138790476Y-80547080D01*
X143858333Y-108129580D02*
X143810714Y-108177200D01*
X143810714Y-108177200D02*
X143667857Y-108224819D01*
X143667857Y-108224819D02*
X143572619Y-108224819D01*
X143572619Y-108224819D02*
X143429762Y-108177200D01*
X143429762Y-108177200D02*
X143334524Y-108081961D01*
X143334524Y-108081961D02*
X143286905Y-107986723D01*
X143286905Y-107986723D02*
X143239286Y-107796247D01*
X143239286Y-107796247D02*
X143239286Y-107653390D01*
X143239286Y-107653390D02*
X143286905Y-107462914D01*
X143286905Y-107462914D02*
X143334524Y-107367676D01*
X143334524Y-107367676D02*
X143429762Y-107272438D01*
X143429762Y-107272438D02*
X143572619Y-107224819D01*
X143572619Y-107224819D02*
X143667857Y-107224819D01*
X143667857Y-107224819D02*
X143810714Y-107272438D01*
X143810714Y-107272438D02*
X143858333Y-107320057D01*
X144429762Y-107653390D02*
X144334524Y-107605771D01*
X144334524Y-107605771D02*
X144286905Y-107558152D01*
X144286905Y-107558152D02*
X144239286Y-107462914D01*
X144239286Y-107462914D02*
X144239286Y-107415295D01*
X144239286Y-107415295D02*
X144286905Y-107320057D01*
X144286905Y-107320057D02*
X144334524Y-107272438D01*
X144334524Y-107272438D02*
X144429762Y-107224819D01*
X144429762Y-107224819D02*
X144620238Y-107224819D01*
X144620238Y-107224819D02*
X144715476Y-107272438D01*
X144715476Y-107272438D02*
X144763095Y-107320057D01*
X144763095Y-107320057D02*
X144810714Y-107415295D01*
X144810714Y-107415295D02*
X144810714Y-107462914D01*
X144810714Y-107462914D02*
X144763095Y-107558152D01*
X144763095Y-107558152D02*
X144715476Y-107605771D01*
X144715476Y-107605771D02*
X144620238Y-107653390D01*
X144620238Y-107653390D02*
X144429762Y-107653390D01*
X144429762Y-107653390D02*
X144334524Y-107701009D01*
X144334524Y-107701009D02*
X144286905Y-107748628D01*
X144286905Y-107748628D02*
X144239286Y-107843866D01*
X144239286Y-107843866D02*
X144239286Y-108034342D01*
X144239286Y-108034342D02*
X144286905Y-108129580D01*
X144286905Y-108129580D02*
X144334524Y-108177200D01*
X144334524Y-108177200D02*
X144429762Y-108224819D01*
X144429762Y-108224819D02*
X144620238Y-108224819D01*
X144620238Y-108224819D02*
X144715476Y-108177200D01*
X144715476Y-108177200D02*
X144763095Y-108129580D01*
X144763095Y-108129580D02*
X144810714Y-108034342D01*
X144810714Y-108034342D02*
X144810714Y-107843866D01*
X144810714Y-107843866D02*
X144763095Y-107748628D01*
X144763095Y-107748628D02*
X144715476Y-107701009D01*
X144715476Y-107701009D02*
X144620238Y-107653390D01*
X119189580Y-76442857D02*
X119237200Y-76490476D01*
X119237200Y-76490476D02*
X119284819Y-76633333D01*
X119284819Y-76633333D02*
X119284819Y-76728571D01*
X119284819Y-76728571D02*
X119237200Y-76871428D01*
X119237200Y-76871428D02*
X119141961Y-76966666D01*
X119141961Y-76966666D02*
X119046723Y-77014285D01*
X119046723Y-77014285D02*
X118856247Y-77061904D01*
X118856247Y-77061904D02*
X118713390Y-77061904D01*
X118713390Y-77061904D02*
X118522914Y-77014285D01*
X118522914Y-77014285D02*
X118427676Y-76966666D01*
X118427676Y-76966666D02*
X118332438Y-76871428D01*
X118332438Y-76871428D02*
X118284819Y-76728571D01*
X118284819Y-76728571D02*
X118284819Y-76633333D01*
X118284819Y-76633333D02*
X118332438Y-76490476D01*
X118332438Y-76490476D02*
X118380057Y-76442857D01*
X119284819Y-75490476D02*
X119284819Y-76061904D01*
X119284819Y-75776190D02*
X118284819Y-75776190D01*
X118284819Y-75776190D02*
X118427676Y-75871428D01*
X118427676Y-75871428D02*
X118522914Y-75966666D01*
X118522914Y-75966666D02*
X118570533Y-76061904D01*
X119284819Y-75014285D02*
X119284819Y-74823809D01*
X119284819Y-74823809D02*
X119237200Y-74728571D01*
X119237200Y-74728571D02*
X119189580Y-74680952D01*
X119189580Y-74680952D02*
X119046723Y-74585714D01*
X119046723Y-74585714D02*
X118856247Y-74538095D01*
X118856247Y-74538095D02*
X118475295Y-74538095D01*
X118475295Y-74538095D02*
X118380057Y-74585714D01*
X118380057Y-74585714D02*
X118332438Y-74633333D01*
X118332438Y-74633333D02*
X118284819Y-74728571D01*
X118284819Y-74728571D02*
X118284819Y-74919047D01*
X118284819Y-74919047D02*
X118332438Y-75014285D01*
X118332438Y-75014285D02*
X118380057Y-75061904D01*
X118380057Y-75061904D02*
X118475295Y-75109523D01*
X118475295Y-75109523D02*
X118713390Y-75109523D01*
X118713390Y-75109523D02*
X118808628Y-75061904D01*
X118808628Y-75061904D02*
X118856247Y-75014285D01*
X118856247Y-75014285D02*
X118903866Y-74919047D01*
X118903866Y-74919047D02*
X118903866Y-74728571D01*
X118903866Y-74728571D02*
X118856247Y-74633333D01*
X118856247Y-74633333D02*
X118808628Y-74585714D01*
X118808628Y-74585714D02*
X118713390Y-74538095D01*
X129189580Y-76417857D02*
X129237200Y-76465476D01*
X129237200Y-76465476D02*
X129284819Y-76608333D01*
X129284819Y-76608333D02*
X129284819Y-76703571D01*
X129284819Y-76703571D02*
X129237200Y-76846428D01*
X129237200Y-76846428D02*
X129141961Y-76941666D01*
X129141961Y-76941666D02*
X129046723Y-76989285D01*
X129046723Y-76989285D02*
X128856247Y-77036904D01*
X128856247Y-77036904D02*
X128713390Y-77036904D01*
X128713390Y-77036904D02*
X128522914Y-76989285D01*
X128522914Y-76989285D02*
X128427676Y-76941666D01*
X128427676Y-76941666D02*
X128332438Y-76846428D01*
X128332438Y-76846428D02*
X128284819Y-76703571D01*
X128284819Y-76703571D02*
X128284819Y-76608333D01*
X128284819Y-76608333D02*
X128332438Y-76465476D01*
X128332438Y-76465476D02*
X128380057Y-76417857D01*
X129284819Y-75465476D02*
X129284819Y-76036904D01*
X129284819Y-75751190D02*
X128284819Y-75751190D01*
X128284819Y-75751190D02*
X128427676Y-75846428D01*
X128427676Y-75846428D02*
X128522914Y-75941666D01*
X128522914Y-75941666D02*
X128570533Y-76036904D01*
X128284819Y-75132142D02*
X128284819Y-74465476D01*
X128284819Y-74465476D02*
X129284819Y-74894047D01*
X150979166Y-96561009D02*
X150645833Y-96561009D01*
X150645833Y-97084819D02*
X150645833Y-96084819D01*
X150645833Y-96084819D02*
X151122023Y-96084819D01*
X151836309Y-96561009D02*
X151979166Y-96608628D01*
X151979166Y-96608628D02*
X152026785Y-96656247D01*
X152026785Y-96656247D02*
X152074404Y-96751485D01*
X152074404Y-96751485D02*
X152074404Y-96894342D01*
X152074404Y-96894342D02*
X152026785Y-96989580D01*
X152026785Y-96989580D02*
X151979166Y-97037200D01*
X151979166Y-97037200D02*
X151883928Y-97084819D01*
X151883928Y-97084819D02*
X151502976Y-97084819D01*
X151502976Y-97084819D02*
X151502976Y-96084819D01*
X151502976Y-96084819D02*
X151836309Y-96084819D01*
X151836309Y-96084819D02*
X151931547Y-96132438D01*
X151931547Y-96132438D02*
X151979166Y-96180057D01*
X151979166Y-96180057D02*
X152026785Y-96275295D01*
X152026785Y-96275295D02*
X152026785Y-96370533D01*
X152026785Y-96370533D02*
X151979166Y-96465771D01*
X151979166Y-96465771D02*
X151931547Y-96513390D01*
X151931547Y-96513390D02*
X151836309Y-96561009D01*
X151836309Y-96561009D02*
X151502976Y-96561009D01*
X153026785Y-97084819D02*
X152455357Y-97084819D01*
X152741071Y-97084819D02*
X152741071Y-96084819D01*
X152741071Y-96084819D02*
X152645833Y-96227676D01*
X152645833Y-96227676D02*
X152550595Y-96322914D01*
X152550595Y-96322914D02*
X152455357Y-96370533D01*
X135928571Y-117281009D02*
X135595238Y-117281009D01*
X135595238Y-117804819D02*
X135595238Y-116804819D01*
X135595238Y-116804819D02*
X136071428Y-116804819D01*
X136452381Y-117804819D02*
X136452381Y-116804819D01*
X136928571Y-117804819D02*
X136928571Y-116804819D01*
X136928571Y-116804819D02*
X137166666Y-116804819D01*
X137166666Y-116804819D02*
X137309523Y-116852438D01*
X137309523Y-116852438D02*
X137404761Y-116947676D01*
X137404761Y-116947676D02*
X137452380Y-117042914D01*
X137452380Y-117042914D02*
X137499999Y-117233390D01*
X137499999Y-117233390D02*
X137499999Y-117376247D01*
X137499999Y-117376247D02*
X137452380Y-117566723D01*
X137452380Y-117566723D02*
X137404761Y-117661961D01*
X137404761Y-117661961D02*
X137309523Y-117757200D01*
X137309523Y-117757200D02*
X137166666Y-117804819D01*
X137166666Y-117804819D02*
X136928571Y-117804819D01*
X137833333Y-116804819D02*
X138452380Y-116804819D01*
X138452380Y-116804819D02*
X138119047Y-117185771D01*
X138119047Y-117185771D02*
X138261904Y-117185771D01*
X138261904Y-117185771D02*
X138357142Y-117233390D01*
X138357142Y-117233390D02*
X138404761Y-117281009D01*
X138404761Y-117281009D02*
X138452380Y-117376247D01*
X138452380Y-117376247D02*
X138452380Y-117614342D01*
X138452380Y-117614342D02*
X138404761Y-117709580D01*
X138404761Y-117709580D02*
X138357142Y-117757200D01*
X138357142Y-117757200D02*
X138261904Y-117804819D01*
X138261904Y-117804819D02*
X137976190Y-117804819D01*
X137976190Y-117804819D02*
X137880952Y-117757200D01*
X137880952Y-117757200D02*
X137833333Y-117709580D01*
X129608333Y-112624819D02*
X129275000Y-112148628D01*
X129036905Y-112624819D02*
X129036905Y-111624819D01*
X129036905Y-111624819D02*
X129417857Y-111624819D01*
X129417857Y-111624819D02*
X129513095Y-111672438D01*
X129513095Y-111672438D02*
X129560714Y-111720057D01*
X129560714Y-111720057D02*
X129608333Y-111815295D01*
X129608333Y-111815295D02*
X129608333Y-111958152D01*
X129608333Y-111958152D02*
X129560714Y-112053390D01*
X129560714Y-112053390D02*
X129513095Y-112101009D01*
X129513095Y-112101009D02*
X129417857Y-112148628D01*
X129417857Y-112148628D02*
X129036905Y-112148628D01*
X130560714Y-112624819D02*
X129989286Y-112624819D01*
X130275000Y-112624819D02*
X130275000Y-111624819D01*
X130275000Y-111624819D02*
X130179762Y-111767676D01*
X130179762Y-111767676D02*
X130084524Y-111862914D01*
X130084524Y-111862914D02*
X129989286Y-111910533D01*
X151658333Y-85589580D02*
X151610714Y-85637200D01*
X151610714Y-85637200D02*
X151467857Y-85684819D01*
X151467857Y-85684819D02*
X151372619Y-85684819D01*
X151372619Y-85684819D02*
X151229762Y-85637200D01*
X151229762Y-85637200D02*
X151134524Y-85541961D01*
X151134524Y-85541961D02*
X151086905Y-85446723D01*
X151086905Y-85446723D02*
X151039286Y-85256247D01*
X151039286Y-85256247D02*
X151039286Y-85113390D01*
X151039286Y-85113390D02*
X151086905Y-84922914D01*
X151086905Y-84922914D02*
X151134524Y-84827676D01*
X151134524Y-84827676D02*
X151229762Y-84732438D01*
X151229762Y-84732438D02*
X151372619Y-84684819D01*
X151372619Y-84684819D02*
X151467857Y-84684819D01*
X151467857Y-84684819D02*
X151610714Y-84732438D01*
X151610714Y-84732438D02*
X151658333Y-84780057D01*
X152134524Y-85684819D02*
X152325000Y-85684819D01*
X152325000Y-85684819D02*
X152420238Y-85637200D01*
X152420238Y-85637200D02*
X152467857Y-85589580D01*
X152467857Y-85589580D02*
X152563095Y-85446723D01*
X152563095Y-85446723D02*
X152610714Y-85256247D01*
X152610714Y-85256247D02*
X152610714Y-84875295D01*
X152610714Y-84875295D02*
X152563095Y-84780057D01*
X152563095Y-84780057D02*
X152515476Y-84732438D01*
X152515476Y-84732438D02*
X152420238Y-84684819D01*
X152420238Y-84684819D02*
X152229762Y-84684819D01*
X152229762Y-84684819D02*
X152134524Y-84732438D01*
X152134524Y-84732438D02*
X152086905Y-84780057D01*
X152086905Y-84780057D02*
X152039286Y-84875295D01*
X152039286Y-84875295D02*
X152039286Y-85113390D01*
X152039286Y-85113390D02*
X152086905Y-85208628D01*
X152086905Y-85208628D02*
X152134524Y-85256247D01*
X152134524Y-85256247D02*
X152229762Y-85303866D01*
X152229762Y-85303866D02*
X152420238Y-85303866D01*
X152420238Y-85303866D02*
X152515476Y-85256247D01*
X152515476Y-85256247D02*
X152563095Y-85208628D01*
X152563095Y-85208628D02*
X152610714Y-85113390D01*
X146982142Y-81329580D02*
X146934523Y-81377200D01*
X146934523Y-81377200D02*
X146791666Y-81424819D01*
X146791666Y-81424819D02*
X146696428Y-81424819D01*
X146696428Y-81424819D02*
X146553571Y-81377200D01*
X146553571Y-81377200D02*
X146458333Y-81281961D01*
X146458333Y-81281961D02*
X146410714Y-81186723D01*
X146410714Y-81186723D02*
X146363095Y-80996247D01*
X146363095Y-80996247D02*
X146363095Y-80853390D01*
X146363095Y-80853390D02*
X146410714Y-80662914D01*
X146410714Y-80662914D02*
X146458333Y-80567676D01*
X146458333Y-80567676D02*
X146553571Y-80472438D01*
X146553571Y-80472438D02*
X146696428Y-80424819D01*
X146696428Y-80424819D02*
X146791666Y-80424819D01*
X146791666Y-80424819D02*
X146934523Y-80472438D01*
X146934523Y-80472438D02*
X146982142Y-80520057D01*
X147934523Y-81424819D02*
X147363095Y-81424819D01*
X147648809Y-81424819D02*
X147648809Y-80424819D01*
X147648809Y-80424819D02*
X147553571Y-80567676D01*
X147553571Y-80567676D02*
X147458333Y-80662914D01*
X147458333Y-80662914D02*
X147363095Y-80710533D01*
X148315476Y-80520057D02*
X148363095Y-80472438D01*
X148363095Y-80472438D02*
X148458333Y-80424819D01*
X148458333Y-80424819D02*
X148696428Y-80424819D01*
X148696428Y-80424819D02*
X148791666Y-80472438D01*
X148791666Y-80472438D02*
X148839285Y-80520057D01*
X148839285Y-80520057D02*
X148886904Y-80615295D01*
X148886904Y-80615295D02*
X148886904Y-80710533D01*
X148886904Y-80710533D02*
X148839285Y-80853390D01*
X148839285Y-80853390D02*
X148267857Y-81424819D01*
X148267857Y-81424819D02*
X148886904Y-81424819D01*
X146734819Y-113933333D02*
X147449104Y-113933333D01*
X147449104Y-113933333D02*
X147591961Y-113980952D01*
X147591961Y-113980952D02*
X147687200Y-114076190D01*
X147687200Y-114076190D02*
X147734819Y-114219047D01*
X147734819Y-114219047D02*
X147734819Y-114314285D01*
X147734819Y-112933333D02*
X147734819Y-113504761D01*
X147734819Y-113219047D02*
X146734819Y-113219047D01*
X146734819Y-113219047D02*
X146877676Y-113314285D01*
X146877676Y-113314285D02*
X146972914Y-113409523D01*
X146972914Y-113409523D02*
X147020533Y-113504761D01*
X151238095Y-119654819D02*
X151238095Y-118654819D01*
X151238095Y-119131009D02*
X151809523Y-119131009D01*
X151809523Y-119654819D02*
X151809523Y-118654819D01*
X152238095Y-118750057D02*
X152285714Y-118702438D01*
X152285714Y-118702438D02*
X152380952Y-118654819D01*
X152380952Y-118654819D02*
X152619047Y-118654819D01*
X152619047Y-118654819D02*
X152714285Y-118702438D01*
X152714285Y-118702438D02*
X152761904Y-118750057D01*
X152761904Y-118750057D02*
X152809523Y-118845295D01*
X152809523Y-118845295D02*
X152809523Y-118940533D01*
X152809523Y-118940533D02*
X152761904Y-119083390D01*
X152761904Y-119083390D02*
X152190476Y-119654819D01*
X152190476Y-119654819D02*
X152809523Y-119654819D01*
X120238095Y-71454819D02*
X120238095Y-70454819D01*
X120238095Y-70931009D02*
X120809523Y-70931009D01*
X120809523Y-71454819D02*
X120809523Y-70454819D01*
X121714285Y-70788152D02*
X121714285Y-71454819D01*
X121476190Y-70407200D02*
X121238095Y-71121485D01*
X121238095Y-71121485D02*
X121857142Y-71121485D01*
X134833333Y-97159580D02*
X134785714Y-97207200D01*
X134785714Y-97207200D02*
X134642857Y-97254819D01*
X134642857Y-97254819D02*
X134547619Y-97254819D01*
X134547619Y-97254819D02*
X134404762Y-97207200D01*
X134404762Y-97207200D02*
X134309524Y-97111961D01*
X134309524Y-97111961D02*
X134261905Y-97016723D01*
X134261905Y-97016723D02*
X134214286Y-96826247D01*
X134214286Y-96826247D02*
X134214286Y-96683390D01*
X134214286Y-96683390D02*
X134261905Y-96492914D01*
X134261905Y-96492914D02*
X134309524Y-96397676D01*
X134309524Y-96397676D02*
X134404762Y-96302438D01*
X134404762Y-96302438D02*
X134547619Y-96254819D01*
X134547619Y-96254819D02*
X134642857Y-96254819D01*
X134642857Y-96254819D02*
X134785714Y-96302438D01*
X134785714Y-96302438D02*
X134833333Y-96350057D01*
X135690476Y-96588152D02*
X135690476Y-97254819D01*
X135452381Y-96207200D02*
X135214286Y-96921485D01*
X135214286Y-96921485D02*
X135833333Y-96921485D01*
D12*
%TO.C,C7*%
X143884420Y-105290000D02*
X144165580Y-105290000D01*
X143884420Y-106310000D02*
X144165580Y-106310000D01*
%TO.C,U2*%
X140750000Y-96190000D02*
X144510000Y-96190000D01*
X140750000Y-103010000D02*
X144510000Y-103010000D01*
X144510000Y-96190000D02*
X144510000Y-97450000D01*
X144510000Y-103010000D02*
X144510000Y-101750000D01*
X139470000Y-96290000D02*
X139230000Y-95960000D01*
X139710000Y-95960000D01*
X139470000Y-96290000D01*
G36*
X139470000Y-96290000D02*
G01*
X139230000Y-95960000D01*
X139710000Y-95960000D01*
X139470000Y-96290000D01*
G37*
%TO.C,C14*%
X131949420Y-72310000D02*
X132230580Y-72310000D01*
X131949420Y-73330000D02*
X132230580Y-73330000D01*
%TO.C,C13*%
X143165580Y-76490000D02*
X142884420Y-76490000D01*
X143165580Y-77510000D02*
X142884420Y-77510000D01*
%TO.C,R2*%
X151537742Y-99077500D02*
X152012258Y-99077500D01*
X151537742Y-100122500D02*
X152012258Y-100122500D01*
%TO.C,C16*%
X131784420Y-77710000D02*
X132065580Y-77710000D01*
X131784420Y-78730000D02*
X132065580Y-78730000D01*
%TO.C,SW1*%
X116650000Y-84700000D02*
X116650000Y-86200000D01*
X117900000Y-88700000D02*
X122400000Y-88700000D01*
X122400000Y-82200000D02*
X117900000Y-82200000D01*
X123650000Y-86200000D02*
X123650000Y-84700000D01*
%TO.C,R3*%
X123077500Y-92062258D02*
X123077500Y-91587742D01*
X124122500Y-92062258D02*
X124122500Y-91587742D01*
%TO.C,C15*%
X131949420Y-74820000D02*
X132230580Y-74820000D01*
X131949420Y-75840000D02*
X132230580Y-75840000D01*
%TO.C,R4*%
X148462258Y-83477500D02*
X147987742Y-83477500D01*
X148462258Y-84522500D02*
X147987742Y-84522500D01*
%TO.C,J2*%
X126420000Y-79220000D02*
X127800000Y-79220000D01*
X126420000Y-80600000D02*
X126420000Y-79220000D01*
X126420000Y-81870000D02*
X126420000Y-94680000D01*
X126420000Y-81870000D02*
X129180000Y-81870000D01*
X126420000Y-94680000D02*
X129180000Y-94680000D01*
X129180000Y-81870000D02*
X129180000Y-94680000D01*
%TO.C,U1*%
X130340000Y-103690000D02*
X130340000Y-104950000D01*
X130340000Y-110510000D02*
X130340000Y-109250000D01*
X134100000Y-103690000D02*
X130340000Y-103690000D01*
X134100000Y-110510000D02*
X130340000Y-110510000D01*
X135620000Y-110740000D02*
X135140000Y-110740000D01*
X135380000Y-110410000D01*
X135620000Y-110740000D01*
G36*
X135620000Y-110740000D02*
G01*
X135140000Y-110740000D01*
X135380000Y-110410000D01*
X135620000Y-110740000D01*
G37*
%TO.C,Y1*%
X145790000Y-74990000D02*
X145790000Y-79010000D01*
X145790000Y-79010000D02*
X152460000Y-79010000D01*
X152460000Y-74990000D02*
X145790000Y-74990000D01*
%TO.C,C2*%
X131084420Y-100990000D02*
X131365580Y-100990000D01*
X131084420Y-102010000D02*
X131365580Y-102010000D01*
%TO.C,C10*%
X151965580Y-86090000D02*
X151684420Y-86090000D01*
X151965580Y-87110000D02*
X151684420Y-87110000D01*
%TO.C,C11*%
X148484420Y-86090000D02*
X148765580Y-86090000D01*
X148484420Y-87110000D02*
X148765580Y-87110000D01*
%TO.C,D2*%
X150315000Y-103865000D02*
X150315000Y-105335000D01*
X150315000Y-105335000D02*
X152600000Y-105335000D01*
X152600000Y-103865000D02*
X150315000Y-103865000D01*
%TO.C,C1*%
X131084420Y-97790000D02*
X131365580Y-97790000D01*
X131084420Y-98810000D02*
X131365580Y-98810000D01*
%TO.C,C18*%
X121890000Y-75634420D02*
X121890000Y-75915580D01*
X122910000Y-75634420D02*
X122910000Y-75915580D01*
%TO.C,C20*%
X119684420Y-91290000D02*
X119965580Y-91290000D01*
X119684420Y-92310000D02*
X119965580Y-92310000D01*
%TO.C,D1*%
X134212500Y-114335000D02*
X136497500Y-114335000D01*
X136497500Y-112865000D02*
X134212500Y-112865000D01*
X136497500Y-114335000D02*
X136497500Y-112865000D01*
%TO.C,C5*%
X139484420Y-105290000D02*
X139765580Y-105290000D01*
X139484420Y-106310000D02*
X139765580Y-106310000D01*
%TO.C,D3*%
X139290000Y-111950000D02*
X139290000Y-115250000D01*
X139290000Y-111950000D02*
X144800000Y-111950000D01*
X139290000Y-115250000D02*
X144800000Y-115250000D01*
%TO.C,C3*%
X135165580Y-101090000D02*
X134884420Y-101090000D01*
X135165580Y-102110000D02*
X134884420Y-102110000D01*
%TO.C,C6*%
X139284420Y-108890000D02*
X139565580Y-108890000D01*
X139284420Y-109910000D02*
X139565580Y-109910000D01*
%TO.C,U3*%
X133490000Y-82427500D02*
X134065000Y-82427500D01*
X133490000Y-83002500D02*
X133490000Y-82427500D01*
X133490000Y-92647500D02*
X133490000Y-92072500D01*
X134065000Y-92647500D02*
X133490000Y-92647500D01*
X143135000Y-82427500D02*
X143710000Y-82427500D01*
X143710000Y-82427500D02*
X143710000Y-83002500D01*
X143710000Y-92072500D02*
X143710000Y-92647500D01*
X143710000Y-92647500D02*
X143135000Y-92647500D01*
X132850000Y-82997500D02*
X132510000Y-82527500D01*
X133190000Y-82527500D01*
X132850000Y-82997500D01*
G36*
X132850000Y-82997500D02*
G01*
X132510000Y-82527500D01*
X133190000Y-82527500D01*
X132850000Y-82997500D01*
G37*
%TO.C,C8*%
X143884420Y-108690000D02*
X144165580Y-108690000D01*
X143884420Y-109710000D02*
X144165580Y-109710000D01*
%TO.C,C19*%
X116890000Y-75659420D02*
X116890000Y-75940580D01*
X117910000Y-75659420D02*
X117910000Y-75940580D01*
%TO.C,C17*%
X126890000Y-75634420D02*
X126890000Y-75915580D01*
X127910000Y-75634420D02*
X127910000Y-75915580D01*
%TO.C,FB1*%
X151975279Y-94690000D02*
X151649721Y-94690000D01*
X151975279Y-95710000D02*
X151649721Y-95710000D01*
%TO.C,R1*%
X129537742Y-113077500D02*
X130012258Y-113077500D01*
X129537742Y-114122500D02*
X130012258Y-114122500D01*
%TO.C,C9*%
X151965580Y-83290000D02*
X151684420Y-83290000D01*
X151965580Y-84310000D02*
X151684420Y-84310000D01*
%TO.C,C12*%
X147484420Y-81890000D02*
X147765580Y-81890000D01*
X147484420Y-82910000D02*
X147765580Y-82910000D01*
%TO.C,J1*%
X148280000Y-114980000D02*
X148280000Y-113600000D01*
X149660000Y-114980000D02*
X148280000Y-114980000D01*
X150930000Y-112220000D02*
X156120000Y-112220000D01*
X150930000Y-114980000D02*
X150930000Y-112220000D01*
X150930000Y-114980000D02*
X156120000Y-114980000D01*
X156120000Y-114980000D02*
X156120000Y-112220000D01*
%TO.C,C4*%
X135165580Y-97890000D02*
X134884420Y-97890000D01*
X135165580Y-98910000D02*
X134884420Y-98910000D01*
%TD*%
M02*
